<svg width="41" height="41" viewBox="0 0 41 41" fill="none" xmlns="http://www.w3.org/2000/svg">
<path d="M18.7656 2.14844C16.3984 2.51562 14.5469 3.67188 13.7656 5.25781C13.3281 6.15625 13.2344 6.80469 13.2812 8.58594C13.2969 9.49219 13.375 10.4766 13.4531 10.9844C13.5938 11.8516 13.5938 11.8516 13.4297 12.0156C12.8516 12.5938 13.3906 14.8047 14.2891 15.5703C14.4766 15.7266 14.6797 15.9062 14.75 15.9609C14.8281 16.0312 14.8906 16.2656 14.9297 16.5938C15 17.2656 15.0547 17.4141 15.5625 18.1641C16.2188 19.125 16.2031 19.5312 15.5156 19.5312C14.9609 19.5312 14.7656 19.7031 14.2578 20.6562C13.8047 21.4844 13.5391 21.6953 12.2891 22.1797C10.375 22.9219 7.82031 24.0312 7.0625 24.4531C6.17969 24.9375 5.51562 25.4531 5.15625 25.9219C4.74219 26.4609 4.65625 26.8906 4.65625 28.3984V29.7266L4.96875 30.0078C5.92969 30.8672 9.51562 31.6094 14.4297 31.9531C15.0547 31.9922 15.7109 32.0312 15.8906 32.0312H16.2188L15.9531 31.4766C15.6016 30.7344 15.4766 29.9844 15.5938 29.2656C15.6875 28.6875 16.0859 27.7734 16.4062 27.4141C16.6953 27.0938 17.4219 26.5234 17.6797 26.4219C17.8672 26.3438 17.9375 26.25 18.0078 25.9609C18.1406 25.4766 18.6406 24.9688 19.1172 24.8438C19.6797 24.6953 21.0391 24.7734 21.4375 24.9844C21.8203 25.1797 22.1406 25.5703 22.25 25.9688C22.3125 26.2031 22.3984 26.2812 22.8281 26.4922C23.9062 27.0234 24.6562 27.8203 24.7266 28.5C24.7812 29.0703 24.6328 29.3984 24.0234 30.0938L23.4766 30.7109L23.8672 31.0547C24.0781 31.2422 24.3281 31.5234 24.4375 31.6719C24.6641 32.0078 24.6406 32.0078 26.6172 31.8359C29.5156 31.5859 32.0547 31.1875 33.6016 30.7344C34.4453 30.4922 35.3203 30.0625 35.4844 29.8203C35.6562 29.5547 35.6562 27.2344 35.4844 26.6641C35.25 25.8828 34.5391 25.1875 33.2109 24.4531C32.4375 24.0234 29.875 22.9062 28.0078 22.1875C27.4219 21.9609 26.8203 21.6797 26.6719 21.5547C26.5156 21.4297 26.2344 21.0391 26.0391 20.6797C25.4922 19.6953 25.3047 19.5312 24.75 19.5312C24.0547 19.5312 24.0469 19.125 24.7188 18.1484C25.1406 17.5234 25.3672 16.9453 25.3672 16.4688C25.3672 16.1719 25.5 15.8594 25.625 15.8594C25.8047 15.8594 26.4609 15.1016 26.6641 14.6562C26.8828 14.1719 27.0859 13.3125 27.0859 12.8281C27.0859 12.4531 26.9062 11.9531 26.7656 11.9531C26.6641 11.9531 26.6719 11.9297 26.8906 10.3125C27.1406 8.46875 27.0234 6.46094 26.6094 5.49219C25.5859 3.10938 22.0938 1.61719 18.7656 2.14844Z" fill="#E9021E"/>
<path d="M19.3281 26.1064C19.2422 26.1767 19.1953 26.3564 19.1797 26.7001L19.1562 27.1923L18.7031 27.3486C17.8594 27.6298 17.2969 28.1142 16.9844 28.8173C16.7344 29.372 16.7578 30.2861 17.0312 30.8798C17.4141 31.7079 18.3437 32.3954 19.8047 32.9189C20.8906 33.3017 21.2266 33.5517 21.2266 33.9423C21.2266 34.2861 20.9922 34.5595 20.6016 34.6767C19.9922 34.8564 19.2578 34.6064 18.4453 33.9423C18.2031 33.747 17.9531 33.5907 17.8828 33.5907C17.7031 33.5986 16.3828 34.8486 16.3828 35.0204C16.3828 35.2236 17.1719 35.9657 17.7656 36.3173C18.0547 36.4892 18.5 36.6923 18.75 36.7704L19.1953 36.9032V37.4657C19.1953 37.9032 19.2187 38.0361 19.3203 38.0751C19.5469 38.1611 20.875 38.1298 20.9766 38.0282C21.0312 37.9736 21.0703 37.7157 21.0703 37.4032C21.0703 36.9032 21.0781 36.872 21.25 36.872C21.5234 36.8642 22.2734 36.5282 22.6953 36.2236C24.0781 35.2079 24.2734 33.0282 23.0781 31.9814C22.6797 31.6298 21.7812 31.2001 20.6484 30.8095C19.6484 30.4657 19.3359 30.2392 19.3672 29.8954C19.3984 29.5907 19.7031 29.3642 20.1562 29.3173C20.5625 29.2704 21.1406 29.497 21.6484 29.9111C21.8125 30.0439 22.0312 30.1532 22.125 30.1532C22.3516 30.1532 23.4922 28.9111 23.4922 28.6611C23.4922 28.2939 22.4766 27.5907 21.5234 27.2939L21.0703 27.1532V26.7079C21.0703 26.0751 20.9844 26.0126 20.1406 26.0126C19.7187 26.0126 19.4141 26.0517 19.3281 26.1064Z" fill="#E9021E"/>
</svg>
