<svg width="25" height="29" viewBox="0 0 25 29" fill="none" xmlns="http://www.w3.org/2000/svg">
<path d="M11.6345 0.445536C9.8057 0.729204 8.37529 1.62246 7.77175 2.84766C7.43376 3.54174 7.36133 4.04268 7.39755 5.41877C7.40962 6.11889 7.46997 6.87936 7.53033 7.27167C7.63896 7.9416 7.63896 7.9416 7.51222 8.06835C7.06559 8.51497 7.48204 10.223 8.17612 10.8145C8.32097 10.9352 8.4779 11.074 8.53222 11.1163C8.59257 11.1706 8.64085 11.3517 8.67103 11.6051C8.72535 12.1242 8.7676 12.2389 9.15991 12.8183C9.66689 13.5606 9.65482 13.8745 9.12369 13.8745C8.69517 13.8745 8.54429 14.0073 8.15198 14.7436C7.80192 15.3834 7.59672 15.5463 6.63104 15.9205C5.15235 16.4939 3.17874 17.3509 2.5933 17.6768C1.91129 18.051 1.39828 18.4494 1.12065 18.8115C0.800765 19.228 0.734375 19.5599 0.734375 20.7248V21.7508L0.975794 21.9681C1.71816 22.632 4.48844 23.2053 8.28476 23.4709C8.7676 23.5011 9.27458 23.5312 9.4134 23.5312H9.66689L9.46168 23.1027C9.19008 22.5294 9.09352 21.95 9.18405 21.3947C9.25647 20.9481 9.56428 20.2419 9.81174 19.9643C10.0351 19.7168 10.5964 19.2762 10.7955 19.1978C10.9404 19.1374 10.9947 19.065 11.049 18.8417C11.1516 18.4675 11.5379 18.0752 11.906 17.9786C12.3406 17.8639 13.3908 17.9243 13.6986 18.0872C13.9943 18.2381 14.2418 18.5399 14.3263 18.8477C14.3746 19.0288 14.441 19.0891 14.7729 19.2521C15.6058 19.6625 16.1852 20.2781 16.2395 20.8032C16.2818 21.2438 16.1671 21.4973 15.6963 22.0345L15.2738 22.5113L15.5756 22.7768C15.7386 22.9217 15.9317 23.1389 16.0162 23.2536C16.1912 23.5131 16.1731 23.5131 17.7001 23.3804C19.9393 23.1872 21.9008 22.8794 23.0958 22.5294C23.7477 22.3423 24.4236 22.0103 24.5504 21.8232C24.6832 21.618 24.6832 19.8255 24.5504 19.3849C24.3693 18.7813 23.8201 18.2442 22.7941 17.6768C22.1965 17.3449 20.2169 16.4818 18.7744 15.9265C18.3218 15.7515 17.857 15.5342 17.7424 15.4377C17.6217 15.3411 17.4044 15.0393 17.2535 14.7617C16.831 14.0012 16.6862 13.8745 16.2576 13.8745C15.7205 13.8745 15.7144 13.5606 16.2335 12.8062C16.5594 12.3234 16.7344 11.8767 16.7344 11.5086C16.7344 11.2792 16.837 11.0378 16.9336 11.0378C17.0724 11.0378 17.5794 10.4524 17.7363 10.1083C17.9053 9.73414 18.0622 9.07024 18.0622 8.69604C18.0622 8.40634 17.9234 8.02006 17.8148 8.02006C17.7363 8.02006 17.7424 8.00196 17.9114 6.75261C18.1045 5.32824 18.014 3.77712 17.6941 3.02872C16.9034 1.1879 14.2056 0.0351238 11.6345 0.445536Z" fill="white"/>
<path d="M12.0683 18.9573C12.002 19.0116 11.9657 19.1504 11.9537 19.416L11.9356 19.7962L11.5855 19.9169C10.9337 20.1342 10.4991 20.5084 10.2577 21.0516C10.0646 21.4801 10.0827 22.1863 10.2939 22.645C10.5897 23.2847 11.3079 23.8159 12.4365 24.2202C13.2754 24.516 13.535 24.7091 13.535 25.0109C13.535 25.2764 13.3539 25.4877 13.0521 25.5782C12.5814 25.717 12.014 25.5239 11.3863 25.0109C11.1992 24.86 11.0061 24.7393 10.9518 24.7393C10.813 24.7453 9.79297 25.711 9.79297 25.8438C9.79297 26.0007 10.4026 26.5741 10.8612 26.8457C11.0846 26.9785 11.4286 27.1354 11.6217 27.1957L11.9657 27.2983V27.7329C11.9657 28.0709 11.9838 28.1735 12.0623 28.2037C12.2373 28.27 13.2634 28.2459 13.3418 28.1674C13.3841 28.1252 13.4143 27.926 13.4143 27.6846C13.4143 27.2983 13.4203 27.2742 13.5531 27.2742C13.7643 27.2682 14.3437 27.0086 14.6696 26.7732C15.7379 25.9886 15.8888 24.3047 14.9654 23.496C14.6576 23.2244 13.9635 22.8924 13.0883 22.5907C12.3158 22.3251 12.0744 22.1501 12.0985 21.8845C12.1227 21.6491 12.358 21.4741 12.7081 21.4379C13.022 21.4017 13.4686 21.5767 13.8609 21.8966C13.9876 21.9992 14.1566 22.0837 14.229 22.0837C14.4041 22.0837 15.2853 21.124 15.2853 20.9309C15.2853 20.6472 14.5006 20.104 13.7643 19.8747L13.4143 19.7661V19.422C13.4143 18.9332 13.3479 18.8849 12.696 18.8849C12.3701 18.8849 12.1347 18.9151 12.0683 18.9573Z" fill="white"/>
</svg>
