<svg width="41" height="36" viewBox="0 0 41 36" fill="none" xmlns="http://www.w3.org/2000/svg">
<path d="M10.9453 7.25L8.90625 13.0781H31.8594L29.8203 7.25C29.4688 6.25 28.5234 5.57812 27.4609 5.57812H13.3047C12.2422 5.57812 11.2969 6.25 10.9453 7.25ZM3.47656 13.4531L6.22656 5.60156C7.28125 2.59375 10.1172 0.578125 13.3047 0.578125H27.4609C30.6484 0.578125 33.4844 2.59375 34.5391 5.60156L37.2891 13.4531C39.1016 14.2031 40.3828 15.9922 40.3828 18.0781V33.0781C40.3828 34.4609 39.2656 35.5781 37.8828 35.5781H35.3828C34 35.5781 32.8828 34.4609 32.8828 33.0781V30.5781H7.88281V33.0781C7.88281 34.4609 6.76562 35.5781 5.38281 35.5781H2.88281C1.5 35.5781 0.382812 34.4609 0.382812 33.0781V18.0781C0.382812 15.9922 1.66406 14.2031 3.47656 13.4531ZM10.3828 21.8281C10.3828 21.1651 10.1194 20.5292 9.65058 20.0604C9.18174 19.5915 8.54585 19.3281 7.88281 19.3281C7.21977 19.3281 6.58389 19.5915 6.11505 20.0604C5.6462 20.5292 5.38281 21.1651 5.38281 21.8281C5.38281 22.4912 5.6462 23.1271 6.11505 23.5959C6.58389 24.0647 7.21977 24.3281 7.88281 24.3281C8.54585 24.3281 9.18174 24.0647 9.65058 23.5959C10.1194 23.1271 10.3828 22.4912 10.3828 21.8281ZM32.8828 24.3281C33.5459 24.3281 34.1817 24.0647 34.6506 23.5959C35.1194 23.1271 35.3828 22.4912 35.3828 21.8281C35.3828 21.1651 35.1194 20.5292 34.6506 20.0604C34.1817 19.5915 33.5459 19.3281 32.8828 19.3281C32.2198 19.3281 31.5839 19.5915 31.115 20.0604C30.6462 20.5292 30.3828 21.1651 30.3828 21.8281C30.3828 22.4912 30.6462 23.1271 31.115 23.5959C31.5839 24.0647 32.2198 24.3281 32.8828 24.3281Z" fill="#E9021E"/>
</svg>
