<svg width="41" height="41" viewBox="0 0 41 41" fill="none" xmlns="http://www.w3.org/2000/svg">
<g clip-path="url(#clip0_391_166)">
<path d="M1.74219 4.39844C1.35156 4.54688 0.976562 4.88281 0.796875 5.25781C0.640625 5.58594 0.632812 5.70312 0.632812 8.69531V11.7891L1.04688 11.6016C1.28125 11.4922 1.64844 11.375 1.88281 11.3281C2.45312 11.2188 38.8125 11.2188 39.3828 11.3281C39.6172 11.375 39.9922 11.4922 40.2266 11.6016L40.6484 11.7969L40.6172 10.7188C40.5938 9.6875 40.5859 9.64062 40.3672 9.3125C40.2422 9.125 39.9766 8.88281 39.7812 8.76562L39.4219 8.55469L28.3906 8.51562L17.3516 8.47656L15.2578 6.38281L13.1719 4.29688L7.58594 4.30469C3.49219 4.30469 1.92969 4.33594 1.74219 4.39844Z" fill="#E9021E"/>
<path d="M2 12.8047C1.46875 12.9375 1.01562 13.3047 0.757812 13.8047C0.648438 14.0312 0.632812 15.0234 0.632812 24.3047C0.632812 34.5469 0.632812 34.5625 0.796875 34.8984C0.992188 35.2969 1.39062 35.6484 1.79688 35.7734C2.22656 35.8984 39.0391 35.8984 39.4688 35.7734C39.875 35.6484 40.2734 35.2969 40.4688 34.8984C40.6328 34.5625 40.6328 34.5469 40.6328 24.3047C40.6328 15.0234 40.6172 14.0312 40.5078 13.8047C40.3281 13.4531 40.0234 13.1406 39.6562 12.9453L39.3438 12.7734L20.7891 12.7578C10.5859 12.7578 2.13281 12.7734 2 12.8047ZM22.6328 14.8047C28.5391 15.8359 32.125 21.8906 30.1484 27.5C29.0938 30.4844 26.5859 32.8125 23.5312 33.625C18.3594 35.0078 13.0469 31.875 11.7188 26.6562C10.3438 21.2734 13.8984 15.8125 19.4297 14.8125C20.2656 14.6641 21.7812 14.6562 22.6328 14.8047Z" fill="#E9021E"/>
<path d="M19.8923 16.2271C16.611 16.7427 13.986 19.1021 13.1579 22.2661C12.7985 23.6802 12.8376 25.3833 13.2673 26.7505C13.6579 28.0005 14.2595 29.0005 15.1891 29.9771C18.6501 33.5943 24.5485 33.2349 27.5954 29.2271C28.1345 28.5161 28.7204 27.2974 28.9626 26.3677C29.1423 25.6958 29.1735 25.4146 29.1813 24.4146C29.1813 23.7193 29.1423 23.0552 29.0876 22.7739C28.4001 19.6099 26.1735 17.2349 23.1345 16.4302C22.5329 16.2739 22.1735 16.2271 21.2595 16.2114C20.6345 16.1958 20.0251 16.2036 19.8923 16.2271ZM23.3923 19.3989C23.5329 19.4614 23.6891 19.563 23.7516 19.6333C23.8063 19.7036 24.0173 20.4224 24.2204 21.2193L24.5876 22.6724L24.947 22.813C25.7751 23.1255 26.197 23.563 26.3923 24.313C26.5173 24.8052 26.5329 26.7427 26.4079 27.0943C26.2829 27.4693 26.0407 27.5786 25.361 27.5786H24.7751V28.1255C24.7751 28.7583 24.6735 29.0318 24.3766 29.188C24.1032 29.3286 23.9626 29.3286 23.6891 29.188C23.3923 29.0318 23.2907 28.7583 23.2907 28.1255V27.5786H21.0641H18.8376V28.1255C18.8376 28.7583 18.736 29.0318 18.4391 29.188C18.1657 29.3286 18.0251 29.3286 17.7516 29.188C17.4548 29.0318 17.3532 28.7583 17.3532 28.1255V27.5786H16.7438C15.6891 27.5786 15.6032 27.4224 15.6501 25.5708C15.6735 24.2896 15.6813 24.2505 15.9079 23.8364C16.197 23.3208 16.572 23.0005 17.1032 22.8364C17.4626 22.7193 17.5173 22.6724 17.5876 22.4302C17.6266 22.2739 17.7907 21.6255 17.947 20.9849C18.2516 19.7818 18.4313 19.4224 18.7829 19.3521C18.8766 19.3364 19.9001 19.313 21.0485 19.3052C22.6423 19.2974 23.197 19.3208 23.3923 19.3989Z" fill="#E9021E"/>
<path d="M19.2812 21.7344C19.1641 22.2188 19.0703 22.6406 19.0703 22.6719C19.0703 22.7109 19.9688 22.7344 21.0625 22.7344C22.1562 22.7344 23.0547 22.7109 23.0547 22.6719C23.0547 22.6406 22.9531 22.2266 22.8359 21.7578L22.6172 20.8984L21.0547 20.875L19.4922 20.8594L19.2812 21.7344Z" fill="#E9021E"/>
<path d="M17.2812 24.4219C17.1406 24.6016 17.1172 24.7422 17.1172 25.3594V26.0938H21.0625H25.0078V25.3594C25.0078 24.7422 24.9844 24.6016 24.8438 24.4219L24.6875 24.2188H21.0625H17.4375L17.2812 24.4219Z" fill="#E9021E"/>
</g>
<defs>
<clipPath id="clip0_391_166">
<rect width="40" height="40" fill="white" transform="translate(0.632812 0.078125)"/>
</clipPath>
</defs>
</svg>
