<svg width="100" height="100" viewBox="0 0 100 100" fill="none" xmlns="http://www.w3.org/2000/svg">
<g clip-path="url(#clip0_558_155)">
<g opacity="0.9">
<mask id="mask0_558_155" style="mask-type:luminance" maskUnits="userSpaceOnUse" x="0" y="0" width="100" height="100">
<path d="M0 0H100V100H0V0Z" fill="white"/>
</mask>
<g mask="url(#mask0_558_155)">
<mask id="mask1_558_155" style="mask-type:luminance" maskUnits="userSpaceOnUse" x="0" y="0" width="100" height="100">
<path d="M0 0H100V100H0V0Z" fill="white"/>
</mask>
<g mask="url(#mask1_558_155)">
<path d="M67.8373 44.6642C68.4494 45.2747 68.7554 46.0122 68.7554 46.8767C68.7554 47.7412 68.4494 48.4787 67.8373 49.0892L49.0873 67.8392C48.4768 68.4513 47.7393 68.7573 46.8748 68.7573C46.0103 68.7573 45.2728 68.4513 44.6623 67.8392L35.2873 58.4642C34.6755 57.8534 34.3695 57.1157 34.3691 56.2512C34.3688 55.3867 34.6743 54.6488 35.2856 54.0375C35.8969 53.4262 36.6348 53.1207 37.4993 53.121C38.3638 53.1214 39.1015 53.4274 39.7123 54.0392L46.8748 61.2079L63.4123 44.6642C64.0228 44.0521 64.7603 43.7461 65.6248 43.7461C66.4893 43.7461 67.2268 44.0521 67.8373 44.6642Z" fill="#8D0D21"/>
<path d="M21.875 0C22.7379 0 23.4745 0.305097 24.0847 0.915289C24.6949 1.52548 25 2.26206 25 3.125V6.25H75V3.125C75 2.26206 75.305 1.52548 75.9156 0.915289C76.5256 0.305097 77.2622 0 78.125 0C78.9878 0 79.7244 0.305097 80.3344 0.915289C80.945 1.52548 81.25 2.26206 81.25 3.125V6.25H87.5C90.9517 6.25 93.8978 7.47039 96.3389 9.91117C98.7794 12.3519 100 15.2982 100 18.75V87.5C100 90.9517 98.7794 93.8978 96.3389 96.3389C93.8978 98.7794 90.9517 100 87.5 100H12.5C9.04822 100 6.10194 98.7794 3.66117 96.3389C1.22039 93.8978 0 90.9517 0 87.5V18.75C0 15.2982 1.22039 12.3519 3.66117 9.91117C6.10194 7.47039 9.04822 6.25 12.5 6.25H18.75V3.125C18.75 2.26206 19.0551 1.52548 19.6653 0.915289C20.2755 0.305097 21.0121 0 21.875 0ZM6.25 25V87.5C6.25 89.2261 6.86017 90.6989 8.08056 91.9194C9.30095 93.14 10.7741 93.75 12.5 93.75H87.5C89.2261 93.75 90.6989 93.14 91.9194 91.9194C93.14 90.6989 93.75 89.2261 93.75 87.5V25H6.25Z" fill="#8D0D21"/>
</g>
</g>
</g>
</g>
<defs>
<clipPath id="clip0_558_155">
<rect width="100" height="100" fill="white"/>
</clipPath>
</defs>
</svg>
