<svg width="24" height="24" viewBox="0 0 24 24" fill="none" xmlns="http://www.w3.org/2000/svg">
<path d="M5.98227 16.0784C6.12702 16.0744 6.12702 16.0744 6.27469 16.0703C7.05132 16.0684 7.6843 16.244 8.26388 16.7806C9.15615 17.7212 8.99985 18.5026 8.99985 19.8753C10.8561 19.8753 12.7123 19.8753 14.6248 19.8753C14.6248 19.2565 14.6248 18.6378 14.6248 18.0003C14.9095 17.1729 15.3618 16.6714 16.1267 16.2509C16.6039 16.0568 17.0994 16.0771 17.6073 16.0784C17.752 16.0744 17.752 16.0744 17.8997 16.0703C18.6763 16.0684 19.3093 16.244 19.8889 16.7806C20.5714 17.5002 20.6666 18.1463 20.6556 19.107C20.6554 19.2119 20.6553 19.3169 20.6551 19.4251C20.6544 19.6458 20.6531 19.8666 20.6512 20.0874C20.6483 20.4268 20.6474 20.7663 20.6468 21.1057C20.646 21.3203 20.645 21.5349 20.6439 21.7495C20.6435 21.8516 20.6431 21.9536 20.6427 22.0587C20.6418 22.1523 20.6409 22.2459 20.64 22.3424C20.6393 22.4251 20.6387 22.5079 20.638 22.5931C20.6248 22.7815 20.6248 22.7815 20.5311 22.8753C20.306 22.8846 20.0836 22.8879 19.8585 22.8872C19.7872 22.8873 19.716 22.8875 19.6426 22.8876C19.4022 22.888 19.1617 22.8877 18.9212 22.8874C18.7496 22.8875 18.5779 22.8877 18.4063 22.8879C17.9387 22.8883 17.4711 22.8881 17.0035 22.8879C16.5154 22.8876 16.0272 22.8878 15.539 22.888C14.719 22.8882 13.899 22.8879 13.0791 22.8875C12.1296 22.887 11.1802 22.8871 10.2307 22.8877C9.41709 22.8881 8.60348 22.8881 7.78987 22.8879C7.30324 22.8877 6.81662 22.8877 6.33 22.888C5.87262 22.8883 5.41524 22.8881 4.95786 22.8876C4.78949 22.8875 4.62112 22.8875 4.45275 22.8877C4.22391 22.888 3.99508 22.8876 3.76624 22.8872C3.66497 22.8875 3.66497 22.8875 3.56166 22.8878C3.1043 22.886 3.1043 22.886 2.99985 22.7815C2.98866 22.6369 2.9839 22.4918 2.98177 22.3468C2.98026 22.2541 2.97875 22.1615 2.9772 22.066C2.97303 21.6384 2.96918 21.2108 2.96703 20.7832C2.96548 20.5583 2.96293 20.3334 2.95934 20.1086C2.95417 19.7839 2.95215 19.4592 2.95078 19.1344C2.94865 19.035 2.94653 18.9355 2.94434 18.833C2.94649 18.0632 3.123 17.4361 3.65517 16.8612C4.37108 16.1823 5.02459 16.076 5.98227 16.0784ZM4.31235 17.4378C3.78805 18.1009 3.73502 18.7118 3.74069 19.5435C3.74083 19.6176 3.74096 19.6917 3.7411 19.7681C3.74162 20.003 3.74279 20.238 3.74399 20.4729C3.74446 20.633 3.74489 20.793 3.74527 20.953C3.74622 21.3438 3.74806 21.7345 3.74985 22.1253C4.55422 22.1253 5.3586 22.1253 6.18735 22.1253C6.04166 21.3085 6.04166 21.3085 5.8475 20.5139C5.73101 20.0649 5.69194 19.6812 5.7186 19.219C5.90422 19.219 6.08985 19.219 6.2811 19.219C6.35356 19.4768 6.42584 19.7346 6.4979 19.9924C6.51926 20.0689 6.54062 20.1453 6.56262 20.2241C6.71117 20.7589 6.84942 21.2953 6.9769 21.8356C7.01303 22.0289 7.01303 22.0289 7.12485 22.1253C7.26283 22.1354 7.4013 22.1392 7.53965 22.1404C7.62792 22.1413 7.71619 22.1422 7.80714 22.1431C7.90332 22.1435 7.99951 22.1439 8.0986 22.1443C8.24623 22.1451 8.24623 22.1451 8.39683 22.1459C8.60576 22.1468 8.8147 22.1474 9.02363 22.1478C9.34257 22.1487 9.66145 22.1516 9.98038 22.1546C10.1832 22.1552 10.386 22.1557 10.5888 22.156C10.6841 22.1572 10.7793 22.1583 10.8774 22.1595C11.3829 22.1579 11.7542 22.137 12.1873 21.844C12.3205 21.5777 12.3106 21.3889 12.2811 21.094C12.057 20.7978 11.8901 20.6886 11.5311 20.6253C11.2859 20.6112 11.0426 20.6013 10.7972 20.5956C10.6919 20.5927 10.6919 20.5927 10.5844 20.5897C10.3609 20.5836 10.1374 20.578 9.91391 20.5725C9.76205 20.5685 9.6102 20.5644 9.45834 20.5603C9.08677 20.5502 8.71519 20.5407 8.3436 20.5315C8.33901 20.4116 8.33441 20.2917 8.32968 20.1682C8.32264 20.0081 8.31556 19.8479 8.30844 19.6878C8.30554 19.6091 8.30264 19.5304 8.29965 19.4494C8.26509 18.7063 8.18394 18.0258 7.68735 17.4378C6.71875 16.672 5.27463 16.6252 4.31235 17.4378ZM15.9373 17.4378C15.3879 18.1328 15.3615 18.8193 15.3221 19.676C15.3086 19.9583 15.295 20.2407 15.2811 20.5315C14.5386 20.5624 13.7961 20.5934 13.0311 20.6253C13.0311 21.1203 13.0311 21.6153 13.0311 22.1253C14.1758 22.1253 15.3205 22.1253 16.4998 22.1253C16.7241 21.4628 16.7241 21.4628 16.9078 20.7955C16.9276 20.7145 16.9474 20.6335 16.9679 20.55C16.9874 20.4685 17.007 20.387 17.0272 20.303C17.0673 20.1371 17.1075 19.9712 17.148 19.8053C17.1654 19.7331 17.1828 19.6609 17.2006 19.5865C17.2498 19.4065 17.2498 19.4065 17.3436 19.219C17.5292 19.219 17.7148 19.219 17.9061 19.219C17.9346 19.8314 17.8326 20.3466 17.6717 20.9358C17.6275 21.1014 17.5835 21.267 17.5399 21.4328C17.5202 21.5051 17.5006 21.5774 17.4804 21.6519C17.4271 21.8569 17.4271 21.8569 17.4373 22.1253C18.2417 22.1253 19.0461 22.1253 19.8748 22.1253C19.8792 21.6583 19.8829 21.1914 19.8851 20.7245C19.8861 20.5659 19.8874 20.4074 19.889 20.2488C19.8913 20.0198 19.8923 19.7908 19.8932 19.5618C19.8941 19.4918 19.8951 19.4219 19.8961 19.3498C19.8962 18.6386 19.7845 17.9969 19.3123 17.4378C18.3437 16.672 16.8996 16.6252 15.9373 17.4378Z" fill="#1D1D1B"/>
<path d="M4.03425 1.07222C4.1592 1.07124 4.1592 1.07124 4.28668 1.07023C4.56096 1.06859 4.83516 1.06967 5.10944 1.07094C5.30066 1.07069 5.49189 1.07032 5.68311 1.06985C6.08345 1.0693 6.48376 1.0701 6.8841 1.07186C7.3967 1.07399 7.90923 1.07276 8.42183 1.07052C8.81657 1.06916 9.21129 1.06959 9.60603 1.07056C9.79501 1.07081 9.98399 1.07051 10.173 1.06963C10.4373 1.06868 10.7015 1.07014 10.9659 1.07222C11.0436 1.07146 11.1214 1.0707 11.2015 1.06992C11.6991 1.07718 11.9784 1.16933 12.3751 1.49575C12.8434 1.9988 12.8047 2.50887 12.7999 3.15981C12.8004 3.31892 12.8004 3.31892 12.801 3.48125C12.8012 3.70504 12.8005 3.92883 12.799 4.15261C12.7969 4.49459 12.7989 4.83639 12.8013 5.17836C12.8011 5.39614 12.8006 5.61391 12.7999 5.83168C12.8006 5.93365 12.8014 6.03562 12.8022 6.14067C12.7953 6.69876 12.7725 7.06876 12.3751 7.49575C11.9393 7.86853 11.6616 7.89829 11.0985 7.87331C10.4888 7.87975 10.1428 8.00958 9.71418 8.44533C9.52823 8.64115 9.35139 8.84335 9.17585 9.04848C9.03917 9.20288 8.90149 9.35612 8.76203 9.508C8.63717 9.64472 8.51563 9.78443 8.39431 9.9243C8.15632 10.1207 8.15632 10.1207 7.85131 10.1559C7.59382 10.1207 7.59382 10.1207 7.50007 10.027C7.4919 9.8669 7.49003 9.70647 7.49091 9.54616C7.49121 9.44918 7.49151 9.3522 7.49183 9.25228C7.493 9.09919 7.493 9.09919 7.49421 8.94301C7.49463 8.84059 7.49505 8.73817 7.49549 8.63265C7.4966 8.37868 7.49814 8.12471 7.50007 7.87075C7.44729 7.87158 7.39451 7.87241 7.34013 7.87327C6.78959 7.88158 6.23906 7.88723 5.68847 7.89135C5.48314 7.89323 5.27781 7.89578 5.0725 7.89904C4.77694 7.9036 4.48145 7.90571 4.18586 7.90737C4.09443 7.9093 4.003 7.91124 3.9088 7.91323C3.3711 7.91341 3.03985 7.87299 2.62507 7.49575C2.15678 6.99269 2.19542 6.48262 2.20026 5.83168C2.1999 5.72561 2.19954 5.61953 2.19917 5.51024C2.19892 5.28646 2.19961 5.06267 2.20118 4.83889C2.20318 4.4969 2.20119 4.15511 2.1988 3.81313C2.19904 3.59535 2.19952 3.37758 2.20026 3.15981C2.1995 3.05784 2.19874 2.95587 2.19796 2.85082C2.20485 2.29273 2.22759 1.92273 2.62507 1.49575C3.10046 1.1045 3.44478 1.06647 4.03425 1.07222ZM3.18757 2.152C2.93347 2.54982 2.97137 3.00956 2.97187 3.46706C2.97147 3.5483 2.97106 3.62953 2.97065 3.71323C2.97011 3.88462 2.97006 4.056 2.97047 4.22738C2.97077 4.48869 2.96857 4.74989 2.96619 5.01119C2.96598 5.17812 2.96591 5.34505 2.96601 5.51198C2.96514 5.58963 2.96428 5.66729 2.96339 5.74729C2.96705 6.20729 3.00857 6.54427 3.28132 6.93325C3.59665 7.08903 3.85807 7.14498 4.20776 7.15064C4.29594 7.1525 4.38412 7.15436 4.47498 7.15628C4.61592 7.15791 4.61592 7.15791 4.75971 7.15956C4.85685 7.16138 4.95399 7.1632 5.05407 7.16507C5.36353 7.17066 5.673 7.17502 5.98249 7.17934C6.19263 7.18292 6.40278 7.18658 6.61292 7.19033C7.12737 7.19932 7.64183 7.2072 8.15632 7.2145C8.20272 7.957 8.20272 7.957 8.25007 8.7145C8.70541 8.33851 8.70541 8.33851 9.1092 7.9092C9.44638 7.51619 9.67653 7.24816 10.1968 7.14345C10.4378 7.13258 10.6793 7.12945 10.9205 7.13576C11.2967 7.11862 11.5014 7.05013 11.8126 6.8395C12.0487 6.41823 12.0288 5.99392 12.0283 5.52443C12.0289 5.40258 12.0289 5.40258 12.0295 5.27826C12.03 5.10688 12.0301 4.93549 12.0297 4.76411C12.0294 4.5028 12.0316 4.2416 12.0339 3.9803C12.0342 3.81337 12.0342 3.64644 12.0341 3.47951C12.035 3.40186 12.0358 3.3242 12.0367 3.2442C12.0331 2.7842 11.9916 2.44722 11.7188 2.05825C11.3283 1.84814 10.9506 1.84351 10.5173 1.845C10.4088 1.84428 10.4088 1.84428 10.2982 1.84354C10.0599 1.84225 9.82169 1.84233 9.58344 1.84255C9.4173 1.84218 9.25117 1.84178 9.08504 1.84133C8.73711 1.84063 8.38919 1.84066 8.04126 1.84115C7.59603 1.84169 7.15084 1.84011 6.70561 1.83793C6.36259 1.83655 6.01957 1.83647 5.67655 1.83676C5.51242 1.83671 5.3483 1.83622 5.18418 1.83528C4.95442 1.83412 4.72472 1.83476 4.49496 1.83584C4.3939 1.83477 4.3939 1.83477 4.2908 1.83367C3.85553 1.8382 3.55714 1.92218 3.18757 2.152Z" fill="#1C1C1A"/>
<path d="M15.8261 2.97786C15.9979 2.9756 15.9979 2.9756 16.1731 2.9733C16.2988 2.97222 16.4245 2.97123 16.5501 2.97031C16.6134 2.96981 16.6766 2.96931 16.7418 2.96879C17.0768 2.96629 17.4118 2.96447 17.7467 2.96312C18.0236 2.96187 18.3003 2.95926 18.5771 2.95543C18.9117 2.9508 19.2462 2.94848 19.5807 2.94782C19.7697 2.94689 19.9586 2.94368 20.1475 2.94043C21.1044 2.94264 21.1044 2.94264 21.4505 3.22167C21.9281 3.78894 21.7773 4.60638 21.7817 5.31772C21.7832 5.50358 21.7858 5.68944 21.7894 5.87528C21.7945 6.14355 21.7966 6.4117 21.7979 6.68002C21.8001 6.76266 21.8022 6.8453 21.8044 6.93044C21.803 7.33511 21.7829 7.60072 21.5231 7.92194C21.2801 8.15219 21.2801 8.15219 21.0926 8.24594C21.0057 8.23507 20.9188 8.22419 20.8293 8.21298C20.2881 8.17221 19.8986 8.17573 19.4548 8.51854C19.1248 8.82872 18.8167 9.15284 18.5167 9.49211C18.4453 9.57213 18.3739 9.65215 18.3003 9.73459C18.2375 9.80862 18.1748 9.88265 18.1102 9.95892C17.8419 10.1709 17.6761 10.1591 17.3426 10.1209C17.2489 10.0272 17.2489 10.0272 17.2382 9.85304C17.2387 9.7789 17.2392 9.70477 17.2397 9.62839C17.24 9.54833 17.2403 9.46826 17.2406 9.38577C17.2414 9.3016 17.2422 9.21743 17.243 9.13071C17.2434 9.04617 17.2439 8.96164 17.2443 8.87454C17.2454 8.665 17.2469 8.45548 17.2489 8.24594C17.1922 8.2484 17.1355 8.25085 17.0771 8.25338C16.818 8.26318 16.5589 8.26924 16.2997 8.27524C16.2105 8.27917 16.1213 8.28309 16.0294 8.28714C15.2834 8.30009 15.2834 8.30009 14.941 8.02145C14.4356 7.46883 14.5954 6.63847 14.5911 5.92416C14.5895 5.7383 14.5869 5.55244 14.5834 5.36661C14.5782 5.09833 14.5762 4.83018 14.5748 4.56186C14.5727 4.47922 14.5705 4.39659 14.5684 4.31145C14.5697 3.90677 14.5898 3.64117 14.8496 3.31995C15.1964 2.99138 15.3579 2.98344 15.8261 2.97786ZM15.3739 4.12094C15.3161 4.44088 15.3161 4.44088 15.3241 4.80063C15.3237 4.8658 15.3233 4.93097 15.323 4.99811C15.3227 5.13553 15.3234 5.27296 15.325 5.41037C15.327 5.62031 15.325 5.82995 15.3226 6.03989C15.3229 6.17368 15.3233 6.30747 15.3241 6.44125C15.3245 6.56259 15.3249 6.68392 15.3253 6.80893C15.3507 7.12341 15.3507 7.12341 15.5327 7.34735C15.7931 7.52634 15.943 7.54609 16.2572 7.55307C16.3532 7.55609 16.4493 7.55911 16.5483 7.56223C16.648 7.56356 16.7477 7.56488 16.8504 7.56625C16.9516 7.56903 17.0527 7.57181 17.157 7.57468C17.4063 7.5813 17.6557 7.58571 17.9051 7.58969C17.9361 7.96094 17.967 8.33219 17.9989 8.71469C18.0956 8.63348 18.1922 8.55227 18.2918 8.4686C18.353 8.41772 18.4141 8.36684 18.4771 8.31442C18.6556 8.16196 18.6556 8.16196 18.7745 7.99289C18.9143 7.80897 19.0149 7.7048 19.2176 7.58969C19.5849 7.54268 19.9291 7.53108 20.2994 7.5333C20.6215 7.52294 20.6215 7.52294 20.8285 7.34859C21.0613 7.03757 21.0473 6.82728 21.0487 6.44125C21.049 6.37609 21.0494 6.31092 21.0498 6.24378C21.05 6.10635 21.0493 5.96893 21.0478 5.83151C21.0458 5.62157 21.0477 5.41193 21.0501 5.202C21.0499 5.06821 21.0494 4.93442 21.0487 4.80063C21.0483 4.6793 21.0478 4.55796 21.0474 4.43295C20.9898 4.0623 20.9125 3.97586 20.6239 3.74594C20.3931 3.68971 20.3931 3.68971 20.1397 3.69742C20.0434 3.69624 19.947 3.69506 19.8477 3.69384C19.7442 3.6946 19.6407 3.69536 19.534 3.69614C19.4272 3.69578 19.3205 3.69542 19.2104 3.69505C18.9847 3.6948 18.759 3.69549 18.5334 3.69705C18.1877 3.69906 17.8421 3.69707 17.4964 3.69467C17.2772 3.69492 17.058 3.6954 16.8387 3.69614C16.6834 3.695 16.6834 3.695 16.525 3.69384C16.3805 3.69561 16.3805 3.69561 16.233 3.69742C16.1484 3.69772 16.0637 3.69802 15.9765 3.69832C15.6748 3.76144 15.5622 3.8813 15.3739 4.12094Z" fill="#1C1C1A"/>
<path d="M18.7086 11.0326C19.2693 11.3757 19.6891 11.8323 19.8746 12.4682C19.95 13.1206 19.9804 13.7888 19.6311 14.367C19.2635 14.8247 18.8475 15.1988 18.2808 15.3744C17.5317 15.4514 16.8399 15.4606 16.2183 14.9994C15.7058 14.58 15.4144 14.1255 15.3383 13.4668C15.3121 12.6224 15.4309 12.1077 15.9605 11.4603C16.7412 10.8216 17.7494 10.5867 18.7086 11.0326ZM16.3707 12.3393C16.1641 12.7684 16.1436 13.1249 16.2183 13.5932C16.4367 14.0468 16.7022 14.3123 17.1558 14.5307C17.6241 14.6054 17.9806 14.585 18.4097 14.3783C18.7458 14.0743 18.9929 13.8308 19.0667 13.3683C19.0907 12.8355 19.0249 12.501 18.6558 12.0932C18.248 11.7241 17.9135 11.6583 17.3807 11.6823C16.9182 11.7561 16.6747 12.0032 16.3707 12.3393Z" fill="#1C1C1A"/>
<path d="M7.08309 11.0326C7.64382 11.3757 8.0636 11.8323 8.2491 12.4682C8.32447 13.1206 8.35495 13.7888 8.00557 14.367C7.63799 14.8247 7.22196 15.1988 6.65535 15.3744C5.90618 15.4514 5.21439 15.4606 4.59285 14.9994C4.08026 14.58 3.78894 14.1255 3.71285 13.4668C3.68666 12.6224 3.8054 12.1077 4.33504 11.4603C5.11568 10.8216 6.12395 10.5867 7.08309 11.0326ZM4.7452 12.3393C4.53856 12.7684 4.51812 13.1249 4.59285 13.5932C4.81126 14.0468 5.07673 14.3123 5.53035 14.5307C5.99858 14.6054 6.3551 14.585 6.78426 14.3783C7.12027 14.0743 7.36742 13.8308 7.44124 13.3683C7.46524 12.8355 7.39938 12.501 7.03035 12.0932C6.62248 11.7241 6.28806 11.6583 5.75521 11.6823C5.29267 11.7561 5.0492 12.0032 4.7452 12.3393Z" fill="#1C1C1A"/>
<path d="M5.13574 4.85942C5.30983 4.85897 5.30983 4.85897 5.48744 4.85852C5.61508 4.85869 5.74272 4.85888 5.87036 4.8591C6.00032 4.85903 6.13028 4.85894 6.26024 4.85882C6.53293 4.85869 6.80562 4.85889 7.07831 4.85933C7.42858 4.85986 7.77884 4.85955 8.12911 4.85899C8.39756 4.85865 8.66601 4.85876 8.93447 4.859C9.06365 4.85907 9.19283 4.85899 9.32202 4.85877C9.50228 4.85853 9.68254 4.85896 9.86279 4.85942C10.0169 4.85953 10.0169 4.85953 10.1742 4.85964C10.4055 4.87155 10.4055 4.87155 10.4993 4.9653C10.511 5.24655 10.511 5.24655 10.4993 5.5278C10.3325 5.69459 10.0883 5.63351 9.86279 5.63368C9.74673 5.63397 9.63067 5.63427 9.51109 5.63457C9.38345 5.63441 9.25581 5.63421 9.12817 5.634C8.99821 5.63406 8.86826 5.63415 8.7383 5.63427C8.46561 5.63441 8.19292 5.63421 7.92023 5.63377C7.56996 5.63324 7.2197 5.63354 6.86943 5.63411C6.60097 5.63444 6.33252 5.63434 6.06407 5.63409C5.93488 5.63403 5.8057 5.63411 5.67652 5.63433C5.49626 5.63456 5.316 5.63414 5.13574 5.63368C4.98159 5.63357 4.98159 5.63357 4.82433 5.63345C4.59302 5.62155 4.59302 5.62155 4.49927 5.5278C4.48755 5.24655 4.48755 5.24655 4.49927 4.9653C4.66606 4.7985 4.91019 4.85958 5.13574 4.85942Z" fill="#1D1D1B"/>
<path d="M5.13574 2.98832C5.30983 2.98788 5.30983 2.98788 5.48744 2.98743C5.61508 2.9876 5.74272 2.98779 5.87036 2.988C6.00032 2.98794 6.13028 2.98785 6.26024 2.98773C6.53293 2.98759 6.80562 2.98779 7.07831 2.98823C7.42858 2.98877 7.77884 2.98846 8.12911 2.9879C8.39756 2.98756 8.66601 2.98767 8.93447 2.98791C9.06365 2.98797 9.19283 2.98789 9.32202 2.98768C9.50228 2.98744 9.68254 2.98786 9.86279 2.98832C10.0169 2.98844 10.0169 2.98844 10.1742 2.98855C10.4055 3.00045 10.4055 3.00045 10.4993 3.0942C10.511 3.37545 10.511 3.37545 10.4993 3.6567C10.3325 3.8235 10.0883 3.76242 9.86279 3.76258C9.74673 3.76288 9.63067 3.76318 9.51109 3.76348C9.38345 3.76331 9.25581 3.76312 9.12817 3.76291C8.99821 3.76297 8.86826 3.76306 8.7383 3.76318C8.46561 3.76332 8.19292 3.76311 7.92023 3.76268C7.56996 3.76214 7.2197 3.76245 6.86943 3.76301C6.60097 3.76335 6.33252 3.76324 6.06407 3.763C5.93488 3.76294 5.8057 3.76301 5.67652 3.76323C5.49626 3.76347 5.316 3.76304 5.13574 3.76258C4.98159 3.76247 4.98159 3.76247 4.82433 3.76236C4.59302 3.75045 4.59302 3.75045 4.49927 3.6567C4.48755 3.37545 4.48755 3.37545 4.49927 3.0942C4.66606 2.92741 4.91019 2.98849 5.13574 2.98832Z" fill="#1D1D1B"/>
</svg>
