<svg width="56" height="56" viewBox="0 0 56 56" fill="none" xmlns="http://www.w3.org/2000/svg">
<path fill-rule="evenodd" clip-rule="evenodd" d="M53.9263 38.271C54.0896 38.8067 53.6545 38.6991 53.6545 38.9672C54.5785 38.9672 54.5242 38.6456 54.9593 38.5921C55.0674 38.5921 55.0674 39.3953 55.7739 39.1277C55.8829 39.0742 56.1547 39.3418 55.8829 39.4488C55.8829 39.4488 54.905 40.0914 55.0674 40.0914C55.1764 40.0914 55.7739 40.0914 55.8286 40.1984V40.145C49.0892 45.285 6.91269 45.285 0.17333 40.145V40.1984C0.227184 40.0914 0.77107 40.0914 0.879844 40.0914C1.04248 40.0914 0.118941 39.5023 0.118941 39.4488C-0.153 39.3418 0.118945 39.0742 0.17333 39.1277C0.879843 39.3953 0.879844 38.5921 1.04248 38.5921C1.47758 38.6456 1.42319 38.9672 2.34726 38.9672C2.34726 38.6991 1.96654 38.8067 2.12971 38.271C11.6957 43.036 44.4149 43.036 53.9263 38.271ZM42.5122 20.8705C43.1106 20.71 43.5452 20.3349 43.817 19.8533C43.7627 19.6928 43.4909 19.4782 43.002 19.3177C41.045 15.998 40.0671 14.2851 40.0671 14.2851C40.1209 14.0706 40.3929 13.8565 40.936 13.6425C31.6423 12.7858 25.2292 12.7858 15.9891 13.6425C16.533 13.8565 16.8588 14.0706 16.8588 14.2851C16.8588 14.2851 15.8803 15.9445 13.9239 19.3177C13.435 19.4782 13.1631 19.6928 13.1087 19.8533C13.3806 20.3349 13.7608 20.71 14.4129 20.8705C24.0332 20.9775 32.8383 20.9775 42.5122 20.8705ZM30.0117 13.803C30.1748 13.7495 30.2836 13.696 30.2836 13.5355C33.7079 13.6425 35.6643 13.803 36.2076 13.9101C36.045 14.1241 35.9906 14.2851 35.9906 14.2851C34.4144 13.9101 33.2728 14.9808 32.6207 17.6043L28.4355 17.6578L24.2508 17.6043C23.5986 15.0343 22.4571 13.9101 20.8808 14.2851C20.8808 14.2851 20.8265 14.1776 20.6633 13.9101C21.2072 13.803 23.1636 13.6425 26.5879 13.5355C26.6423 13.696 26.7511 13.803 26.8593 13.803C27.8921 13.803 28.9793 13.803 30.0117 13.803ZM30.8269 19.9068C30.7187 19.0501 31.4252 18.461 32.8383 18.0864C33.0014 17.2832 33.164 16.7476 33.4904 16.5336C36.7515 16.7476 38.3821 16.8547 38.3821 16.8547C38.6535 16.1055 38.9799 15.4094 39.4144 14.8738C40.5561 16.6406 41.2083 17.7649 41.3168 18.1935C39.9039 17.7113 39.143 17.2832 39.0342 16.9082C39.3062 17.7649 39.7951 18.354 40.6648 18.7286C41.2083 19.0501 41.4258 19.5317 41.3168 20.2279C32.7838 20.2279 24.2508 20.2279 15.6633 20.2279C15.5545 19.5317 15.7721 19.0501 16.3154 18.7286C17.1851 18.354 17.7285 17.7649 17.946 16.9082C17.8372 17.2832 17.0764 17.7113 15.6089 18.1935C15.7721 17.7649 16.3698 16.6406 17.5653 14.8738C18.0004 15.4094 18.3262 16.1055 18.5981 16.8547C18.5981 16.8547 20.2287 16.7476 23.4355 16.5336C23.653 16.7476 23.8701 17.2832 23.9788 18.0864C25.4463 18.461 26.0984 19.0501 25.9901 19.9068C27.6746 19.9068 29.1964 19.9068 30.8269 19.9068ZM18.8157 18.0864H23.0548C23.3267 18.0864 23.5443 18.3005 23.5443 18.568C23.5443 18.8361 23.3267 19.0501 23.0548 19.0501H18.8157C18.5438 19.0501 18.3262 18.8361 18.3262 18.568C18.3806 18.3005 18.5981 18.0864 18.8157 18.0864ZM38.0014 18.0864H33.7623C33.4904 18.0864 33.2728 18.3005 33.2728 18.568C33.2728 18.8361 33.4904 19.0501 33.7623 19.0501H38.0014C38.2734 19.0501 38.4909 18.8361 38.4909 18.568C38.4909 18.3005 38.2734 18.0864 38.0014 18.0864ZM39.1974 36.0761C39.5232 36.1831 39.6864 36.2367 39.6864 36.2367C38.219 37.2003 32.023 37.0933 29.9034 37.2003C28.3272 37.2539 26.9681 37.2539 25.9357 37.1468C23.9788 36.9863 17.2939 37.0933 16.3698 36.2902C16.6956 36.0761 16.8588 35.9686 16.8588 35.9686C18.0548 37.0933 37.6212 37.0933 39.1974 36.0761ZM32.2405 34.3093C35.8819 34.0412 38.1102 33.9341 38.8167 33.8271C38.6535 33.3991 38.1645 33.1845 37.2949 33.0775C30.8269 33.4526 24.4683 33.4526 18.2174 33.024C17.6197 33.1845 17.2939 33.4526 17.2395 33.7201C18.3806 33.9341 20.555 34.0947 23.653 34.3093C24.414 34.3627 25.7182 35.0584 27.6202 36.0761C27.8921 36.2367 28.1641 36.2367 28.3816 36.0761C30.2836 35.0049 31.5335 34.3627 32.2405 34.3093ZM53.0023 23.0119C53.1656 22.7444 53.2746 22.6374 53.2746 22.6374C54.1977 24.6182 54.5785 28.152 54.5242 33.238C54.5242 36.5042 53.981 38.164 52.948 38.164C51.6437 37.8965 50.9915 36.7717 51.1 34.8444C51.2086 33.7201 51.9151 32.2743 53.1656 30.5075C54.3067 27.8304 54.2524 25.3679 53.0023 23.0119ZM49.47 35.5405C49.1978 34.7908 49.361 34.0412 49.7414 33.3991C51.3719 30.5075 51.8608 27.9914 51.2086 25.7425C45.665 27.5628 42.1866 29.1692 40.7736 30.5075C40.9907 30.722 41.4258 30.829 42.078 30.722C46.8066 30.2399 49.5239 29.5973 50.3389 28.9017C50.5021 29.5973 49.9042 30.7755 48.4913 32.2743C47.8391 32.9705 46.7519 33.2915 45.4479 33.6666C43.002 34.3093 35.9363 38.9137 40.8824 39.0207C46.1001 38.9672 49.1435 38.4851 50.0132 37.4679C50.0675 37.0398 49.7957 36.4507 49.47 35.5405ZM41.3168 30.2399C41.3168 30.3469 41.2626 30.4539 41.2626 30.4539C44.0884 30.0259 49.6324 30.2399 49.2525 26.7597C49.0892 26.7597 49.0349 26.7597 49.0349 26.7597C49.1435 29.9724 43.7085 29.8654 41.3168 30.2399ZM36.534 28.259C36.8059 27.1883 37.1861 26.3851 37.73 25.9565C38.7623 25.0463 40.4473 24.1897 42.8387 23.387C43.3277 23.2259 43.9803 22.4233 44.8496 20.9775C44.5239 21.2986 44.2517 21.6737 43.926 22.0482C43.5452 22.4768 42.8387 22.7444 41.9147 23.0119C39.143 23.9756 36.9147 25.2609 36.534 28.259ZM3.59714 23.0119C3.43397 22.7979 3.32571 22.6374 3.32571 22.6374C2.40163 24.6182 2.02093 28.152 2.07532 33.238C2.07532 36.5042 2.61865 38.164 3.65151 38.164C4.95575 37.8965 5.60841 36.7717 5.49964 34.8444C5.39087 33.7201 4.68436 32.2743 3.43397 30.5075C2.29286 27.8304 2.34726 25.3679 3.59714 23.0119ZM7.13023 35.5405C7.40161 34.7908 7.239 34.0412 6.85828 33.3991C5.22769 30.5075 4.73872 27.9914 5.39087 25.7425C10.9347 27.5628 14.4129 29.1692 15.8265 30.5075C15.5545 30.722 15.1738 30.829 14.5217 30.722C9.79312 30.2399 7.07582 29.5973 6.26055 28.9017C6.09737 29.5973 6.69511 30.7755 8.10816 32.2743C8.76082 32.9705 9.84752 33.2915 11.1523 33.6666C13.9783 34.4698 20.4463 38.9137 15.7177 39.0207C10.4996 38.9672 7.45602 38.4851 6.64075 37.4679C6.53193 37.0398 6.80388 36.4507 7.13023 35.5405ZM15.2826 30.2399C15.2826 30.3469 15.2826 30.4539 15.2826 30.4539C12.4565 30.0259 6.96705 30.2399 7.29284 26.7597C7.45602 26.7597 7.51043 26.7597 7.51043 26.7597C7.51043 29.9724 12.8911 29.8654 15.2826 30.2399ZM20.0656 28.259C19.7936 27.1883 19.4134 26.3851 18.8701 25.9565C17.8372 25.0463 16.1523 24.1897 13.7608 23.387C13.2718 23.2259 12.6197 22.4233 11.75 20.9775C12.0758 21.2986 12.3478 21.6737 12.6741 22.0482C13.0543 22.4768 13.7608 22.7444 14.6849 23.0119C17.4565 23.9756 19.6854 25.2609 20.0656 28.259Z" fill="#E9021E"/>
</svg>
