<svg width="210" height="43" viewBox="0 0 210 43" fill="none" xmlns="http://www.w3.org/2000/svg">
<g clip-path="url(#clip0_484_244)">
<path fill-rule="evenodd" clip-rule="evenodd" d="M91.7982 34.3326C92.0164 35.0604 91.4349 34.9142 91.4349 35.2784C92.6699 35.2784 92.5974 34.8416 93.1789 34.7688C93.3234 34.7688 93.3234 35.86 94.2677 35.4965C94.4134 35.4239 94.7767 35.7873 94.4134 35.9327C94.4134 35.9327 93.1063 36.8058 93.3234 36.8058C93.4691 36.8058 94.2677 36.8058 94.3408 36.9512V36.8785C85.3328 43.8617 28.9584 43.8617 19.9504 36.8785V36.9512C20.0224 36.8058 20.7494 36.8058 20.8948 36.8058C21.1122 36.8058 19.8777 36.0054 19.8777 35.9327C19.5142 35.7873 19.8777 35.4239 19.9504 35.4965C20.8948 35.86 20.8948 34.7688 21.1122 34.7688C21.6937 34.8416 21.621 35.2784 22.8562 35.2784C22.8562 34.9142 22.3473 35.0604 22.5654 34.3326C35.3515 40.8062 79.085 40.8062 91.7982 34.3326ZM76.5418 10.6927C77.3415 10.4746 77.9225 9.965 78.2858 9.31074C78.2133 9.09264 77.8499 8.80112 77.1964 8.58302C74.5807 4.07298 73.2735 1.74597 73.2735 1.74597C73.3455 1.45447 73.709 1.16368 74.435 0.872897C62.0127 -0.290966 53.4408 -0.290966 41.0902 0.872897C41.8172 1.16368 42.2527 1.45447 42.2527 1.74597C42.2527 1.74597 40.9448 4.00028 38.3299 8.58302C37.6763 8.80112 37.3129 9.09264 37.2402 9.31074C37.6036 9.965 38.1118 10.4746 38.9834 10.6927C51.8422 10.8381 63.6113 10.8381 76.5418 10.6927ZM59.8332 1.09098C60.0513 1.01829 60.1967 0.945595 60.1967 0.727501C64.7737 0.872897 67.3887 1.09098 68.1149 1.23638C67.8975 1.52717 67.8248 1.74597 67.8248 1.74597C65.718 1.23638 64.1921 2.69103 63.3205 6.25531L57.7264 6.32798L52.133 6.25531C51.2613 2.76373 49.7355 1.23638 47.6286 1.74597C47.6286 1.74597 47.556 1.59986 47.3379 1.23638C48.0649 1.09098 50.6798 0.872897 55.2568 0.727501C55.3296 0.945595 55.4749 1.09098 55.6196 1.09098C57.0001 1.09098 58.4533 1.09098 59.8332 1.09098ZM60.9229 9.38341C60.7782 8.21953 61.7226 7.41919 63.6113 6.91032C63.8294 5.81911 64.0467 5.09145 64.4829 4.80066C68.8419 5.09145 71.0214 5.23684 71.0214 5.23684C71.3841 4.21909 71.8203 3.27332 72.4012 2.54564C73.9271 4.94605 74.7989 6.47342 74.944 7.0557C73.0554 6.4007 72.0384 5.81911 71.893 5.30954C72.2565 6.47342 72.91 7.27375 74.0725 7.78268C74.7989 8.21953 75.0897 8.87384 74.944 9.81962C63.5386 9.81962 52.133 9.81962 40.6548 9.81962C40.5094 8.87384 40.8001 8.21953 41.5264 7.78268C42.6889 7.27375 43.4151 6.47342 43.7059 5.30954C43.5605 5.81911 42.5435 6.4007 40.5821 7.0557C40.8001 6.47342 41.5991 4.94605 43.197 2.54564C43.7786 3.27332 44.214 4.21909 44.5775 5.23684C44.5775 5.23684 46.757 5.09145 51.0433 4.80066C51.3341 5.09145 51.6241 5.81911 51.7695 6.91032C53.7309 7.41919 54.6026 8.21953 54.4579 9.38341C56.7094 9.38341 58.7434 9.38341 60.9229 9.38341ZM44.8683 6.91032H50.5344C50.8979 6.91032 51.1887 7.20109 51.1887 7.56458C51.1887 7.92876 50.8979 8.21953 50.5344 8.21953H44.8683C44.5049 8.21953 44.214 7.92876 44.214 7.56458C44.2868 7.20109 44.5775 6.91032 44.8683 6.91032ZM70.5125 6.91032H64.8464C64.4829 6.91032 64.1921 7.20109 64.1921 7.56458C64.1921 7.92876 64.4829 8.21953 64.8464 8.21953H70.5125C70.876 8.21953 71.1668 7.92876 71.1668 7.56458C71.1668 7.20109 70.876 6.91032 70.5125 6.91032ZM72.1111 31.3507C72.5466 31.4961 72.7647 31.5688 72.7647 31.5688C70.8033 32.878 62.5216 32.7326 59.6885 32.878C57.5817 32.9507 55.765 32.9507 54.3852 32.8053C51.7695 32.5872 42.8342 32.7326 41.5991 31.6414C42.0346 31.3507 42.2527 31.2045 42.2527 31.2045C43.8513 32.7326 70.0043 32.7326 72.1111 31.3507ZM62.8123 28.9503C67.6794 28.5861 70.6579 28.4406 71.6022 28.2953C71.3841 27.7137 70.7305 27.4222 69.5681 27.2768C60.9229 27.7864 52.4238 27.7864 44.0687 27.2041C43.2697 27.4222 42.8342 27.7864 42.7615 28.1499C44.2868 28.4406 47.1932 28.6587 51.3341 28.9503C52.3511 29.0229 54.0944 29.968 56.6366 31.3507C57.0001 31.5688 57.3636 31.5688 57.6544 31.3507C60.1967 29.8953 61.8672 29.0229 62.8123 28.9503ZM90.5631 13.602C90.7813 13.2385 90.927 13.0931 90.927 13.0931C92.1609 15.7843 92.6699 20.5851 92.5974 27.4949C92.5974 31.9322 91.8713 34.1873 90.4906 34.1873C88.7471 33.8238 87.8754 32.2957 88.0205 29.6772C88.1656 28.1499 89.1099 26.1857 90.7813 23.7852C92.3066 20.1482 92.234 16.8028 90.5631 13.602ZM85.8417 30.623C85.4779 29.6045 85.6961 28.5861 86.2045 27.7137C88.3838 23.7852 89.0373 20.367 88.1656 17.3116C80.7559 19.7847 76.1065 21.9671 74.2179 23.7852C74.5081 24.0767 75.0897 24.2221 75.9614 24.0767C82.2817 23.4217 85.9137 22.5486 87.0031 21.6036C87.2213 22.5486 86.4221 24.1494 84.5336 26.1857C83.6618 27.1314 82.2086 27.5676 80.4657 28.0772C77.1964 28.9503 67.7522 35.2057 74.3633 35.3511C81.3374 35.2784 85.4053 34.6235 86.5678 33.2415C86.6403 32.6599 86.277 31.8596 85.8417 30.623ZM74.944 23.4217C74.944 23.5671 74.8714 23.7125 74.8714 23.7125C78.6485 23.1309 86.0588 23.4217 85.551 18.6936C85.3327 18.6936 85.2602 18.6936 85.2602 18.6936C85.4053 23.0583 78.1407 22.9129 74.944 23.4217ZM68.5511 20.7305C68.9146 19.2759 69.4227 18.1847 70.1497 17.6024C71.5295 16.3659 73.7817 15.202 76.9782 14.1115C77.6317 13.8927 78.504 12.8023 79.6659 10.8381C79.2307 11.2743 78.8668 11.7838 78.4315 12.2927C77.9225 12.875 76.9782 13.2385 75.7432 13.602C72.0384 14.9112 69.06 16.6574 68.5511 20.7305ZM24.5268 13.602C24.3087 13.3112 24.164 13.0931 24.164 13.0931C22.9288 15.7843 22.42 20.5851 22.4927 27.4949C22.4927 31.9322 23.2189 34.1873 24.5995 34.1873C26.3427 33.8238 27.2151 32.2957 27.0697 29.6772C26.9243 28.1499 25.98 26.1857 24.3087 23.7852C22.7834 20.1482 22.8562 16.8028 24.5268 13.602ZM29.2492 30.623C29.612 29.6045 29.3946 28.5861 28.8857 27.7137C26.7062 23.7852 26.0527 20.367 26.9243 17.3116C34.3344 19.7847 38.9834 21.9671 40.8729 23.7852C40.5094 24.0767 40.0005 24.2221 39.1288 24.0767C32.8085 23.4217 29.1765 22.5486 28.0868 21.6036C27.8687 22.5486 28.6676 24.1494 30.5563 26.1857C31.4287 27.1314 32.8812 27.5676 34.6252 28.0772C38.4026 29.1684 47.0478 35.2057 40.7275 35.3511C33.7528 35.2784 29.6847 34.6235 28.595 33.2415C28.4495 32.6599 28.813 31.8596 29.2492 30.623ZM40.1459 23.4217C40.1459 23.5671 40.1459 23.7125 40.1459 23.7125C36.3685 23.1309 29.0311 23.4217 29.4666 18.6936C29.6847 18.6936 29.7574 18.6936 29.7574 18.6936C29.7574 23.0583 36.9494 22.9129 40.1459 23.4217ZM46.5389 20.7305C46.1754 19.2759 45.6672 18.1847 44.941 17.6024C43.5605 16.3659 41.3083 15.202 38.1118 14.1115C37.4583 13.8927 36.5866 12.8023 35.4241 10.8381C35.8596 11.2743 36.2231 11.7838 36.6593 12.2927C37.1674 12.875 38.1118 13.2385 39.3469 13.602C43.0516 14.9112 46.0307 16.6574 46.5389 20.7305Z" fill="#E9021E"/>
<mask id="path-2-outside-1_484_244" maskUnits="userSpaceOnUse" x="111.484" y="7.10938" width="80" height="28" fill="black">
<rect fill="white" x="111.484" y="7.10938" width="80" height="28"/>
<path d="M122.23 27.1331C122.23 26.7864 122.314 26.5193 122.482 26.3298C122.66 26.1306 122.86 26.031 123.08 26.031C123.311 26.031 123.51 26.1151 123.678 26.2826C123.857 26.4404 123.935 26.6868 123.915 27.0231C123.81 29.1431 123.238 30.8486 122.198 32.1395C121.201 33.3779 119.952 33.9975 118.451 33.9975C115.617 33.9975 113.786 31.8775 112.957 27.6369C112.642 26.073 112.484 24.2311 112.484 22.1105C112.484 19.9802 112.616 18.0853 112.878 16.427C113.14 14.7584 113.539 13.3098 114.075 12.0816C115.219 9.4578 116.845 8.14583 118.955 8.14583C120.592 8.14583 121.805 8.79134 122.592 10.0823C123.421 11.4575 123.836 13.7036 123.836 16.8209C123.836 17.1669 123.757 17.4295 123.6 17.6079C123.442 17.7761 123.253 17.8596 123.033 17.8596C122.55 17.8596 122.309 17.5556 122.309 16.947C122.309 13.0633 121.689 10.7487 120.451 10.0036C120.01 9.7412 119.496 9.61004 118.908 9.61004C118.32 9.61004 117.79 9.77794 117.318 10.1138C116.856 10.4392 116.441 10.8955 116.074 11.4834C115.717 12.0609 115.407 12.7484 115.145 13.5458C114.883 14.3329 114.668 15.1833 114.5 16.0965C114.164 17.9436 113.996 19.77 113.996 21.5756C113.996 23.3703 114.054 24.8132 114.169 25.9049C114.284 26.9862 114.447 27.915 114.657 28.6917C114.867 29.458 115.114 30.0874 115.397 30.5808C115.691 31.0639 116.011 31.4468 116.357 31.7301C116.945 32.2235 117.696 32.4699 118.609 32.4699C119.627 32.4699 120.461 32.0554 121.112 31.2263C121.878 30.271 122.251 28.907 122.23 27.1331ZM133.329 30.4075C133.319 29.8306 133.319 29.1218 133.329 28.2823C132.878 28.1251 132.306 28.0462 131.613 28.0462C130.679 28.0462 129.913 28.2719 129.315 28.7234C129.021 28.9542 128.785 29.2375 128.606 29.5732C128.428 29.8985 128.339 30.324 128.339 30.8486C128.339 31.3627 128.517 31.7934 128.874 32.1395C129.231 32.4861 129.755 32.6594 130.448 32.6594C131.141 32.6594 131.912 32.1867 132.763 31.2424C133.004 30.9798 133.193 30.7017 133.329 30.4075ZM134.337 33.9658C133.707 33.9658 133.392 33.4885 133.392 32.5333C133.392 32.4699 133.387 32.292 133.377 31.9978C133.282 32.1135 133.177 32.2391 133.062 32.3755C132.117 33.4465 131.088 33.9814 129.976 33.9814C129.084 33.9814 128.344 33.6981 127.756 33.1315C127.147 32.5436 126.843 31.7934 126.843 30.8802C126.843 29.61 127.336 28.5869 128.323 27.8102C128.764 27.4636 129.257 27.201 129.803 27.0231C130.359 26.8446 130.978 26.7553 131.661 26.7553C132.227 26.7553 132.784 26.8498 133.329 27.0386V25.3694C133.329 24.4459 133.135 23.7532 132.747 23.2915C132.369 22.8297 131.975 22.5988 131.566 22.5988C131.157 22.5988 130.821 22.6512 130.558 22.756C130.307 22.8614 130.081 23.0134 129.881 23.2126C129.441 23.6433 129.189 24.1782 129.126 24.8184C129.157 25.1547 129.089 25.3907 128.921 25.5272C128.753 25.6533 128.569 25.7161 128.37 25.7161C127.803 25.7161 127.53 25.3383 127.551 24.5823C127.572 23.7953 127.971 23.0709 128.748 22.4099C129.546 21.7276 130.438 21.3862 131.424 21.3862C132.894 21.3862 133.886 22.1157 134.4 23.5747C134.578 24.0998 134.668 24.6768 134.668 25.3067V26.9281L134.652 29.5732V30.9746C134.652 31.6045 134.725 32.1135 134.872 32.5016C135.03 32.8903 135.108 33.1684 135.108 33.3359C135.108 33.4937 135.03 33.6353 134.872 33.7614C134.715 33.8979 134.536 33.9658 134.337 33.9658ZM145.027 22.2838C145.027 22.8504 144.744 23.1763 144.177 23.2598C143.484 23.3962 142.702 23.9893 141.831 25.0389C140.897 26.1727 140.372 27.2902 140.257 28.3923C140.215 28.8754 140.194 29.3164 140.194 29.7148C140.194 30.6701 140.236 31.6725 140.32 32.7221C140.341 33.0688 140.251 33.3307 140.052 33.5092C139.863 33.6877 139.653 33.777 139.422 33.777C139.202 33.777 139.008 33.6981 138.84 33.5409C138.672 33.3728 138.604 33.1263 138.635 32.801C138.667 32.4648 138.693 32.0819 138.714 31.6518C138.735 31.2107 138.756 30.7489 138.777 30.2659C138.798 29.4471 138.808 28.5345 138.808 27.5269C138.808 25.826 138.787 24.5668 138.745 23.748C138.703 22.9189 138.709 22.4416 138.761 22.3155C138.814 22.1894 138.882 22.0898 138.966 22.0161C139.144 21.8486 139.338 21.7645 139.548 21.7645C139.769 21.7645 139.963 21.8428 140.131 22.0006C140.309 22.1578 140.388 22.3627 140.367 22.6143C140.356 22.8562 140.335 23.0974 140.304 23.3387C140.283 23.5696 140.257 23.858 140.225 24.2046C140.162 24.7608 140.105 25.3539 140.052 25.9838C140.482 24.9025 141.096 23.9052 141.894 22.9926C142.786 21.9954 143.563 21.4968 144.224 21.4968C144.508 21.4968 144.712 21.5756 144.838 21.7328C144.964 21.89 145.027 22.0743 145.027 22.2838ZM147.578 8.16155L150.679 8.30325C151.561 8.30325 152.243 8.29277 152.726 8.27181C153.219 8.2508 153.608 8.23508 153.891 8.22454C154.174 8.21406 154.463 8.18256 154.757 8.13011C155.051 8.0776 155.334 8.12482 155.607 8.27181C155.88 8.40821 156.016 8.71263 156.016 9.18494C156.016 9.64677 155.434 11.3521 154.269 14.3018C153.114 17.2406 152.322 19.2455 151.891 20.3158C151.472 21.3758 151.057 22.4307 150.648 23.4803C150.238 24.5196 149.845 25.522 149.467 26.4876C149.089 27.4532 148.748 28.3399 148.444 29.1483C147.908 30.6177 147.551 31.6569 147.373 32.2655L147.798 32.25H147.971C150.48 32.25 152.658 32.1607 154.505 31.9823C154.872 31.9506 155.145 32.0295 155.324 32.2183C155.513 32.4072 155.607 32.6122 155.607 32.8321C155.607 33.0526 155.518 33.268 155.339 33.4776C155.161 33.6773 154.899 33.7614 154.552 33.7297C153.943 33.6877 153.261 33.667 152.505 33.667C151.76 33.667 151.131 33.6618 150.616 33.6509C150.102 33.6405 149.598 33.6353 149.105 33.6353C147.929 33.614 147.221 33.6198 146.979 33.6509C146.748 33.6929 146.565 33.6929 146.428 33.6509C146.302 33.6198 146.187 33.5616 146.082 33.4776C145.83 33.2576 145.725 32.9951 145.767 32.6905C145.82 32.3755 145.961 31.9034 146.192 31.2735C146.423 30.6332 146.722 29.8622 147.09 28.9594C147.457 28.0566 147.872 27.049 148.333 25.9366C148.795 24.8242 149.273 23.6692 149.766 22.4727C150.27 21.2659 150.763 20.0481 151.246 18.82C151.739 17.5815 152.191 16.3902 152.6 15.2461C153.44 12.9372 153.996 11.116 154.269 9.78323C153.692 9.76221 152.904 9.75173 151.907 9.75173C149.986 9.75173 148.685 9.76745 148.003 9.79895C146.932 9.86194 146.397 9.61528 146.397 9.05896C146.397 8.81759 146.502 8.60766 146.712 8.42923C146.922 8.2508 147.21 8.16155 147.578 8.16155ZM164.345 23.0398C163.999 22.7877 163.589 22.6616 163.117 22.6616C162.655 22.6616 162.23 22.7928 161.842 23.0554C161.464 23.307 161.144 23.664 160.881 24.1258C160.346 25.0493 160.078 26.3195 160.078 27.9357C160.078 29.5421 160.335 30.7276 160.85 31.494C161.364 32.2604 162.052 32.6433 162.912 32.6433C163.857 32.6433 164.613 32.1026 165.179 31.0219C165.683 30.0563 165.935 28.8702 165.935 27.4636C165.935 25.3015 165.405 23.8269 164.345 23.0398ZM162.897 33.9814C162.298 33.9923 161.737 33.8714 161.212 33.6198C160.698 33.3572 160.251 32.953 159.874 32.4072C159.044 31.2527 158.63 29.6101 158.63 27.4797C158.63 25.5692 159.076 24.063 159.968 22.961C160.808 21.9113 161.92 21.3862 163.306 21.3862C164.471 21.3862 165.436 21.89 166.203 22.8976C166.99 23.9686 167.384 25.438 167.384 27.3064C167.384 29.3843 166.927 31.0426 166.014 32.2811C165.195 33.3941 164.156 33.9606 162.897 33.9814ZM178.609 25.9993L178.577 29.3999C178.577 30.5232 178.614 31.5729 178.687 32.5488C178.709 32.9058 178.619 33.1735 178.42 33.352C178.231 33.5196 178.026 33.6037 177.806 33.6037C177.596 33.6037 177.402 33.5253 177.223 33.3676C177.056 33.1995 176.987 32.953 177.019 32.6277C177.061 32.292 177.092 31.9086 177.113 31.4784C177.145 31.0478 177.171 30.6021 177.192 30.1403C177.234 29.2162 177.255 28.4556 177.255 27.8574C177.255 27.2482 177.244 26.8077 177.223 26.5348C177.202 26.2619 177.182 25.8577 177.16 25.3222C177.14 24.777 176.998 24.2674 176.736 23.7953C176.473 23.3128 176.106 23.0709 175.633 23.0709C175.161 23.0709 174.752 23.1705 174.405 23.3703C174.059 23.5696 173.739 23.8321 173.445 24.1574C172.847 24.8605 172.448 25.6792 172.248 26.6137C172.238 26.9073 172.233 27.1958 172.233 27.4797V28.2979C172.233 30.1979 172.254 31.4571 172.296 32.0767C172.338 32.6853 172.301 33.0947 172.185 33.3048C172.07 33.504 171.866 33.6037 171.571 33.6037C171.288 33.6037 171.062 33.5144 170.894 33.3359C170.737 33.1471 170.674 32.8062 170.705 32.3128C170.81 30.9585 170.863 29.568 170.863 28.1407C170.863 25.6953 170.826 23.9001 170.753 22.756C170.711 22.053 171.005 21.7012 171.634 21.7012C171.96 21.7012 172.164 21.8013 172.248 22.0006C172.343 22.1998 172.375 22.4099 172.343 22.6305C172.322 22.8504 172.306 23.0398 172.296 23.197C172.296 23.3542 172.296 23.5172 172.296 23.6853C172.296 23.8528 172.296 24.0054 172.296 24.1419C172.915 22.9661 173.739 22.1946 174.768 21.8273C175.093 21.7121 175.423 21.6539 175.76 21.6539C176.095 21.6539 176.441 21.7328 176.798 21.89C177.155 22.0374 177.465 22.2838 177.728 22.6305C178.315 23.3859 178.609 24.5092 178.609 25.9993ZM188.669 26.8336C188.69 25.0078 188.307 23.7584 187.52 23.0871C187.205 22.8032 186.822 22.6616 186.371 22.6616C185.919 22.6616 185.547 22.7456 185.253 22.9137C184.959 23.0819 184.697 23.307 184.466 23.5909C184.245 23.8741 184.057 24.1995 183.899 24.5668C183.752 24.9238 183.631 25.2911 183.537 25.6688C183.442 26.0679 183.374 26.4611 183.332 26.8498L185.489 26.9442C186.896 26.9442 187.956 26.9073 188.669 26.8336ZM183.269 28.2034C183.29 29.6521 183.553 30.7593 184.057 31.5257C184.602 32.3444 185.373 32.7538 186.371 32.7538C187.284 32.7538 187.951 32.3024 188.37 31.3996C188.633 30.8117 188.958 30.5181 189.346 30.5181C189.525 30.5181 189.672 30.5756 189.787 30.6914C189.913 30.8065 189.971 31.0115 189.961 31.3051C189.95 31.5884 189.845 31.8982 189.646 32.2339C189.457 32.5701 189.189 32.869 188.842 33.1315C188.087 33.7194 187.179 34.013 186.119 34.013C184.975 34.013 183.988 33.5253 183.159 32.5488C182.288 31.5205 181.852 30.2975 181.852 28.8805C181.852 27.4635 181.973 26.3143 182.214 25.4328C182.466 24.5403 182.797 23.8004 183.206 23.2126C184.004 22.0265 185.001 21.434 186.197 21.434C187.73 21.434 188.806 22.0374 189.425 23.2442C189.855 24.0837 190.086 25.317 190.118 26.9442C190.128 27.406 190.055 27.7157 189.897 27.8729C189.74 28.0307 189.42 28.109 188.937 28.109L183.269 28.2034Z"/>
</mask>
<path d="M122.23 27.1331C122.23 26.7864 122.314 26.5193 122.482 26.3298C122.66 26.1306 122.86 26.031 123.08 26.031C123.311 26.031 123.51 26.1151 123.678 26.2826C123.857 26.4404 123.935 26.6868 123.915 27.0231C123.81 29.1431 123.238 30.8486 122.198 32.1395C121.201 33.3779 119.952 33.9975 118.451 33.9975C115.617 33.9975 113.786 31.8775 112.957 27.6369C112.642 26.073 112.484 24.2311 112.484 22.1105C112.484 19.9802 112.616 18.0853 112.878 16.427C113.14 14.7584 113.539 13.3098 114.075 12.0816C115.219 9.4578 116.845 8.14583 118.955 8.14583C120.592 8.14583 121.805 8.79134 122.592 10.0823C123.421 11.4575 123.836 13.7036 123.836 16.8209C123.836 17.1669 123.757 17.4295 123.6 17.6079C123.442 17.7761 123.253 17.8596 123.033 17.8596C122.55 17.8596 122.309 17.5556 122.309 16.947C122.309 13.0633 121.689 10.7487 120.451 10.0036C120.01 9.7412 119.496 9.61004 118.908 9.61004C118.32 9.61004 117.79 9.77794 117.318 10.1138C116.856 10.4392 116.441 10.8955 116.074 11.4834C115.717 12.0609 115.407 12.7484 115.145 13.5458C114.883 14.3329 114.668 15.1833 114.5 16.0965C114.164 17.9436 113.996 19.77 113.996 21.5756C113.996 23.3703 114.054 24.8132 114.169 25.9049C114.284 26.9862 114.447 27.915 114.657 28.6917C114.867 29.458 115.114 30.0874 115.397 30.5808C115.691 31.0639 116.011 31.4468 116.357 31.7301C116.945 32.2235 117.696 32.4699 118.609 32.4699C119.627 32.4699 120.461 32.0554 121.112 31.2263C121.878 30.271 122.251 28.907 122.23 27.1331ZM133.329 30.4075C133.319 29.8306 133.319 29.1218 133.329 28.2823C132.878 28.1251 132.306 28.0462 131.613 28.0462C130.679 28.0462 129.913 28.2719 129.315 28.7234C129.021 28.9542 128.785 29.2375 128.606 29.5732C128.428 29.8985 128.339 30.324 128.339 30.8486C128.339 31.3627 128.517 31.7934 128.874 32.1395C129.231 32.4861 129.755 32.6594 130.448 32.6594C131.141 32.6594 131.912 32.1867 132.763 31.2424C133.004 30.9798 133.193 30.7017 133.329 30.4075ZM134.337 33.9658C133.707 33.9658 133.392 33.4885 133.392 32.5333C133.392 32.4699 133.387 32.292 133.377 31.9978C133.282 32.1135 133.177 32.2391 133.062 32.3755C132.117 33.4465 131.088 33.9814 129.976 33.9814C129.084 33.9814 128.344 33.6981 127.756 33.1315C127.147 32.5436 126.843 31.7934 126.843 30.8802C126.843 29.61 127.336 28.5869 128.323 27.8102C128.764 27.4636 129.257 27.201 129.803 27.0231C130.359 26.8446 130.978 26.7553 131.661 26.7553C132.227 26.7553 132.784 26.8498 133.329 27.0386V25.3694C133.329 24.4459 133.135 23.7532 132.747 23.2915C132.369 22.8297 131.975 22.5988 131.566 22.5988C131.157 22.5988 130.821 22.6512 130.558 22.756C130.307 22.8614 130.081 23.0134 129.881 23.2126C129.441 23.6433 129.189 24.1782 129.126 24.8184C129.157 25.1547 129.089 25.3907 128.921 25.5272C128.753 25.6533 128.569 25.7161 128.37 25.7161C127.803 25.7161 127.53 25.3383 127.551 24.5823C127.572 23.7953 127.971 23.0709 128.748 22.4099C129.546 21.7276 130.438 21.3862 131.424 21.3862C132.894 21.3862 133.886 22.1157 134.4 23.5747C134.578 24.0998 134.668 24.6768 134.668 25.3067V26.9281L134.652 29.5732V30.9746C134.652 31.6045 134.725 32.1135 134.872 32.5016C135.03 32.8903 135.108 33.1684 135.108 33.3359C135.108 33.4937 135.03 33.6353 134.872 33.7614C134.715 33.8979 134.536 33.9658 134.337 33.9658ZM145.027 22.2838C145.027 22.8504 144.744 23.1763 144.177 23.2598C143.484 23.3962 142.702 23.9893 141.831 25.0389C140.897 26.1727 140.372 27.2902 140.257 28.3923C140.215 28.8754 140.194 29.3164 140.194 29.7148C140.194 30.6701 140.236 31.6725 140.32 32.7221C140.341 33.0688 140.251 33.3307 140.052 33.5092C139.863 33.6877 139.653 33.777 139.422 33.777C139.202 33.777 139.008 33.6981 138.84 33.5409C138.672 33.3728 138.604 33.1263 138.635 32.801C138.667 32.4648 138.693 32.0819 138.714 31.6518C138.735 31.2107 138.756 30.7489 138.777 30.2659C138.798 29.4471 138.808 28.5345 138.808 27.5269C138.808 25.826 138.787 24.5668 138.745 23.748C138.703 22.9189 138.709 22.4416 138.761 22.3155C138.814 22.1894 138.882 22.0898 138.966 22.0161C139.144 21.8486 139.338 21.7645 139.548 21.7645C139.769 21.7645 139.963 21.8428 140.131 22.0006C140.309 22.1578 140.388 22.3627 140.367 22.6143C140.356 22.8562 140.335 23.0974 140.304 23.3387C140.283 23.5696 140.257 23.858 140.225 24.2046C140.162 24.7608 140.105 25.3539 140.052 25.9838C140.482 24.9025 141.096 23.9052 141.894 22.9926C142.786 21.9954 143.563 21.4968 144.224 21.4968C144.508 21.4968 144.712 21.5756 144.838 21.7328C144.964 21.89 145.027 22.0743 145.027 22.2838ZM147.578 8.16155L150.679 8.30325C151.561 8.30325 152.243 8.29277 152.726 8.27181C153.219 8.2508 153.608 8.23508 153.891 8.22454C154.174 8.21406 154.463 8.18256 154.757 8.13011C155.051 8.0776 155.334 8.12482 155.607 8.27181C155.88 8.40821 156.016 8.71263 156.016 9.18494C156.016 9.64677 155.434 11.3521 154.269 14.3018C153.114 17.2406 152.322 19.2455 151.891 20.3158C151.472 21.3758 151.057 22.4307 150.648 23.4803C150.238 24.5196 149.845 25.522 149.467 26.4876C149.089 27.4532 148.748 28.3399 148.444 29.1483C147.908 30.6177 147.551 31.6569 147.373 32.2655L147.798 32.25H147.971C150.48 32.25 152.658 32.1607 154.505 31.9823C154.872 31.9506 155.145 32.0295 155.324 32.2183C155.513 32.4072 155.607 32.6122 155.607 32.8321C155.607 33.0526 155.518 33.268 155.339 33.4776C155.161 33.6773 154.899 33.7614 154.552 33.7297C153.943 33.6877 153.261 33.667 152.505 33.667C151.76 33.667 151.131 33.6618 150.616 33.6509C150.102 33.6405 149.598 33.6353 149.105 33.6353C147.929 33.614 147.221 33.6198 146.979 33.6509C146.748 33.6929 146.565 33.6929 146.428 33.6509C146.302 33.6198 146.187 33.5616 146.082 33.4776C145.83 33.2576 145.725 32.9951 145.767 32.6905C145.82 32.3755 145.961 31.9034 146.192 31.2735C146.423 30.6332 146.722 29.8622 147.09 28.9594C147.457 28.0566 147.872 27.049 148.333 25.9366C148.795 24.8242 149.273 23.6692 149.766 22.4727C150.27 21.2659 150.763 20.0481 151.246 18.82C151.739 17.5815 152.191 16.3902 152.6 15.2461C153.44 12.9372 153.996 11.116 154.269 9.78323C153.692 9.76221 152.904 9.75173 151.907 9.75173C149.986 9.75173 148.685 9.76745 148.003 9.79895C146.932 9.86194 146.397 9.61528 146.397 9.05896C146.397 8.81759 146.502 8.60766 146.712 8.42923C146.922 8.2508 147.21 8.16155 147.578 8.16155ZM164.345 23.0398C163.999 22.7877 163.589 22.6616 163.117 22.6616C162.655 22.6616 162.23 22.7928 161.842 23.0554C161.464 23.307 161.144 23.664 160.881 24.1258C160.346 25.0493 160.078 26.3195 160.078 27.9357C160.078 29.5421 160.335 30.7276 160.85 31.494C161.364 32.2604 162.052 32.6433 162.912 32.6433C163.857 32.6433 164.613 32.1026 165.179 31.0219C165.683 30.0563 165.935 28.8702 165.935 27.4636C165.935 25.3015 165.405 23.8269 164.345 23.0398ZM162.897 33.9814C162.298 33.9923 161.737 33.8714 161.212 33.6198C160.698 33.3572 160.251 32.953 159.874 32.4072C159.044 31.2527 158.63 29.6101 158.63 27.4797C158.63 25.5692 159.076 24.063 159.968 22.961C160.808 21.9113 161.92 21.3862 163.306 21.3862C164.471 21.3862 165.436 21.89 166.203 22.8976C166.99 23.9686 167.384 25.438 167.384 27.3064C167.384 29.3843 166.927 31.0426 166.014 32.2811C165.195 33.3941 164.156 33.9606 162.897 33.9814ZM178.609 25.9993L178.577 29.3999C178.577 30.5232 178.614 31.5729 178.687 32.5488C178.709 32.9058 178.619 33.1735 178.42 33.352C178.231 33.5196 178.026 33.6037 177.806 33.6037C177.596 33.6037 177.402 33.5253 177.223 33.3676C177.056 33.1995 176.987 32.953 177.019 32.6277C177.061 32.292 177.092 31.9086 177.113 31.4784C177.145 31.0478 177.171 30.6021 177.192 30.1403C177.234 29.2162 177.255 28.4556 177.255 27.8574C177.255 27.2482 177.244 26.8077 177.223 26.5348C177.202 26.2619 177.182 25.8577 177.16 25.3222C177.14 24.777 176.998 24.2674 176.736 23.7953C176.473 23.3128 176.106 23.0709 175.633 23.0709C175.161 23.0709 174.752 23.1705 174.405 23.3703C174.059 23.5696 173.739 23.8321 173.445 24.1574C172.847 24.8605 172.448 25.6792 172.248 26.6137C172.238 26.9073 172.233 27.1958 172.233 27.4797V28.2979C172.233 30.1979 172.254 31.4571 172.296 32.0767C172.338 32.6853 172.301 33.0947 172.185 33.3048C172.07 33.504 171.866 33.6037 171.571 33.6037C171.288 33.6037 171.062 33.5144 170.894 33.3359C170.737 33.1471 170.674 32.8062 170.705 32.3128C170.81 30.9585 170.863 29.568 170.863 28.1407C170.863 25.6953 170.826 23.9001 170.753 22.756C170.711 22.053 171.005 21.7012 171.634 21.7012C171.96 21.7012 172.164 21.8013 172.248 22.0006C172.343 22.1998 172.375 22.4099 172.343 22.6305C172.322 22.8504 172.306 23.0398 172.296 23.197C172.296 23.3542 172.296 23.5172 172.296 23.6853C172.296 23.8528 172.296 24.0054 172.296 24.1419C172.915 22.9661 173.739 22.1946 174.768 21.8273C175.093 21.7121 175.423 21.6539 175.76 21.6539C176.095 21.6539 176.441 21.7328 176.798 21.89C177.155 22.0374 177.465 22.2838 177.728 22.6305C178.315 23.3859 178.609 24.5092 178.609 25.9993ZM188.669 26.8336C188.69 25.0078 188.307 23.7584 187.52 23.0871C187.205 22.8032 186.822 22.6616 186.371 22.6616C185.919 22.6616 185.547 22.7456 185.253 22.9137C184.959 23.0819 184.697 23.307 184.466 23.5909C184.245 23.8741 184.057 24.1995 183.899 24.5668C183.752 24.9238 183.631 25.2911 183.537 25.6688C183.442 26.0679 183.374 26.4611 183.332 26.8498L185.489 26.9442C186.896 26.9442 187.956 26.9073 188.669 26.8336ZM183.269 28.2034C183.29 29.6521 183.553 30.7593 184.057 31.5257C184.602 32.3444 185.373 32.7538 186.371 32.7538C187.284 32.7538 187.951 32.3024 188.37 31.3996C188.633 30.8117 188.958 30.5181 189.346 30.5181C189.525 30.5181 189.672 30.5756 189.787 30.6914C189.913 30.8065 189.971 31.0115 189.961 31.3051C189.95 31.5884 189.845 31.8982 189.646 32.2339C189.457 32.5701 189.189 32.869 188.842 33.1315C188.087 33.7194 187.179 34.013 186.119 34.013C184.975 34.013 183.988 33.5253 183.159 32.5488C182.288 31.5205 181.852 30.2975 181.852 28.8805C181.852 27.4635 181.973 26.3143 182.214 25.4328C182.466 24.5403 182.797 23.8004 183.206 23.2126C184.004 22.0265 185.001 21.434 186.197 21.434C187.73 21.434 188.806 22.0374 189.425 23.2442C189.855 24.0837 190.086 25.317 190.118 26.9442C190.128 27.406 190.055 27.7157 189.897 27.8729C189.74 28.0307 189.42 28.109 188.937 28.109L183.269 28.2034Z" fill="black"/>
<path d="M122.23 27.1331C122.23 26.7864 122.314 26.5193 122.482 26.3298C122.66 26.1306 122.86 26.031 123.08 26.031C123.311 26.031 123.51 26.1151 123.678 26.2826C123.857 26.4404 123.935 26.6868 123.915 27.0231C123.81 29.1431 123.238 30.8486 122.198 32.1395C121.201 33.3779 119.952 33.9975 118.451 33.9975C115.617 33.9975 113.786 31.8775 112.957 27.6369C112.642 26.073 112.484 24.2311 112.484 22.1105C112.484 19.9802 112.616 18.0853 112.878 16.427C113.14 14.7584 113.539 13.3098 114.075 12.0816C115.219 9.4578 116.845 8.14583 118.955 8.14583C120.592 8.14583 121.805 8.79134 122.592 10.0823C123.421 11.4575 123.836 13.7036 123.836 16.8209C123.836 17.1669 123.757 17.4295 123.6 17.6079C123.442 17.7761 123.253 17.8596 123.033 17.8596C122.55 17.8596 122.309 17.5556 122.309 16.947C122.309 13.0633 121.689 10.7487 120.451 10.0036C120.01 9.7412 119.496 9.61004 118.908 9.61004C118.32 9.61004 117.79 9.77794 117.318 10.1138C116.856 10.4392 116.441 10.8955 116.074 11.4834C115.717 12.0609 115.407 12.7484 115.145 13.5458C114.883 14.3329 114.668 15.1833 114.5 16.0965C114.164 17.9436 113.996 19.77 113.996 21.5756C113.996 23.3703 114.054 24.8132 114.169 25.9049C114.284 26.9862 114.447 27.915 114.657 28.6917C114.867 29.458 115.114 30.0874 115.397 30.5808C115.691 31.0639 116.011 31.4468 116.357 31.7301C116.945 32.2235 117.696 32.4699 118.609 32.4699C119.627 32.4699 120.461 32.0554 121.112 31.2263C121.878 30.271 122.251 28.907 122.23 27.1331ZM133.329 30.4075C133.319 29.8306 133.319 29.1218 133.329 28.2823C132.878 28.1251 132.306 28.0462 131.613 28.0462C130.679 28.0462 129.913 28.2719 129.315 28.7234C129.021 28.9542 128.785 29.2375 128.606 29.5732C128.428 29.8985 128.339 30.324 128.339 30.8486C128.339 31.3627 128.517 31.7934 128.874 32.1395C129.231 32.4861 129.755 32.6594 130.448 32.6594C131.141 32.6594 131.912 32.1867 132.763 31.2424C133.004 30.9798 133.193 30.7017 133.329 30.4075ZM134.337 33.9658C133.707 33.9658 133.392 33.4885 133.392 32.5333C133.392 32.4699 133.387 32.292 133.377 31.9978C133.282 32.1135 133.177 32.2391 133.062 32.3755C132.117 33.4465 131.088 33.9814 129.976 33.9814C129.084 33.9814 128.344 33.6981 127.756 33.1315C127.147 32.5436 126.843 31.7934 126.843 30.8802C126.843 29.61 127.336 28.5869 128.323 27.8102C128.764 27.4636 129.257 27.201 129.803 27.0231C130.359 26.8446 130.978 26.7553 131.661 26.7553C132.227 26.7553 132.784 26.8498 133.329 27.0386V25.3694C133.329 24.4459 133.135 23.7532 132.747 23.2915C132.369 22.8297 131.975 22.5988 131.566 22.5988C131.157 22.5988 130.821 22.6512 130.558 22.756C130.307 22.8614 130.081 23.0134 129.881 23.2126C129.441 23.6433 129.189 24.1782 129.126 24.8184C129.157 25.1547 129.089 25.3907 128.921 25.5272C128.753 25.6533 128.569 25.7161 128.37 25.7161C127.803 25.7161 127.53 25.3383 127.551 24.5823C127.572 23.7953 127.971 23.0709 128.748 22.4099C129.546 21.7276 130.438 21.3862 131.424 21.3862C132.894 21.3862 133.886 22.1157 134.4 23.5747C134.578 24.0998 134.668 24.6768 134.668 25.3067V26.9281L134.652 29.5732V30.9746C134.652 31.6045 134.725 32.1135 134.872 32.5016C135.03 32.8903 135.108 33.1684 135.108 33.3359C135.108 33.4937 135.03 33.6353 134.872 33.7614C134.715 33.8979 134.536 33.9658 134.337 33.9658ZM145.027 22.2838C145.027 22.8504 144.744 23.1763 144.177 23.2598C143.484 23.3962 142.702 23.9893 141.831 25.0389C140.897 26.1727 140.372 27.2902 140.257 28.3923C140.215 28.8754 140.194 29.3164 140.194 29.7148C140.194 30.6701 140.236 31.6725 140.32 32.7221C140.341 33.0688 140.251 33.3307 140.052 33.5092C139.863 33.6877 139.653 33.777 139.422 33.777C139.202 33.777 139.008 33.6981 138.84 33.5409C138.672 33.3728 138.604 33.1263 138.635 32.801C138.667 32.4648 138.693 32.0819 138.714 31.6518C138.735 31.2107 138.756 30.7489 138.777 30.2659C138.798 29.4471 138.808 28.5345 138.808 27.5269C138.808 25.826 138.787 24.5668 138.745 23.748C138.703 22.9189 138.709 22.4416 138.761 22.3155C138.814 22.1894 138.882 22.0898 138.966 22.0161C139.144 21.8486 139.338 21.7645 139.548 21.7645C139.769 21.7645 139.963 21.8428 140.131 22.0006C140.309 22.1578 140.388 22.3627 140.367 22.6143C140.356 22.8562 140.335 23.0974 140.304 23.3387C140.283 23.5696 140.257 23.858 140.225 24.2046C140.162 24.7608 140.105 25.3539 140.052 25.9838C140.482 24.9025 141.096 23.9052 141.894 22.9926C142.786 21.9954 143.563 21.4968 144.224 21.4968C144.508 21.4968 144.712 21.5756 144.838 21.7328C144.964 21.89 145.027 22.0743 145.027 22.2838ZM147.578 8.16155L150.679 8.30325C151.561 8.30325 152.243 8.29277 152.726 8.27181C153.219 8.2508 153.608 8.23508 153.891 8.22454C154.174 8.21406 154.463 8.18256 154.757 8.13011C155.051 8.0776 155.334 8.12482 155.607 8.27181C155.88 8.40821 156.016 8.71263 156.016 9.18494C156.016 9.64677 155.434 11.3521 154.269 14.3018C153.114 17.2406 152.322 19.2455 151.891 20.3158C151.472 21.3758 151.057 22.4307 150.648 23.4803C150.238 24.5196 149.845 25.522 149.467 26.4876C149.089 27.4532 148.748 28.3399 148.444 29.1483C147.908 30.6177 147.551 31.6569 147.373 32.2655L147.798 32.25H147.971C150.48 32.25 152.658 32.1607 154.505 31.9823C154.872 31.9506 155.145 32.0295 155.324 32.2183C155.513 32.4072 155.607 32.6122 155.607 32.8321C155.607 33.0526 155.518 33.268 155.339 33.4776C155.161 33.6773 154.899 33.7614 154.552 33.7297C153.943 33.6877 153.261 33.667 152.505 33.667C151.76 33.667 151.131 33.6618 150.616 33.6509C150.102 33.6405 149.598 33.6353 149.105 33.6353C147.929 33.614 147.221 33.6198 146.979 33.6509C146.748 33.6929 146.565 33.6929 146.428 33.6509C146.302 33.6198 146.187 33.5616 146.082 33.4776C145.83 33.2576 145.725 32.9951 145.767 32.6905C145.82 32.3755 145.961 31.9034 146.192 31.2735C146.423 30.6332 146.722 29.8622 147.09 28.9594C147.457 28.0566 147.872 27.049 148.333 25.9366C148.795 24.8242 149.273 23.6692 149.766 22.4727C150.27 21.2659 150.763 20.0481 151.246 18.82C151.739 17.5815 152.191 16.3902 152.6 15.2461C153.44 12.9372 153.996 11.116 154.269 9.78323C153.692 9.76221 152.904 9.75173 151.907 9.75173C149.986 9.75173 148.685 9.76745 148.003 9.79895C146.932 9.86194 146.397 9.61528 146.397 9.05896C146.397 8.81759 146.502 8.60766 146.712 8.42923C146.922 8.2508 147.21 8.16155 147.578 8.16155ZM164.345 23.0398C163.999 22.7877 163.589 22.6616 163.117 22.6616C162.655 22.6616 162.23 22.7928 161.842 23.0554C161.464 23.307 161.144 23.664 160.881 24.1258C160.346 25.0493 160.078 26.3195 160.078 27.9357C160.078 29.5421 160.335 30.7276 160.85 31.494C161.364 32.2604 162.052 32.6433 162.912 32.6433C163.857 32.6433 164.613 32.1026 165.179 31.0219C165.683 30.0563 165.935 28.8702 165.935 27.4636C165.935 25.3015 165.405 23.8269 164.345 23.0398ZM162.897 33.9814C162.298 33.9923 161.737 33.8714 161.212 33.6198C160.698 33.3572 160.251 32.953 159.874 32.4072C159.044 31.2527 158.63 29.6101 158.63 27.4797C158.63 25.5692 159.076 24.063 159.968 22.961C160.808 21.9113 161.92 21.3862 163.306 21.3862C164.471 21.3862 165.436 21.89 166.203 22.8976C166.99 23.9686 167.384 25.438 167.384 27.3064C167.384 29.3843 166.927 31.0426 166.014 32.2811C165.195 33.3941 164.156 33.9606 162.897 33.9814ZM178.609 25.9993L178.577 29.3999C178.577 30.5232 178.614 31.5729 178.687 32.5488C178.709 32.9058 178.619 33.1735 178.42 33.352C178.231 33.5196 178.026 33.6037 177.806 33.6037C177.596 33.6037 177.402 33.5253 177.223 33.3676C177.056 33.1995 176.987 32.953 177.019 32.6277C177.061 32.292 177.092 31.9086 177.113 31.4784C177.145 31.0478 177.171 30.6021 177.192 30.1403C177.234 29.2162 177.255 28.4556 177.255 27.8574C177.255 27.2482 177.244 26.8077 177.223 26.5348C177.202 26.2619 177.182 25.8577 177.16 25.3222C177.14 24.777 176.998 24.2674 176.736 23.7953C176.473 23.3128 176.106 23.0709 175.633 23.0709C175.161 23.0709 174.752 23.1705 174.405 23.3703C174.059 23.5696 173.739 23.8321 173.445 24.1574C172.847 24.8605 172.448 25.6792 172.248 26.6137C172.238 26.9073 172.233 27.1958 172.233 27.4797V28.2979C172.233 30.1979 172.254 31.4571 172.296 32.0767C172.338 32.6853 172.301 33.0947 172.185 33.3048C172.07 33.504 171.866 33.6037 171.571 33.6037C171.288 33.6037 171.062 33.5144 170.894 33.3359C170.737 33.1471 170.674 32.8062 170.705 32.3128C170.81 30.9585 170.863 29.568 170.863 28.1407C170.863 25.6953 170.826 23.9001 170.753 22.756C170.711 22.053 171.005 21.7012 171.634 21.7012C171.96 21.7012 172.164 21.8013 172.248 22.0006C172.343 22.1998 172.375 22.4099 172.343 22.6305C172.322 22.8504 172.306 23.0398 172.296 23.197C172.296 23.3542 172.296 23.5172 172.296 23.6853C172.296 23.8528 172.296 24.0054 172.296 24.1419C172.915 22.9661 173.739 22.1946 174.768 21.8273C175.093 21.7121 175.423 21.6539 175.76 21.6539C176.095 21.6539 176.441 21.7328 176.798 21.89C177.155 22.0374 177.465 22.2838 177.728 22.6305C178.315 23.3859 178.609 24.5092 178.609 25.9993ZM188.669 26.8336C188.69 25.0078 188.307 23.7584 187.52 23.0871C187.205 22.8032 186.822 22.6616 186.371 22.6616C185.919 22.6616 185.547 22.7456 185.253 22.9137C184.959 23.0819 184.697 23.307 184.466 23.5909C184.245 23.8741 184.057 24.1995 183.899 24.5668C183.752 24.9238 183.631 25.2911 183.537 25.6688C183.442 26.0679 183.374 26.4611 183.332 26.8498L185.489 26.9442C186.896 26.9442 187.956 26.9073 188.669 26.8336ZM183.269 28.2034C183.29 29.6521 183.553 30.7593 184.057 31.5257C184.602 32.3444 185.373 32.7538 186.371 32.7538C187.284 32.7538 187.951 32.3024 188.37 31.3996C188.633 30.8117 188.958 30.5181 189.346 30.5181C189.525 30.5181 189.672 30.5756 189.787 30.6914C189.913 30.8065 189.971 31.0115 189.961 31.3051C189.95 31.5884 189.845 31.8982 189.646 32.2339C189.457 32.5701 189.189 32.869 188.842 33.1315C188.087 33.7194 187.179 34.013 186.119 34.013C184.975 34.013 183.988 33.5253 183.159 32.5488C182.288 31.5205 181.852 30.2975 181.852 28.8805C181.852 27.4635 181.973 26.3143 182.214 25.4328C182.466 24.5403 182.797 23.8004 183.206 23.2126C184.004 22.0265 185.001 21.434 186.197 21.434C187.73 21.434 188.806 22.0374 189.425 23.2442C189.855 24.0837 190.086 25.317 190.118 26.9442C190.128 27.406 190.055 27.7157 189.897 27.8729C189.74 28.0307 189.42 28.109 188.937 28.109L183.269 28.2034Z" stroke="black" stroke-width="0.8" mask="url(#path-2-outside-1_484_244)"/>
</g>
<defs>
<clipPath id="clip0_484_244">
<rect width="209.839" height="42.1159" fill="white"/>
</clipPath>
</defs>
</svg>
