<svg width="136" height="34" viewBox="0 0 136 34" fill="none" xmlns="http://www.w3.org/2000/svg">
<g clip-path="url(#clip0_391_418)">
<path fill-rule="evenodd" clip-rule="evenodd" d="M57.3337 27.7858C57.5042 28.3546 57.0497 28.2404 57.0497 28.525C58.015 28.525 57.9583 28.1836 58.4128 28.1267C58.5257 28.1267 58.5258 28.9795 59.2638 28.6954C59.3776 28.6387 59.6615 28.9227 59.3776 29.0364C59.3776 29.0364 58.3561 29.7187 58.5258 29.7187C58.6396 29.7187 59.2638 29.7187 59.3209 29.8323V29.7755C52.2807 35.2332 8.22129 35.2332 1.18107 29.7755V29.8323C1.23733 29.7187 1.80549 29.7187 1.91912 29.7187C2.08901 29.7187 1.12425 29.0932 1.12425 29.0364C0.84017 28.9227 1.12425 28.6387 1.18107 28.6954C1.91912 28.9795 1.91912 28.1267 2.08901 28.1267C2.54355 28.1836 2.48673 28.525 3.45205 28.525C3.45205 28.2404 3.05433 28.3546 3.22478 27.7858C13.2178 32.8453 47.3977 32.8453 57.3337 27.7858ZM45.41 9.30999C46.0351 9.13953 46.4892 8.74127 46.7731 8.22994C46.7164 8.05948 46.4324 7.83164 45.9217 7.66118C43.8773 4.13637 42.8558 2.31769 42.8558 2.31769C42.912 2.08987 43.1961 1.8626 43.7635 1.63534C34.0548 0.725721 27.3555 0.725721 17.7029 1.63534C18.271 1.8626 18.6114 2.08987 18.6114 2.31769C18.6114 2.31769 17.5893 4.07955 15.5455 7.66118C15.0347 7.83164 14.7507 8.05948 14.6939 8.22994C14.9779 8.74127 15.3751 9.13953 16.0563 9.30999C26.1061 9.42361 35.3042 9.42361 45.41 9.30999ZM32.3515 1.80578C32.5219 1.74897 32.6355 1.69216 32.6355 1.5217C36.2127 1.63534 38.2564 1.80578 38.824 1.91942C38.6542 2.14668 38.5973 2.31769 38.5973 2.31769C36.9508 1.91942 35.7582 3.0563 35.077 5.84197L30.7049 5.89876L26.3334 5.84197C25.6521 3.11312 24.4596 1.91942 22.813 2.31769C22.813 2.31769 22.7562 2.2035 22.5857 1.91942C23.1539 1.80578 25.1976 1.63534 28.7748 1.5217C28.8316 1.69216 28.9453 1.80578 29.0584 1.80578C30.1373 1.80578 31.273 1.80578 32.3515 1.80578ZM33.2031 8.28673C33.09 7.3771 33.8281 6.7516 35.3042 6.35389C35.4747 5.50105 35.6446 4.93235 35.9855 4.70509C39.3922 4.93235 41.0956 5.04598 41.0956 5.04598C41.3791 4.25055 41.72 3.51139 42.174 2.94267C43.3666 4.81871 44.0479 6.01243 44.1613 6.46751C42.6853 5.95559 41.8905 5.50105 41.7768 5.1028C42.0609 6.01243 42.5717 6.63793 43.4802 7.03568C44.0479 7.3771 44.2752 7.88848 44.1613 8.62765C35.2474 8.62765 26.3334 8.62765 17.3625 8.62765C17.2489 7.88848 17.4762 7.3771 18.0438 7.03568C18.9523 6.63793 19.5199 6.01243 19.7472 5.1028C19.6335 5.50105 18.8387 5.95559 17.3058 6.46751C17.4762 6.01243 18.1006 4.81871 19.3494 2.94267C19.804 3.51139 20.1443 4.25055 20.4284 5.04598C20.4284 5.04598 22.1318 4.93235 25.4817 4.70509C25.709 4.93235 25.9357 5.50105 26.0493 6.35389C27.5822 6.7516 28.2635 7.3771 28.1504 8.28673C29.91 8.28673 31.4997 8.28673 33.2031 8.28673ZM20.6556 6.35389H25.084C25.3681 6.35389 25.5953 6.58114 25.5953 6.86522C25.5953 7.14985 25.3681 7.3771 25.084 7.3771H20.6556C20.3716 7.3771 20.1443 7.14985 20.1443 6.86522C20.2011 6.58114 20.4284 6.35389 20.6556 6.35389ZM40.6979 6.35389H36.2695C35.9855 6.35389 35.7582 6.58114 35.7582 6.86522C35.7582 7.14985 35.9855 7.3771 36.2695 7.3771H40.6979C40.982 7.3771 41.2092 7.14985 41.2092 6.86522C41.2092 6.58114 40.982 6.35389 40.6979 6.35389ZM41.9473 25.4553C42.2876 25.5689 42.458 25.6257 42.458 25.6257C40.9251 26.6489 34.4525 26.5353 32.2384 26.6489C30.5918 26.7058 29.172 26.7058 28.0936 26.5921C26.0493 26.4217 19.0659 26.5353 18.1006 25.6825C18.441 25.4553 18.6114 25.3411 18.6114 25.3411C19.8608 26.5353 40.3007 26.5353 41.9473 25.4553ZM34.6798 23.5792C38.4837 23.2946 40.8115 23.1809 41.5495 23.0673C41.3791 22.6128 40.8683 22.385 39.9598 22.2713C33.2031 22.6696 26.5606 22.6696 20.0307 22.2145C19.4063 22.385 19.0659 22.6696 19.0091 22.9537C20.2011 23.1809 22.4727 23.3514 25.709 23.5792C26.5038 23.636 27.8663 24.3746 29.8532 25.4553C30.1373 25.6257 30.4214 25.6257 30.6486 25.4553C32.6355 24.3178 33.9412 23.636 34.6798 23.5792ZM56.3685 11.5837C56.539 11.2997 56.6529 11.186 56.6529 11.186C57.6172 13.2893 58.015 17.0414 57.9583 22.4417C57.9583 25.9098 57.3909 27.6722 56.3117 27.6722C54.9492 27.3881 54.2678 26.1938 54.3812 24.1474C54.4946 22.9537 55.2326 21.4185 56.539 19.5425C57.731 16.7 57.6743 14.0853 56.3685 11.5837ZM52.6785 24.8866C52.3941 24.0905 52.5646 23.2946 52.9619 22.6128C54.6652 19.5425 55.1759 16.871 54.4946 14.483C48.7036 16.4159 45.0699 18.1215 43.5938 19.5425C43.8206 19.7703 44.2752 19.8839 44.9564 19.7703C49.8961 19.2584 52.7347 18.576 53.5861 17.8374C53.7566 18.576 53.132 19.8271 51.656 21.4185C50.9748 22.1577 49.8389 22.4986 48.4768 22.8968C45.9217 23.5792 38.5405 28.4682 43.7074 28.5818C49.1581 28.525 52.3373 28.0131 53.2459 26.933C53.3026 26.4785 53.0187 25.853 52.6785 24.8866ZM44.1613 19.2584C44.1613 19.372 44.1046 19.4857 44.1046 19.4857C47.0566 19.0311 52.8481 19.2584 52.4512 15.5631C52.2806 15.5631 52.2239 15.5631 52.2239 15.5631C52.3373 18.9743 46.6597 18.8607 44.1613 19.2584ZM39.1649 17.1551C39.449 16.0182 39.8462 15.1654 40.4143 14.7103C41.4927 13.7439 43.2529 12.8342 45.7511 11.982C46.2619 11.811 46.9436 10.9588 47.8517 9.42361C47.5115 9.76453 47.2271 10.1628 46.8869 10.5605C46.4892 11.0156 45.7511 11.2997 44.7859 11.5837C41.8905 12.607 39.5627 13.9717 39.1649 17.1551ZM4.75773 11.5837C4.58727 11.3565 4.47418 11.186 4.47418 11.186C3.50884 13.2893 3.11115 17.0414 3.16797 22.4417C3.16797 25.9098 3.73555 27.6722 4.81452 27.6722C6.17698 27.3881 6.85878 26.1938 6.74515 24.1474C6.63153 22.9537 5.89348 21.4185 4.58727 19.5425C3.39522 16.7 3.45205 14.0853 4.75773 11.5837ZM8.44854 24.8866C8.73204 24.0905 8.56216 23.2946 8.16445 22.6128C6.46107 19.5425 5.95027 16.871 6.63153 14.483C12.4229 16.4159 16.0563 18.1215 17.533 19.5425C17.2489 19.7703 16.8512 19.8839 16.17 19.7703C11.2303 19.2584 8.3917 18.576 7.54003 17.8374C7.36957 18.576 7.99399 19.8271 9.47013 21.4185C10.1519 22.1577 11.2871 22.4986 12.6501 22.8968C15.6024 23.7497 22.359 28.4682 17.4194 28.5818C11.9683 28.525 8.78887 28.0131 7.9372 26.933C7.82353 26.4785 8.10762 25.853 8.44854 24.8866ZM16.9648 19.2584C16.9648 19.372 16.9648 19.4857 16.9648 19.4857C14.0126 19.0311 8.27808 19.2584 8.61841 15.5631C8.78887 15.5631 8.84571 15.5631 8.84571 15.5631C8.84571 18.9743 14.4666 18.8607 16.9648 19.2584ZM21.9613 17.1551C21.6772 16.0182 21.2801 15.1654 20.7125 14.7103C19.6335 13.7439 17.8733 12.8342 15.3751 11.982C14.8643 11.811 14.1831 10.9588 13.2746 9.42361C13.6149 9.76453 13.899 10.1628 14.2399 10.5605C14.637 11.0156 15.3751 11.2997 16.3404 11.5837C19.2358 12.607 21.5641 13.9717 21.9613 17.1551Z" fill="white"/>
<path d="M81.1166 22.157C81.1166 21.8861 81.1822 21.6773 81.3135 21.5293C81.4529 21.3736 81.6088 21.2957 81.781 21.2957C81.9615 21.2957 82.1174 21.3614 82.2486 21.4924C82.3881 21.6157 82.4496 21.8083 82.4332 22.0711C82.3512 23.728 81.9041 25.0609 81.092 26.0698C80.3127 27.0377 79.3365 27.5219 78.1635 27.5219C75.9486 27.5219 74.5172 25.865 73.8691 22.5508C73.623 21.3286 73.5 19.889 73.5 18.2317C73.5 16.5667 73.6025 15.0857 73.8076 13.7897C74.0127 12.4856 74.3244 11.3534 74.7428 10.3936C75.6369 8.34292 76.9084 7.31756 78.5572 7.31756C79.8369 7.31756 80.7844 7.82205 81.3996 8.83104C82.0477 9.90577 82.3717 11.6612 82.3717 14.0975C82.3717 14.368 82.3101 14.5732 82.1871 14.7127C82.064 14.8441 81.9164 14.9093 81.7441 14.9093C81.3668 14.9093 81.1781 14.6717 81.1781 14.1961C81.1781 11.1608 80.6941 9.35182 79.7262 8.76952C79.3816 8.56441 78.9797 8.46191 78.5203 8.46191C78.0609 8.46191 77.6467 8.59313 77.2775 8.85566C76.9166 9.10995 76.5926 9.46657 76.3055 9.92602C76.0266 10.3774 75.7846 10.9147 75.5795 11.5379C75.3744 12.1531 75.2063 12.8177 75.075 13.5314C74.8125 14.975 74.6812 16.4024 74.6812 17.8136C74.6812 19.2163 74.7264 20.344 74.8166 21.1972C74.9068 22.0423 75.034 22.7681 75.198 23.3752C75.3621 23.9741 75.5549 24.466 75.7764 24.8516C76.0061 25.2292 76.2562 25.5284 76.527 25.7498C76.9863 26.1355 77.5729 26.3281 78.2865 26.3281C79.0822 26.3281 79.7344 26.0041 80.243 25.3561C80.8418 24.6095 81.133 23.5435 81.1166 22.157ZM89.7914 24.7162C89.7832 24.2653 89.7832 23.7113 89.7914 23.0552C89.4387 22.9324 88.9916 22.8707 88.4502 22.8707C87.7201 22.8707 87.1213 23.0471 86.6537 23.3999C86.424 23.5804 86.2395 23.8018 86.1 24.0641C85.9605 24.3184 85.8908 24.6509 85.8908 25.0609C85.8908 25.4627 86.0303 25.7993 86.3092 26.0698C86.5881 26.3407 86.9982 26.4761 87.5396 26.4761C88.081 26.4761 88.684 26.1067 89.3485 25.3687C89.5371 25.1635 89.6847 24.9461 89.7914 24.7162ZM90.5789 27.4972C90.0867 27.4972 89.8406 27.1241 89.8406 26.3776C89.8406 26.3281 89.8365 26.189 89.8283 25.9591C89.7545 26.0495 89.6725 26.1476 89.5822 26.2543C88.844 27.0913 88.04 27.5093 87.1705 27.5093C86.4732 27.5093 85.8949 27.2879 85.4355 26.8451C84.9597 26.3857 84.7219 25.7993 84.7219 25.0856C84.7219 24.0929 85.1074 23.2933 85.8785 22.6862C86.223 22.4153 86.6086 22.2101 87.0351 22.0711C87.4699 21.9316 87.9539 21.8618 88.4871 21.8618C88.9301 21.8618 89.3648 21.9356 89.7914 22.0832V20.7787C89.7914 20.0569 89.6397 19.5155 89.3361 19.1546C89.0408 18.7937 88.7332 18.6133 88.4133 18.6133C88.0934 18.6133 87.8309 18.6542 87.6258 18.7361C87.4289 18.8185 87.2525 18.9373 87.0967 19.093C86.7521 19.4296 86.5553 19.8476 86.506 20.348C86.5306 20.6108 86.4773 20.7953 86.3461 20.902C86.2148 21.0005 86.0713 21.0496 85.9154 21.0496C85.4725 21.0496 85.2592 20.7544 85.2756 20.1635C85.292 19.5484 85.6037 18.9823 86.2107 18.4657C86.8342 17.9324 87.5315 17.6656 88.3025 17.6656C89.451 17.6656 90.2262 18.2357 90.6281 19.376C90.7676 19.7864 90.8373 20.2373 90.8373 20.7296V21.9968L90.825 24.0641V25.1594C90.825 25.6517 90.8824 26.0495 90.9973 26.3528C91.1203 26.6566 91.1818 26.8739 91.1818 27.0049C91.1818 27.1282 91.1203 27.2389 90.9973 27.3374C90.8742 27.4441 90.7348 27.4972 90.5789 27.4972ZM98.9338 18.3671C98.9338 18.8099 98.7123 19.0646 98.2693 19.1299C97.7279 19.2365 97.1168 19.7 96.436 20.5204C95.7059 21.4064 95.2957 22.2799 95.2055 23.1412C95.1727 23.5187 95.1562 23.8634 95.1562 24.1748C95.1562 24.9214 95.1891 25.7048 95.2547 26.5252C95.2711 26.7961 95.2014 27.0008 95.0455 27.1403C94.8979 27.2798 94.7338 27.3496 94.5533 27.3496C94.381 27.3496 94.2293 27.2879 94.098 27.1651C93.9668 27.0337 93.9135 26.8411 93.9381 26.5868C93.9627 26.324 93.9832 26.0248 93.9996 25.6886C94.016 25.3439 94.0324 24.983 94.0488 24.6055C94.0652 23.9656 94.0735 23.2523 94.0735 22.4648C94.0735 21.1355 94.057 20.1514 94.0242 19.5115C93.9914 18.8635 93.9955 18.4904 94.0365 18.3919C94.0776 18.2933 94.1309 18.2155 94.1965 18.1579C94.3359 18.0269 94.4877 17.9612 94.6518 17.9612C94.824 17.9612 94.9758 18.0224 95.107 18.1457C95.2465 18.2686 95.308 18.4288 95.2916 18.6254C95.2834 18.8144 95.267 19.003 95.2424 19.1915C95.226 19.372 95.2055 19.5974 95.1809 19.8683C95.1316 20.303 95.0865 20.7665 95.0455 21.2588C95.3818 20.4137 95.8617 19.6343 96.4851 18.9211C97.1824 18.1417 97.7895 17.752 98.3062 17.752C98.5277 17.752 98.6877 17.8136 98.7861 17.9365C98.8846 18.0593 98.9338 18.2033 98.9338 18.3671ZM100.927 7.32984L103.351 7.44059C104.04 7.44059 104.573 7.43239 104.951 7.41601C105.336 7.39959 105.64 7.3873 105.861 7.37907C106.083 7.37088 106.308 7.34626 106.538 7.30527C106.768 7.26423 106.989 7.30113 107.203 7.41601C107.416 7.52262 107.522 7.76053 107.522 8.12967C107.522 8.49061 107.067 9.82343 106.157 12.1288C105.254 14.4256 104.635 15.9925 104.299 16.829C103.97 17.6575 103.646 18.4819 103.327 19.3022C103.007 20.1145 102.699 20.8979 102.404 21.6526C102.108 22.4072 101.842 23.1002 101.604 23.732C101.186 24.8804 100.907 25.6927 100.767 26.1683L101.099 26.1562H101.235C103.195 26.1562 104.897 26.0864 106.341 25.9469C106.628 25.9222 106.842 25.9838 106.981 26.1314C107.129 26.279 107.203 26.4392 107.203 26.6111C107.203 26.7835 107.133 26.9518 106.993 27.1156C106.854 27.2717 106.649 27.3374 106.378 27.3127C105.902 27.2798 105.369 27.2636 104.779 27.2636C104.196 27.2636 103.704 27.2596 103.302 27.251C102.9 27.2429 102.506 27.2389 102.121 27.2389C101.202 27.2222 100.648 27.2267 100.46 27.251C100.279 27.2839 100.136 27.2839 100.029 27.251C99.9305 27.2267 99.8403 27.1813 99.7582 27.1156C99.5613 26.9437 99.4793 26.7385 99.5121 26.5004C99.5531 26.2543 99.6639 25.8853 99.8443 25.393C100.025 24.8926 100.259 24.29 100.546 23.5844C100.833 22.8788 101.157 22.0913 101.518 21.2219C101.879 20.3525 102.252 19.4498 102.637 18.5147C103.031 17.5715 103.417 16.6198 103.794 15.6599C104.18 14.692 104.532 13.7609 104.852 12.8668C105.509 11.0623 105.943 9.63892 106.157 8.59726C105.705 8.58084 105.09 8.57265 104.311 8.57265C102.81 8.57265 101.793 8.58493 101.259 8.60955C100.423 8.65878 100.004 8.466 100.004 8.03121C100.004 7.84257 100.086 7.6785 100.25 7.53904C100.414 7.39959 100.64 7.32984 100.927 7.32984ZM114.032 18.958C113.761 18.7609 113.441 18.6623 113.072 18.6623C112.711 18.6623 112.379 18.7649 112.075 18.9701C111.78 19.1668 111.53 19.4458 111.325 19.8067C110.906 20.5285 110.697 21.5212 110.697 22.7843C110.697 24.0398 110.898 24.9664 111.3 25.5653C111.702 26.1643 112.239 26.4635 112.912 26.4635C113.65 26.4635 114.241 26.041 114.684 25.1963C115.078 24.4417 115.274 23.5147 115.274 22.4153C115.274 20.7256 114.86 19.5731 114.032 18.958ZM112.9 27.5093C112.432 27.5179 111.993 27.4234 111.583 27.2267C111.181 27.0215 110.832 26.7056 110.537 26.279C109.889 25.3768 109.565 24.0929 109.565 22.4279C109.565 20.9348 109.914 19.7576 110.611 18.8963C111.267 18.076 112.137 17.6656 113.22 17.6656C114.13 17.6656 114.885 18.0593 115.484 18.8468C116.099 19.6838 116.406 20.8322 116.406 22.2925C116.406 23.9165 116.05 25.2125 115.336 26.1805C114.696 27.0503 113.884 27.4931 112.9 27.5093ZM125.18 21.271L125.155 23.9287C125.155 24.8066 125.184 25.627 125.241 26.3897C125.258 26.6687 125.188 26.878 125.032 27.0175C124.884 27.1484 124.724 27.2141 124.552 27.2141C124.388 27.2141 124.236 27.1529 124.097 27.0296C123.966 26.8982 123.912 26.7056 123.937 26.4514C123.97 26.189 123.994 25.8893 124.011 25.5532C124.035 25.2166 124.056 24.8683 124.072 24.5074C124.105 23.7851 124.121 23.1907 124.121 22.7231C124.121 22.247 124.113 21.9028 124.097 21.6895C124.08 21.4762 124.064 21.1603 124.048 20.7418C124.031 20.3156 123.921 19.9174 123.715 19.5484C123.51 19.1713 123.223 18.9823 122.854 18.9823C122.485 18.9823 122.165 19.0601 121.894 19.2163C121.623 19.372 121.373 19.5772 121.144 19.8314C120.676 20.3809 120.364 21.0208 120.209 21.7511C120.201 21.9806 120.196 22.2061 120.196 22.4279V23.0674C120.196 24.5524 120.213 25.5365 120.246 26.0207C120.278 26.4964 120.25 26.8163 120.159 26.9806C120.069 27.1363 119.909 27.2141 119.679 27.2141C119.458 27.2141 119.282 27.1444 119.15 27.0049C119.027 26.8573 118.978 26.5909 119.003 26.2052C119.085 25.1468 119.126 24.0601 119.126 22.9445C119.126 21.0334 119.097 19.6303 119.04 18.7361C119.007 18.1867 119.237 17.9117 119.729 17.9117C119.983 17.9117 120.143 17.99 120.209 18.1457C120.282 18.3014 120.307 18.4657 120.282 18.638C120.266 18.8099 120.254 18.958 120.246 19.0808C120.246 19.2037 120.246 19.331 120.246 19.4624C120.246 19.5934 120.246 19.7126 120.246 19.8193C120.729 18.9004 121.373 18.2974 122.177 18.0103C122.432 17.9203 122.69 17.8748 122.953 17.8748C123.215 17.8748 123.486 17.9365 123.765 18.0593C124.044 18.1745 124.286 18.3671 124.491 18.638C124.95 19.2284 125.18 20.1064 125.18 21.271ZM133.042 21.923C133.059 20.4961 132.759 19.5196 132.144 18.9949C131.898 18.773 131.599 18.6623 131.246 18.6623C130.893 18.6623 130.602 18.728 130.372 18.8594C130.142 18.9908 129.938 19.1668 129.757 19.3886C129.585 19.61 129.437 19.8643 129.314 20.1514C129.199 20.4304 129.105 20.7175 129.031 21.0127C128.957 21.3245 128.904 21.6319 128.871 21.9356L130.557 22.0094C131.656 22.0094 132.485 21.9806 133.042 21.923ZM128.822 22.9936C128.838 24.1258 129.043 24.9911 129.437 25.5901C129.864 26.23 130.466 26.5499 131.246 26.5499C131.959 26.5499 132.481 26.1971 132.809 25.4915C133.014 25.0321 133.268 24.8026 133.571 24.8026C133.711 24.8026 133.826 24.8476 133.916 24.938C134.015 25.028 134.06 25.1882 134.052 25.4177C134.043 25.6391 133.961 25.8812 133.805 26.1436C133.658 26.4064 133.449 26.6399 133.178 26.8451C132.587 27.3046 131.878 27.5341 131.049 27.5341C130.155 27.5341 129.384 27.1529 128.736 26.3897C128.055 25.586 127.715 24.6302 127.715 23.5228C127.715 22.4153 127.809 21.5171 127.997 20.8282C128.194 20.1307 128.453 19.5524 128.773 19.093C129.396 18.166 130.175 17.7029 131.11 17.7029C132.308 17.7029 133.149 18.1745 133.633 19.1177C133.969 19.7738 134.15 20.7377 134.174 22.0094C134.182 22.3703 134.125 22.6124 134.002 22.7353C133.879 22.8586 133.629 22.9198 133.251 22.9198L128.822 22.9936Z" fill="white"/>
</g>
<defs>
<clipPath id="clip0_391_418">
<rect width="135.175" height="32.9157" fill="white" transform="translate(0 0.953125)"/>
</clipPath>
</defs>
</svg>
