<svg width="41" height="41" viewBox="0 0 41 41" fill="none" xmlns="http://www.w3.org/2000/svg">
<g clip-path="url(#clip0_391_158)">
<path d="M16.7969 1.17553C15.4063 1.34741 14.0859 1.96459 13.0781 2.92553C12.0234 3.92553 11.0703 5.42553 10.75 6.56616C10.5703 7.23803 10.5625 8.90209 10.7422 9.55834C10.8672 9.98803 10.8594 10.0115 10.7188 10.0818C10.4219 10.2458 10.2266 10.7771 10.2266 11.4099C10.2266 12.1599 10.4453 12.8552 11.0859 14.113C11.3984 14.738 11.5859 15.2068 11.625 15.4802C11.8984 17.4724 13.5078 19.488 15.4375 20.2615C17.1094 20.9333 19.125 20.8318 20.7266 20.0037C22.4688 19.0896 23.6875 17.4099 24 15.4802C24.0625 15.113 24.1719 14.8474 24.4375 14.4333C25.375 12.9724 25.7422 11.7224 25.4688 10.9646C25.3672 10.6912 25.1094 10.3708 24.8984 10.2537C24.7734 10.1833 24.7734 10.1208 24.875 9.33178C25.0313 8.05053 25 6.44116 24.7969 5.66772C24.5078 4.57397 23.9375 3.87084 23.0938 3.55053C22.8906 3.47241 22.5156 3.22241 22.2656 2.99584C21.6797 2.45678 20.9922 1.99584 20.3594 1.71459C19.375 1.26147 17.8984 1.04272 16.7969 1.17553Z" fill="#E9021E"/>
<path d="M21.2362 26.9688C19.4784 29.8438 17.9784 32.2344 17.9002 32.2734C17.6737 32.3984 17.369 32.3516 17.1893 32.1641C17.0955 32.0703 15.7362 29.6953 14.1737 26.8906C12.6112 24.0938 11.2987 21.7969 11.2674 21.7969C11.2284 21.7969 10.783 22.0469 10.283 22.3516C8.04867 23.6875 5.53305 24.7344 3.61898 25.1172C2.8143 25.2734 2.43148 25.4844 1.91586 26.0547C1.44711 26.5625 1.15023 27.1562 0.993984 27.875C0.829922 28.6719 0.861172 31.0859 1.08773 34.2734L1.13461 35H14.1424C26.5018 35 27.1502 34.9922 27.0955 34.8594C26.7284 33.9141 26.6659 31.8281 26.9705 30.7031C27.1893 29.8828 27.7205 28.7344 28.1815 28.0938C28.5721 27.5469 29.5877 26.5469 30.1034 26.1953C30.5252 25.9062 31.4393 25.4453 31.8455 25.3203C32.2284 25.1953 32.2127 25.1016 31.8065 25.0391C31.2127 24.9453 29.2284 24.25 28.2362 23.7969C27.2596 23.3516 25.8612 22.6016 25.1424 22.1484C24.9315 22.0078 24.6815 21.8594 24.5955 21.8125C24.4471 21.7422 24.1971 22.125 21.2362 26.9688Z" fill="#E9021E"/>
<path d="M33.2692 26.2046C31.8239 26.4937 30.6832 27.1265 29.7067 28.189C28.9411 29.0171 28.4957 29.8453 28.1754 31.0249C27.9645 31.8062 27.9801 33.4468 28.2145 34.2593C28.8707 36.5406 30.6129 38.2515 32.8786 38.8374C34.1364 39.1578 35.8864 39.0171 37.0739 38.4937C38.8707 37.6968 40.2848 36.0015 40.7379 34.0874C40.8786 33.5093 40.8942 33.2281 40.8707 32.3062C40.8395 31.3843 40.8004 31.1187 40.6207 30.5874C39.8942 28.439 38.1911 26.8453 36.0426 26.2984C35.3395 26.1187 33.9489 26.0718 33.2692 26.2046ZM38.2536 29.9312C38.3239 30.0249 38.3864 30.2046 38.3864 30.3374C38.3864 30.5562 38.1051 30.8687 35.9957 32.9781C34.5661 34.4078 33.527 35.3921 33.4176 35.4156C33.3161 35.4312 33.152 35.4078 33.0582 35.3609C32.7926 35.2281 30.4957 32.2046 30.4957 31.9859C30.4957 31.7046 30.8239 31.3843 31.1051 31.3843C31.2379 31.3843 31.402 31.4312 31.4801 31.4859C31.5504 31.5484 31.9879 32.0953 32.4645 32.7124C32.9332 33.3296 33.3395 33.8296 33.3707 33.8296C33.402 33.8296 34.3629 32.8921 35.5114 31.7515C37.5504 29.7124 37.5973 29.6656 37.8551 29.7203C37.9957 29.7437 38.1754 29.8453 38.2536 29.9312Z" fill="#E9021E"/>
</g>
<defs>
<clipPath id="clip0_391_158">
<rect width="40" height="40" fill="white" transform="translate(0.882812 0.078125)"/>
</clipPath>
</defs>
</svg>
