<svg width="32" height="32" viewBox="0 0 32 32" fill="none" xmlns="http://www.w3.org/2000/svg">
<g clip-path="url(#clip0_391_2809)">
<path d="M13.2243 1.72662C12.15 1.8594 11.13 2.33621 10.3514 3.07857C9.5366 3.85111 8.80027 5.00992 8.55281 5.89111C8.414 6.41016 8.40796 7.69571 8.54678 8.20269C8.64335 8.53465 8.63731 8.55275 8.52867 8.60707C8.29932 8.73382 8.14844 9.14423 8.14844 9.6331C8.14844 10.2125 8.31743 10.7497 8.81234 11.7214C9.05376 12.2042 9.19861 12.5663 9.22879 12.7776C9.44003 14.3166 10.6833 15.8738 12.1741 16.4713C13.4657 16.9904 15.0229 16.9119 16.2601 16.2721C17.606 15.566 18.5476 14.2684 18.789 12.7776C18.8373 12.4939 18.9218 12.2887 19.127 11.9688C19.8512 10.8402 20.1349 9.87452 19.9237 9.28908C19.8452 9.07784 19.646 8.83038 19.4831 8.73985C19.3865 8.68553 19.3865 8.63725 19.465 8.02767C19.5857 7.03785 19.5615 5.79454 19.4046 5.19703C19.1813 4.35206 18.7407 3.80886 18.0889 3.56141C17.932 3.50105 17.6422 3.30792 17.4491 3.13289C16.9965 2.71644 16.4653 2.36035 15.9765 2.14307C15.216 1.79301 14.0753 1.62402 13.2243 1.72662Z" fill="white"/>
<path d="M16.6553 21.6549C15.2973 23.876 14.1385 25.7228 14.0781 25.753C13.9031 25.8496 13.6677 25.8133 13.5289 25.6685C13.4565 25.5961 12.4063 23.7613 11.1992 21.5945C9.99211 19.4338 8.97815 17.6594 8.95401 17.6594C8.92383 17.6594 8.57981 17.8525 8.19354 18.0879C6.46739 19.12 4.52396 19.9288 3.04527 20.2245C2.42362 20.3452 2.12788 20.5082 1.72954 20.9487C1.36741 21.3411 1.13806 21.7998 1.01735 22.355C0.890604 22.9706 0.914746 24.8356 1.08978 27.2981L1.12599 27.8594H11.1751C20.7232 27.8594 21.2241 27.8533 21.1819 27.7507C20.8982 27.0204 20.8499 25.409 21.0853 24.5399C21.2543 23.9061 21.6647 23.0189 22.0208 22.524C22.3226 22.1015 23.1072 21.329 23.5056 21.0574C23.8315 20.8341 24.5376 20.478 24.8515 20.3814C25.1472 20.2848 25.1351 20.2124 24.8213 20.1641C24.3626 20.0917 22.8296 19.5546 22.0631 19.2045C21.3086 18.8605 20.2283 18.2811 19.673 17.931C19.5101 17.8224 19.3169 17.7077 19.2505 17.6715C19.1359 17.6172 18.9427 17.9129 16.6553 21.6549Z" fill="white"/>
<path d="M25.9519 21.0621C24.8353 21.2854 23.9541 21.7743 23.1997 22.5951C22.6082 23.2349 22.2642 23.8747 22.0167 24.786C21.8538 25.3896 21.8659 26.657 22.0469 27.2847C22.5539 29.0471 23.8998 30.3688 25.6501 30.8215C26.6218 31.069 27.9738 30.9603 28.8912 30.5559C30.2793 29.9403 31.3717 28.6306 31.7218 27.1519C31.8304 26.7053 31.8425 26.488 31.8244 25.7758C31.8003 25.0637 31.7701 24.8584 31.6313 24.448C31.07 22.7883 29.7542 21.557 28.0945 21.1346C27.5513 20.9957 26.477 20.9595 25.9519 21.0621ZM29.8025 23.9411C29.8568 24.0135 29.9051 24.1523 29.9051 24.2549C29.9051 24.4239 29.6878 24.6653 28.0583 26.2949C26.9538 27.3994 26.1511 28.1599 26.0666 28.178C25.9881 28.19 25.8614 28.1719 25.7889 28.1357C25.5837 28.0331 23.8093 25.6974 23.8093 25.5284C23.8093 25.3111 24.0628 25.0637 24.2801 25.0637C24.3827 25.0637 24.5094 25.0999 24.5698 25.1421C24.6241 25.1904 24.9621 25.6129 25.3302 26.0897C25.6924 26.5665 26.0062 26.9528 26.0303 26.9528C26.0545 26.9528 26.7969 26.2285 27.6841 25.3473C29.2593 23.7721 29.2955 23.7358 29.4947 23.7781C29.6033 23.7962 29.7422 23.8747 29.8025 23.9411Z" fill="white"/>
</g>
<defs>
<clipPath id="clip0_391_2809">
<rect width="30.9017" height="30.9017" fill="white" transform="translate(0.929688 0.882812)"/>
</clipPath>
</defs>
</svg>
