<svg width="24" height="24" viewBox="0 0 24 24" fill="none" xmlns="http://www.w3.org/2000/svg">
<path d="M2.51865 1.2002C8.33985 1.2002 14.1611 1.2002 20.1587 1.2002C20.1983 1.6754 20.2379 2.1506 20.2787 2.6402C20.4605 3.47442 20.6376 3.78207 21.3357 4.25129C22.2355 4.8977 22.8277 5.75243 23.0387 6.8402C23.1939 8.2515 23.0486 9.40781 22.2212 10.5902C21.6426 11.3101 21.1651 11.7047 20.2787 12.0002C20.2787 14.891 20.2787 17.7818 20.2787 20.7602C20.5955 20.7602 20.9123 20.7602 21.2387 20.7602C21.3587 20.8802 21.3587 20.8802 21.3704 21.3119C21.3696 21.4905 21.3681 21.6691 21.3662 21.8477C21.3656 21.9387 21.3651 22.0298 21.3645 22.1236C21.3631 22.3491 21.3609 22.5747 21.3587 22.8002C18.7478 22.803 16.137 22.8051 13.5262 22.8064C12.314 22.807 11.1019 22.8079 9.88972 22.8092C8.8336 22.8104 7.77748 22.8112 6.72136 22.8115C6.1618 22.8116 5.60223 22.812 5.04267 22.8129C4.51661 22.8137 3.99056 22.8139 3.46451 22.8138C3.27086 22.8138 3.07721 22.814 2.88356 22.8145C2.62033 22.8151 2.35711 22.815 2.09388 22.8146C1.87237 22.8148 1.87237 22.8148 1.64639 22.815C1.31865 22.8002 1.31865 22.8002 1.19865 22.6802C1.18668 22.3788 1.18199 22.0815 1.18365 21.7802C1.18319 21.6959 1.18272 21.6116 1.18225 21.5247C1.18346 20.8954 1.18346 20.8954 1.31865 20.7602C1.67505 20.7602 2.03145 20.7602 2.39865 20.7602C2.39865 17.4734 2.39865 14.1866 2.39865 10.8002C2.12145 10.7606 1.84425 10.721 1.55865 10.6802C1.13889 10.313 0.93791 10.0361 0.849434 9.48535C0.837777 9.29139 0.832178 9.09701 0.831152 8.9027C0.830234 8.79376 0.829315 8.68482 0.828369 8.57258C0.886819 7.04044 1.41601 5.57191 1.87573 4.12153C1.92502 3.965 1.92502 3.965 1.97531 3.8053C2.03748 3.60941 2.10079 3.41388 2.16554 3.21883C2.39032 2.51682 2.44197 1.96704 2.51865 1.2002ZM2.99865 1.8002C2.99865 1.919 2.99865 2.0378 2.99865 2.1602C8.46345 2.1602 13.9283 2.1602 19.5587 2.1602C19.5587 2.0414 19.5587 1.9226 19.5587 1.8002C14.0939 1.8002 8.62905 1.8002 2.99865 1.8002ZM2.99865 2.7602C2.85121 3.23156 2.70393 3.70297 2.557 4.1745C2.50716 4.33429 2.45725 4.49406 2.40724 4.6538C2.10547 5.61792 1.81768 6.58359 1.55865 7.5602C2.31105 7.5602 3.06345 7.5602 3.83865 7.5602C4.07813 6.3793 4.3174 5.199 4.52865 4.0127C4.54394 3.92786 4.55922 3.84302 4.57497 3.75562C4.63415 3.41815 4.67865 3.10363 4.67865 2.7602C4.12425 2.7602 3.56985 2.7602 2.99865 2.7602ZM5.27865 2.7602C5.03815 3.94076 4.79988 5.12149 4.58865 6.3077C4.57337 6.39253 4.55808 6.47737 4.54233 6.56478C4.48315 6.90224 4.43865 7.21676 4.43865 7.5602C5.19105 7.5602 5.94345 7.5602 6.71865 7.5602C6.78501 7.0695 6.85123 6.57878 6.91714 6.08803C6.93953 5.92161 6.96199 5.7552 6.98452 5.58881C7.11199 4.64722 7.23137 3.70649 7.31865 2.7602C6.64545 2.7602 5.97225 2.7602 5.27865 2.7602ZM7.91865 2.7602C7.72413 3.66938 7.59105 4.57443 7.48365 5.4977C7.46757 5.63034 7.45148 5.76298 7.4349 5.89965C7.36843 6.46095 7.31865 6.99344 7.31865 7.5602C8.07105 7.5602 8.82345 7.5602 9.59865 7.5602C9.63939 7.05275 9.67926 6.54525 9.71865 6.0377C9.7301 5.89623 9.74155 5.75477 9.75334 5.60902C9.82642 4.65634 9.84931 3.71569 9.83865 2.7602C9.20505 2.7602 8.57145 2.7602 7.91865 2.7602ZM10.4387 2.7602C10.4041 3.25089 10.3698 3.7416 10.3361 4.23236C10.3246 4.39878 10.313 4.56519 10.3012 4.73158C10.2344 5.67578 10.1839 6.61322 10.1987 7.5602C10.9511 7.5602 11.7035 7.5602 12.4787 7.5602C12.4471 6.93443 12.4153 6.3087 12.3827 5.683C12.3717 5.47012 12.3609 5.25723 12.3502 5.04433C12.3349 4.73839 12.319 4.4325 12.3029 4.1266C12.2982 4.03134 12.2936 3.93608 12.2888 3.83793C12.2681 3.45409 12.2408 3.12676 12.1187 2.7602C11.5643 2.7602 11.0099 2.7602 10.4387 2.7602ZM12.7187 2.7602C12.7502 3.38596 12.782 4.01169 12.8146 4.63739C12.8256 4.85027 12.8364 5.06316 12.8471 5.27606C12.8624 5.582 12.8783 5.88789 12.8944 6.19379C12.8991 6.28905 12.9037 6.38431 12.9085 6.48246C12.9292 6.8663 12.9565 7.19363 13.0787 7.5602C13.3955 7.5602 13.7123 7.5602 14.0387 7.5602C14.0577 7.45872 14.0767 7.35725 14.0963 7.2527C14.3527 6.00632 14.3527 6.00632 14.7287 5.5277C15.1887 4.88313 14.99 4.0998 14.8787 3.3602C14.8391 3.1622 14.7995 2.9642 14.7587 2.7602C14.0855 2.7602 13.4123 2.7602 12.7187 2.7602ZM15.3587 2.7602C15.3983 3.275 15.4379 3.7898 15.4787 4.3202C15.8614 4.1671 16.2111 4.01964 16.5737 3.8327C16.8511 3.68964 17.1005 3.57957 17.3987 3.4802C17.3987 3.2426 17.3987 3.005 17.3987 2.7602C16.7255 2.7602 16.0523 2.7602 15.3587 2.7602ZM17.9987 2.7602C17.9987 2.9582 17.9987 3.1562 17.9987 3.3602C18.2103 3.35648 18.2103 3.35648 18.4262 3.3527C18.8956 3.35186 19.3361 3.40309 19.7987 3.4802C19.7591 3.2426 19.7195 3.005 19.6787 2.7602C19.1243 2.7602 18.5699 2.7602 17.9987 2.7602ZM15.4787 5.2802C14.6852 6.32403 14.5242 7.34447 14.6387 8.6402C14.9008 9.72748 15.4891 10.6149 16.4387 11.2052C17.4603 11.7913 18.4635 11.9056 19.6219 11.7086C20.6972 11.4025 21.4617 10.6795 22.0557 9.75723C22.5594 8.7811 22.5928 7.68013 22.3646 6.61426C21.9738 5.51099 21.1955 4.7174 20.168 4.1852C18.5171 3.49007 16.655 3.9886 15.4787 5.2802ZM1.43865 8.1602C1.38791 9.24264 1.38791 9.24264 1.79865 10.0802C2.24164 10.3017 2.75508 10.258 3.23865 10.2002C3.61041 9.93724 3.69508 9.79093 3.83865 9.3602C3.83865 8.9642 3.83865 8.5682 3.83865 8.1602C3.04665 8.1602 2.25465 8.1602 1.43865 8.1602ZM4.31865 8.1602C4.2365 9.11849 4.2365 9.11849 4.54365 9.9902C5.07146 10.2858 5.5268 10.3102 6.11865 10.2002C6.49041 9.93724 6.57508 9.79093 6.71865 9.3602C6.71865 8.9642 6.71865 8.5682 6.71865 8.1602C5.92665 8.1602 5.13465 8.1602 4.31865 8.1602ZM7.19865 8.1602C7.14791 9.24264 7.14791 9.24264 7.55865 10.0802C7.8514 10.2266 8.05702 10.2244 8.38365 10.2302C8.48729 10.2333 8.59093 10.2364 8.69772 10.2396C9.05989 10.1922 9.21689 10.0914 9.47865 9.8402C9.60463 9.46228 9.61081 9.19362 9.60615 8.7977C9.60368 8.58732 9.6012 8.37695 9.59865 8.1602C8.80665 8.1602 8.01465 8.1602 7.19865 8.1602ZM10.0787 8.1602C10.0279 9.24264 10.0279 9.24264 10.4387 10.0802C10.7314 10.2266 10.937 10.2244 11.2637 10.2302C11.3673 10.2333 11.4709 10.2364 11.5777 10.2396C11.9399 10.1922 12.0969 10.0914 12.3587 9.8402C12.4846 9.46228 12.4908 9.19362 12.4862 8.7977C12.4837 8.58732 12.4812 8.37695 12.4787 8.1602C11.6867 8.1602 10.8947 8.1602 10.0787 8.1602ZM13.0787 8.1602C13.0059 9.04593 13.0059 9.04593 13.3037 9.8552C13.7485 10.2477 14.0548 10.211 14.6387 10.2002C14.6054 10.1133 14.5721 10.0263 14.5379 9.93676C14.1061 8.78445 14.1061 8.78445 14.0387 8.1602C13.7219 8.1602 13.4051 8.1602 13.0787 8.1602ZM12.8387 10.2002C12.752 10.2794 12.6654 10.3586 12.5762 10.4402C11.9806 10.8396 11.2432 10.7589 10.5587 10.6802C10.3178 10.562 10.0775 10.4425 9.83865 10.3202C9.68273 10.3982 9.68273 10.3982 9.52365 10.4777C8.93054 10.7743 8.33128 10.7698 7.67865 10.6802C7.47632 10.5642 7.2758 10.4448 7.07865 10.3202C6.81865 10.4002 6.81865 10.4002 6.59865 10.5602C6.21381 10.6885 5.93026 10.6962 5.52615 10.6952C5.3389 10.6957 5.3389 10.6957 5.14787 10.6961C4.79865 10.6802 4.79865 10.6802 4.31865 10.5602C4.31865 13.4906 4.31865 16.421 4.31865 19.4402C5.34825 19.4402 6.37785 19.4402 7.43865 19.4402C7.45103 19.2026 7.4634 18.965 7.47615 18.7202C7.56318 17.6347 7.83595 16.7364 8.63865 15.9602C9.02445 15.722 9.41965 15.5324 9.83865 15.3602C9.67094 14.9348 9.67094 14.9348 9.47865 14.5202C9.46083 14.2882 9.4521 14.0554 9.44865 13.8227C9.44556 13.6982 9.44247 13.5736 9.43928 13.4454C9.48353 13.035 9.6132 12.8202 9.83865 12.4802C9.83865 12.401 9.83865 12.3218 9.83865 12.2402C9.9327 12.2031 10.0268 12.1659 10.1237 12.1277C10.4294 12.0087 10.4294 12.0087 10.6787 11.8802C11.3061 11.8177 11.8355 11.8031 12.4112 12.0752C12.9654 12.5888 13.227 12.9625 13.2587 13.7252C13.2371 14.3804 13.0549 14.8033 12.7187 15.3602C12.8622 15.4072 13.0058 15.4542 13.1537 15.5027C14.0283 15.839 14.48 16.3176 14.8744 17.1546C15.1147 17.8617 15.1644 18.5782 15.2387 19.3202C16.2287 19.3202 17.2187 19.3202 18.2387 19.3202C18.2387 17.0234 18.2387 14.7266 18.2387 12.3602C17.7635 12.2414 17.2883 12.1226 16.7987 12.0002C15.7301 11.4352 15.7301 11.4352 15.3062 10.9352C14.8729 10.5759 14.5354 10.6554 13.9904 10.6825C13.5969 10.6796 13.3824 10.5651 13.0787 10.3202C12.9599 10.2608 12.9599 10.2608 12.8387 10.2002ZM2.87865 10.8002C2.87865 14.087 2.87865 17.3738 2.87865 20.7602C8.42265 20.7602 13.9667 20.7602 19.6787 20.7602C19.6787 17.9486 19.6787 15.137 19.6787 12.2402C19.4015 12.2798 19.1243 12.3194 18.8387 12.3602C18.7991 14.8154 18.7595 17.2706 18.7187 19.8002C11.3531 19.8596 11.3531 19.8596 3.83865 19.9202C3.83865 16.8314 3.83865 13.7426 3.83865 10.5602C3.5088 10.5602 3.19581 10.7096 2.87865 10.8002ZM10.0787 12.9602C9.86959 13.3783 9.88824 13.8241 9.95865 14.2802C10.163 14.6492 10.4161 14.9289 10.7987 15.1202C11.254 15.1839 11.6943 15.2223 12.1055 14.9946C12.3635 14.7817 12.5682 14.5811 12.7187 14.2802C12.7664 13.7075 12.7756 13.43 12.5087 12.9152C12.1017 12.4404 11.9172 12.3781 11.2937 12.3077C10.7186 12.3195 10.472 12.5572 10.0787 12.9602ZM8.75865 16.5602C8.03547 17.5257 8.03865 18.0068 8.03865 19.3202C10.2167 19.3202 12.3947 19.3202 14.6387 19.3202C14.6695 17.8646 14.6695 17.8646 13.9937 16.7102C13.8897 16.6211 13.7858 16.532 13.6787 16.4402C13.5846 16.3536 13.4906 16.2669 13.3937 16.1777C12.0432 15.2453 9.97425 15.5607 8.75865 16.5602ZM1.79865 21.3602C1.79865 21.6374 1.79865 21.9146 1.79865 22.2002C8.05545 22.2002 14.3123 22.2002 20.7587 22.2002C20.7587 21.923 20.7587 21.6458 20.7587 21.3602C14.5019 21.3602 8.24505 21.3602 1.79865 21.3602Z" fill="black"/>
<path d="M20.0324 4.50545C21.1015 5.08032 21.7006 5.81986 22.0799 6.95795C22.1807 8.22775 22.0644 9.26358 21.2849 10.2954C20.7204 10.9062 19.8099 11.3565 18.9815 11.4265C17.6801 11.4558 16.8794 11.1815 15.9267 10.2931C15.1245 9.45819 14.942 8.60054 14.9624 7.47638C15.0519 6.52564 15.4597 5.65258 16.1999 5.03795C17.3415 4.24219 18.7081 3.98257 20.0324 4.50545ZM16.1371 6.01763C15.6044 6.68003 15.5335 7.33489 15.5592 8.15841C15.6505 8.96357 15.9461 9.51291 16.5374 10.0629C17.3408 10.7006 18.0668 10.9126 19.0799 10.7979C19.8906 10.623 20.5521 10.1769 21.0346 9.50138C21.4769 8.75995 21.585 8.04921 21.4799 7.19795C21.1587 6.18766 20.5245 5.47395 19.5899 4.98545C18.1539 4.7369 17.1359 4.93677 16.1371 6.01763Z" fill="black"/>
<path d="M20.1602 6.23926C20.3186 6.31846 20.477 6.39766 20.6402 6.47926C20.4527 6.93118 20.1715 7.21562 19.8255 7.55738C19.7699 7.61264 19.7143 7.66789 19.6571 7.72482C19.4803 7.90021 19.3028 8.07474 19.1252 8.24926C19.0049 8.36842 18.8845 8.48764 18.7643 8.60691C18.4702 8.89834 18.1754 9.189 17.8802 9.47926C17.3861 9.29485 17.0804 9.09442 16.7027 8.72176C16.6079 8.63065 16.5131 8.53954 16.4154 8.44566C16.1679 8.11626 16.1526 7.96127 16.2002 7.55926C16.8102 7.57774 17.0831 7.92174 17.4776 8.33973C17.5312 8.39897 17.5849 8.45822 17.6402 8.51926C18.0438 8.34436 18.3057 8.12192 18.6133 7.80957C18.7038 7.7183 18.7943 7.62704 18.8876 7.53301C18.9808 7.43772 19.0741 7.34243 19.1702 7.24426C19.2654 7.14804 19.3605 7.05183 19.4585 6.9527C19.693 6.71541 19.9268 6.47759 20.1602 6.23926Z" fill="black"/>
</svg>
