<svg width="24" height="24" viewBox="0 0 24 24" fill="none" xmlns="http://www.w3.org/2000/svg">
<g clip-path="url(#clip0_1451_4531)">
<path d="M2.85938 10.5475C3.13451 10.6753 3.27689 10.8229 3.44825 11.069C3.49693 11.1364 3.5457 11.2037 3.59455 11.2709C3.63243 11.3235 3.63243 11.3235 3.67107 11.3771C3.80471 11.5597 3.94443 11.7375 4.08399 11.9157C4.13948 11.9868 4.19497 12.0579 4.25044 12.129C4.27688 12.1629 4.30332 12.1967 4.33057 12.2316C4.4766 12.419 4.62171 12.607 4.76588 12.7958C4.8418 12.8948 4.91832 12.993 4.99586 13.0906C5.03469 13.1404 5.0735 13.1901 5.11231 13.2399C5.14669 13.2833 5.18108 13.3268 5.2165 13.3715C5.30574 13.5148 5.33375 13.614 5.34376 13.7819C5.28167 13.9563 5.21199 14.0967 5.10938 14.2506C4.98304 14.2631 4.86758 14.2669 4.74134 14.2644C4.70506 14.2642 4.66878 14.264 4.63139 14.2638C4.51532 14.263 4.39928 14.2612 4.28321 14.2594C4.2046 14.2587 4.12599 14.2581 4.04737 14.2575C3.85449 14.2559 3.66163 14.2535 3.46876 14.2506C4.01978 16.0054 4.86626 17.5332 6.10841 18.8942C6.12974 18.9176 6.15107 18.941 6.17304 18.9652C7.4749 20.3613 9.47317 21.3968 11.3949 21.4753C13.1664 21.5145 14.8803 21.1982 16.4534 20.348C16.5527 20.2943 16.6526 20.2419 16.7525 20.1895C17.9952 19.5274 19.1399 18.6083 19.9589 17.4555C19.9821 17.4233 20.0054 17.3911 20.0294 17.3579C20.0595 17.3149 20.0595 17.3149 20.0902 17.2711C20.1746 17.185 20.2242 17.1699 20.3438 17.1569C20.4625 17.1716 20.4625 17.1716 20.5946 17.2003C20.6422 17.2106 20.6898 17.2209 20.7389 17.2315C20.7883 17.2426 20.8378 17.2538 20.8887 17.2653C20.9634 17.2812 20.9634 17.2812 21.0396 17.2974C21.4098 17.3791 21.4098 17.3791 21.5156 17.485C21.0566 18.196 20.5552 18.8432 19.9688 19.4537C19.9286 19.4958 19.8885 19.5379 19.8472 19.5812C19.5766 19.8586 19.2906 20.1071 18.9844 20.3444C18.9592 20.364 18.9341 20.3836 18.9081 20.4038C16.9992 21.8821 14.7002 22.6641 12.29 22.6588C12.2459 22.6588 12.2017 22.6588 12.1563 22.6587C11.0509 22.6558 10.0087 22.5097 8.95313 22.1725C8.89779 22.1549 8.89779 22.1549 8.84133 22.1369C7.86692 21.8182 6.92912 21.3606 6.09376 20.7662C6.04355 20.7307 5.99333 20.6951 5.9416 20.6584C5.80239 20.5565 5.66636 20.4517 5.53126 20.3444C5.48497 20.3077 5.43869 20.271 5.391 20.2332C4.70672 19.6784 4.0764 19.045 3.56251 18.3287C3.54122 18.2994 3.51992 18.2701 3.49799 18.2398C3.17216 17.7883 2.88182 17.3228 2.62501 16.8287C2.60597 16.7922 2.58694 16.7557 2.56733 16.718C2.16667 15.9384 1.8397 15.1169 1.68751 14.2506C1.62545 14.2525 1.62545 14.2525 1.56214 14.2543C1.40794 14.2583 1.2538 14.2613 1.09957 14.2635C1.03295 14.2647 0.966347 14.2663 0.899754 14.2683C0.803742 14.2712 0.70781 14.2725 0.611763 14.2735C0.525233 14.2753 0.525233 14.2753 0.436955 14.2772C0.239548 14.2435 0.173325 14.1671 0.0468829 14.0162C0.0314142 14.0008 0.0159454 13.9853 7.92484e-06 13.9694C-0.0324892 13.7744 -0.0351603 13.6574 0.0622638 13.4829C0.142989 13.3718 0.226422 13.2636 0.312638 13.1567C0.404279 13.0421 0.492564 12.9251 0.581276 12.8082C0.658512 12.7066 0.736163 12.6054 0.813912 12.5042C0.966766 12.305 1.11896 12.1054 1.27097 11.9056C1.33545 11.8209 1.4 11.7363 1.46465 11.6518C1.60329 11.4703 1.74142 11.2887 1.87629 11.1045C1.89722 11.0763 1.91814 11.048 1.9397 11.0189C1.99335 10.9464 2.04645 10.8735 2.0995 10.8005C2.30199 10.5809 2.5634 10.4814 2.85938 10.5475Z" fill="black"/>
<path d="M11.791 1.33977C11.9292 1.34052 12.0673 1.33977 12.2055 1.33888C13.047 1.3379 13.8837 1.41905 14.7007 1.62763C14.7492 1.63981 14.7978 1.65198 14.8478 1.66452C16.0928 1.98409 17.2804 2.47795 18.3276 3.2331C18.355 3.25272 18.3824 3.27233 18.4106 3.29254C18.7981 3.57336 19.1544 3.88652 19.4995 4.21748C19.5369 4.25292 19.5369 4.25292 19.575 4.28907C19.9638 4.65949 20.3082 5.04916 20.6245 5.4831C20.6436 5.50902 20.6627 5.53493 20.6824 5.56163C21.6282 6.85912 22.1982 8.40525 22.4526 9.9831C22.4897 9.98305 22.5269 9.983 22.5651 9.98294C22.7337 9.98351 22.9022 9.98621 23.0708 9.98896C23.1292 9.98884 23.1876 9.98872 23.2478 9.9886C23.6681 9.99761 23.6681 9.99761 23.8093 10.0887C23.9133 10.2079 23.9844 10.3414 24.0024 10.4987C24.0091 10.5422 24.0091 10.5422 24.0158 10.5866C23.9666 10.8875 23.6773 11.1119 23.4692 11.3132C23.2918 11.4858 23.1171 11.6579 22.9556 11.8457C22.7518 12.0818 22.5369 12.3067 22.3186 12.5294C22.2711 12.5781 22.2239 12.6272 22.1771 12.6766C21.7061 13.1731 21.7061 13.1731 21.3711 13.2179C21.1538 13.2169 21.0061 13.1708 20.8433 13.0274C20.69 12.8582 20.5663 12.6777 20.4399 12.488C20.3863 12.4085 20.3327 12.3291 20.279 12.2498C20.2513 12.2087 20.2235 12.1676 20.195 12.1253C20.0511 11.9137 19.9043 11.7043 19.7573 11.4948C19.7169 11.4371 19.7169 11.4371 19.6757 11.3783C19.6499 11.3416 19.6242 11.3049 19.5977 11.267C19.5732 11.2321 19.5487 11.1972 19.5235 11.1612C19.4774 11.0961 19.4306 11.0315 19.3832 10.9673C19.242 10.7758 19.1714 10.6475 19.1714 10.405C19.247 10.2299 19.3378 10.1289 19.4995 10.03C19.6284 10.014 19.6284 10.014 19.7742 10.0162C19.8264 10.0167 19.8787 10.0172 19.9326 10.0176C19.9869 10.0188 20.0412 10.02 20.0972 10.0212C20.1522 10.0218 20.2073 10.0225 20.264 10.0231C20.3998 10.0248 20.5356 10.0271 20.6714 10.03C20.3263 8.41671 19.6714 6.91178 18.562 5.6706C18.5406 5.64648 18.5193 5.62235 18.4973 5.5975C17.8328 4.85008 17.0854 4.2481 16.2183 3.74873C16.1902 3.73219 16.1621 3.71566 16.1332 3.69862C15.3254 3.2269 14.4161 2.90061 13.4995 2.71748C13.4681 2.7106 13.4367 2.70373 13.4043 2.69665C12.2943 2.45906 10.9975 2.47623 9.89014 2.71748C9.85309 2.72552 9.81604 2.73357 9.77787 2.74185C8.92755 2.93373 8.12559 3.2427 7.35889 3.65498C7.33119 3.66952 7.30349 3.68406 7.27496 3.69904C6.65567 4.02533 6.09728 4.44325 5.58551 4.91987C5.48847 5.01009 5.38875 5.0958 5.2876 5.18134C4.98159 5.44872 4.73146 5.77094 4.48486 6.09248C4.45879 6.12631 4.43272 6.16015 4.40586 6.19502C4.20251 6.46332 4.02171 6.74165 3.85483 7.03401C3.72536 7.25414 3.72536 7.25414 3.61728 7.3027C3.47987 7.31417 3.40471 7.27412 3.28149 7.21327C3.21578 7.18132 3.21578 7.18132 3.14874 7.14872C3.10336 7.12597 3.05798 7.10322 3.01123 7.07978C2.96513 7.05721 2.91902 7.03464 2.87152 7.01139C2.75768 6.95558 2.64412 6.89926 2.53076 6.84248C2.8896 6.04259 3.39962 5.33636 3.98389 4.68623C4.02674 4.63765 4.06959 4.58906 4.11243 4.54047C5.43484 3.0549 7.22465 2.11099 9.14014 1.63349C9.18424 1.62216 9.22833 1.61083 9.27377 1.59916C10.1018 1.39986 10.9416 1.33428 11.791 1.33977Z" fill="black"/>
<path d="M12.0711 8.19299C12.1751 8.19254 12.2792 8.19108 12.3833 8.18961C13.2989 8.18282 14.1417 8.40118 14.8197 9.05075C14.9806 9.22409 15.115 9.40561 15.2438 9.60394C15.673 10.259 16.3233 10.5214 17.0198 10.8172C17.6604 11.0895 18.2752 11.3917 18.7971 11.8605C18.8283 11.8879 18.8595 11.9154 18.8917 11.9436C19.2155 12.2449 19.4001 12.6354 19.4205 13.0816C19.4214 13.1482 19.4216 13.2148 19.4211 13.2814C19.4209 13.3164 19.4206 13.3514 19.4204 13.3874C19.4115 13.8058 19.3241 14.173 19.0314 14.4855C18.8725 14.6202 18.7848 14.6689 18.5773 14.6935C18.4221 14.673 18.4221 14.673 18.3312 14.6261C18.2464 14.4665 18.2475 14.33 18.2814 14.1574C18.326 14.0499 18.3731 13.9436 18.4221 13.838C18.5546 13.545 18.624 13.3055 18.5627 12.9855C18.4981 12.8301 18.4981 12.8301 18.3752 12.7043C18.3517 12.6766 18.3282 12.649 18.304 12.6206C17.6782 11.9348 16.751 11.5211 15.8439 11.3918C15.7384 11.3875 15.6327 11.3855 15.527 11.3853C15.4809 11.3851 15.4809 11.3851 15.4339 11.3849C15.3317 11.3845 15.2295 11.3844 15.1273 11.3844C15.0537 11.3841 14.9802 11.3839 14.9066 11.3836C14.7485 11.3831 14.5905 11.3827 14.4324 11.3824C14.1824 11.3819 13.9325 11.381 13.6825 11.3799C12.9719 11.377 12.2612 11.3745 11.5505 11.3729C11.1578 11.3721 10.765 11.3707 10.3723 11.3688C10.1646 11.3678 9.95684 11.3671 9.7491 11.367C9.55383 11.3669 9.35858 11.3662 9.16332 11.3649C9.09169 11.3646 9.02005 11.3645 8.94841 11.3646C8.85058 11.3648 8.75279 11.3641 8.65497 11.3633C8.60024 11.3631 8.54551 11.3629 8.48913 11.3628C8.32799 11.3429 8.23898 11.3007 8.10957 11.2043C8.03371 11.0299 8.04738 10.8684 8.11543 10.6945C8.23893 10.5545 8.35124 10.5084 8.53857 10.4926C8.66371 10.4889 8.78858 10.4882 8.91377 10.4883C9.00807 10.4874 9.10237 10.4864 9.19667 10.4854C9.34479 10.4843 9.49291 10.4836 9.64104 10.4833C9.78438 10.4828 9.92767 10.4812 10.071 10.4795C10.1373 10.4799 10.1373 10.4799 10.2049 10.4802C10.404 10.4773 10.5172 10.4725 10.6902 10.367C10.8652 10.1747 10.8939 9.9646 10.8875 9.70883C10.8658 9.53549 10.807 9.39433 10.7346 9.2355C10.4015 9.06895 9.95091 9.24482 9.61836 9.33804C9.54109 9.35857 9.54109 9.35857 9.46226 9.37952C8.62501 9.60894 7.72238 9.98994 7.26875 10.7763C7.09797 11.1185 7.06678 11.4484 7.05431 11.8259C7.03792 12.2142 6.97283 12.5935 6.90411 12.9756C6.83857 13.3606 6.81644 13.7086 6.96699 14.0753C7.03519 14.2614 7.04526 14.346 6.98457 14.5324C6.92891 14.6203 6.92891 14.6203 6.84394 14.673C6.69917 14.7026 6.60783 14.6988 6.4781 14.6247C6.11086 14.341 6.03657 13.9669 5.97244 13.527C5.94214 13.2632 5.93735 13.0018 5.93867 12.7365C5.93902 12.6537 5.93902 12.6537 5.93937 12.5692C5.95465 11.4291 6.33053 10.4271 7.13087 9.60172C8.17038 8.62515 9.56592 8.41675 10.9221 8.25113C10.9603 8.24616 10.9986 8.24119 11.038 8.23607C11.3814 8.19574 11.7258 8.1939 12.0711 8.19299ZM11.7288 9.29428C11.6587 9.45339 11.6534 9.57464 11.6545 9.7482C11.6541 9.80373 11.6538 9.85926 11.6534 9.91647C11.6778 10.1295 11.7453 10.2881 11.8918 10.4455C12.1847 10.5959 12.5633 10.5513 12.8835 10.5423C12.9545 10.5407 12.9545 10.5407 13.0269 10.539C13.1769 10.5354 13.3268 10.5315 13.4768 10.5275C13.5789 10.525 13.6811 10.5225 13.7833 10.5201C14.0327 10.5141 14.2821 10.5077 14.5314 10.5011C14.5839 10.3905 14.5839 10.3905 14.6252 10.2668C14.4346 9.79457 14.0326 9.39303 13.572 9.18698C13.2187 9.05231 12.8761 9.03837 12.5012 9.03336C12.4603 9.03252 12.4194 9.03169 12.3772 9.03083C12.0912 9.03119 11.9151 9.05957 11.7288 9.29428Z" fill="black"/>
<path d="M17.3527 12.6668C17.7427 12.9315 17.9695 13.2289 18.0822 13.6892C18.1254 14.1971 18.062 14.6732 17.753 15.0942C17.4473 15.4421 17.0061 15.6695 16.5456 15.7164C16.0815 15.7336 15.7155 15.6494 15.3677 15.3267C15.2867 15.2361 15.2131 15.1433 15.1408 15.0457C15.0843 14.9789 15.0843 14.9789 15.0266 14.9109C14.9533 14.8113 14.9533 14.8113 14.9533 14.7175C14.5084 14.4905 14.1054 14.4621 13.6117 14.4645C13.5409 14.4644 13.4701 14.4642 13.3993 14.4641C13.2515 14.4639 13.1038 14.4642 12.956 14.4648C12.7678 14.4656 12.5796 14.4652 12.3913 14.4643C12.2453 14.4638 12.0993 14.464 11.9533 14.4643C11.8839 14.4644 11.8146 14.4643 11.7452 14.464C11.2469 14.4621 10.768 14.4645 10.3867 14.8236C10.2824 14.9384 10.1936 15.0627 10.1029 15.1883C9.90067 15.448 9.65441 15.6375 9.32831 15.7019C8.76901 15.7641 8.29185 15.6432 7.83124 15.3181C7.48117 15.0189 7.32369 14.6702 7.27131 14.2164C7.25411 13.7307 7.38069 13.2787 7.70582 12.9103C8.17329 12.4915 8.67903 12.4279 9.27858 12.4586C9.64427 12.4925 9.93019 12.7199 10.1721 12.9832C10.2543 13.1008 10.3318 13.2191 10.405 13.3426C10.5865 13.551 10.7733 13.6285 11.0434 13.6574C11.2538 13.6674 11.4641 13.6668 11.6746 13.666C11.7528 13.6662 11.8311 13.6665 11.9093 13.6668C12.0728 13.6673 12.2363 13.6671 12.3998 13.6664C12.6083 13.6656 12.8167 13.6667 13.0251 13.6684C13.1866 13.6694 13.348 13.6693 13.5094 13.6689C13.5862 13.6689 13.663 13.6692 13.7398 13.6699C14.1672 13.6732 14.5466 13.6686 14.9064 13.405C15.0249 13.2849 15.0249 13.2849 15.1027 13.1502C15.6292 12.3683 16.5289 12.1885 17.3527 12.6668ZM8.22675 13.5252C8.06951 13.7807 8.08316 14.0513 8.10956 14.3425C8.16748 14.5393 8.27782 14.6713 8.44941 14.782C8.6737 14.8915 8.87488 14.9346 9.11829 14.8772C9.39699 14.7803 9.60467 14.6516 9.75019 14.3894C9.85096 14.1089 9.7775 13.8552 9.65644 13.5925C9.52314 13.3735 9.38407 13.2946 9.14081 13.2175C8.78514 13.1774 8.48066 13.2649 8.22675 13.5252ZM15.8498 13.4168C15.6595 13.663 15.5842 13.8878 15.5962 14.1955C15.6318 14.4623 15.7814 14.6451 15.9846 14.8113C16.248 14.9249 16.5069 14.9372 16.7814 14.8582C17.0566 14.7034 17.2224 14.4773 17.3236 14.1809C17.3659 13.9322 17.2731 13.7532 17.1455 13.5451C16.9738 13.3151 16.7775 13.2289 16.5002 13.1707C16.2614 13.1707 16.0344 13.2723 15.8498 13.4168Z" fill="black"/>
</g>
<defs>
<clipPath id="clip0_1451_4531">
<rect width="24" height="24" fill="white"/>
</clipPath>
</defs>
</svg>
