<svg width="24" height="24" viewBox="0 0 24 24" fill="none" xmlns="http://www.w3.org/2000/svg">
<g clip-path="url(#clip0_1451_4548)">
<path d="M0.800586 0.0982383C1.45346 0.635432 2.04517 1.23002 2.64082 1.82871C2.74966 1.93773 2.85852 2.04673 2.9674 2.15571C3.25186 2.44055 3.53601 2.72569 3.8201 3.01089C4.11088 3.30269 4.40193 3.5942 4.69297 3.88574C5.26245 4.45629 5.83162 5.02716 6.40059 5.59824C6.52891 5.50323 6.65707 5.408 6.78516 5.31267C6.85654 5.25966 6.92793 5.20665 7.00148 5.15203C7.23782 4.96948 7.44454 4.77044 7.65059 4.55449C7.97886 4.2184 8.31542 3.9045 8.67168 3.59863C8.96555 3.34137 9.25171 3.07628 9.53809 2.81074C9.94273 2.43603 10.348 2.06216 10.7568 1.69199C10.8333 1.62277 10.9097 1.55354 10.9885 1.48222C13.2956 -0.519006 19.4839 0.178911 22.3588 0.366598C22.7083 0.398953 23.0536 0.445372 23.4006 0.498238C23.5404 1.78771 23.5247 3.08417 23.5256 4.37949C23.5257 4.49954 23.5259 4.61958 23.526 4.74327C23.5256 6.53971 23.4755 8.30682 23.2412 10.0894C23.203 10.3801 23.1703 10.6709 23.1385 10.9623C23.0327 11.8362 22.8751 12.3998 22.2006 12.9982C22.0197 13.1928 21.8408 13.3884 21.6631 13.5857C21.5676 13.6897 21.472 13.7936 21.3764 13.8975C21.1326 14.1628 20.8912 14.4301 20.6506 14.6982C20.3176 15.0693 19.9818 15.4375 19.6443 15.8045C19.191 16.2977 18.7435 16.7957 18.3006 17.2982C18.459 17.6876 18.7248 17.9494 19.019 18.2393C19.0717 18.2921 19.1244 18.3448 19.1787 18.3991C19.3524 18.5727 19.5269 18.7456 19.7014 18.9185C19.8222 19.039 19.943 19.1595 20.0637 19.28C20.3812 19.5968 20.6993 19.9129 21.0176 20.2289C21.3423 20.5517 21.6666 20.875 21.9908 21.1982C22.6269 21.8321 23.2635 22.4654 23.9006 23.0982C23.8079 23.2158 23.7139 23.3322 23.6193 23.4482C23.541 23.5457 23.541 23.5457 23.4611 23.6451C23.3006 23.7982 23.3006 23.7982 23.0006 23.7982C22.8165 23.6514 22.8165 23.6514 22.606 23.4406C22.5257 23.3608 22.4453 23.2811 22.3625 23.1989C22.2743 23.1098 22.186 23.0207 22.0951 22.9289C22.0005 22.8343 21.9058 22.7399 21.811 22.6455C21.5499 22.3851 21.2897 22.1237 21.0297 21.8622C20.7495 21.5807 20.4684 21.3 20.1874 21.0192C19.7004 20.5324 19.214 20.045 18.7279 19.5572C18.0251 18.852 17.3215 18.1476 16.6176 17.4434C15.4758 16.301 14.3347 15.1578 13.194 14.0143C12.0857 12.9032 10.9771 11.7925 9.86804 10.6822C9.79972 10.6138 9.73139 10.5454 9.661 10.4749C9.31825 10.1318 8.9755 9.78862 8.63274 9.44549C5.78773 6.59736 2.9438 3.74815 0.100586 0.898238C0.198452 0.783612 0.296381 0.669038 0.394336 0.554488C0.448863 0.49068 0.503391 0.426871 0.55957 0.361129C0.637382 0.271247 0.716522 0.182302 0.800586 0.0982383ZM14.1593 1.65854C13.9366 1.68318 13.7138 1.70641 13.4907 1.72739C12.5657 1.8144 11.9116 1.91419 11.285 2.66738C11.1937 2.78165 11.1937 2.78165 11.1006 2.89824C10.9826 3.00767 10.8617 3.11403 10.7381 3.21699C10.3312 3.56585 9.9413 3.93155 9.55059 4.29824C9.04207 4.77495 8.5297 5.24438 8.00059 5.69824C7.85047 5.82936 7.70047 5.96061 7.55059 6.09199C7.43392 6.19407 7.31725 6.29615 7.20059 6.39824C7.68422 6.9807 8.20452 7.51575 8.74077 8.04978C8.83352 8.14254 8.92626 8.2353 9.02182 8.33087C9.27424 8.58332 9.52696 8.83546 9.77975 9.08754C10.0446 9.35175 10.3091 9.61624 10.5737 9.8807C11.0739 10.3806 11.5744 10.8802 12.0749 11.3798C12.6451 11.9489 13.2151 12.5183 13.785 13.0877C14.9565 14.2582 16.1284 15.4283 17.3006 16.5982C17.7134 16.4107 17.9714 16.132 18.2693 15.7982C18.3224 15.7398 18.3754 15.6813 18.4301 15.6211C18.5875 15.4473 18.7441 15.2729 18.9006 15.0982C18.9797 15.0105 19.0589 14.9227 19.1404 14.8322C19.2848 14.672 19.4289 14.5116 19.5729 14.351C19.7837 14.1169 19.996 13.8842 20.2092 13.6522C20.3029 13.5501 20.3965 13.4479 20.49 13.3456C20.7126 13.1021 20.9365 12.8604 21.1635 12.6209C21.2438 12.535 21.3241 12.4492 21.4068 12.3607C21.4781 12.2857 21.5494 12.2107 21.6229 12.1334C22.0411 11.5801 22.0719 10.8984 22.1506 10.2295C22.1633 10.1228 22.1759 10.0161 22.189 9.90612C22.2977 8.93239 22.3634 7.95739 22.4193 6.97949C22.4257 6.86945 22.4257 6.86945 22.4323 6.75719C22.5114 5.37209 22.5149 3.99674 22.4506 2.61074C22.4434 2.44851 22.4434 2.44851 22.4361 2.283C22.4246 2.0214 22.4127 1.75982 22.4006 1.49824C21.437 1.37594 20.4766 1.3741 19.5068 1.37324C19.3725 1.37304 19.3725 1.37304 19.2355 1.37283C17.533 1.37338 15.8511 1.47099 14.1593 1.65854Z" fill="black"/>
<path d="M4.19957 7.69922C4.31711 7.79187 4.43358 7.88588 4.54957 7.98047C4.64702 8.05878 4.64702 8.05878 4.74644 8.13867C4.89957 8.29922 4.89957 8.29922 4.89957 8.59922C4.76539 8.75986 4.76539 8.75986 4.57769 8.93203C4.50911 8.99558 4.44054 9.05913 4.36988 9.12461C4.29718 9.19048 4.22447 9.25635 4.14957 9.32422C4.07996 9.38854 4.01035 9.45287 3.93863 9.51914C3.52461 9.90019 3.1038 10.273 2.67945 10.6425C2.45144 10.8411 2.22537 11.0419 1.99957 11.243C1.92325 11.3109 1.84694 11.3788 1.76832 11.4488C1.71263 11.4985 1.65694 11.5481 1.59957 11.5992C2.76178 15.667 6.20527 19.1648 9.80337 21.1916C10.5752 21.6149 11.3557 22.0405 12.1996 22.2992C12.6164 21.8938 13.0112 21.4772 13.3906 21.0367C13.7081 20.6758 14.0363 20.3248 14.3645 19.9736C14.6888 19.6249 14.9976 19.2675 15.2996 18.8992C15.6362 19.0435 15.8506 19.2325 16.0996 19.4992C15.9644 19.9076 15.7926 20.1369 15.4808 20.4305C15.1356 20.7642 14.8138 21.1045 14.5015 21.4688C14.1869 21.8278 13.8605 22.1761 13.5346 22.5249C13.4857 22.5775 13.4367 22.6302 13.3863 22.6844C13.3379 22.7358 13.2895 22.7873 13.2397 22.8403C13.0962 22.9977 13.0962 22.9977 12.9727 23.1761C12.8503 23.3453 12.8503 23.3453 12.5996 23.5992C12.098 23.6153 11.626 23.3601 11.1746 23.1555C11.0961 23.1201 11.0177 23.0846 10.9369 23.0481C5.97344 20.7647 2.52425 16.9392 0.380816 11.9543C0.291543 11.674 0.252665 11.4905 0.299566 11.1992C0.476129 10.9922 0.476129 10.9922 0.724566 10.7867C0.815832 10.7091 0.907097 10.6315 1.00113 10.5516C1.09961 10.4683 1.1981 10.385 1.29957 10.2992C1.50141 10.1179 1.70047 9.93358 1.89957 9.74922C2.65601 9.05405 3.41585 8.36367 4.19957 7.69922Z" fill="black"/>
<path d="M19.3312 3.64791C19.8502 3.94588 20.2124 4.43532 20.4 4.99791C20.4734 5.7267 20.3232 6.24244 19.9312 6.86666C19.4622 7.33567 19.0011 7.5218 18.3375 7.54166C17.7364 7.51676 17.3831 7.3598 16.9312 6.96041C16.4405 6.40344 16.2818 5.94026 16.3 5.19791C16.4312 4.52316 16.7902 4.15304 17.3125 3.72291C17.877 3.34654 18.7245 3.38202 19.3312 3.64791ZM17.6 4.79791C17.4157 5.03017 17.4009 5.19179 17.3562 5.48541C17.4166 5.91659 17.5887 6.10053 17.9 6.39791C18.2562 6.55729 18.3941 6.49989 18.7687 6.37291C19.1185 6.22179 19.1185 6.22179 19.3 5.89791C19.3691 5.30534 19.3691 5.30534 19.0812 4.80416C18.524 4.39551 18.2012 4.46891 17.6 4.79791Z" fill="black"/>
</g>
<defs>
<clipPath id="clip0_1451_4548">
<rect width="24" height="24" fill="white"/>
</clipPath>
</defs>
</svg>
