<svg width="24" height="24" viewBox="0 0 24 24" fill="none" xmlns="http://www.w3.org/2000/svg">
<path d="M23.7292 11.1692C23.6759 10.9046 23.5938 10.6441 23.4892 10.3938C23.3867 10.1497 23.2574 9.91383 23.1097 9.69229C22.9621 9.4728 22.7918 9.26768 22.6051 9.08101C22.4185 8.89434 22.2133 8.72409 21.9938 8.57639C21.7723 8.42665 21.5385 8.29947 21.2923 8.19691C21.0441 8.09229 20.7836 8.01024 20.5169 7.95691C20.2441 7.90152 19.9651 7.8728 19.6862 7.8728C19.4072 7.8728 19.1262 7.90152 18.8554 7.95691C18.5908 8.01024 18.3303 8.09229 18.08 8.19691C17.8359 8.29947 17.6 8.4287 17.3785 8.57639C17.2944 8.63178 17.2144 8.69332 17.1344 8.75485C17.0544 8.69332 16.9744 8.63383 16.8903 8.57639C16.6687 8.42665 16.4349 8.29947 16.1887 8.19691C15.9405 8.09229 15.68 8.01024 15.4133 7.95691C15.1426 7.90152 14.8615 7.8728 14.5826 7.8728C14.3036 7.8728 14.0226 7.90152 13.7518 7.95691C13.4872 8.01024 13.2267 8.09229 12.9764 8.19691C12.7323 8.29947 12.4964 8.4287 12.2749 8.57639C12.1867 8.63588 12.1005 8.69947 12.0164 8.76511C11.9323 8.69947 11.8462 8.63588 11.76 8.57639C11.5385 8.42665 11.3046 8.29947 11.0585 8.19691C10.8103 8.09229 10.5497 8.01024 10.2831 7.95691C10.0123 7.90152 9.73128 7.8728 9.45231 7.8728C9.17333 7.8728 8.89231 7.90152 8.62154 7.95691C8.35692 8.01024 8.09641 8.09229 7.84615 8.19691C7.60205 8.29947 7.36615 8.4287 7.14461 8.57639C7.05641 8.63588 6.97231 8.69742 6.89025 8.76306C6.8082 8.69742 6.72205 8.63588 6.6359 8.57639C6.41436 8.42665 6.18051 8.29947 5.93436 8.19691C5.68615 8.09229 5.42564 8.01024 5.15897 7.95691C4.8882 7.90152 4.60718 7.8728 4.3282 7.8728C4.04923 7.8728 3.7682 7.90152 3.49743 7.95691C3.23282 8.01024 2.97231 8.09229 2.72205 8.19691C2.47795 8.29947 2.24205 8.4287 2.02051 8.57639C1.80102 8.72409 1.5959 8.89434 1.40923 9.08101C1.22256 9.26768 1.05231 9.4728 0.904613 9.69229C0.763075 9.91383 0.635895 10.1497 0.533331 10.3938C0.428716 10.642 0.346664 10.9025 0.293331 11.1692C0.237946 11.44 0.209229 11.721 0.209229 12C0.209229 12.279 0.237946 12.56 0.293331 12.8308C0.346664 13.0954 0.428716 13.3559 0.533331 13.6041C0.635895 13.8482 0.765126 14.0841 0.912818 14.3056C1.06051 14.5231 1.23077 14.7302 1.41743 14.9169C1.6041 15.1036 1.80923 15.2738 2.02872 15.4215C2.25025 15.5713 2.4841 15.6984 2.73025 15.801C2.97846 15.9056 3.23897 15.9877 3.50564 16.041C3.77641 16.0964 4.05743 16.1251 4.33641 16.1251C4.61538 16.1251 4.89641 16.0964 5.16718 16.041C5.43179 15.9877 5.69231 15.9056 5.94256 15.801C6.18666 15.6984 6.42256 15.5692 6.6441 15.4215C6.73025 15.362 6.81641 15.3005 6.89846 15.2349C6.98051 15.3005 7.06666 15.362 7.15282 15.4215C7.37436 15.5713 7.6082 15.6984 7.85436 15.801C8.10256 15.9056 8.36307 15.9877 8.62769 16.041C8.89846 16.0964 9.17949 16.1251 9.45846 16.1251C9.73743 16.1251 10.0185 16.0964 10.2892 16.041C10.5538 15.9877 10.8144 15.9056 11.0646 15.801C11.3087 15.6984 11.5446 15.5692 11.7662 15.4215C11.8544 15.362 11.9405 15.2984 12.0246 15.2328C12.1087 15.2984 12.1949 15.362 12.2831 15.4215C12.5046 15.5713 12.7385 15.6984 12.9846 15.801C13.2328 15.9056 13.4933 15.9877 13.76 16.041C14.0308 16.0964 14.3118 16.1251 14.5908 16.1251C14.8697 16.1251 15.1508 16.0964 15.4215 16.041C15.6862 15.9877 15.9467 15.9056 16.1969 15.801C16.441 15.6984 16.6769 15.5692 16.8985 15.4215C16.9826 15.3661 17.0626 15.3046 17.1426 15.2431C17.2226 15.3046 17.3026 15.3641 17.3867 15.4215C17.6082 15.5713 17.842 15.6984 18.0882 15.801C18.3364 15.9056 18.5969 15.9877 18.8615 16.041C19.1323 16.0964 19.4133 16.1251 19.6923 16.1251C19.9713 16.1251 20.2523 16.0964 20.5231 16.041C20.7877 15.9877 21.0482 15.9056 21.2985 15.801C21.5426 15.6984 21.7785 15.5692 22 15.4215C22.2195 15.2738 22.4246 15.1036 22.6113 14.9169C22.7979 14.7302 22.9682 14.5251 23.1159 14.3056C23.2656 14.0841 23.3928 13.8502 23.4954 13.6041C23.6 13.3559 23.6821 13.0954 23.7354 12.8287C23.7908 12.5559 23.8195 12.2769 23.8195 11.9979C23.8133 11.721 23.7846 11.44 23.7292 11.1692ZM2.53538 9.33332C2.70769 9.21639 2.89025 9.11793 3.08102 9.03588C3.2759 8.95383 3.47897 8.89024 3.6841 8.84921C3.89538 8.80614 4.11487 8.78357 4.33231 8.78357C4.54974 8.78357 4.76923 8.80614 4.98051 8.84921C5.18769 8.89229 5.39077 8.95383 5.58359 9.03588C5.77436 9.11588 5.95897 9.21639 6.12923 9.33332C6.16615 9.35793 6.20307 9.3846 6.24 9.41126C6.16615 9.50152 6.09641 9.59588 6.03282 9.69229C5.88307 9.91383 5.7559 10.1477 5.65333 10.3938C5.54872 10.642 5.46666 10.9025 5.41333 11.1692C5.35795 11.44 5.32923 11.721 5.32923 12C5.32923 12.279 5.35795 12.56 5.41333 12.8308C5.46666 13.0954 5.54872 13.3559 5.65333 13.6041C5.7559 13.8482 5.88513 14.0841 6.03282 14.3056C6.09846 14.402 6.1682 14.4964 6.24205 14.5866C6.20513 14.6133 6.1682 14.64 6.12923 14.6666C5.95692 14.7836 5.77436 14.882 5.58359 14.9641C5.38872 15.0461 5.18564 15.1097 4.98051 15.1508C4.76923 15.1938 4.54974 15.2164 4.33231 15.2164C4.11487 15.2164 3.89538 15.1938 3.6841 15.1508C3.47692 15.1077 3.27384 15.0461 3.08102 14.9641C2.89025 14.8841 2.70769 14.7836 2.53538 14.6666C2.36513 14.5518 2.20513 14.4184 2.05949 14.2749C1.91384 14.1292 1.78256 13.9692 1.66769 13.799C1.55077 13.6266 1.45231 13.4441 1.37025 13.2533C1.2882 13.0584 1.22461 12.8554 1.18359 12.6502C1.14051 12.439 1.11795 12.2195 1.11795 12.002C1.11795 11.7846 1.14051 11.5651 1.18359 11.3538C1.22666 11.1466 1.2882 10.9436 1.37025 10.7508C1.45025 10.56 1.55077 10.3754 1.66769 10.2051C1.78256 10.0349 1.9159 9.87485 2.05949 9.72921C2.20513 9.58152 2.36513 9.44819 2.53538 9.33332ZM6.78974 13.799C6.67282 13.6266 6.57436 13.4441 6.49231 13.2533C6.41025 13.0584 6.34666 12.8554 6.30564 12.6502C6.26256 12.439 6.24 12.2195 6.24 12.002C6.24 11.7846 6.26256 11.5651 6.30564 11.3538C6.34872 11.1466 6.41025 10.9436 6.49231 10.7508C6.57231 10.56 6.67282 10.3754 6.78974 10.2051C6.82256 10.1559 6.85949 10.1066 6.89641 10.0574C6.93333 10.1066 6.9682 10.1559 7.00307 10.2051C7.12 10.3774 7.21846 10.56 7.30051 10.7508C7.38256 10.9456 7.44615 11.1487 7.48718 11.3538C7.53025 11.5651 7.55282 11.7846 7.55282 12.002C7.55282 12.2195 7.53025 12.439 7.48718 12.6502C7.4441 12.8574 7.38256 13.0605 7.30051 13.2533C7.22051 13.4441 7.12 13.6287 7.00307 13.799C6.97025 13.8482 6.93333 13.8974 6.89641 13.9466C6.85949 13.8995 6.82256 13.8502 6.78974 13.799ZM7.7559 14.3077C7.90564 14.0861 8.03282 13.8523 8.13538 13.6061C8.24 13.3579 8.32205 13.0974 8.37538 12.8308C8.43077 12.56 8.45948 12.279 8.45948 12C8.45948 11.721 8.43077 11.44 8.37538 11.1692C8.32205 10.9046 8.24 10.6441 8.13538 10.3938C8.03282 10.1497 7.90359 9.91383 7.7559 9.69229C7.69025 9.59588 7.62051 9.50152 7.54666 9.41126C7.58359 9.3846 7.62051 9.35793 7.65743 9.33332C7.82974 9.21639 8.01231 9.11793 8.20307 9.03588C8.39795 8.95383 8.60102 8.89024 8.80615 8.84921C9.01743 8.80614 9.23692 8.78357 9.45436 8.78357C9.67179 8.78357 9.89128 8.80614 10.1026 8.84921C10.3097 8.89229 10.5128 8.95383 10.7056 9.03588C10.8964 9.11588 11.081 9.21639 11.2513 9.33332C11.2903 9.35998 11.3292 9.38665 11.3662 9.41537C11.2944 9.50562 11.2246 9.59793 11.161 9.69229C11.0113 9.91383 10.8841 10.1477 10.7815 10.3938C10.6769 10.642 10.5949 10.9025 10.5415 11.1692C10.4862 11.44 10.4574 11.721 10.4574 12C10.4574 12.279 10.4862 12.56 10.5415 12.8308C10.5949 13.0954 10.6769 13.3559 10.7815 13.6041C10.8841 13.8482 11.0133 14.0841 11.161 14.3056C11.2267 14.402 11.2944 14.4943 11.3682 14.5846C11.3292 14.6133 11.2923 14.64 11.2513 14.6666C11.079 14.7836 10.8964 14.882 10.7056 14.9641C10.5108 15.0461 10.3077 15.1097 10.1026 15.1508C9.89128 15.1938 9.67179 15.2164 9.45436 15.2164C9.23692 15.2164 9.01743 15.1938 8.80615 15.1508C8.59897 15.1077 8.3959 15.0461 8.20307 14.9641C8.01231 14.8841 7.82974 14.7836 7.65743 14.6666C7.62051 14.642 7.58154 14.6154 7.54666 14.5866C7.62051 14.4984 7.69025 14.4041 7.7559 14.3077ZM11.9179 13.799C11.801 13.6266 11.7026 13.4441 11.6205 13.2533C11.5385 13.0584 11.4749 12.8554 11.4338 12.6502C11.3908 12.439 11.3682 12.2195 11.3682 12.002C11.3682 11.7846 11.3908 11.5651 11.4338 11.3538C11.4769 11.1466 11.5385 10.9436 11.6205 10.7508C11.7005 10.56 11.801 10.3754 11.9179 10.2051C11.9508 10.1559 11.9856 10.1087 12.0205 10.0615C12.0554 10.1087 12.0903 10.1559 12.1231 10.2051C12.24 10.3774 12.3385 10.56 12.4205 10.7508C12.5026 10.9456 12.5662 11.1487 12.6072 11.3538C12.6503 11.5651 12.6728 11.7846 12.6728 12.002C12.6728 12.2195 12.6503 12.439 12.6072 12.6502C12.5641 12.8574 12.5026 13.0605 12.4205 13.2533C12.3405 13.4441 12.24 13.6287 12.1231 13.799C12.0903 13.8482 12.0554 13.8954 12.0205 13.9425C11.9856 13.8954 11.9508 13.8482 11.9179 13.799ZM12.8779 14.3077C13.0277 14.0861 13.1549 13.8523 13.2574 13.6061C13.362 13.3579 13.4441 13.0974 13.4974 12.8308C13.5528 12.56 13.5815 12.279 13.5815 12C13.5815 11.721 13.5528 11.44 13.4974 11.1692C13.4441 10.9046 13.362 10.6441 13.2574 10.3938C13.1549 10.1497 13.0256 9.91383 12.8779 9.69229C12.8144 9.59588 12.7446 9.50357 12.6728 9.41332C12.7097 9.3846 12.7487 9.35793 12.7877 9.33126C12.96 9.21434 13.1426 9.11588 13.3333 9.03383C13.5282 8.95178 13.7313 8.88819 13.9364 8.84716C14.1477 8.80408 14.3672 8.78152 14.5846 8.78152C14.802 8.78152 15.0215 8.80408 15.2328 8.84716C15.44 8.89024 15.6431 8.95178 15.8359 9.03383C16.0267 9.11383 16.2113 9.21434 16.3815 9.33126C16.4144 9.35383 16.4472 9.37639 16.4779 9.39896C16.402 9.49332 16.3303 9.58973 16.2626 9.69024C16.1128 9.91178 15.9856 10.1456 15.8831 10.3918C15.7785 10.64 15.6964 10.9005 15.6431 11.1672C15.5877 11.4379 15.559 11.719 15.559 11.9979C15.559 12.2769 15.5877 12.5579 15.6431 12.8287C15.6964 13.0933 15.7785 13.3538 15.8831 13.602C15.9856 13.8461 16.1149 14.082 16.2626 14.3036C16.3303 14.4041 16.402 14.5005 16.48 14.5949C16.4472 14.6195 16.4144 14.642 16.3815 14.6646C16.2092 14.7815 16.0267 14.88 15.8359 14.962C15.641 15.0441 15.4379 15.1077 15.2328 15.1487C15.0215 15.1918 14.802 15.2143 14.5846 15.2143C14.3672 15.2143 14.1477 15.1918 13.9364 15.1487C13.7292 15.1056 13.5262 15.0441 13.3333 14.962C13.1426 14.882 12.96 14.7815 12.7877 14.6646C12.7487 14.6379 12.7097 14.6113 12.6728 14.5825C12.7446 14.4964 12.8123 14.402 12.8779 14.3077ZM17.0195 13.799C16.9026 13.6266 16.8041 13.4441 16.722 13.2533C16.64 13.0584 16.5764 12.8554 16.5354 12.6502C16.4923 12.439 16.4697 12.2195 16.4697 12.002C16.4697 11.7846 16.4923 11.5651 16.5354 11.3538C16.5785 11.1466 16.64 10.9436 16.722 10.7508C16.802 10.56 16.9026 10.3754 17.0195 10.2051C17.0564 10.1497 17.0954 10.0964 17.1364 10.0431C17.1774 10.0964 17.2164 10.1497 17.2533 10.2051C17.3703 10.3774 17.4687 10.56 17.5508 10.7508C17.6328 10.9456 17.6964 11.1487 17.7374 11.3538C17.7805 11.5651 17.8031 11.7846 17.8031 12.002C17.8031 12.2195 17.7805 12.439 17.7374 12.6502C17.6944 12.8574 17.6328 13.0605 17.5508 13.2533C17.4708 13.4441 17.3703 13.6287 17.2533 13.799C17.2164 13.8543 17.1774 13.9077 17.1364 13.961C17.0954 13.9077 17.0564 13.8543 17.0195 13.799ZM18.0062 14.3077C18.1559 14.0861 18.2831 13.8523 18.3856 13.6061C18.4903 13.3579 18.5723 13.0974 18.6256 12.8308C18.681 12.56 18.7097 12.279 18.7097 12C18.7097 11.721 18.681 11.44 18.6256 11.1692C18.5723 10.9046 18.4903 10.6441 18.3856 10.3938C18.2831 10.1497 18.1538 9.91383 18.0062 9.69229C17.9385 9.59178 17.8667 9.49537 17.7908 9.40101C17.8236 9.37844 17.8564 9.35383 17.8892 9.33126C18.0615 9.21434 18.2441 9.11588 18.4349 9.03383C18.6297 8.95178 18.8328 8.88819 19.0379 8.84716C19.2492 8.80408 19.4687 8.78152 19.6862 8.78152C19.9036 8.78152 20.1231 8.80408 20.3344 8.84716C20.5415 8.89024 20.7446 8.95178 20.9374 9.03383C21.1282 9.11383 21.3128 9.21434 21.4831 9.33126C21.6533 9.44614 21.8133 9.57947 21.959 9.72511C22.1046 9.87075 22.2359 10.0308 22.3508 10.201C22.4677 10.3733 22.5662 10.5559 22.6482 10.7466C22.7303 10.9415 22.7938 11.1446 22.8349 11.3497C22.8779 11.561 22.9005 11.7805 22.9005 11.9979C22.9005 12.2154 22.8779 12.4349 22.8349 12.6461C22.7918 12.8533 22.7303 13.0564 22.6482 13.2492C22.5682 13.44 22.4677 13.6246 22.3508 13.7949C22.2359 13.9651 22.1026 14.1251 21.959 14.2708C21.8154 14.4164 21.6533 14.5477 21.4831 14.6625C21.3108 14.7795 21.1282 14.8779 20.9374 14.96C20.7426 15.042 20.5395 15.1056 20.3344 15.1466C20.1231 15.1897 19.9036 15.2123 19.6862 15.2123C19.4687 15.2123 19.2492 15.1897 19.0379 15.1466C18.8308 15.1036 18.6277 15.042 18.4349 14.96C18.2441 14.88 18.0615 14.7795 17.8892 14.6625C17.8564 14.64 17.8236 14.6174 17.7908 14.5928C17.8667 14.5046 17.9385 14.4082 18.0062 14.3077Z" fill="black"/>
</svg>
