<svg width="26" height="26" viewBox="0 0 24 24" fill="none" xmlns="http://www.w3.org/2000/svg">
<path d="M12 1.5C6.20108 1.5 1.5 6.20108 1.5 12C1.5 17.7989 6.20108 22.5001 12 22.5001C17.7989 22.5001 22.5 17.7989 22.5 12C22.5 6.20108 17.7989 1.5 12 1.5Z" fill="url(#paint0_linear_1794_4223)"/>
<path d="M11.9999 18.707C8.29575 18.707 5.29285 15.7041 5.29285 11.9999C5.29285 8.29575 8.29575 5.29285 11.9999 5.29285C15.704 5.29285 18.707 8.29575 18.707 11.9999C18.707 15.7041 15.7041 18.707 11.9999 18.707Z" fill="white"/>
<path d="M5.72461 11.9998H12.0002V5.72424C8.53433 5.72424 5.72461 8.53403 5.72461 11.9998ZM12.0002 11.9998V18.2754C15.4661 18.2754 18.2757 15.4657 18.2757 11.9998H12.0002Z" fill="url(#paint1_linear_1794_4223)"/>
<path fill-rule="evenodd" clip-rule="evenodd" d="M6.18264 5.51935C6.50526 5.31932 6.84892 5.38445 7.07125 5.60054C7.41286 5.9326 7.36261 6.31653 7.03766 6.70379L5.61546 8.39864L3.49548 6.61973L4.84409 5.01257C5.12322 4.67993 5.51348 4.41428 5.8843 4.72544C5.89116 4.73119 5.89778 4.73671 5.90419 4.74207C6.00498 4.82615 6.05569 4.86845 6.18636 5.10674C6.21909 5.19667 6.24426 5.35965 6.18264 5.51935ZM5.58111 5.41749C5.4447 5.30307 5.23262 5.29847 5.13878 5.41034L4.32876 6.37564L4.82985 6.79612L5.63071 5.8417C5.73143 5.72173 5.73107 5.54332 5.58111 5.41749ZM5.71932 7.54252L6.5637 6.53626C6.67584 6.40264 6.65964 6.19441 6.49602 6.0572C6.35148 5.93587 6.13716 5.96923 6.04104 6.08378L5.18984 7.09823L5.71932 7.54252Z" fill="white"/>
<path d="M13.0795 2.90712L12.3515 4.83686H11.747L11.0189 2.90712V4.83686H10.4656V2.07312H11.297L12.0492 4.04168L12.8015 2.07312H13.6328V4.83686H13.0795V2.90712Z" fill="white"/>
<path d="M18.749 7.46157L19.7908 5.98667L19.332 5.42013L17.6728 6.13248L18.7585 4.71216L18.3309 4.18408L16.597 6.41434L17.1038 7.03512L18.7417 6.36109L18.7476 6.36842L17.7478 7.83037L18.2497 8.45512L20.7916 7.2229L20.364 6.69483L18.749 7.46157Z" fill="white"/>
<defs>
<linearGradient id="paint0_linear_1794_4223" x1="4.70755" y1="4.70752" x2="18.8874" y2="19.6976" gradientUnits="userSpaceOnUse">
<stop offset="0.0273393" stop-color="#949AA0"/>
<stop offset="0.403335" stop-color="#1A1D1E"/>
<stop offset="1" stop-color="#040606"/>
</linearGradient>
<linearGradient id="paint1_linear_1794_4223" x1="12.0002" y1="5.72424" x2="12.0002" y2="18.2754" gradientUnits="userSpaceOnUse">
<stop stop-color="#7CD1F4"/>
<stop offset="1" stop-color="#1274B9"/>
</linearGradient>
</defs>
</svg>
