<svg width="24" height="24" viewBox="0 0 24 24" fill="none" xmlns="http://www.w3.org/2000/svg">
<g clip-path="url(#clip0_1794_4314)">
<path d="M24 11.9998C24 18.6275 18.6273 24 12 24C5.37258 24 0 18.6275 0 11.9998C0 5.37266 5.37258 0 12 0C18.6273 0 24 5.37266 24 11.9998Z" fill="#231F20"/>
<path d="M23.5789 11.9998C23.5789 18.3951 18.3948 23.579 11.9999 23.579C5.60494 23.579 0.420776 18.3951 0.420776 11.9998C0.420776 5.6051 5.60502 0.421021 12 0.421021C18.3949 0.421021 23.5789 5.6051 23.5789 11.9998Z" fill="#BDBCBC"/>
<path d="M2.68736 6.16794C2.68736 6.17754 1.40267 6.37296 1.40397 6.37906C1.41023 6.41095 1.33742 12.9878 2.51065 12.6568C3.28313 12.2933 2.86748 8.00789 2.86748 8.58429C2.86748 9.38768 2.9455 10.7054 3.25376 12.775C3.60115 15.1062 3.45471 15.3967 3.61669 15.8988C3.23985 15.5328 2.6536 15.3682 2.6536 15.3682L3.48489 18.1779L4.0971 18.1717C4.0971 18.1717 4.10588 17.9829 4.11394 17.974C4.13045 17.9738 4.71865 18.0175 5.12275 18.7571C7.46124 23.037 13.6179 21.3913 12.0063 21.4841L14.5432 21.1787C7.11312 22.4498 5.71933 19.024 5.34575 18.34C5.11168 17.997 4.43879 17.6377 4.01574 17.8423C4.01574 17.8423 5.04831 17.8835 5.00242 17.6098C5.32508 17.9231 4.20009 17.1026 4.20009 17.1026L4.25672 17.2805C4.43122 17.2982 4.35263 17.1097 4.53642 17.079L4.3083 16.9745C4.27909 16.9387 4.43505 16.7525 3.878 13.0142C3.57194 10.9602 3.63369 9.36116 3.63369 8.56542C3.63369 7.79449 3.58333 7.73998 3.5848 7.73429L3.13205 7.43856L3.04524 7.42099C2.92044 7.3956 2.79678 7.35566 2.74317 7.32596C2.77099 7.28455 2.78702 7.22939 2.78702 7.13836C2.78702 7.05025 2.77758 6.93545 2.7653 6.78722C2.74911 6.58888 2.75708 5.87831 2.72966 6.11571C1.28698 18.6364 3.28402 4.71427 3.03874 4.98177L3.17907 4.8228C3.85864 4.03837 6.23261 2.2064 12.3581 2.06321C18.8357 1.9114 18.8651 4.27747 18.8873 4.31205L20.5652 5.14318C20.5432 5.10763 18.3636 1.4903 11.7853 1.64431C5.58623 1.78945 3.74604 3.91292 3.0533 4.71248L2.91629 4.86804C2.63155 5.17865 2.30466 5.1815 2.30466 5.63913C2.30466 5.88352 2.03074 6.20903 2.04741 6.41111C2.84714 7.81589 2.5711 7.12152 2.68736 6.16794ZM20.4013 5.56566C20.2599 5.62636 20.2813 5.85562 20.3108 6.17274C20.3324 6.40908 20.3574 6.67699 20.3108 6.86402L20.4725 6.90478C20.526 6.69008 20.4995 6.40705 20.4766 6.1572C20.462 5.9984 20.4395 5.75807 20.4733 5.71544C20.4774 5.72089 20.5241 7.5047 20.8917 7.92995C21.4763 8.60667 21.1848 8.2173 21.1848 9.39655C21.1848 9.97784 21.6196 10.6554 21.6023 10.8926C21.3857 10.6184 21.3241 9.91292 21.269 9.28013C21.2045 8.54329 21.1493 7.90717 20.8873 7.69581C21.2102 7.41261 20.088 5.92876 20.1646 6.93358C20.2174 7.28504 20.0455 6.14443 19.7959 5.75612C19.0314 4.56629 17.4475 3.17608 11.9438 2.98497C6.89851 2.80981 4.39803 4.88065 3.75532 5.51238L3.83879 5.36829L3.01897 4.94573L2.78702 7.40024L3.13791 6.84645C3.13791 6.84645 3.70431 5.81933 3.71472 5.79525C3.80316 5.69103 6.1938 2.95316 11.9379 3.15265C18.0607 3.36515 19.1785 5.10446 19.6561 5.84716C19.886 6.20528 19.9464 6.60547 20 6.95856C20.0699 7.42359 20.1368 7.86267 20.659 7.79246C20.707 7.78619 20.7463 7.79693 20.783 7.82663C20.9899 7.99333 21.0471 8.65491 21.1031 9.29453C21.1763 10.1409 21.2464 10.9401 21.6352 11.136L21.7436 11.1907L21.7552 11.0691C21.7699 10.9138 22.1052 7.25535 21.0692 6.05591C20.6613 5.58364 20.5111 5.51831 20.4013 5.56566ZM22.6158 8.59812C22.5109 8.11169 22.3535 7.63808 22.1464 7.18562C22.264 7.45678 22.4521 7.94012 22.6158 8.59812ZM22.1465 7.18562C22.123 7.13076 22.0986 7.0763 22.0733 7.02226C22.1002 7.07693 22.1219 7.13103 22.1465 7.18562ZM21.6247 5.9744C22.9936 7.29431 22.7479 10.7001 22.7479 10.7001L22.0821 9.9265V13.2265L21.6212 14.1544C20.8014 18.5373 18.8553 22.4046 11.2235 22.1982C3.59204 21.992 2.41417 17.9186 1.69701 14.0514C0.979942 10.1843 2.00429 5.95617 2.00429 5.95617C-0.249427 12.6592 2.41417 17.7123 2.41417 17.7123C2.41417 17.7123 3.69446 22.456 11.5822 22.4046C19.4696 22.3531 20.6992 17.9702 20.6992 17.9702L20.8425 19.0764C20.8425 19.0764 22.6746 17.4004 23.2379 13.8942C23.5233 12.1191 22.4202 6.74134 21.6247 5.9744ZM22.0733 7.02226C22.0467 6.96653 22.0305 6.93586 22.0305 6.93586C22.0454 6.96482 22.0592 6.99362 22.0733 7.02226Z" fill="#231F20"/>
<mask id="mask0_1794_4314" style="mask-type:luminance" maskUnits="userSpaceOnUse" x="0" y="0" width="24" height="24">
<path d="M22.5845 10.1987C22.5886 10.2395 22.5934 10.2779 22.5979 10.3189C22.7295 11.6294 22.7898 11.2787 22.5845 10.1987ZM2.98482 4.70001C2.98482 4.70001 4.02777 3.73814 4.77244 3.0295C4.77248 3.0295 3.77937 3.5862 2.98482 4.70001ZM2.70727 17.4644C3.29779 18.6556 3.87885 19.4308 3.87885 19.4308C3.87885 19.4308 3.32513 18.5956 2.70727 17.4644ZM22.0516 6.01607L21.8575 5.45056L23.5907 6.06668L21.9139 5.20727L23.6168 4.19669L21.7453 4.96403L22.0448 3.09259L21.4372 4.90038L20.9968 4.77598C20.0732 3.40286 18.8043 2.71568 17.2076 1.9498C14.2397 0.525756 10.284 0.903385 10.284 0.903385C10.284 0.903385 14.954 0.962809 18.5262 3.08023C19.2641 3.51752 19.8791 4.12394 20.3897 4.80927L19.6187 4.85179L20.5024 4.96451C20.5857 5.08183 20.6661 5.20116 20.7436 5.32241L19.7177 5.91503L20.8245 5.4504C20.9382 5.63462 21.0463 5.82226 21.1486 6.01306L20.711 7.38299L21.2282 6.16375C21.9948 7.64636 22.3986 9.22142 22.5845 10.1987C22.37 8.15294 21.9956 6.69464 21.4665 5.60076L21.5052 5.50994C21.5052 5.50994 23.4416 8.04094 23.0943 12.192C22.7467 16.3431 21.7536 17.8111 20.7604 18.8235L20.7109 18.3172C20.7109 18.3172 19.2711 22.6203 12.1211 22.5189C4.97096 22.4175 4.4248 20.0892 4.4248 20.0892L4.02761 19.8863C4.02761 19.8863 2.33951 18.5706 1.29676 15.0774C0.253929 11.5845 1.24704 8.7497 1.24704 8.7497C1.24704 8.7497 0.700926 11.0783 1.09816 13.4575C1.30396 14.6904 2.04264 16.2484 2.70723 17.4644C2.21941 16.4808 1.72483 15.2136 1.54508 13.8624C1.14764 10.8757 1.24704 8.85087 1.74351 7.33234C2.23999 5.81381 2.53802 5.1555 2.53802 5.1555C2.53802 5.1555 0.452688 7.58553 0.403008 12.7489C0.353328 17.9124 4.72268 21.4558 6.6591 22.2152C8.59559 22.9745 14.7029 23.9868 18.3771 21.4054C22.0516 18.8236 21.8032 18.1657 22.9948 15.7861C24.1868 13.4069 23.6901 8.59784 22.0516 6.01607V6.01607ZM21.182 5.06918C21.178 5.06258 21.1743 5.05598 21.1703 5.0497L21.2074 5.05437L21.182 5.06918ZM21.3526 5.37395C21.3317 5.33437 21.3108 5.29395 21.2894 5.25526L21.4062 5.20614L21.3526 5.37395ZM3.87885 5.15554C4.1766 4.64928 5.71582 3.7381 5.71582 3.7381C5.71582 3.7381 4.87164 4.24452 3.92841 5.35816C2.98482 6.47173 4.276 5.25687 6.0139 4.09246C7.75164 2.92829 10.1846 3.02958 10.1846 3.02958C10.1846 3.02958 9.39034 2.42204 6.36142 3.38398L9.29094 2.11836C9.29094 2.11836 4.82232 3.08019 3.53125 4.90251C2.24003 6.72483 3.58073 5.6618 3.87885 5.15554V5.15554ZM18.8252 4.99547C19.373 5.56441 19.7676 6.06668 19.7676 6.06668C19.7676 6.06668 19.6062 5.55495 18.8252 4.99547V4.99547ZM1.84295 12.4452C2.38911 17.8112 4.67324 20.0893 4.67324 20.0893C4.67324 20.0893 6.41098 21.8103 11.8232 22.0633C17.2351 22.3164 18.9733 20.1904 19.1223 19.8361C19.2712 19.4817 18.4269 20.0384 18.1787 19.9371C17.9305 19.8361 18.9733 17.9629 18.9733 17.9629C18.427 19.9878 19.2712 17.6592 19.8172 17.9124C20.3635 18.1653 18.7249 18.8235 19.2712 19.3298C19.8172 19.8361 20.9589 16.2419 21.7041 14.6219C22.4489 13.0021 22.2005 11.3315 22.151 10.2684C22.1016 9.20527 21.8531 8.7497 21.8531 8.7497L21.7042 11.281C21.7042 11.281 21.8036 11.6351 21.0089 9.86326L20.3635 8.14223C19.9167 16.0394 18.1289 19.0263 18.1289 19.0263C18.1289 19.0263 17.4835 21.0003 12.2699 21.051C7.05657 21.1013 6.31162 19.7346 6.31162 19.7346C4.62356 17.5073 3.63045 12.7488 3.87893 9.61044C4.12709 6.47181 3.87893 5.61103 6.11314 4.64924C8.34752 3.68758 11.7238 3.58612 11.7238 3.58612C15.7792 3.47211 17.818 4.27351 18.8253 4.99539C18.6954 4.86026 18.5626 4.72803 18.4269 4.5988C17.6822 3.8902 10.7804 2.42195 7.15585 3.83935C3.53125 5.25679 3.28297 6.6235 3.53125 10.7746C3.77961 14.9257 5.07055 18.3678 5.96426 19.6841C6.85797 21.0003 10.0358 21.4053 10.0358 21.4053C5.71595 21.3039 5.21947 19.0263 4.97116 18.6209C4.72284 18.2159 3.97805 17.4059 3.82913 18.0642C3.68025 18.7222 2.34522 14.6982 2.59354 14.4956C2.8417 14.2931 4.37528 16.5457 4.37528 16.5457C4.37528 16.5457 3.82913 15.4318 3.28297 12.2933C2.73678 9.15487 3.58077 7.58557 3.03462 7.48428C2.48846 7.38299 3.71383 12.1154 2.14957 12.3259C1.70386 12.386 2.07372 8.14038 2.27256 7.27984C2.47103 6.41911 2.68726 6.16793 2.68726 6.16793C2.68726 6.16793 1.29684 7.07935 1.84295 12.4452Z" fill="white"/>
</mask>
<g mask="url(#mask0_1794_4314)">
<path d="M2.98482 4.70001C2.98482 4.70001 4.02777 3.73814 4.77244 3.0295C4.77248 3.0295 3.77937 3.5862 2.98482 4.70001ZM2.70727 17.4644C3.29779 18.6556 3.87885 19.4308 3.87885 19.4308C3.87885 19.4308 3.32513 18.5956 2.70727 17.4644ZM22.0516 6.01607L21.8575 5.45056L23.5907 6.06668L21.9139 5.20727L23.6168 4.19669L21.7453 4.96403L22.0448 3.09259L21.4372 4.90038L20.9968 4.77598C20.0732 3.40286 18.8043 2.71568 17.2076 1.9498C14.2397 0.525756 10.284 0.903385 10.284 0.903385C10.284 0.903385 14.954 0.962809 18.5262 3.08023C19.2641 3.51752 19.8791 4.12394 20.3897 4.80927L19.6187 4.85179L20.5024 4.96451C20.5857 5.08183 20.6661 5.20116 20.7436 5.32241L19.7177 5.91503L20.8245 5.4504C20.9382 5.63462 21.0463 5.82226 21.1486 6.01306L20.711 7.38299L21.2282 6.16375C21.9948 7.64636 22.3986 9.22142 22.5845 10.1987C22.37 8.15294 21.9956 6.69464 21.4665 5.60076L21.5052 5.50994C21.5052 5.50994 23.4416 8.04094 23.0943 12.192C22.7467 16.3431 21.7536 17.8111 20.7604 18.8235L20.7109 18.3172C20.7109 18.3172 19.2711 22.6203 12.1211 22.5189C4.97096 22.4175 4.4248 20.0892 4.4248 20.0892L4.02761 19.8863C4.02761 19.8863 2.33951 18.5706 1.29676 15.0774C0.253929 11.5845 1.24704 8.7497 1.24704 8.7497C1.24704 8.7497 0.700926 11.0783 1.09816 13.4575C1.30396 14.6904 2.04264 16.2484 2.70723 17.4644C2.21941 16.4808 1.72483 15.2136 1.54508 13.8624C1.14764 10.8757 1.24704 8.85087 1.74351 7.33234C2.23999 5.81381 2.53802 5.1555 2.53802 5.1555C2.53802 5.1555 0.452688 7.58553 0.403008 12.7489C0.353328 17.9124 4.72268 21.4558 6.6591 22.2152C8.59559 22.9745 14.7029 23.9868 18.3771 21.4054C22.0516 18.8236 21.8032 18.1657 22.9948 15.7861C24.1868 13.4069 23.6901 8.59784 22.0516 6.01607ZM21.182 5.06918C21.178 5.06258 21.1743 5.05598 21.1703 5.0497L21.2074 5.05437L21.182 5.06918ZM21.3526 5.37395C21.3317 5.33437 21.3108 5.29395 21.2894 5.25526L21.4062 5.20614L21.3526 5.37395ZM3.87885 5.15554C4.1766 4.64928 5.71582 3.7381 5.71582 3.7381C5.71582 3.7381 4.87164 4.24452 3.92841 5.35816C2.98482 6.47173 4.276 5.25687 6.0139 4.09246C7.75164 2.92829 10.1846 3.02958 10.1846 3.02958C10.1846 3.02958 9.39034 2.42204 6.36142 3.38398L9.29094 2.11836C9.29094 2.11836 4.82232 3.08019 3.53125 4.90251C2.24003 6.72483 3.58073 5.6618 3.87885 5.15554ZM18.8252 4.99547C19.373 5.56441 19.7676 6.06668 19.7676 6.06668C19.7676 6.06668 19.6062 5.55495 18.8252 4.99547ZM1.84295 12.4452C2.38911 17.8112 4.67324 20.0893 4.67324 20.0893C4.67324 20.0893 6.41098 21.8103 11.8232 22.0633C17.2351 22.3164 18.9733 20.1904 19.1223 19.8361C19.2712 19.4817 18.4269 20.0384 18.1787 19.9371C17.9305 19.8361 18.9733 17.9629 18.9733 17.9629C18.427 19.9878 19.2712 17.6592 19.8172 17.9124C20.3635 18.1653 18.7249 18.8235 19.2712 19.3298C19.8172 19.8361 20.9589 16.2419 21.7041 14.6219C22.4489 13.0021 22.2005 11.3315 22.151 10.2684C22.1016 9.20527 21.8531 8.7497 21.8531 8.7497L21.7042 11.281C21.7042 11.281 21.8036 11.6351 21.0089 9.86326L20.3635 8.14223C19.9167 16.0394 18.1289 19.0263 18.1289 19.0263C18.1289 19.0263 17.4835 21.0003 12.2699 21.051C7.05657 21.1013 6.31162 19.7346 6.31162 19.7346C4.62356 17.5073 3.63045 12.7488 3.87893 9.61044C4.12709 6.47181 3.87893 5.61103 6.11314 4.64924C8.34752 3.68758 11.7238 3.58612 11.7238 3.58612C15.7792 3.47211 17.818 4.27351 18.8253 4.99539C18.6954 4.86026 18.5626 4.72803 18.4269 4.5988C17.6822 3.8902 10.7804 2.42195 7.15585 3.83935C3.53125 5.25679 3.28297 6.6235 3.53125 10.7746C3.77961 14.9257 5.07055 18.3678 5.96426 19.6841C6.85797 21.0003 10.0358 21.4053 10.0358 21.4053C5.71595 21.3039 5.21947 19.0263 4.97116 18.6209C4.72284 18.2159 3.97805 17.4059 3.82913 18.0642C3.68025 18.7222 2.34522 14.6982 2.59354 14.4956C2.8417 14.2931 4.37528 16.5457 4.37528 16.5457C4.37528 16.5457 3.82913 15.4318 3.28297 12.2933C2.73678 9.15487 3.58069 7.58557 3.0345 7.48428C2.4883 7.38299 3.71383 12.1154 2.14957 12.3259C1.70386 12.386 2.07372 8.14038 2.27256 7.27984C2.47103 6.41911 2.68726 6.16793 2.68726 6.16793C2.68726 6.16793 1.29684 7.07935 1.84295 12.4452Z" fill="url(#paint0_linear_1794_4314)"/>
</g>
<path d="M12.7372 20.7179C12.7456 20.7175 13.9815 20.6568 15.0595 20.4139C15.9962 20.203 16.8251 19.8 16.8334 19.796L16.8364 19.7944L16.8398 19.7928C16.8444 19.7909 17.3063 19.5915 17.5904 19.32C17.8784 19.0446 18.0093 18.6844 18.0106 18.6808C18.0164 18.6652 18.5207 17.3212 18.902 15.8857C19.2529 14.5647 19.4937 13.1043 19.4962 13.0898C19.4999 13.0706 19.7907 11.5949 19.8724 10.0253C19.9411 8.70614 19.8047 7.20838 19.8031 7.19333C19.8023 7.18202 19.7321 6.29508 19.3761 5.71509C19.0562 5.19401 18.4387 4.93806 18.4324 4.93546L18.427 4.93334L18.4218 4.93058C18.4147 4.927 17.6976 4.56773 16.3372 4.27176C15.2523 4.03574 13.7443 3.86726 12.4955 3.84293C11.068 3.81486 9.53539 3.91444 8.39641 4.10913C7.03036 4.34262 6.14285 4.68952 6.1339 4.69302L6.12649 4.69578L6.11885 4.69782C6.10998 4.70018 5.22483 4.94286 4.75955 5.53367C4.28679 6.13383 4.21024 7.11978 4.2095 7.12971L4.20893 7.13573C4.20755 7.14582 4.10846 7.99615 4.10846 9.03832C4.10846 9.22511 4.11155 9.41809 4.1192 9.61359C4.17249 11.0017 4.41517 12.5401 4.41753 12.5555C4.42038 12.5707 4.74914 14.3768 5.12411 15.899C5.40186 17.0274 5.76356 18.0257 5.76723 18.0356L5.76958 18.0427L5.77146 18.05C5.77284 18.0551 5.89609 18.5616 6.09655 18.9151C6.27114 19.2226 6.52815 19.4035 6.53083 19.405L6.53506 19.4079L6.53921 19.4114C6.54108 19.4127 6.716 19.554 6.98447 19.7012C7.29363 19.8704 7.70789 20.052 7.72546 20.0593C7.75467 20.0708 8.66789 20.4203 9.8718 20.5792C11.1291 20.7452 12.7211 20.7181 12.7372 20.7179Z" fill="url(#paint1_radial_1794_4314)" stroke="#6D0115" stroke-width="5.42373"/>
<path d="M7.28114 19.7506C7.22663 19.7256 7.19694 19.7112 7.19694 19.7112C7.19385 19.7099 7.17831 19.7031 7.15317 19.6915L7.14406 19.6374C6.92846 18.4487 6.59938 16.2767 6.49174 13.6283C6.35865 10.5138 6.36377 6.69672 6.37638 4.84783V4.71408C6.41275 4.70188 6.45042 4.68951 6.4893 4.67706L6.48987 4.81106C6.4771 6.64417 6.471 10.4902 6.60491 13.6236C6.71433 16.3183 7.05343 18.5174 7.2678 19.6858L7.28114 19.7506Z" fill="#6D0115"/>
<path d="M7.63702 19.9031C7.59341 19.8854 7.55241 19.8684 7.51433 19.8525L7.50376 19.7691C7.34674 18.6495 7.06891 16.3672 6.93687 13.4476C6.79661 10.3438 6.82191 6.44257 6.84388 4.66901L6.84412 4.56935C6.88098 4.55877 6.91873 4.5482 6.95721 4.53754L6.95745 4.64753C6.93549 6.40889 6.90945 10.328 7.05003 13.4427C7.18509 16.4284 7.47276 18.7457 7.62709 19.8318L7.63702 19.9031ZM10.2992 4.0887C10.3277 7.5268 10.4099 17.4446 10.4339 20.3176L10.4361 20.5603C10.3993 20.5564 10.3616 20.5521 10.3236 20.5477L10.3207 20.3172C10.2968 17.4463 10.2147 7.55422 10.1861 4.10375L10.1833 4.00319C10.2214 3.99994 10.2595 3.99676 10.2976 3.99384L10.2992 4.0887ZM11.7732 4.04403L11.8268 20.3993L11.8277 20.6288C11.788 20.6293 11.7499 20.6296 11.7136 20.6297V20.3694C11.7022 16.9561 11.6694 6.96471 11.6597 4.00685L11.6592 3.92989L11.7698 3.92859L11.7732 4.04403ZM12.3391 4.059L12.258 20.3996L12.2578 20.6209C12.2185 20.6219 12.1805 20.6228 12.1428 20.6236L12.1444 20.4442C12.1586 17.5416 12.2091 7.37759 12.2257 4.03687L12.2231 3.929C12.2625 3.9294 12.3018 3.92981 12.341 3.93046L12.3391 4.059ZM13.8689 20.3408C13.9501 18.9962 14.1036 16.1456 14.1666 12.92C14.2309 9.63253 14.2024 5.8913 14.1824 4.13426L14.176 4.02117C14.2219 4.02524 14.2674 4.02931 14.3127 4.03354L14.3189 4.17835C14.3386 5.95484 14.3663 9.66158 14.3027 12.9225C14.24 16.1212 14.0887 18.9518 14.0069 20.3123L13.995 20.5066C13.9474 20.5123 13.9061 20.5178 13.8577 20.5229L13.8689 20.3408ZM17.7351 19.0081C17.6815 19.0808 17.6219 19.1489 17.5569 19.2117L17.6113 18.9232C17.8478 17.6977 18.1537 15.8019 18.3064 13.5759C18.4879 10.9295 18.5111 7.31104 18.5074 5.25493L18.5098 5.05797C18.5539 5.08238 18.5987 5.10825 18.6433 5.13607L18.6436 5.39861C18.6462 7.47839 18.6197 10.9956 18.4423 13.585C18.2924 15.7704 17.9951 17.639 17.7598 18.8707L17.7351 19.0081ZM19.0429 14.5687C19.1512 13.7172 19.2348 12.8628 19.2936 12.0065C19.4305 9.9883 19.434 7.70196 19.4165 6.24683L19.4136 6.00398C19.4688 6.12845 19.5156 6.25646 19.5537 6.38717L19.5564 6.61285C19.5686 8.06977 19.5555 10.1561 19.4295 12.0155C19.4036 12.3974 19.3725 12.7789 19.3362 13.1599L19.2947 13.5689C19.1941 14.074 19.0876 14.5779 18.975 15.0805L19.0429 14.5687Z" fill="#6D0115"/>
<path d="M17.2535 19.4506C17.2103 19.4799 17.1588 19.5132 17.1007 19.5483L17.142 19.3162C17.3687 18.0678 17.7217 15.8019 17.8605 13.1689C18.0127 10.2765 18.0132 6.83831 18.0005 5.07809L17.9952 4.8289C18.034 4.84256 18.0798 4.85941 18.1305 4.87966L18.1368 5.11185C18.1493 6.88379 18.1478 10.2993 17.9963 13.1759C17.8614 15.7365 17.5242 17.9512 17.2965 19.225L17.2534 19.4505L17.2535 19.4506ZM15.5836 20.023C15.6908 18.8598 15.8874 16.4519 15.9819 13.547C16.0879 10.2859 16.0883 6.42144 16.0805 4.55473L16.0764 4.28918C16.1237 4.29894 16.1704 4.30871 16.2162 4.31863L16.2167 4.57564C16.2245 6.45154 16.2236 10.3007 16.1179 13.5514C16.0241 16.4371 15.8295 18.8334 15.7217 20.0086L15.7079 20.1514C15.663 20.1647 15.618 20.1783 15.5679 20.1922L15.5836 20.023ZM15.1137 20.1328C15.2314 19.145 15.4243 17.2303 15.504 14.74C15.62 11.1167 15.6057 6.54722 15.5905 4.43261L15.5879 4.19741C15.6329 4.20506 15.6774 4.21279 15.7213 4.22084L15.7264 4.4667C15.7415 6.59725 15.7552 11.1387 15.6396 14.7444C15.5612 17.1964 15.3732 19.092 15.2545 20.0974L15.2325 20.2794C15.1873 20.2904 15.139 20.3026 15.0913 20.3136L15.1137 20.1328ZM14.7327 20.2129C14.8248 19.1685 14.9837 17.0998 15.0584 14.5831C15.1627 11.0658 15.1358 6.61197 15.1106 4.28991L15.1079 4.12395C15.1543 4.13013 15.2001 4.13664 15.2452 4.14323L15.2476 4.36525C15.2724 6.70879 15.2976 11.106 15.1943 14.5869C15.1209 17.0647 14.9657 19.1091 14.8731 20.1717L14.8561 20.3645C14.8093 20.3741 14.7652 20.3832 14.7167 20.3925L14.7327 20.213V20.2129ZM14.2906 20.3017C14.3687 19.0817 14.5162 16.5328 14.5807 13.7986C14.6665 10.1641 14.6706 6.10985 14.6668 4.21197L14.663 4.06911C14.7091 4.07432 14.7548 4.07945 14.8003 4.08473L14.8031 4.24582C14.8068 6.15842 14.8022 10.1875 14.7169 13.8017C14.6531 16.5032 14.5084 19.0242 14.4295 20.2631L14.4178 20.4459C14.3692 20.454 14.3301 20.4609 14.2801 20.4684L14.2906 20.3017V20.3017ZM13.8229 4.14844C13.8171 6.09073 13.7976 10.4971 13.7347 14.2557C13.7 16.2748 13.6417 18.2934 13.5601 20.3111L13.5496 20.5517C13.5113 20.555 13.4726 20.5583 13.4342 20.5613L13.4454 20.3475C13.493 19.181 13.5772 16.885 13.6214 14.2538C13.6849 10.4768 13.7042 6.04525 13.71 4.11874L13.7108 3.9854C13.7489 3.98808 13.7871 3.99061 13.825 3.99337L13.8229 4.14844ZM13.263 4.05903C13.2788 5.7732 13.3023 9.12775 13.2813 12.289C13.2586 15.711 13.1845 18.9782 13.1494 20.385L13.1452 20.5819C13.1066 20.5844 13.0682 20.5868 13.0299 20.5889L13.0351 20.4219C13.0701 19.038 13.1452 15.742 13.168 12.288C13.1889 9.1454 13.1659 5.81111 13.1501 4.08872L13.149 3.95383C13.1867 3.95554 13.2245 3.95725 13.2621 3.95912L13.263 4.05903ZM12.8184 4.05154C12.8416 6.01751 12.874 9.53623 12.8583 12.8547C12.8436 15.9422 12.7775 18.8992 12.7377 20.4442L12.7343 20.6041L12.6202 20.6089L12.6249 20.4218C12.6647 18.8719 12.7302 15.9277 12.7448 12.8543C12.7606 9.55226 12.7287 6.05225 12.7053 4.08132L12.7027 3.93781L12.8168 3.94106L12.8184 4.05154ZM8.81474 20.2921C8.77528 20.2824 8.73615 20.2723 8.69726 20.2618L8.69051 20.1882C8.59532 19.1618 8.40397 16.8533 8.3249 14.1435C8.22377 10.6868 8.25737 6.36644 8.28218 4.33197L8.28129 4.24289C8.31912 4.23638 8.35703 4.22987 8.39551 4.22353L8.39576 4.31375C8.37102 6.33878 8.33685 10.6743 8.43814 14.1404C8.51836 16.8851 8.71378 19.2173 8.80734 20.2201L8.81474 20.2921ZM8.0469 20.0588C8.00606 20.0442 7.96612 20.0298 7.92723 20.0154L7.91795 19.9305C7.74466 18.4856 7.40972 15.3643 7.30355 12.053C7.21365 9.25141 7.29135 6.12457 7.34366 4.55212L7.3457 4.43684C7.38328 4.42773 7.42136 4.41854 7.45992 4.40951L7.45845 4.50884C7.40622 6.06396 7.32609 9.22261 7.4168 12.0496C7.52443 15.4077 7.86776 18.5701 8.0382 19.9824L8.0469 20.0588ZM4.82228 14.2997C4.68397 13.6261 4.60311 13.134 4.60164 13.1254L4.5822 12.8303C4.50247 11.8223 4.43071 10.6931 4.41403 9.73027C4.39426 8.59177 4.40264 7.45344 4.41574 6.60205L4.41102 6.49352C4.44511 6.35901 4.48727 6.22667 4.53729 6.09724L4.52753 6.70252C4.51532 7.5413 4.50833 8.63473 4.52753 9.72856C4.5486 10.9467 4.65802 12.432 4.76037 13.5996L4.82228 14.2997ZM5.80717 17.8946C5.72866 17.6643 5.63877 17.3929 5.54553 17.0962L5.47646 16.6979C5.29992 15.654 5.14323 14.5452 5.09889 13.6936C4.86792 10.8624 4.8562 7.59435 4.87077 5.85471L4.87361 5.53466C4.90949 5.49536 4.94667 5.45819 4.9845 5.42345L4.98515 5.72617C4.96896 7.42692 4.97539 10.786 5.21189 13.6861C5.26355 14.6791 5.46865 16.0232 5.67944 17.205L5.80717 17.8946ZM6.36397 18.4902C6.13121 17.3426 5.84403 15.6499 5.69539 13.7146C5.46475 10.7113 5.47272 7.1774 5.49542 5.42906L5.4981 5.06792C5.46507 5.08492 5.42561 5.10624 5.38184 5.13187L5.38201 5.43288C5.35939 7.18521 5.35174 10.7189 5.58239 13.7231C5.73045 15.6509 6.01569 17.3388 6.24837 18.4899L6.39318 19.1729C6.41824 19.2012 6.44476 19.2291 6.47291 19.2559C6.49325 19.2753 6.51473 19.2946 6.53677 19.3133L6.36397 18.4902ZM8.41382 20.1181C8.30846 19.1715 8.12232 17.2542 8.04527 14.9403C7.91836 11.1333 7.90933 6.38166 7.91185 4.40796L7.91079 4.31172C7.87215 4.31928 7.83391 4.32717 7.79624 4.33498L7.79852 4.41878C7.796 6.39996 7.80528 11.1425 7.93195 14.944C8.00744 17.2066 8.18692 19.0908 8.29365 20.0617L8.30252 20.1453C8.34125 20.1579 8.38062 20.1703 8.42049 20.1823L8.41382 20.118V20.1181Z" fill="#6D0115"/>
<path d="M6.00584 4.8468C5.96402 4.86282 5.92554 4.87795 5.8904 4.89211L5.88828 5.06231C5.85029 6.83912 5.8005 10.3915 5.94165 12.7258C6.14195 16.036 6.55686 18.3824 6.76188 19.3901L6.781 19.4894C6.82452 19.5167 6.87399 19.5459 6.91483 19.569L6.88936 19.4473C6.69167 18.4918 6.26032 16.1143 6.0549 12.7191C5.91277 10.3693 5.96459 6.78111 6.0025 5.02122L6.00584 4.8424M8.88324 4.1486L8.76869 4.16503L8.77056 4.26022C8.75095 6.11074 8.72581 9.77062 8.78561 12.9748C8.84256 16.0216 9.02951 18.7999 9.13487 20.1756L9.14829 20.3668C9.18694 20.3746 9.22558 20.3824 9.26431 20.3898L9.25194 20.221C9.14748 18.8665 8.95662 16.0573 8.89886 12.9727C8.83882 9.76484 8.8642 6.09992 8.88389 4.25273L8.88324 4.1486ZM9.36429 4.0862C9.32557 4.09084 9.28701 4.09547 9.24861 4.10027L9.24828 4.19302C9.21899 5.70193 9.17547 8.8238 9.23901 11.9322C9.30767 15.4672 9.49267 18.8045 9.58208 20.2705L9.59225 20.4479C9.6313 20.4541 9.66995 20.4604 9.70859 20.4662L9.69574 20.2724C9.60657 18.8119 9.421 15.4702 9.35233 11.93C9.28888 8.8168 9.33256 5.68997 9.36185 4.1857L9.36429 4.0862ZM9.82778 4.03584C9.79011 4.03942 9.75228 4.04341 9.71461 4.04723L9.7138 4.14111C9.70119 5.7605 9.6837 9.16501 9.72259 12.4681C9.76033 15.6713 9.85699 18.8381 9.90547 20.2883L9.91231 20.4962C9.95063 20.5015 9.98878 20.5067 10.0262 20.5116L10.0187 20.2877C9.97031 18.8391 9.8735 15.671 9.83583 12.4668C9.7967 9.14857 9.8146 5.7278 9.82721 4.1185L9.82778 4.03584ZM10.8107 3.95928C10.7713 3.96156 10.7318 3.96376 10.6924 3.9662L10.6953 4.02941C10.7149 6.99801 10.7821 17.1193 10.8037 20.3996L10.8056 20.5959C10.8457 20.5994 10.8838 20.6026 10.9196 20.6054L10.9171 20.407C10.8953 17.1329 10.8282 6.9845 10.8085 4.02193L10.8107 3.95928ZM11.2878 3.93805C11.2494 3.93927 11.2108 3.94073 11.1722 3.94204L11.175 4.05146L11.2046 20.3544L11.2029 20.6247C11.2323 20.6266 11.2537 20.6277 11.266 20.6283C11.2725 20.6283 11.2901 20.6289 11.3178 20.629L11.3181 20.3471C11.3124 17.2986 11.2941 7.19115 11.2883 4.05146L11.2878 3.93805ZM15.968 19.8688C16.1318 18.491 16.4292 15.6431 16.5549 12.2282C16.6487 9.68601 16.5742 6.27565 16.5252 4.57027L16.5165 4.38673C16.5641 4.39795 16.6103 4.40926 16.6556 4.42049L16.6624 4.60924C16.7114 6.32991 16.784 9.70838 16.6908 12.2331C16.5651 15.6437 16.2686 18.4899 16.1043 19.8744L16.0847 20.0322C16.0372 20.0485 15.9896 20.0642 15.9418 20.0794L15.968 19.8688Z" fill="#6D0115"/>
<path d="M16.5361 19.6719C16.6686 18.4724 16.901 16.1015 17.041 13.1442C17.1755 10.3045 17.1685 6.63832 17.1523 4.69457L17.1494 4.55317C17.1056 4.54048 17.0598 4.52754 17.0122 4.51428L17.0162 4.68196C17.0326 6.62059 17.0398 10.2947 16.9053 13.1379C16.7636 16.131 16.5273 18.5223 16.396 19.7042L16.3707 19.9185C16.4113 19.8998 16.4594 19.8778 16.512 19.8533L16.5361 19.6719ZM16.9528 19.4088C17.1131 18.3353 17.3312 16.5798 17.4551 14.3375C17.6392 11.0023 17.6724 6.74742 17.6776 4.84516L17.675 4.71889C17.6366 4.70547 17.5917 4.69042 17.5403 4.67333L17.5419 4.80106C17.537 6.67957 17.5047 10.9719 17.3193 14.33C17.1906 16.6636 16.9594 18.4678 16.7982 19.5223L16.7668 19.7296C16.8167 19.7047 16.8662 19.6792 16.9155 19.6532L16.9528 19.4088ZM18.1428 18.0174C18.1428 18.0174 18.2649 17.6811 18.4155 17.2L18.4726 16.8262C18.6581 15.5855 18.8538 14.0381 18.9835 12.3614C19.1562 10.1293 19.1184 7.41055 19.0705 5.774L19.06 5.46509C19.0148 5.41886 18.9674 5.37498 18.9178 5.33362L18.9287 5.58501C18.9789 7.19089 19.027 10.0348 18.8477 12.3513C18.6972 14.2984 18.4574 16.0705 18.2482 17.3887L18.1428 18.0174Z" fill="#6D0115"/>
<path d="M8.53797 13.138V11.9602H7.52785L7.5316 8.99556H8.85038L8.8433 7.80516H6.10168L6.34949 16.9163H7.55421L7.52785 13.1381L8.53797 13.138ZM9.31956 7.80507L9.47194 16.9162H10.7159L10.7411 7.80507H9.31956ZM17.3093 16.9162L17.5647 8.95292H18.5394L18.5319 7.80507H15.1513V8.95431H16.1339L16.1056 16.9162H17.3093ZM12.6172 12.0218L12.6309 8.92705H13.3254C13.6403 9.6163 13.8426 10.5278 14.0013 12.0218H12.6172ZM11.5073 16.916H12.659L12.6718 13.1485H14.0517C14.1602 13.8134 14.1868 15.8662 14.1933 16.916H15.3104C15.4158 12.2645 15.0883 9.63526 14.1837 7.80499H11.4019L11.5073 16.916Z" fill="#1A1A1A"/>
<path d="M8.6854 11.797H7.67271L7.67645 8.83232H8.9986L8.99146 7.64178H6.24298L6.49145 16.7529H7.69912L7.67271 12.9747H8.6854V11.797Z" fill="url(#paint2_radial_1794_4314)"/>
<path d="M10.8941 7.64178H9.46887L9.62167 16.7529H10.8688L10.8941 7.64178Z" fill="url(#paint3_radial_1794_4314)"/>
<path d="M16.272 16.7529H17.4786L17.7348 8.78965H18.7118L18.7043 7.64178H15.3152V8.79099H16.3003L16.272 16.7529Z" fill="url(#paint4_radial_1794_4314)"/>
<path d="M12.7748 11.8586L12.7884 8.7638H13.4848C13.8005 9.45309 14.0032 10.3646 14.1623 11.8586H12.7748ZM11.6622 16.7528H12.8168L12.8297 12.9852H14.2131C14.3218 13.6503 14.3484 15.7029 14.355 16.7528H15.4749C15.5804 12.1013 15.2522 9.47207 14.3451 7.64178H11.5565L11.6622 16.7528Z" fill="url(#paint5_radial_1794_4314)"/>
</g>
<defs>
<linearGradient id="paint0_linear_1794_4314" x1="0.582724" y1="22.8215" x2="11.8795" y2="12.0226" gradientUnits="userSpaceOnUse">
<stop stop-color="#8C8C8C"/>
<stop offset="0.5" stop-color="#464646"/>
<stop offset="0.75" stop-color="white"/>
<stop offset="1" stop-color="white"/>
</linearGradient>
<radialGradient id="paint1_radial_1794_4314" cx="0" cy="0" r="1" gradientUnits="userSpaceOnUse" gradientTransform="translate(12.0001 12.278) scale(7.97288 8.52221)">
<stop stop-color="#E60A47"/>
<stop offset="1" stop-color="#7C0626"/>
</radialGradient>
<radialGradient id="paint2_radial_1794_4314" cx="0" cy="0" r="1" gradientUnits="userSpaceOnUse" gradientTransform="translate(12.4781 12.1978) scale(8.68643 7.53696)">
<stop stop-color="#D3D1D2"/>
<stop offset="0.5" stop-color="#C9C7C8"/>
<stop offset="1" stop-color="#8D8B8C"/>
</radialGradient>
<radialGradient id="paint3_radial_1794_4314" cx="0" cy="0" r="1" gradientUnits="userSpaceOnUse" gradientTransform="translate(12.4781 12.1978) scale(8.68643 7.53696)">
<stop stop-color="#D3D1D2"/>
<stop offset="0.5" stop-color="#C9C7C8"/>
<stop offset="1" stop-color="#8D8B8C"/>
</radialGradient>
<radialGradient id="paint4_radial_1794_4314" cx="0" cy="0" r="1" gradientUnits="userSpaceOnUse" gradientTransform="translate(12.4781 12.1978) scale(8.68643 7.53696)">
<stop stop-color="#D3D1D2"/>
<stop offset="0.5" stop-color="#C9C7C8"/>
<stop offset="1" stop-color="#8D8B8C"/>
</radialGradient>
<radialGradient id="paint5_radial_1794_4314" cx="0" cy="0" r="1" gradientUnits="userSpaceOnUse" gradientTransform="translate(12.4781 12.1977) scale(8.68611 7.53668)">
<stop stop-color="#D3D1D2"/>
<stop offset="0.5" stop-color="#C9C7C8"/>
<stop offset="1" stop-color="#8D8B8C"/>
</radialGradient>
<clipPath id="clip0_1794_4314">
<rect width="24" height="24" fill="white"/>
</clipPath>
</defs>
</svg>
