<svg width="26" height="26" viewBox="0 0 24 24" fill="none" xmlns="http://www.w3.org/2000/svg">
<path d="M12.0369 7.51385C5.4646 7.51385 0.184601 9.48924 0.184601 11.9631C0.184601 14.4185 5.50152 16.4123 12.0369 16.4123C18.5723 16.4123 23.8892 14.4185 23.8892 11.9631C23.9077 9.52616 18.5723 7.51385 12.0369 7.51385ZM12.0369 16.0246C5.75998 16.0246 0.683062 14.2154 0.683062 11.9631C0.683062 9.72924 5.77845 7.90155 12.0369 7.90155C18.3138 7.90155 23.3908 9.71078 23.3908 11.9631C23.4092 14.2154 18.3138 16.0246 12.0369 16.0246ZM16.7077 12.8677C16.7077 12.8862 16.7077 12.9046 16.7077 12.9046C16.7077 12.9231 16.7446 12.9415 16.7631 12.96C16.7631 12.96 16.7815 12.9785 16.7631 12.9969C16.6892 13.1631 16.6154 13.2554 16.5231 13.3846C16.4308 13.5139 16.3384 13.6062 16.2277 13.6985C16.0615 13.8462 15.8031 13.9939 15.6 13.9015C15.5077 13.8462 15.4708 13.7354 15.4708 13.6246C15.4708 13.3477 15.6 13.0523 15.84 12.7569C16.1169 12.4062 16.4492 12.2215 16.6523 12.3323C16.8738 12.4246 16.8184 12.6831 16.7077 12.8677ZM10.8369 11.0215C10.8184 10.9108 10.8554 10.7815 10.9661 10.6892C11.0215 10.6339 11.0954 10.6339 11.1508 10.6708C11.2061 10.7077 11.1692 10.8185 11.1323 10.9108C11.0769 11.0031 10.9846 11.0769 10.8923 11.0769C10.8554 11.0585 10.8369 11.0585 10.8369 11.0215ZM12.0369 8.25232C5.98152 8.25232 1.07075 9.93232 1.07075 11.9815C1.07075 14.0123 5.98152 15.6923 12.0369 15.6923C18.0923 15.6923 23.0031 14.0123 23.0031 11.9631C23.0031 9.91386 18.0923 8.25232 12.0369 8.25232ZM6.40614 14.4185C5.75999 14.4185 5.18768 14.0308 5.11383 13.3292C5.07691 12.9415 5.18768 12.6092 5.40922 12.3139C5.59383 12.0554 5.92614 11.8523 6.20306 11.7969C6.29537 11.7785 6.40614 11.7969 6.46152 11.8523C6.53537 11.9446 6.51691 12.0369 6.44306 12.0923C6.23999 12.2031 5.98152 12.3877 5.85229 12.6277C5.74152 12.8308 5.72306 13.0892 5.88922 13.3108C6.14768 13.6985 6.86768 13.7169 7.55076 13.0892C7.71691 12.9415 7.8646 12.7939 8.01229 12.6092C8.30768 12.2769 8.39999 12.1477 8.80614 11.5939V11.5754C8.80614 11.5754 8.80614 11.5754 8.78768 11.5569C8.52922 11.5569 8.28922 11.6492 8.06768 11.8154C8.01229 11.8708 7.91999 11.8523 7.8646 11.7969C7.82768 11.7231 7.84614 11.6308 7.91999 11.5939C8.27076 11.3354 8.67691 11.2985 9.0646 11.2246C9.0646 11.2246 9.10152 11.2246 9.11999 11.1877C9.28614 10.9846 9.41537 10.7815 9.58152 10.5785C9.76614 10.3569 9.98768 10.1723 10.1538 10.0062C10.3938 9.80309 10.56 9.72924 10.7077 9.63693C10.7446 9.61847 10.7077 9.58155 10.6892 9.58155C9.80306 9.41539 8.87999 9.19385 8.01229 9.52616C7.40306 9.7477 7.1446 10.2277 7.27383 10.56C7.36614 10.7815 7.66152 10.8185 7.95691 10.6892C8.19691 10.5785 8.39999 10.3939 8.56614 10.1539C8.65845 10.0246 8.8246 10.1169 8.73229 10.3385C8.47383 10.9477 7.97537 11.4277 7.3846 11.4462C6.86768 11.4646 6.55383 11.0954 6.55383 10.6339C6.55383 9.72924 7.56922 9.12001 8.63999 9.0277C9.93229 8.91693 11.1508 9.2677 12.4246 9.41539C13.4031 9.52616 14.3446 9.54462 15.3231 9.30462C15.4338 9.28616 15.5261 9.36001 15.5077 9.47078C15.4892 9.63693 15.36 9.80309 15.0461 9.9877C14.6769 10.1908 14.2892 10.2462 13.8831 10.2462C12.9046 10.2462 12 9.87693 11.0584 9.67385C11.0584 9.71078 11.0769 9.76616 11.04 9.78462C10.5231 10.1723 10.0431 10.56 9.72922 11.0954C9.71076 11.1139 9.72922 11.1139 9.74768 11.1139C10.0246 11.0954 10.2646 11.0954 10.5231 11.0769C10.56 11.0769 10.56 11.0585 10.56 11.0215C10.5415 10.8369 10.5969 10.6154 10.7631 10.4677C10.9292 10.32 11.1508 10.3015 11.28 10.4123C11.4461 10.5415 11.4277 10.7631 11.3354 10.9292C11.2431 11.0954 11.0954 11.1877 10.9661 11.2431C10.9661 11.2431 10.9292 11.2431 10.9477 11.28C10.9477 11.3169 11.1508 11.4277 11.1692 11.4646C11.1877 11.4831 11.1692 11.5385 11.1508 11.5569C11.1323 11.5754 11.0954 11.5939 11.0584 11.5939C11.0215 11.5939 11.0031 11.5754 10.9661 11.5569C10.8738 11.5015 10.7631 11.4277 10.7077 11.3354C10.6892 11.2985 10.6708 11.2985 10.6154 11.2985C10.3384 11.3169 9.91383 11.3539 9.61845 11.3908C9.5446 11.3908 9.5446 11.4092 9.52614 11.4462C9.0646 12.2031 8.56614 13.0339 8.01229 13.5877C7.42152 14.2523 6.92306 14.4185 6.40614 14.4185ZM19.0154 10.6892C18.9231 10.8369 17.1877 13.4954 17.0769 13.7539C17.04 13.8462 17.04 13.9015 17.0769 13.9569C17.1692 14.0862 17.3723 14.0123 17.5015 13.92C17.8708 13.6615 18.1292 13.3477 18.4246 13.0708C18.4431 13.0523 18.4615 13.0523 18.48 13.0708C18.5169 13.1077 18.5908 13.1631 18.6277 13.2C18.6461 13.2185 18.6461 13.2369 18.6277 13.2554C18.3508 13.6062 18.0369 13.92 17.7415 14.16C17.28 14.5108 16.8184 14.6031 16.5784 14.3815C16.4861 14.2892 16.4492 14.1785 16.4492 14.0677C16.4492 14.0123 16.4123 14.0123 16.3938 14.0308C16.1169 14.3077 15.6369 14.6031 15.2123 14.3815C14.8431 14.1969 14.7692 13.7723 14.8431 13.4031C14.8431 13.4031 14.8431 13.3477 14.7877 13.3662C14.7138 13.4215 14.6215 13.4769 14.4923 13.5323C14.3446 13.5877 14.2708 13.6062 14.1231 13.6062C13.9384 13.6062 13.7908 13.5323 13.68 13.3477C13.6246 13.2554 13.5877 13.1077 13.5877 12.9969C13.5877 12.9785 13.5692 12.96 13.5508 12.9969C13.2554 13.44 12.9784 13.8831 12.6831 14.3446C12.6646 14.3631 12.6461 14.3815 12.6277 14.3815C12.4431 14.3815 12.24 14.3815 12.0554 14.3815C12.0184 14.3815 12 14.3631 12.0184 14.3262C12.1292 14.1231 12.6831 13.3108 13.0708 12.6092C13.1815 12.4246 13.1631 12.3139 13.0892 12.2769C13.0154 12.2215 12.8492 12.2954 12.7015 12.4062C12.3323 12.6831 12.0184 13.1262 11.8523 13.3292C11.76 13.44 11.6677 13.6246 11.4277 13.8831C11.04 14.3077 10.5231 14.5477 10.0431 14.3815C9.76614 14.2892 9.58152 14.0677 9.50768 13.8092C9.48922 13.7539 9.47075 13.7354 9.43383 13.7723C9.35999 13.8646 9.19383 14.0123 9.04614 14.1046C9.02768 14.1231 8.99075 14.1415 8.95383 14.1231C8.91691 14.1046 8.8246 13.9754 8.80614 13.92C8.78768 13.8831 8.80614 13.8646 8.8246 13.8462C9.02768 13.68 9.11999 13.5692 9.21229 13.4769C9.26768 13.4031 9.32306 13.3108 9.37845 13.1631C9.48922 12.8677 9.76614 12.3139 10.3015 12.0185C10.5046 11.9077 10.7077 11.8339 10.9477 11.7969C11.04 11.7785 11.1323 11.7969 11.1508 11.8708C11.1692 11.9077 11.1877 11.9815 11.2061 12.0185C11.2246 12.0554 11.2061 12.0739 11.1692 12.0923C10.8554 12.2215 10.5415 12.4062 10.32 12.7015C10.0615 13.0339 10.0061 13.44 10.1723 13.6615C10.3015 13.8277 10.4861 13.8646 10.6892 13.7908C10.9846 13.6985 11.2246 13.44 11.3538 13.1262C11.4831 12.7939 11.52 12.4246 11.4092 12.0739C11.3908 12.0185 11.4092 11.9631 11.4461 11.9446C11.52 11.8892 11.6308 11.8339 11.6492 11.8154C11.7231 11.7785 11.7969 11.7969 11.8338 11.8523C11.9446 12 12 12.2215 12 12.4615C12 12.5169 12.0184 12.5169 12.0554 12.48C12.24 12.2769 12.4246 12.0739 12.6092 11.9077C12.7938 11.76 13.0338 11.6492 13.2369 11.6492C13.5138 11.6492 13.6615 11.8523 13.6431 12.1846C13.6431 12.2215 13.68 12.2215 13.6984 12.2031C13.7908 12.0739 13.8461 12.0185 13.9384 11.9446C14.1415 11.7785 14.3261 11.7046 14.5477 11.7231C14.8061 11.7415 15.0092 11.9815 14.9723 12.24C14.9538 12.4062 14.8431 12.5723 14.6954 12.6462C14.5661 12.72 14.4 12.7015 14.2892 12.6092C14.1969 12.5354 14.1784 12.4062 14.1969 12.2954C14.1969 12.2769 14.1784 12.24 14.1415 12.2769C13.8831 12.5354 13.8646 12.8677 14.0308 13.0339C14.2154 13.2 14.4738 13.0892 14.6769 12.96C15.0461 12.72 15.3231 12.4062 15.6369 12.1477C15.8584 11.9815 16.0984 11.8339 16.3754 11.7969C16.5231 11.7785 16.6708 11.7785 16.8184 11.8523C17.0215 11.9262 17.1323 12.0923 17.1508 12.24C17.1508 12.2769 17.1877 12.2954 17.2061 12.2585C17.3538 12.0185 18.2031 10.7631 18.2769 10.6339C18.2954 10.5969 18.3138 10.5785 18.3692 10.5785C18.5538 10.5785 18.7938 10.5785 18.96 10.5785C19.0154 10.6523 19.0154 10.6708 19.0154 10.6892Z" fill="black"/>
</svg>
