<svg width="22" height="22" viewBox="0 0 24 24" fill="none" xmlns="http://www.w3.org/2000/svg">
<g clip-path="url(#clip0_1794_4233)">
<path d="M12.2446 11.941L12.7674 11.6205L19.4463 16.1912L12.2446 11.941Z" fill="black"/>
<path d="M11.8567 11.688L11.3676 11.4012L11.9241 2.68164L11.8567 11.688Z" fill="black"/>
<path d="M11.2663 11.6542L9.05692 13.4926L11.7048 11.9241L11.2663 11.6542Z" fill="black"/>
<path d="M11.9916 0.101196C5.41392 0.101196 0.0843353 5.43078 0.0843353 12.0084C0.0843353 18.5861 5.41392 23.9157 11.9916 23.9157C18.5692 23.9157 23.8988 18.5861 23.8988 12.0084C23.8988 5.43078 18.5692 0.101196 11.9916 0.101196ZM11.9916 23.2579C9.27618 23.2579 6.72945 22.3472 4.82362 20.6943C2.98525 19.0752 1.55166 16.4947 1.19748 13.7625C2.04077 18.974 6.54393 22.9375 11.9916 22.9375C18.0295 22.9375 22.9206 18.0464 22.9206 12.0084C22.9206 9.49543 21.993 7.0499 20.5594 5.21153C21.993 6.32467 23.241 9.47857 23.241 12.0084C23.2579 18.2319 18.215 23.2579 11.9916 23.2579ZM10.9628 11.1483L11.9241 1.2818C11.941 1.2818 11.9747 1.2818 11.9916 1.2818H12.0084L12.1096 11.6711L13.7625 10.676L12.1096 1.2818C17.9789 1.3324 22.7182 6.12228 22.7182 11.9916C22.7182 13.8805 22.2291 15.6514 21.3689 17.2031L13.9311 10.9796L13.2228 11.3844L21.3183 17.3043C21.3015 17.338 21.2846 17.3718 21.2509 17.4055L12.1434 12.1602V13.9986L21.1834 17.4898C19.3113 20.61 15.8876 22.7013 11.9916 22.7013C8.09558 22.7013 4.67183 20.61 2.79973 17.5067L11.8398 13.9986V12.1434L2.73226 17.3718C2.7154 17.338 2.69853 17.3043 2.6648 17.2706L10.7266 11.3675L10.0183 10.9628L2.59734 17.1525C1.75405 15.6177 1.26494 13.8637 1.26494 11.9747C1.26494 6.13914 5.93676 1.39986 11.7386 1.26493L10.2881 10.7604L10.9628 11.1483ZM11.9916 0.742096C5.78497 0.742096 0.742101 5.78496 0.742101 11.9916C0.742101 14.5214 1.65285 16.8995 3.05271 18.974C3.52495 19.8679 4.03093 20.4076 4.72242 21.1328C2.04077 18.9909 0.30359 15.6852 0.30359 11.9916C0.30359 5.53198 5.53198 0.303586 11.9916 0.303586C18.4512 0.303586 23.7808 5.7681 23.5784 11.9916C23.4266 5.91989 18.1138 0.742096 11.9916 0.742096Z" fill="black"/>
</g>
<defs>
<clipPath id="clip0_1794_4233">
<rect width="24" height="24" fill="white"/>
</clipPath>
</defs>
</svg>
