<svg width="24" height="22" viewBox="0 0 24 24" fill="none" xmlns="http://www.w3.org/2000/svg">
<g clip-path="url(#clip0_1794_4248)">
<path fill-rule="evenodd" clip-rule="evenodd" d="M17.1184 20.0596C15.7614 21.296 14.5932 21.9623 12.1324 23.2533C9.84151 22.2115 8.3464 21.1846 7.04975 20.1727C5.25793 18.7778 3.97075 16.5126 3.85919 15.1234L2.96521 1.90063C9.02124 0.326458 15.4628 0.362317 21.0348 2.00647L20.1278 15.0952C20.0123 16.2804 18.952 18.5853 17.1184 20.0596Z" fill="#EDC95E"/>
<path fill-rule="evenodd" clip-rule="evenodd" d="M19.0901 14.6618L19.9086 2.97354C15.1132 1.4463 9.3691 1.42377 4.07669 2.81305L4.91215 14.6542C4.99906 15.8847 5.88557 17.7667 7.58488 19.2087C8.60748 20.0772 10.611 21.5346 12.0908 22.0931C13.7957 21.2305 15.3458 20.1581 16.5744 19.0995C18.098 17.712 18.9977 15.9866 19.0901 14.6618Z" fill="#EDC95E"/>
<path fill-rule="evenodd" clip-rule="evenodd" d="M16.3779 18.791C15.2002 19.8065 13.6144 20.9447 12.0908 21.6716C10.73 21.2506 8.71881 19.6988 7.75112 18.8645C6.06326 17.4074 5.37709 15.8821 5.27325 14.44L4.45273 3.13705C9.49189 1.81376 14.9921 1.81376 19.5625 3.26928L18.7517 14.4214C18.6346 15.9047 17.9447 17.3224 16.3779 18.791Z" fill="#EDC95E"/>
<path fill-rule="evenodd" clip-rule="evenodd" d="M16.7918 4.07958L15.7069 3.90042L15.6651 4.40991L15.3118 4.35724L15.395 3.00556L15.7561 3.05836L15.7181 3.57756L16.8183 3.75499L16.854 3.23578L17.2227 3.30576L17.1111 4.66105L16.7522 4.59493L16.7918 4.07958ZM11.5556 3.62114C11.4234 3.62114 11.3176 3.58528 11.2476 3.46824C11.1872 3.372 11.1872 3.0586 11.2476 2.95476C11.3137 2.83399 11.4327 2.8 11.5311 2.8L13.0695 2.80199L13.0735 3.13406L11.6181 3.13219C11.5463 3.13219 11.5444 3.29268 11.6237 3.29268H12.771C12.9052 3.29268 13.0243 3.37399 13.0621 3.47945C13.1036 3.59288 13.0961 3.84962 13.0621 3.9552C13.0299 4.06103 12.9089 4.1193 12.7576 4.1193H11.24L11.238 3.77964H12.5894C12.6094 3.77806 12.628 3.76902 12.6416 3.75432C12.6552 3.73962 12.6627 3.72034 12.6627 3.70033C12.6627 3.68032 12.6552 3.66104 12.6416 3.64634C12.628 3.63164 12.6094 3.6226 12.5894 3.62102L11.5556 3.62114ZM10.6656 3.75611C10.6653 3.7392 10.6616 3.72252 10.6547 3.70706C10.6478 3.6916 10.638 3.67767 10.6256 3.66606C10.6133 3.65446 10.5988 3.64543 10.583 3.63949C10.5672 3.63355 10.5503 3.63083 10.5334 3.63147L9.51266 3.70518L9.53345 4.21094L9.20276 4.24493L9.13278 2.91044L10.6525 2.79713C10.8491 2.78219 10.9644 2.92924 10.9738 3.05201C10.9851 3.19731 10.9908 3.3842 10.8774 3.46164C10.9719 3.53149 10.9966 3.63533 10.9984 3.78064L11.0023 4.12217L10.6715 4.13549L10.6656 3.75611Z" fill="black"/>
<path fill-rule="evenodd" clip-rule="evenodd" d="M10.4487 3.32295C10.5791 3.31535 10.5678 3.1134 10.4487 3.12473L9.47717 3.19831L9.4885 3.38321L10.4487 3.32295Z" fill="#EDC95E"/>
<path fill-rule="evenodd" clip-rule="evenodd" d="M7.26588 3.1456C7.57778 3.07201 8.21664 2.97017 8.5512 2.94551C8.70422 2.93431 8.82338 3.01349 8.84417 3.13253C8.89335 3.4062 8.92361 3.68921 8.88949 4.06884C8.88003 4.17828 8.78552 4.26507 8.66077 4.29159C8.23171 4.38597 7.74973 4.43689 7.39239 4.47088C7.30162 4.48034 7.15806 4.40863 7.13353 4.29532C7.07115 4.01966 7.04837 3.63455 7.06742 3.37022C7.07501 3.27223 7.16578 3.16838 7.26588 3.1456Z" fill="black"/>
<path fill-rule="evenodd" clip-rule="evenodd" d="M8.47987 3.95869C8.52332 3.9491 8.54225 3.90204 8.54611 3.86805C8.56117 3.76421 8.54798 3.49228 8.52332 3.40176C8.51585 3.3659 8.4856 3.34311 8.41761 3.34884C8.23234 3.3603 7.74277 3.43002 7.50085 3.48281C7.4366 3.498 7.41195 3.53573 7.40821 3.56972C7.39676 3.65837 7.42328 3.90191 7.44594 4.03775C7.45167 4.07 7.49325 4.09254 7.52525 4.09067C7.85234 4.0644 8.23807 4.01161 8.47987 3.95869Z" fill="#EDC95E"/>
<path fill-rule="evenodd" clip-rule="evenodd" d="M13.8398 3.2019C13.768 3.20003 13.7189 3.24349 13.7132 3.28121C13.6962 3.39265 13.6903 3.53596 13.6903 3.72285C13.6903 3.74738 13.7319 3.81536 13.7679 3.82096C14.093 3.86641 14.7244 3.92306 15.0684 3.9456L15.0475 4.29472C14.5959 4.27405 14.1234 4.20221 13.6338 4.16834C13.4731 4.15689 13.3559 4.07023 13.3501 3.91547C13.3406 3.66059 13.3559 3.27549 13.4014 3.05087C13.4315 2.91316 13.5638 2.84132 13.7131 2.84518C14.1647 2.86224 14.5239 2.90196 15.1156 2.98114L15.0929 3.32853C14.8059 3.304 14.2615 3.21896 13.8398 3.2019ZM6.4435 3.30325C6.90095 3.19567 6.9708 4.00735 6.58893 4.10173L5.52287 4.36793L5.57392 4.89262L5.23936 4.98127L5.12021 3.61465L6.4435 3.30325Z" fill="black"/>
<path fill-rule="evenodd" clip-rule="evenodd" d="M6.43791 3.83488C6.54747 3.81023 6.53241 3.614 6.41512 3.63853L5.45303 3.87074L5.47569 4.0727L6.43791 3.83488Z" fill="#EDC95E"/>
<path fill-rule="evenodd" clip-rule="evenodd" d="M17.7495 4.28211L17.7268 4.50112L18.7834 4.76732L18.755 5.073L17.3375 4.73906L17.4603 3.36285L18.8873 3.70824L18.8553 4.02911L17.793 3.77249L17.772 4.0047L18.8268 4.26144L18.8002 4.53325L17.7495 4.28211Z" fill="black"/>
<path fill-rule="evenodd" clip-rule="evenodd" d="M9.16529 9.02146C9.16529 8.99693 8.86472 8.97414 8.71531 8.99294C8.31837 9.04013 7.32603 9.35166 6.90643 9.64052C6.89709 9.66505 6.89884 9.80276 6.87057 9.867C6.84604 9.9254 6.78367 9.98591 6.72315 10.0123C6.61533 10.0594 6.49057 9.91606 6.43578 9.93685C6.37901 9.95752 6.25811 10.0067 6.12762 9.91419C6.0691 9.87273 6.03897 9.75569 6.05964 9.66878C6.07857 9.6064 6.13148 9.55735 6.17319 9.51775C6.21104 9.48003 6.1844 9.33472 6.32049 9.24782C6.41499 9.18755 6.54548 9.23674 6.64571 9.2894C6.66837 9.28181 6.68356 9.27247 6.70049 9.2574C6.71357 9.21756 6.73448 9.09679 6.75341 9.00241C6.77619 8.90043 6.78379 8.83432 6.81392 8.74007C6.8895 8.51171 7.07091 8.18326 7.26004 8.01144C7.40933 7.87933 7.64179 7.77362 7.81373 7.78495C7.79668 7.81122 7.58314 8.00197 7.52064 8.08701C7.37322 8.28311 7.23725 8.58518 7.17301 8.84191C7.15022 8.9287 7.15022 8.96095 7.16541 9.01747C7.30524 8.95509 7.48665 8.89483 7.5926 8.86072C7.63419 8.76833 7.65685 8.6625 7.69284 8.57771C7.74949 8.44548 7.78559 8.38882 7.84399 8.29644C8.0122 8.03596 8.36755 7.77922 8.63027 7.78495C8.54324 7.8604 8.36183 8.04916 8.29011 8.16234C8.23159 8.25672 8.17668 8.35869 8.13509 8.4644C8.09923 8.55878 8.08791 8.62863 8.07844 8.70595C8.21453 8.66648 8.34875 8.63809 8.43566 8.63237C8.4943 8.60024 8.51311 8.53799 8.54535 8.47947C8.64546 8.29258 8.84194 8.08303 8.96682 8.01517C9.06692 7.96039 9.21434 7.90747 9.32018 7.94159C9.20675 8.0265 9.08772 8.16222 9.0348 8.24352C8.98002 8.3303 8.89112 8.49839 8.89485 8.57771C8.98761 8.58518 9.10826 8.58032 9.1613 8.56712L9.16529 9.02146Z" fill="black"/>
<path fill-rule="evenodd" clip-rule="evenodd" d="M7.96164 5.96416C8.10532 5.7642 8.48321 5.46226 8.77444 5.4792C8.61569 5.61691 8.47574 5.7698 8.3775 5.93216C8.24888 6.14159 8.14492 6.40418 8.12238 6.60601C8.21863 6.57015 8.44548 6.50603 8.57597 6.47764C8.69127 6.22663 8.84255 5.9491 9.02968 5.79994C9.16378 5.69236 9.35652 5.59985 9.53619 5.62064C9.4946 5.67916 9.4265 5.72448 9.37545 5.7718C9.28269 5.85285 9.21856 5.96242 9.16752 6.07373C9.12966 6.15678 9.06542 6.40592 9.06355 6.41738C9.19391 6.41551 9.42463 6.43045 9.47368 6.44564C9.62683 6.24556 9.96139 5.95495 10.3622 6.02094C10.1882 6.11532 9.87075 6.39086 9.88967 6.54189C10.1504 6.70998 10.5397 7.06284 10.5568 7.3893C10.3791 7.20441 10.0861 7.02125 9.93873 6.97033C9.58525 6.84569 9.16378 6.82876 8.81216 6.89288C8.0788 7.03071 7.43048 7.34784 6.80868 7.71975C6.79361 7.81986 6.7387 7.97076 6.69338 8.02169C6.64806 8.07261 6.57995 8.12179 6.50637 8.13325C6.41373 8.14819 6.31923 8.11059 6.23979 8.069C6.18874 8.04061 6.05452 8.0766 5.96961 8.03103C5.91096 8.00089 5.8202 7.91598 5.84485 7.78201C5.86564 7.6631 5.98467 7.59138 6.00161 7.47808C6.02626 7.31211 6.14703 7.24014 6.20954 7.22906C6.27752 7.21574 6.34749 7.23852 6.40987 7.26666C6.43627 7.27986 6.46453 7.30264 6.48931 7.31024C6.51384 7.30264 6.5497 7.27239 6.57062 7.26305C6.57622 7.244 6.6386 6.89873 6.67259 6.7477C6.70658 6.59667 6.76522 6.46818 6.81441 6.32686C6.96183 5.90789 7.41741 5.48493 7.78222 5.50759C7.76329 5.53411 7.64601 5.61902 7.48352 5.80765C7.22081 6.11544 7.15457 6.44203 7.05633 7.00257C7.25853 6.9082 7.43434 6.84034 7.61762 6.7741C7.6612 6.60053 7.71972 6.43058 7.79156 6.26635C7.83887 6.16064 7.89552 6.05667 7.96164 5.96416Z" fill="black"/>
<path fill-rule="evenodd" clip-rule="evenodd" d="M18.9775 6.42828L12.2221 6.43414L12.2277 8.41982L18.8263 8.41608L18.9775 6.42828Z" fill="#CA3132"/>
<path fill-rule="evenodd" clip-rule="evenodd" d="M13.7746 15.3108C13.7274 15.5012 13.7047 15.8222 13.7085 15.83C13.8238 15.7826 13.9315 15.741 14.0261 15.7129C14.0335 15.7014 14.168 15.409 14.2285 15.3296C14.37 15.1108 14.5609 14.9237 14.7934 14.7992C14.939 14.7255 15.1166 14.6577 15.2736 14.7163C15.0674 14.8143 14.9069 14.9918 14.8103 15.0937C14.7215 15.1881 14.6174 15.3277 14.5702 15.4711C14.5627 15.4956 14.5552 15.5467 14.5552 15.5467C14.6514 15.5165 14.9596 15.4711 15.0882 15.454C15.1033 15.452 15.1429 15.3672 15.1731 15.3257C15.2111 15.2749 15.2336 15.2427 15.2943 15.1749C15.4494 15.0068 15.712 14.8274 15.9671 14.867C15.8273 14.9557 15.674 15.0973 15.5513 15.3201C15.5342 15.354 15.5117 15.4012 15.5211 15.4219C15.5589 15.4296 15.7461 15.4258 15.8594 15.4392C15.9898 15.358 16.1279 15.2861 16.2772 15.2542C16.4452 15.2162 16.6645 15.2466 16.7517 15.3257C16.6496 15.3201 16.5529 15.339 16.4606 15.3748C16.4075 15.3958 16.3018 15.4448 16.2618 15.5127C16.3623 15.5409 16.5267 15.6486 16.6305 15.7354C16.7022 15.7957 16.7893 15.8826 16.844 15.962C16.9821 16.1488 17.0104 16.4846 16.9367 16.5848C16.916 16.5262 16.8931 16.4679 16.8614 16.4129C16.795 16.3017 16.6909 16.1809 16.6021 16.1147C16.1732 15.7883 15.555 15.7713 15.0506 15.873C14.6174 15.962 13.8369 16.1243 13.3266 16.4866C13.3397 16.5511 13.2999 16.6583 13.2415 16.7001C13.1639 16.7565 13.0542 16.6792 12.9976 16.7096C12.9202 16.7492 12.8238 16.7244 12.784 16.7076C12.7159 16.6791 12.6707 16.6094 12.6649 16.5282C12.6593 16.4639 12.7215 16.3866 12.7348 16.3169C12.7407 16.2884 12.7103 16.1488 12.8295 16.0771C12.8521 16.064 12.9202 16.0393 12.9673 16.0469C13.0145 16.0564 13.0525 16.0865 13.0995 16.0941C13.1637 16.0713 13.2252 16.0416 13.2829 16.0054C13.3209 15.8599 13.3491 15.6918 13.3681 15.5428L13.7746 15.3108Z" fill="black"/>
<path fill-rule="evenodd" clip-rule="evenodd" d="M13.8398 17.3199C13.8967 17.2331 13.9648 17.1064 13.9985 17.0517C14.1177 16.8611 14.2896 16.7195 14.407 16.6649C14.5675 16.5876 14.8265 16.5421 14.9418 16.5988C14.8151 16.6291 14.7188 16.6875 14.6298 16.7498C14.539 16.8121 14.3613 16.9745 14.316 17.0424C14.2652 17.118 14.2309 17.1858 14.2178 17.2216C14.3612 17.1897 14.5334 17.1632 14.6222 17.1632C14.6867 17.082 14.8566 16.8876 14.9833 16.797C15.0854 16.7253 15.3028 16.6536 15.4387 16.7121C15.3084 16.7537 15.0779 16.9348 14.9927 17.0649C14.9738 17.0953 14.9567 17.1274 14.9531 17.1442C15.023 17.1501 15.1552 17.1632 15.2272 17.1728C15.2345 17.1728 15.4312 17.0519 15.52 17.0273C15.6356 16.9952 15.8245 16.9539 15.9434 17.0804C15.8566 17.0821 15.775 17.0896 15.7109 17.1181C15.6185 17.1597 15.5787 17.1898 15.5371 17.2482C15.7185 17.3445 15.9077 17.4447 16.0193 17.6222C16.0587 17.6845 16.1193 17.8317 16.0852 17.9279C16.0285 17.8562 15.951 17.7863 15.8887 17.7504C15.7999 17.6993 15.7356 17.6504 15.6277 17.6088C15.2894 17.4823 14.847 17.4483 14.4936 17.4955C14.0364 17.5541 13.4748 17.7807 13.1877 17.977C13.2066 18.0655 13.1632 18.1693 13.1121 18.1939C13.0044 18.2485 12.9006 18.1561 12.8815 18.1617C12.853 18.1712 12.766 18.2013 12.7037 18.1751C12.6415 18.1505 12.6019 18.0408 12.6264 17.971C12.6451 17.9182 12.7208 17.8426 12.7208 17.8426C12.7093 17.7276 12.785 17.6578 12.8891 17.6444C12.9478 17.6388 12.9894 17.6842 13.0366 17.6936C13.0801 17.6729 13.1103 17.6578 13.133 17.6464C13.1596 17.552 13.1992 17.4558 13.2254 17.3765C13.269 17.2425 13.3334 17.1236 13.4147 16.9991C13.5316 16.8196 13.7398 16.6498 13.9874 16.646C13.9119 16.7046 13.8683 16.7367 13.8211 16.7952C13.7399 16.8971 13.6774 16.9896 13.6208 17.0989C13.5697 17.1952 13.5225 17.3387 13.5147 17.4651C13.6056 17.4219 13.7454 17.3577 13.8398 17.3199ZM13.8033 18.3409C13.8675 18.3146 13.9355 18.2957 14.0036 18.3032C13.8449 18.405 13.6992 18.5542 13.6595 18.7314C13.6559 18.7505 13.6559 18.788 13.6728 18.7995C13.718 18.788 13.8333 18.7635 13.8637 18.7487C13.8826 18.7091 13.9298 18.6468 13.9619 18.6052C14.0752 18.4542 14.2379 18.3032 14.4626 18.3598C14.3154 18.4257 14.2304 18.5183 14.1659 18.6354C14.1547 18.6563 14.1469 18.6956 14.162 18.6956C14.2 18.6956 14.3437 18.69 14.3643 18.69C14.4304 18.6314 14.6233 18.5201 14.7557 18.5617C14.6897 18.5928 14.6291 18.6342 14.5762 18.6844C14.5632 18.6995 14.5459 18.7184 14.5422 18.7411C14.6594 18.7995 14.7633 18.8656 14.8599 18.9488C14.9109 18.9921 14.9846 19.0733 15.0298 19.2129C14.9165 19.1149 14.5459 18.9393 14.3438 18.9298C14.2116 18.9242 14.0471 18.9488 13.9639 18.9676C13.6444 19.0393 13.3153 19.1828 13.0339 19.3433C13.0357 19.398 13.0263 19.4642 12.964 19.515C12.9224 19.549 12.8317 19.5661 12.7976 19.517C12.7789 19.4905 12.6558 19.5188 12.6293 19.4849C12.6293 19.4849 12.5972 19.4357 12.5933 19.3772C12.5897 19.3149 12.6313 19.2772 12.6653 19.2451C12.6747 19.2339 12.6729 19.1282 12.752 19.0921C12.8012 19.0694 12.8505 19.0773 12.8921 19.1035C12.9092 19.0941 12.9223 19.0846 12.9335 19.0773C12.9429 18.9545 12.9658 18.8412 13.011 18.7185C13.0735 18.5447 13.2776 18.3333 13.4534 18.3409C13.3345 18.4693 13.238 18.6468 13.2059 18.794C13.1964 18.8412 13.1928 18.9336 13.1928 18.9772C13.2349 18.9514 13.2791 18.9292 13.3249 18.911C13.3438 18.8658 13.3986 18.7525 13.427 18.7014C13.4991 18.5693 13.6596 18.3994 13.8033 18.3409Z" fill="black"/>
<path fill-rule="evenodd" clip-rule="evenodd" d="M5.6886 14.6082C5.71126 15.265 5.9797 16.0579 6.34825 16.6072H11.8467L11.8354 15.8407C11.1284 15.8407 10.0492 15.3746 9.62199 14.6122L5.6886 14.6082Z" fill="#CA3132"/>
<path fill-rule="evenodd" clip-rule="evenodd" d="M11.1162 11.2216C11.1767 11.1554 11.2298 11.0685 11.241 10.9949C11.2503 10.9346 11.0804 10.9384 11.0179 10.9761C10.9839 10.9969 10.9516 11.0384 10.9252 11.0762C10.9063 11.1045 10.8383 11.1272 10.8043 11.095C10.7684 11.0611 10.8327 11.0025 10.8309 10.9667C10.8309 10.9064 10.7154 10.9969 10.6625 10.9724C10.6267 10.9553 10.6247 10.9008 10.6493 10.8687C10.6625 10.8515 10.7004 10.8592 10.7174 10.8403C10.7345 10.8214 10.7345 10.7932 10.7402 10.7686C10.7478 10.7402 10.7779 10.7271 10.7969 10.7063C10.8687 10.6365 11.0048 10.5176 11.0312 10.5194C11.0934 10.5252 11.1823 10.5572 11.2371 10.5288C11.2485 10.5233 11.2693 10.5045 11.2503 10.493L11.1029 10.3968C11.1022 10.3816 11.1049 10.3665 11.1107 10.3524C11.1166 10.3384 11.1255 10.3258 11.1368 10.3156C11.2049 10.2552 11.3107 10.2967 11.3996 10.2835C11.4619 10.274 11.5206 10.2495 11.5658 10.2061C11.5772 10.2514 11.5488 10.2967 11.5488 10.3439C11.6056 10.3968 11.6642 10.442 11.719 10.493C11.8815 10.6554 11.9514 10.8912 11.9628 11.0989C11.9722 11.1952 11.9722 11.2934 11.9722 11.4539C11.9988 11.386 12.0157 11.2858 12.0214 11.199C12.0459 10.9423 12.0062 10.7139 11.8608 10.5194C11.8016 10.4375 11.7345 10.3617 11.6603 10.2931C11.6679 10.2176 11.7323 10.0891 11.7927 10.1363C11.8324 10.1666 11.7739 10.2118 11.8155 10.2383C11.8609 10.2667 11.927 10.2628 11.9553 10.2571C12.0215 10.2402 12.0858 10.2232 12.1461 10.2176C12.1746 10.2156 12.2216 10.2024 12.2312 10.2308C12.2389 10.2496 12.2181 10.2628 12.1972 10.2704C12.1727 10.278 12.135 10.2724 12.1141 10.2932C12.097 10.3101 12.0801 10.3289 12.0858 10.3535C12.0931 10.3819 12.1235 10.3969 12.1536 10.3875C12.2677 10.356 12.3851 10.3382 12.5034 10.3345C12.5659 10.3345 12.5526 10.3799 12.5223 10.3969C12.5016 10.4081 12.4693 10.4177 12.4486 10.4196C12.337 10.4328 12.2539 10.4404 12.2672 10.5046C12.2767 10.548 12.3465 10.5064 12.3616 10.5384C12.3786 10.5724 12.3314 10.5913 12.3353 10.6139C12.3465 10.6855 12.4846 10.6706 12.5488 10.6554C12.596 10.6441 12.6716 10.6063 12.6945 10.6366C12.7152 10.6629 12.6981 10.7045 12.6716 10.7121C12.6035 10.731 12.4863 10.7648 12.4542 10.8027C12.4241 10.8386 12.4601 10.9121 12.4958 10.9159C12.577 10.9253 12.666 10.9253 12.7302 10.9443C12.7548 10.9517 12.7757 10.9688 12.7757 10.9952C12.7757 11.0236 12.7472 11.033 12.7246 11.0405C12.6811 11.0537 12.6075 11.0537 12.5675 11.0706C12.5544 11.0764 12.5279 11.0858 12.5318 11.1009C12.543 11.1293 12.5999 11.1217 12.6471 11.1273C12.6736 11.1293 12.7246 11.15 12.7246 11.1782C12.7246 11.2085 12.6981 11.2178 12.6507 11.2142C12.577 11.2085 12.5091 11.2178 12.477 11.2311C12.4673 11.2349 12.4109 11.2423 12.4125 11.269C12.4164 11.3009 12.477 11.2802 12.4918 11.3123C12.5051 11.3425 12.4635 11.3595 12.4599 11.3972C12.4599 11.4124 12.4673 11.4199 12.4826 11.4256C12.5318 11.4464 12.5884 11.4444 12.6375 11.4351C12.6885 11.4256 12.7075 11.4936 12.6944 11.5012C12.628 11.5371 12.4806 11.4993 12.4466 11.52C12.3994 11.5503 12.5259 11.6182 12.5222 11.6334C12.5183 11.6504 12.5033 11.6673 12.4918 11.6712C12.4278 11.6957 12.3446 11.6485 12.2973 11.6749C12.2577 11.6994 12.2747 11.7617 12.2501 11.7939C12.2198 11.8335 12.1517 11.8166 12.1215 11.8392C12.0819 11.8675 12.0799 11.9354 12.1235 11.977C12.1575 12.0091 12.1896 12.0316 12.2332 12.0523C12.4299 12.1505 12.634 12.2488 12.8249 12.2354C12.9231 12.2298 13.0836 12.2242 13.1726 12.2469C13.2879 12.2752 13.4048 12.3638 13.4657 12.4015C13.5147 12.4317 13.5941 12.4395 13.6566 12.4168C13.7018 12.4015 13.7319 12.3487 13.7227 12.3035C13.6942 12.1525 13.4448 12.1053 13.4408 11.9543C13.4372 11.7807 13.4222 11.6863 13.3653 11.5767C13.3446 11.5352 13.3407 11.4389 13.39 11.4257C13.4296 11.4163 13.4428 11.4712 13.4749 11.4579C13.6206 11.4011 13.6262 11.1709 13.7775 11.1274C13.8663 11.1029 14.1649 11.099 14.1403 11.0613C14.0781 10.9727 14.1063 10.8707 14.1403 10.8235C14.163 10.7934 14.2255 10.763 14.25 10.7934C14.284 10.8328 14.199 10.88 14.2048 10.9387C14.2104 10.9933 14.2897 11.099 14.2293 11.1557C14.1934 11.1896 13.9229 11.201 13.8436 11.3218C13.7944 11.3954 13.789 11.454 13.8475 11.4483C13.8947 11.4427 13.9343 11.386 13.9776 11.3539C14.0552 11.2974 14.1177 11.2746 14.1612 11.3161C14.1839 11.3368 14.1536 11.3766 14.1121 11.3878C14.0781 11.3991 13.9949 11.488 14.0174 11.5104C14.0514 11.5463 14.2404 11.3822 14.2879 11.4162C14.3124 11.435 14.195 11.5559 14.2159 11.588C14.2404 11.6276 14.32 11.5653 14.3445 11.5956C14.3803 11.6409 14.282 11.7296 14.2254 11.7691C14.182 11.7975 14.1988 11.9031 14.1366 11.9352C14.0666 11.9692 14.0345 12.0295 14.042 12.039C14.0496 12.054 14.0665 12.0652 14.093 12.0484C14.1703 11.9992 14.2668 11.9408 14.3065 11.956C14.3292 11.9655 14.2973 12.0729 14.2688 12.1239C14.2403 12.1749 14.3841 12.1468 14.3632 12.19C14.3454 12.2296 14.3401 12.2738 14.3481 12.3165C14.3596 12.3751 14.1932 12.3882 14.1782 12.4279C14.1611 12.4734 14.195 12.4846 14.2122 12.4866C14.3124 12.5016 14.2989 12.594 14.2594 12.6337C14.2066 12.6868 14.1157 12.7075 14.0364 12.6943C13.9683 12.6828 13.8151 12.6544 13.7246 12.5866C13.6961 12.5659 13.6546 12.5809 13.6488 12.6092C13.6432 12.6413 13.6773 12.7 13.6923 12.749C13.7133 12.8225 13.7018 12.9151 13.6773 12.9869C13.6245 13.1359 13.4825 13.2604 13.4428 13.4397C13.4334 13.4871 13.4467 13.5455 13.4657 13.591C13.5071 13.689 13.5676 13.7816 13.6357 13.8645C13.6451 13.891 13.6583 13.9212 13.6471 13.9457C13.6321 13.9834 13.5147 14.0646 13.4808 14.0967C13.3731 14.1967 13.2805 14.3271 13.2595 14.4685C13.2519 14.5193 13.1426 14.5704 13.0687 14.5913C13.014 14.6061 12.9572 14.6214 12.9118 14.6571C12.9062 14.6987 12.9307 14.7347 12.9363 14.7761C12.9458 14.8478 12.8551 14.8838 12.785 14.9064C12.7519 14.9192 12.7167 14.9262 12.6812 14.9271C12.6681 14.9271 12.6641 14.9044 12.6661 14.8933C12.6868 14.7951 12.7057 14.7158 12.7434 14.6349C12.7588 14.6045 12.7833 14.58 12.8079 14.5593L13.0781 14.3327L13.2899 14.0287C13.3086 14.0005 13.3162 13.976 13.3162 13.9553C13.3162 13.8966 13.2917 13.842 13.2501 13.8043C13.1973 13.7571 13.1197 13.7496 13.0611 13.7191C12.9855 13.6816 12.8758 13.5757 12.8607 13.5681C12.8192 13.5474 12.7946 13.6227 12.789 13.6663C12.7796 13.7324 12.8002 13.7947 12.7985 13.8607C12.7985 13.891 12.7946 13.9081 12.7796 13.9268C12.602 14.0286 12.3808 14.0663 12.2504 14.2288C12.2275 14.2571 12.2071 14.2875 12.1767 14.3081C12.1027 14.3592 11.9801 14.3006 11.9252 14.3799C11.9006 14.4158 11.929 14.463 11.9196 14.5026C11.9138 14.5253 11.8704 14.5554 11.8365 14.5725C11.7911 14.5928 11.7425 14.6049 11.6928 14.6082C11.6381 14.5819 11.672 14.5046 11.6908 14.4497C11.7098 14.3931 11.7363 14.3367 11.7797 14.2987C11.8441 14.2423 11.9252 14.1706 11.9765 14.1457C12.0198 14.125 12.086 14.125 12.1388 14.1043C12.1946 14.0872 12.2475 14.0617 12.2957 14.0287C12.3733 13.9798 12.445 13.9193 12.4886 13.8361C12.5378 13.742 12.5322 13.6156 12.4697 13.5343C12.413 13.4606 12.3469 13.3889 12.3092 13.3057C12.2882 13.2605 12.3033 13.1983 12.3357 13.1567C12.3337 13.1549 12.3111 13.1396 12.2977 13.1436C12.0275 13.1551 11.7535 13.1249 11.5021 13.0247C11.4358 12.9982 11.3679 12.9133 11.3206 12.9078C11.2771 12.9019 11.2506 12.9567 11.2071 12.968C11.1371 12.987 11.0464 12.9756 10.9652 12.968C10.8707 12.9586 10.6741 12.917 10.5323 12.8718C10.5096 12.8757 10.4851 12.8794 10.4643 12.8927C10.434 12.9134 10.4284 12.9586 10.4264 12.9966C10.4227 13.0474 10.4378 13.0946 10.432 13.1473C10.4303 13.1739 10.4152 13.2023 10.4227 13.2269C10.4303 13.257 10.4604 13.2702 10.4812 13.2892C10.5152 13.3213 10.5209 13.3871 10.5209 13.4399C10.5209 13.4986 10.5002 13.5759 10.5493 13.6157C10.5796 13.6403 10.6212 13.608 10.659 13.6157C10.7006 13.6231 10.7137 13.6741 10.7157 13.7137C10.7177 13.7589 10.6798 13.8553 10.6552 13.8798C10.6381 13.8969 10.6097 13.8837 10.5891 13.8742C10.5344 13.8497 10.4832 13.81 10.4531 13.7573C10.4399 13.7344 10.4399 13.7063 10.4266 13.682C10.4058 13.6404 10.3679 13.6159 10.3302 13.5874C10.2849 13.5534 10.2754 13.4914 10.2678 13.4363C10.2622 13.3855 10.2717 13.3361 10.2754 13.2853C10.2851 13.1842 10.2788 13.0823 10.2565 12.9832C10.2394 12.9079 10.198 12.8322 10.2168 12.7569C10.2262 12.7209 10.2508 12.687 10.2849 12.672C10.4682 12.6625 10.6497 12.6321 10.8235 12.5773L10.7102 12.4659C10.6817 12.4659 10.6592 12.4944 10.6308 12.4944C10.6005 12.4944 10.5589 12.4511 10.5477 12.4358C10.4891 12.349 10.4513 12.249 10.4248 12.1472C10.4002 12.1076 10.37 12.0676 10.3246 12.0489C10.2931 12.0351 10.2589 12.0287 10.2245 12.03C10.1299 12.0716 10.043 12.1528 10.0354 12.2566C10.0335 12.2831 10.0486 12.3058 10.0448 12.3319C10.0392 12.3774 10.0051 12.4075 9.97298 12.4396C9.94086 12.4718 9.9106 12.5039 9.8974 12.5491C9.88607 12.5868 9.8994 12.6264 9.9162 12.6624C9.92766 12.6869 9.94086 12.7113 9.9314 12.7377C9.90861 12.8 9.75945 12.8642 9.71599 12.8642C9.70093 12.8642 9.68761 12.8435 9.682 12.8265C9.66494 12.7698 9.6688 12.7096 9.68013 12.6527C9.71985 12.6093 9.75011 12.5585 9.76704 12.5019C9.7897 12.4266 9.77837 12.3453 9.81436 12.2753C9.90873 12.115 10.1507 11.7942 10.1981 11.7469C10.2189 11.7261 10.2698 11.7147 10.2907 11.7279C10.3928 11.794 10.4533 11.8752 10.5515 11.9262C10.6045 11.9525 10.6706 11.9923 10.7179 11.9544C10.7651 11.9167 10.7727 11.6638 10.803 11.5996C10.8574 11.4878 11.0105 11.3405 11.1162 11.2216ZM12.9977 9.64924L12.9561 9.80774H12.8048L13.0016 9.06392H13.1735L13.3624 9.80214H13.2114L13.1735 9.64924H12.9977ZM12.6005 9.27771C12.6025 9.22865 12.5874 9.16453 12.5477 9.14934C12.5059 9.13427 12.4626 9.14734 12.4439 9.17573C12.4115 9.22865 12.4115 9.30037 12.4135 9.40969C12.4135 9.4758 12.4155 9.56844 12.4286 9.61176C12.4607 9.71187 12.5457 9.7176 12.5873 9.65522C12.6082 9.62509 12.6082 9.56657 12.6062 9.51378H12.5192V9.40421H12.7442V9.80438H12.6365V9.7496C12.6345 9.75346 12.5873 9.78919 12.5645 9.80065C12.5268 9.81758 12.4551 9.81758 12.3964 9.79293C12.3473 9.77226 12.3002 9.70627 12.2793 9.62135C12.2586 9.53245 12.2678 9.41728 12.2678 9.31917C12.2698 9.21545 12.3245 9.10015 12.4001 9.05682C12.4531 9.02657 12.5513 9.02657 12.6138 9.04923C12.6894 9.07575 12.7478 9.18519 12.7366 9.27758L12.6005 9.27771ZM10.0685 9.07525C10.129 9.11298 10.1611 9.18283 10.1499 9.26413H10.0306C10.0306 9.18868 9.99851 9.15257 9.93438 9.15083C9.89467 9.14884 9.84548 9.19428 9.84548 9.22827C9.84349 9.32813 9.93252 9.34905 9.9929 9.36785C10.0382 9.38117 10.093 9.40944 10.1195 9.44903C10.1687 9.52062 10.1743 9.59633 10.1347 9.69444C10.1159 9.7415 10.044 9.79816 9.98356 9.81135C9.91546 9.82654 9.83229 9.81895 9.7643 9.7679C9.70952 9.72631 9.68487 9.64513 9.6962 9.57155H9.83042C9.83042 9.60753 9.83602 9.6338 9.85121 9.65659C9.86254 9.67178 9.88333 9.69618 9.91932 9.69817C9.93355 9.69925 9.94785 9.69717 9.9612 9.69209C9.97454 9.68701 9.9866 9.67905 9.99651 9.66878C10.0064 9.65851 10.014 9.64618 10.0186 9.63266C10.0232 9.61915 10.0247 9.60479 10.0232 9.5906C10.0156 9.47543 9.82282 9.46783 9.75658 9.39412C9.67715 9.3036 9.70192 9.15818 9.76617 9.09966C9.85495 9.01686 9.97597 9.01686 10.0685 9.07525ZM13.8851 9.56744C13.8868 9.59583 13.8889 9.69581 13.8927 9.76006C13.8947 9.77886 13.9133 9.80339 13.9133 9.80525H13.7715C13.7528 9.80525 13.7509 9.77126 13.7489 9.743C13.7453 9.66755 13.7527 9.48813 13.679 9.48813H13.5881V9.80339H13.4463V9.06716H13.7017C13.83 9.06716 13.8945 9.14087 13.8945 9.24085C13.8945 9.30697 13.8925 9.38429 13.817 9.41641C13.8566 9.45426 13.8792 9.51091 13.8851 9.56744Z" fill="black"/>
<path fill-rule="evenodd" clip-rule="evenodd" d="M13.6907 9.17365H13.5846V9.37199H13.6622C13.7909 9.37199 13.7889 9.17365 13.6907 9.17365Z" fill="#EDC95E"/>
<path fill-rule="evenodd" clip-rule="evenodd" d="M10.4995 9.80666H10.3577V9.18561H10.1951V9.0611H10.6639V9.18561H10.4995V9.80666ZM11.4121 9.80666V9.18561H11.2494V9.0611H11.7201V9.18561H11.5539V9.80666H11.4121ZM11.7838 9.06122H12.2545V9.18785H12.0881V9.80691H11.9463V9.18785H11.7838V9.06122ZM14.2428 9.18785V9.8089H14.101V9.18785H13.9382V9.06147H14.4071V9.18785H14.2428ZM11.0347 9.59288V9.06247H11.1725V9.57968C11.1725 9.88921 10.7226 9.88921 10.7226 9.58914V9.06247H10.8605V9.59474C10.8606 9.71004 11.0347 9.71004 11.0347 9.59288Z" fill="black"/>
<path d="M11.3529 10.1498C11.3945 10.114 11.453 10.0647 11.5211 10.0215C11.5816 9.9818 11.5135 10.0724 11.5098 10.1102C11.4983 10.212 11.4209 10.2233 11.3359 10.2045C11.3208 10.2008 11.3265 10.1724 11.3529 10.1498Z" stroke="black" stroke-width="4.10467" stroke-miterlimit="2.613"/>
<path fill-rule="evenodd" clip-rule="evenodd" d="M14.9074 12.5296L18.5177 12.5276L18.6782 10.5344L14.9074 10.5363V12.5296ZM11.8627 18.7375L8.13907 18.7299C8.90642 19.4188 10.6832 20.7082 11.8513 21.2311L11.8627 18.7375Z" fill="#CA3132"/>
<path fill-rule="evenodd" clip-rule="evenodd" d="M9.16914 10.8769V11.196C9.02172 11.0866 8.33741 11.0073 7.91595 11.1715C7.81398 11.211 7.48128 11.3545 7.33001 11.4734L6.90481 11.8095C6.86309 11.8432 6.85948 11.9171 6.85948 11.9737C6.85948 12.0982 6.71393 12.1926 6.63263 12.1661C6.56651 12.1434 6.47574 12.1304 6.39257 12.149C6.30367 12.168 6.22436 12.0567 6.21676 11.9924C6.20543 11.9132 6.26794 11.8095 6.27155 11.7754C6.27528 11.7433 6.25449 11.6169 6.37165 11.5394C6.42457 11.5054 6.49841 11.5073 6.5512 11.5357C6.56659 11.5448 6.58491 11.5474 6.60225 11.5432C6.62117 11.5357 6.67222 11.4904 6.68542 11.479C6.69115 11.4037 6.67982 11.2847 6.68741 11.2187C6.70434 11.0902 6.71194 11.0167 6.75166 10.892C6.78565 10.7844 6.85948 10.6278 6.91414 10.5391C7.01251 10.3786 7.20724 10.2239 7.35267 10.2371C7.29589 10.3125 7.27709 10.3522 7.2355 10.4297C7.15806 10.5712 7.08622 10.8053 7.05222 10.9637C7.02944 11.0657 7.01811 11.145 7.02371 11.2526C7.13527 11.1695 7.25244 11.1017 7.32988 11.0581C7.36729 10.8708 7.43092 10.6897 7.51889 10.5202C7.61339 10.3409 7.86851 10.1464 8.03486 10.1615C7.87797 10.3314 7.76654 10.5674 7.72495 10.7184C7.70789 10.7787 7.6871 10.8485 7.69656 10.8864C7.75882 10.8525 7.88756 10.8185 7.94982 10.8128C7.9914 10.709 8.04805 10.5843 8.09537 10.5109C8.24279 10.2843 8.47525 10.1464 8.60773 10.1521C8.50376 10.2917 8.41473 10.4184 8.35061 10.6051C8.33156 10.6598 8.32222 10.7184 8.32222 10.7467C8.4034 10.7334 8.53003 10.7334 8.5812 10.7334C8.71891 10.6097 8.70534 10.5759 8.85724 10.4598C8.95175 10.3861 9.12743 10.286 9.16901 10.2784V10.5015C9.09705 10.5659 8.95162 10.7041 8.92311 10.7759C8.98574 10.7989 9.11049 10.8373 9.16914 10.8769Z" fill="black"/>
<path fill-rule="evenodd" clip-rule="evenodd" d="M13.1526 9.51402L13.0847 9.2157L13.0205 9.51402H13.1526Z" fill="#EDC95E"/>
<path fill-rule="evenodd" clip-rule="evenodd" d="M18.8063 8.61397L14.921 8.61559V10.3358L18.6872 10.3404L18.8017 8.68196L18.8063 8.61397ZM18.9851 6.23883L19.0196 5.67803C16.5815 4.92562 14.3271 4.70013 12.2142 4.70013L12.2132 6.22949L18.9851 6.23883ZM9.52897 14.4064C9.26489 13.9188 9.16067 13.3833 9.16067 12.859L5.57504 12.8629L5.6866 14.4068L9.52897 14.4064ZM11.8492 18.4773L11.8498 16.8681L6.48396 16.8622C6.83234 17.4182 7.27971 17.9288 7.80153 18.4368C7.81584 18.4509 7.83066 18.4653 7.84585 18.4799L11.8492 18.4773Z" fill="black"/>
</g>
<defs>
<clipPath id="clip0_1794_4248">
<rect width="24" height="24" fill="white"/>
</clipPath>
</defs>
</svg>
