<svg width="24" height="24" viewBox="0 0 24 24" fill="none" xmlns="http://www.w3.org/2000/svg">
<g clip-path="url(#clip0_1794_4283)">
<path d="M11.9869 23.9756C18.6027 23.9756 23.9634 18.6145 23.9634 11.9991C23.9634 5.38335 18.6027 0.012085 11.9869 0.012085C5.37126 0.012085 0 5.38335 0 11.9991C0 18.6145 5.37126 23.9756 11.9869 23.9756Z" fill="#000C0A"/>
<path d="M11.9869 23.675C18.4367 23.675 23.6629 18.4489 23.6629 11.9991C23.6629 5.54926 18.4367 0.312744 11.9869 0.312744C5.53717 0.312744 0.311096 5.54929 0.311096 11.9991C0.311096 18.4489 5.5372 23.675 11.9869 23.675Z" fill="white"/>
<path d="M11.9869 23.3222C18.2395 23.3222 23.3206 18.2518 23.3206 11.9991C23.3206 5.73593 18.2396 0.665283 11.9869 0.665283C5.73414 0.665283 0.653198 5.73591 0.653198 11.9991C0.653222 18.2518 5.73417 23.3222 11.9869 23.3222Z" fill="#000C0A"/>
<path d="M11.9869 19.0708C15.8962 19.0708 19.0588 15.8981 19.0588 11.9991C19.0588 8.08977 15.8962 4.91671 11.9869 4.91671C8.07773 4.91671 4.90472 8.08977 4.90472 11.9991C4.90472 15.8981 8.07773 19.0708 11.9869 19.0708ZM13.2935 1.80588C13.5941 2.23113 13.6357 2.82219 13.5528 3.33013C13.4596 3.79688 13.0862 4.0872 12.661 4.22204C11.9973 4.30497 11.1886 4.47084 10.5976 3.83838C10.2657 3.37172 10.2657 2.78064 10.39 2.18959C10.556 1.5571 11.2819 1.3912 11.8729 1.34961C12.3915 1.34966 12.9202 1.43265 13.2935 1.80588Z" fill="white"/>
<path d="M12.5364 2.32435C12.5779 2.70811 12.7024 3.29917 12.4121 3.63099C12.1528 3.81767 11.7899 3.89015 11.5307 3.71391C11.1885 3.38209 11.2403 2.87398 11.3233 2.44885C11.3646 2.19993 11.5307 1.94071 11.7899 1.89929C12.0698 1.85779 12.4536 1.98221 12.5364 2.32435Z" fill="#000C0A"/>
<path d="M18.333 3.74496C18.5093 4.25312 18.333 4.71978 18.084 5.13452C17.8767 5.51821 17.296 5.82917 16.9848 5.77747C16.3006 5.65307 15.7196 5.22791 15.0458 4.81319L16.3835 2.39697C17.0679 2.77022 17.9078 2.98798 18.333 3.74496Z" fill="white"/>
<path d="M17.5346 3.8695C17.5761 4.25314 17.4102 4.6783 17.0679 4.92722C16.736 5.18641 16.0517 4.6783 16.0517 4.6783L16.8086 3.27844C17.1094 3.45468 17.4516 3.53768 17.5346 3.8695Z" fill="#000C0A"/>
<path d="M3.80559 6.15062C3.55665 6.44106 3.25594 6.7003 3.21451 7.07352C3.21451 7.19801 3.32847 7.35349 3.47365 7.33276C3.88857 6.99052 4.31363 6.27514 4.90469 6.44106C5.20535 6.44106 5.49574 6.74175 5.57867 6.9905C5.75501 7.74747 5.20535 8.39047 4.69729 8.88814L4.23075 8.59779C4.57289 8.29703 5.07063 7.84094 4.86312 7.37423C4.20999 7.05275 4.10623 8.25563 3.43223 8.25563C3.13149 8.25563 2.72709 8.04821 2.62343 7.7061C2.62343 7.7061 2.58193 7.49865 2.58193 7.36384C2.57159 7.12533 2.67525 6.8661 2.78935 6.64836C2.91375 6.44103 3.04861 6.27511 3.04861 6.27511L3.43225 5.84998L3.80559 6.15062ZM2.58196 6.8661C2.48861 6.87651 2.32269 6.89727 2.21906 6.90759C2.23979 6.83501 2.33311 6.60698 2.33311 6.60698L2.66495 6.55514L2.50935 6.28543C2.58193 6.18177 2.63375 6.06772 2.70643 5.96405L2.89299 6.30619L2.58196 6.8661ZM21.5372 7.40543L19.4633 9.7177L19.0693 8.87779L19.5671 8.40074L19.0069 7.43654L18.3745 7.58158L17.8973 6.90759L20.9357 6.39946L21.5372 7.40543Z" fill="white"/>
<path d="M19.8988 7.97565L19.5254 7.30169L20.8008 7.0528L19.8988 7.97565Z" fill="#000C0A"/>
<path d="M7.68362 21.2691L7.05114 20.8647L7.18596 20.419L6.61554 19.9937L6.20079 20.2738C6.0349 20.1287 5.87932 19.9835 5.72382 19.8383L7.37252 18.6145L8.22284 19.1227L7.68362 21.2691ZM17.7211 19.548C17.8767 19.9005 17.7626 20.2738 17.5033 20.4811C17.1715 20.8233 16.7879 21.0306 16.3214 20.9893C15.9066 20.9476 15.5643 20.5224 15.44 20.1907C15.357 19.8485 15.357 19.4854 15.6058 19.2577C15.9478 18.9567 16.2799 18.7596 16.7464 18.7081C17.1715 18.7081 17.5553 19.1747 17.7211 19.548Z" fill="white"/>
<path d="M7.3621 20.0145L6.96814 19.7345L7.52811 19.2679L7.3621 20.0145ZM17.0887 19.8591C17.2234 20.1597 17.0782 20.4398 16.7567 20.4913C16.3214 20.5744 16.176 20.0975 16.0309 19.8485C15.9066 19.5995 16.0724 19.2576 16.3629 19.2159C16.788 19.133 16.9227 19.6101 17.0887 19.8591Z" fill="#000C0A"/>
<path d="M9.90269 21.2797C9.89237 21.4973 10.2968 21.6425 10.4419 21.4143C10.4938 21.2589 10.6286 20.4913 10.7116 20.0248C10.9292 20.0767 11.1782 20.1287 11.344 20.1703C11.2922 20.5224 11.2404 21.5075 10.8152 21.8812C10.5248 22.0987 10.0583 21.9744 9.75758 21.8812C9.0835 21.6424 9.19761 21.0826 9.19761 21.0826L9.50869 19.7761L10.1516 19.9107L9.90269 21.2797ZM13.7705 20.3879L14.0712 21.8914L13.4076 22.0264L13.1069 20.5122L12.5883 20.6365L12.4847 20.1802L14.206 19.7966L14.3305 20.253L13.7705 20.3879Z" fill="white"/>
<path d="M13.2209 6.04703C15.0252 7.98615 16.0207 10.6095 15.2429 13.3885C15.2429 13.3885 15.0148 14.0521 14.9526 14.3218C14.9007 14.5913 14.9111 14.7986 14.9111 14.7986C14.9939 14.9751 15.2636 15.0268 15.44 14.9853C15.6161 14.8091 15.3051 14.581 15.4813 14.3633C16.3525 14.2803 17.0782 14.8921 17.7315 15.4624C17.1613 16.1574 16.3006 16.8207 15.4192 16.6031C15.2949 16.4268 15.6991 16.1987 15.4296 16.0224L9.01096 16.0118C8.8243 16.0224 8.48216 16.5721 8.28509 16.624C8.00516 16.6861 7.53853 16.6755 7.4141 16.6031C7.14442 16.3332 7.08226 15.8981 6.90604 15.5868C6.72971 15.2032 5.93123 14.8091 6.06607 14.5188C6.1283 14.4151 7.66302 14.187 8.64809 14.5395C9.02131 14.7055 9.40506 15.0476 9.79905 14.9438C9.81969 14.9335 9.85089 14.9232 9.87163 14.8714C9.97529 13.6684 9.1043 12.3412 7.82882 11.7294C7.45551 11.5531 7.18602 11.5116 6.82302 11.5428C6.43936 11.5634 6.03496 11.6049 5.77582 11.4184C5.55798 11.2525 5.59948 10.6925 5.76538 10.1429C5.84828 9.89409 5.96238 9.62441 6.07646 9.40679C6.59496 8.26605 8.23332 9.47925 8.45099 9.59335C8.73106 9.73851 9.02131 10.0496 9.1043 9.64519C9.08354 9.38596 8.57548 9.13713 8.24366 8.96082C7.26892 8.44241 6.64678 8.56684 6.95784 7.97573C7.05118 7.79951 7.36216 7.39512 7.7874 7.03212C8.2229 6.64848 8.77236 6.28553 9.17686 6.23374C9.90268 6.16118 10.6804 7.1877 10.6804 7.1877L11.6033 8.21426C11.7796 8.31792 11.8832 8.20384 11.9039 8.13136C11.9558 7.97576 11.8107 7.80976 11.8107 7.80976C11.8107 7.80976 11.3856 7.29136 11.1574 7.0633C10.9398 6.83514 10.2968 6.22342 10.2968 6.22342C10.0479 5.78791 10.5145 5.65307 10.7737 5.6115C11.6136 5.5285 12.5364 5.30047 13.2209 6.04703Z" fill="#009036"/>
<path d="M13.2415 14.4565C13.7807 14.4565 14.2164 14.021 14.2164 13.4818C14.2164 12.9426 13.7807 12.4967 13.2415 12.4967C12.7024 12.4967 12.2669 12.9425 12.2669 13.4818C12.2669 14.021 12.7024 14.4565 13.2415 14.4565ZM7.65252 3.80714C8.15026 4.11829 8.77233 4.32561 9.27016 4.67827L8.41984 5.08259L6.92674 4.30495L6.94748 2.71848L7.7148 2.31396C7.79758 2.73925 7.66294 3.34055 7.65252 3.80714ZM7.05114 5.98483L5.5061 3.67237L6.149 3.21613L7.70436 5.49743L7.05114 5.98483Z" fill="white"/>
</g>
<defs>
<clipPath id="clip0_1794_4283">
<rect width="24" height="24" fill="white"/>
</clipPath>
</defs>
</svg>
