<svg width="20" height="20" viewBox="0 0 27 24" fill="none" xmlns="http://www.w3.org/2000/svg">
<g clip-path="url(#clip0_1794_4341)">
<path d="M12.676 0.287465C12.7755 0.287506 12.8749 0.287491 12.9744 0.287445C13.662 0.28713 14.3495 0.28917 15.0371 0.299663C15.0717 0.300187 15.1063 0.300692 15.1409 0.301198C15.2894 0.303393 15.4379 0.306032 15.5865 0.309032C15.6029 0.30936 15.6029 0.30936 15.6197 0.309694C16.4962 0.327162 17.3726 0.352495 23.2799 0.640071C23.3046 0.64165 23.3293 0.643228 23.3541 0.644806C23.6784 0.665516 24.0026 0.686786 24.3267 0.709873C24.3529 0.711735 24.3791 0.713586 24.4052 0.715425C24.5968 0.728928 24.787 0.745371 24.9764 0.777782C24.9882 0.779798 25 0.781814 25.0121 0.783891C25.3185 0.838103 25.6681 0.9309 25.8629 1.19328C26.1249 1.5916 26.0898 2.19339 26.1208 2.65226C26.1214 2.66108 26.122 2.66991 26.1226 2.679C26.1494 3.07361 26.1721 3.4684 26.1933 3.86334C26.1969 3.93042 26.2005 3.99749 26.2041 4.06457C26.2386 4.70184 26.2715 5.33919 26.3035 5.97659C26.3057 6.02077 26.3079 6.06495 26.3101 6.10912C26.3165 6.23519 26.3228 6.36126 26.3291 6.48733C26.331 6.52544 26.3329 6.56355 26.3348 6.60166C26.3467 6.8381 26.3562 7.07447 26.3627 7.31112C26.3304 7.32719 26.3037 7.32241 26.2676 7.32113C26.26 7.32088 26.2524 7.32063 26.2446 7.32037C26.2188 7.31949 26.1931 7.31854 26.1673 7.31758C26.1488 7.31694 26.1302 7.3163 26.1117 7.31566C26.0711 7.31426 26.0306 7.31283 25.9901 7.31136C25.9241 7.30898 25.8581 7.30668 25.792 7.3044C25.6958 7.30105 25.5995 7.29767 25.5032 7.29428C25.2543 7.28549 25.0054 7.27698 24.7565 7.26847C24.7152 7.26705 24.6738 7.26564 24.6325 7.26422C24.0219 7.24332 23.4112 7.22372 22.8004 7.20487C22.7875 7.20447 22.7745 7.20407 22.7612 7.20365C21.4913 7.16446 20.2213 7.12877 15.2385 7.02223C15.2238 7.02201 15.209 7.02178 15.1939 7.02156C14.236 7.00724 13.2777 7.00688 11.7035 7.01598C11.69 7.01609 11.6765 7.0162 11.6625 7.01631C11.3555 7.01881 11.0484 7.02254 10.7413 7.02756C10.7209 7.02789 10.7209 7.02789 10.7001 7.02821C10.1356 7.02994 10.1356 7.02994 9.59252 7.16667C9.59252 7.17034 9.59252 7.174 9.59252 7.17778C9.60321 7.17958 9.6139 7.18138 9.6249 7.18324C10.7713 7.37649 11.9177 7.56976 13.064 7.76389C13.0741 7.76562 13.0843 7.76734 13.0948 7.76912C13.1568 7.77963 13.2189 7.79013 13.2809 7.80064C13.364 7.8147 13.447 7.82876 13.53 7.84282C13.5507 7.84633 13.5715 7.84985 13.5922 7.85336C13.9286 7.91034 14.2651 7.96726 14.6016 8.02414C14.6128 8.02604 14.6241 8.02794 14.6356 8.02989C14.7839 8.05496 14.9322 8.08002 15.0804 8.10508C15.2855 8.13974 15.4906 8.17441 15.6957 8.20908C15.707 8.21097 15.7182 8.21287 15.7298 8.21483C16.0679 8.27198 16.406 8.32918 16.744 8.38642C16.7596 8.38906 16.7596 8.38906 16.7756 8.39176C16.9431 8.42012 17.1106 8.44848 17.2781 8.47684C17.9808 8.59583 18.6835 8.71464 19.3863 8.83334C20.1516 8.9626 20.9169 9.09202 21.6822 9.22161C21.7971 9.24107 21.9121 9.26053 22.027 9.28C22.0426 9.28263 22.0426 9.28263 22.0584 9.28532C22.4026 9.3436 22.7468 9.40179 23.091 9.45994C23.1144 9.46388 23.1377 9.46782 23.161 9.47176C23.1725 9.47371 23.184 9.47566 23.1959 9.47767C23.7 9.56282 24.204 9.64803 24.7081 9.73334C24.7186 9.73512 24.7292 9.73691 24.74 9.73875C24.9916 9.78133 25.2432 9.82395 25.4948 9.86667C25.5132 9.8698 25.5316 9.87292 25.55 9.87605C25.559 9.87758 25.568 9.87911 25.5773 9.88069C25.6399 9.89133 25.7026 9.90195 25.7653 9.91256C25.8399 9.9252 25.9145 9.93786 25.9891 9.95055C26.0266 9.95694 26.0641 9.96331 26.1017 9.96965C26.1419 9.97646 26.1822 9.98331 26.2224 9.99017C26.2342 9.99216 26.246 9.99414 26.2581 9.99618C26.2687 9.998 26.2793 9.99982 26.2903 10.0017C26.2995 10.0033 26.3087 10.0048 26.3182 10.0064C26.3404 10.0111 26.3404 10.0111 26.3627 10.0222C26.3627 11.2652 26.3627 12.5082 26.3627 13.7889C26.2979 13.7825 26.2368 13.7764 26.1733 13.7651C26.1589 13.7626 26.1444 13.7601 26.1295 13.7575C26.1138 13.7546 26.098 13.7518 26.0823 13.749C26.0653 13.746 26.0483 13.743 26.0313 13.7401C25.9849 13.7319 25.9384 13.7236 25.892 13.7154C25.8418 13.7065 25.7916 13.6976 25.7414 13.6888C25.6542 13.6734 25.567 13.658 25.4799 13.6425C25.3518 13.6198 25.2237 13.5972 25.0955 13.5745C24.899 13.5398 24.7024 13.5051 24.5059 13.4703C24.2222 13.4201 23.9384 13.37 23.6546 13.3199C23.6207 13.3139 23.5869 13.3079 23.553 13.3019C23.4626 13.286 23.3722 13.27 23.2818 13.2541C23.0407 13.2115 22.7997 13.1689 22.5586 13.1264C22.4545 13.108 22.3503 13.0896 22.2462 13.0712C22.2348 13.0692 22.2233 13.0672 22.2115 13.0651C21.947 13.0183 21.6824 12.9716 21.4178 12.9249C21.4065 12.9229 21.3951 12.9209 21.3834 12.9188C21.2803 12.9006 21.1771 12.8824 21.074 12.8642C20.9134 12.8359 20.7529 12.8075 20.5924 12.7792C20.581 12.7772 20.5697 12.7752 20.558 12.7731C20.5006 12.763 20.4433 12.7528 20.3859 12.7427C20.2827 12.7245 20.1794 12.7063 20.0762 12.688C20.0188 12.6779 19.9614 12.6678 19.9041 12.6576C19.8812 12.6536 19.8582 12.6495 19.8353 12.6455C18.6996 12.445 17.564 12.2444 10.8877 11.0656C10.8763 11.0636 10.865 11.0616 10.8533 11.0596C10.8303 11.0555 10.8074 11.0515 10.7844 11.0474C10.7271 11.0373 10.6697 11.0271 10.6124 11.017C10.5091 10.9988 10.4059 10.9806 10.3026 10.9623C10.2453 10.9522 10.1879 10.9421 10.1305 10.9319C10.1192 10.9299 10.1078 10.9279 10.0961 10.9259C9.93561 10.8975 9.7751 10.8692 9.6146 10.8408C9.51144 10.8226 9.40828 10.8044 9.30512 10.7862C9.29377 10.7842 9.28242 10.7822 9.27073 10.7801C8.94821 10.7232 8.6257 10.6662 8.30318 10.6093C8.08382 10.5705 7.86445 10.5318 7.64509 10.4931C7.62799 10.49 7.62799 10.49 7.61055 10.487C7.08091 10.3934 6.55127 10.2999 6.02161 10.2066C6.00537 10.2037 6.00537 10.2037 5.98881 10.2008C5.81502 10.1701 5.64123 10.1395 5.46744 10.1089C4.73119 9.97908 3.99497 9.84911 3.25878 9.719C3.17622 9.70441 3.09365 9.68982 3.01109 9.67523C2.99028 9.67155 2.96948 9.66787 2.94867 9.66419C2.59612 9.60189 2.24356 9.53963 1.891 9.4774C1.83974 9.46835 1.78848 9.45931 1.73722 9.45026C1.67379 9.43906 1.61036 9.42786 1.54693 9.41667C1.53446 9.41446 1.52198 9.41226 1.50913 9.40999C1.36134 9.3839 1.21355 9.35782 1.06575 9.33174C0.97362 9.31548 0.881487 9.29922 0.789355 9.28296C0.736164 9.27357 0.682973 9.26418 0.629782 9.25479C0.423501 9.2184 0.21724 9.18194 0.0111585 9.14445C0.0102719 8.97306 0.0128655 8.80197 0.0176329 8.63065C0.0183342 8.60457 0.019032 8.57849 0.0197279 8.55241C0.0216172 8.48192 0.0235482 8.41144 0.0254885 8.34095C0.0267191 8.29612 0.0279389 8.25129 0.0291529 8.20647C0.0293572 8.19892 0.0295607 8.19138 0.0297711 8.18361C0.030187 8.16825 0.0306041 8.15289 0.0310199 8.13753C0.0349192 7.99357 0.0388577 7.8496 0.0428114 7.70564C0.0461065 7.58563 0.049371 7.46562 0.0526091 7.34561C0.0709187 6.6672 0.0898757 5.98881 0.110857 5.31048C0.112504 5.25718 0.114127 5.20389 0.115739 5.15059C0.140624 4.33 0.140625 4.33 0.176764 3.98681C0.177699 3.97773 0.178634 3.96865 0.179597 3.95929C0.248799 3.29169 0.388033 2.55495 0.793767 2C0.801276 1.98952 0.808784 1.97904 0.816521 1.96823C0.864396 1.90295 0.91537 1.841 0.968457 1.77987C0.974339 1.77309 0.980222 1.76631 0.986283 1.75932C1.0546 1.68165 1.12814 1.61096 1.20743 1.54445C1.21308 1.53961 1.21873 1.53478 1.22456 1.52979C1.41683 1.36586 1.6303 1.2256 1.85588 1.11112C1.86409 1.10693 1.8723 1.10274 1.88076 1.09843C2.83572 0.617239 4.00548 0.573668 9.96125 0.312063C10.0144 0.310946 10.0676 0.309779 10.1208 0.308607C10.2801 0.305207 10.4394 0.30253 10.5987 0.300004C10.613 0.299774 10.6273 0.299543 10.6421 0.299306C11.3201 0.288459 11.998 0.287146 12.676 0.287465Z" fill="#DFDFDF"/>
<path d="M-2.16987e-05 10.1334C0.0621165 10.1391 0.123614 10.1455 0.185084 10.1564C0.198595 10.1588 0.212107 10.1612 0.226028 10.1636C0.240701 10.1663 0.255375 10.1689 0.270048 10.1715C0.285904 10.1743 0.30176 10.1772 0.317618 10.18C0.351949 10.186 0.386276 10.1922 0.420599 10.1983C0.47647 10.2083 0.532352 10.2182 0.588234 10.2281C0.669655 10.2425 0.751071 10.257 0.832483 10.2715C0.963454 10.2948 1.09444 10.3181 1.22542 10.3413C1.23653 10.3433 1.24763 10.3453 1.25908 10.3473C1.3044 10.3554 1.34972 10.3634 1.39505 10.3714C1.46448 10.3838 1.53391 10.3961 1.60335 10.4084C1.92601 10.4657 2.24871 10.5228 2.57145 10.5797C2.58715 10.5825 2.58715 10.5825 2.60317 10.5853C2.73034 10.6077 2.85751 10.6301 2.98468 10.6525C3.16924 10.6851 3.35379 10.7176 3.53835 10.7501C3.58236 10.7579 3.62637 10.7656 3.67039 10.7734C4.17883 10.863 4.68724 10.9528 5.19566 11.0425C5.24172 11.0507 5.28778 11.0588 5.33384 11.0669C5.53023 11.1016 5.72661 11.1363 5.92299 11.171C6.2454 11.2279 6.5678 11.2849 6.89021 11.3418C6.90156 11.3438 6.91291 11.3458 6.9246 11.3479C7.02776 11.3661 7.13091 11.3843 7.23407 11.4025C7.39459 11.4308 7.55511 11.4592 7.71563 11.4875C7.72699 11.4895 7.73835 11.4915 7.75005 11.4936C7.80741 11.5037 7.86477 11.5139 7.92214 11.524C8.02538 11.5422 8.12863 11.5604 8.23187 11.5787C8.28923 11.5888 8.34658 11.5989 8.40394 11.6091C8.42688 11.6131 8.44982 11.6172 8.47277 11.6212C9.60842 11.8217 10.7441 12.0223 21.8597 13.9849C21.8827 13.989 21.9056 13.993 21.9286 13.9971C21.9859 14.0072 22.0433 14.0173 22.1006 14.0275C22.2039 14.0457 22.3073 14.0639 22.4106 14.0822C22.468 14.0923 22.5255 14.1025 22.5829 14.1126C22.5943 14.1146 22.6057 14.1166 22.6174 14.1187C22.7765 14.1468 22.9356 14.1749 23.0948 14.203C23.1967 14.221 23.2986 14.239 23.4005 14.257C23.4117 14.259 23.4229 14.2609 23.4345 14.263C23.7774 14.3235 24.1203 14.3841 24.4632 14.4446C24.5539 14.4606 24.6446 14.4766 24.7353 14.4926C24.7543 14.4959 24.7543 14.4959 24.7737 14.4994C24.837 14.5105 24.9003 14.5217 24.9636 14.5329C25.0986 14.5567 25.2337 14.5805 25.3687 14.6044C25.4603 14.6205 25.5519 14.6367 25.6434 14.6528C25.6962 14.6622 25.7489 14.6715 25.8017 14.6808C25.8502 14.6893 25.8986 14.6979 25.9471 14.7064C25.9645 14.7095 25.982 14.7126 25.9994 14.7156C26.0457 14.7238 26.0921 14.732 26.1384 14.7403C26.1545 14.7432 26.1706 14.7461 26.1867 14.749C26.2118 14.7534 26.2369 14.758 26.2619 14.7625C26.2696 14.7639 26.2774 14.7653 26.2853 14.7667C26.3391 14.7765 26.3391 14.7765 26.3515 14.7889C26.3521 14.8123 26.3517 14.8358 26.3511 14.8592C26.3509 14.8704 26.3509 14.8704 26.3506 14.8818C26.35 14.9071 26.3493 14.9324 26.3486 14.9577C26.3481 14.9759 26.3476 14.9941 26.3472 15.0123C26.3459 15.0624 26.3446 15.1125 26.3432 15.1626C26.3418 15.2163 26.3404 15.27 26.339 15.3237C26.3363 15.4285 26.3335 15.5334 26.3307 15.6383C26.3284 15.7234 26.3262 15.8086 26.3239 15.8938C26.3058 16.5845 26.2866 17.2751 26.2665 17.9657C26.2656 17.9957 26.2647 18.0257 26.2638 18.0557C26.2531 18.4258 26.2423 18.7958 26.2293 19.1658C26.2284 19.1916 26.2275 19.2174 26.2266 19.2432C26.2 20.0142 26.1301 20.8421 25.7813 21.5445C25.7764 21.5545 25.7715 21.5645 25.7664 21.5747C25.5913 21.9268 25.3466 22.2389 25.0284 22.475C25.0107 22.4883 24.9934 22.5022 24.9761 22.516C24.1868 23.145 23.0851 23.2654 17.2733 23.5889C17.257 23.5894 17.257 23.5894 17.2404 23.5899C16.9806 23.5976 16.7208 23.604 16.4609 23.6092C16.3967 23.6105 16.3324 23.6119 16.2682 23.6134C15.2619 23.6364 14.2554 23.6367 10.7175 23.612C10.6618 23.6108 10.6061 23.6096 10.5505 23.6084C9.20877 23.58 7.86749 23.5344 2.56704 23.2491C2.53477 23.247 2.5025 23.2448 2.47023 23.2427C0.854792 23.1361 0.854792 23.1361 0.501992 22.7404C0.175833 22.3172 0.251791 21.5065 0.219956 21.0001C0.219362 20.9906 0.218769 20.9812 0.218157 20.9715C0.189233 20.5122 0.164636 20.0527 0.140774 19.5932C0.136639 19.5135 0.132486 19.4339 0.128321 19.3543C0.112059 19.0433 0.0959351 18.7323 0.079911 18.4214C0.0782628 18.3894 0.0766136 18.3574 0.0749641 18.3254C0.0618378 18.0709 0.0488087 17.8164 0.035956 17.5619C0.0330008 17.5034 0.0300221 17.445 0.027034 17.3865C0.0230711 17.3089 0.0191679 17.2313 0.015306 17.1537C0.0139118 17.1258 0.0125005 17.098 0.0110696 17.0701C0.00321877 16.917 -0.00199523 16.7645 -2.16987e-05 16.6111C0.266519 16.6077 0.532464 16.6172 0.798798 16.6265C0.863663 16.6288 0.92853 16.631 0.993397 16.6332C1.10546 16.637 1.21753 16.6408 1.32959 16.6447C1.62405 16.6548 1.91852 16.6647 2.21298 16.6745C2.23646 16.6753 2.25993 16.6761 2.2834 16.6769C3.44561 16.7157 4.60796 16.7503 11.021 16.899C11.0775 16.8998 11.134 16.9007 11.1905 16.9015C12.1763 16.916 13.1624 16.9155 14.7249 16.9063C14.7378 16.9062 14.7506 16.9061 14.7639 16.9059C15.0446 16.9035 15.3253 16.9 15.6059 16.8954C15.6335 16.8949 15.6611 16.8945 15.6887 16.894C16.24 16.8908 16.24 16.8908 16.7702 16.7556C16.7202 16.7407 16.6713 16.7288 16.6198 16.7201C16.6057 16.7177 16.5917 16.7153 16.5771 16.7128C16.5616 16.7102 16.5461 16.7076 16.5307 16.705C16.5141 16.7022 16.4975 16.6994 16.4809 16.6966C16.4354 16.6889 16.3898 16.6812 16.3443 16.6736C16.2951 16.6653 16.246 16.657 16.1968 16.6487C16.1114 16.6343 16.026 16.6199 15.9406 16.6055C15.8151 16.5843 15.6896 16.5632 15.5641 16.542C15.3715 16.5094 15.1789 16.4769 14.9862 16.4444C14.6945 16.3952 14.4027 16.3459 14.1109 16.2966C14.0885 16.2928 14.066 16.289 14.0436 16.2852C13.954 16.2701 13.8643 16.2549 13.7747 16.2397C13.6162 16.2129 13.4577 16.1862 13.2993 16.1594C12.8587 16.0849 12.4182 16.0104 11.9776 15.9358C11.962 15.9332 11.962 15.9332 11.9461 15.9305C11.7786 15.9021 11.6111 15.8738 11.4436 15.8454C10.7409 15.7264 10.0382 15.6076 9.33538 15.4889C8.62216 15.3685 7.90896 15.2479 7.19579 15.1271C7.02823 15.0987 6.86067 15.0704 6.69312 15.042C6.67752 15.0394 6.67752 15.0394 6.66161 15.0367C6.17469 14.9542 5.68776 14.8719 5.20082 14.7896C4.63177 14.6934 4.06271 14.5972 3.49368 14.5009C3.48307 14.4991 3.47246 14.4973 3.46152 14.4955C3.22962 14.4563 2.99773 14.417 2.76583 14.3777C2.68301 14.3637 2.60018 14.3497 2.51736 14.3356C2.49666 14.3321 2.47597 14.3286 2.45528 14.3251C2.16762 14.2764 1.87994 14.2278 1.59225 14.1792C1.58049 14.1772 1.56873 14.1752 1.55662 14.1732C1.54485 14.1712 1.53309 14.1692 1.52097 14.1672C1.37042 14.1418 1.21988 14.1163 1.06933 14.0909C0.94752 14.0703 0.825702 14.0497 0.703879 14.0292C0.62164 14.0154 0.539407 14.0015 0.457179 13.9876C0.409736 13.9795 0.362292 13.9715 0.31484 13.9636C0.271431 13.9563 0.228028 13.9489 0.184631 13.9416C0.16887 13.9389 0.153107 13.9363 0.137341 13.9336C0.116057 13.9301 0.0947845 13.9264 0.0735121 13.9228C0.0616548 13.9208 0.0497974 13.9188 0.0375807 13.9168C0.0111584 13.9111 0.0111584 13.9111 -2.16987e-05 13.9C-0.00111158 13.88 -0.00140484 13.8599 -0.00139739 13.8398C-0.00141965 13.8267 -0.00144191 13.8135 -0.00146484 13.8C-0.00143228 13.7854 -0.00139971 13.7708 -0.00136616 13.7557C-0.00137103 13.7401 -0.00138081 13.7246 -0.00139511 13.7091C-0.00142023 13.6661 -0.00137521 13.6232 -0.00131933 13.5803C-0.00127125 13.5341 -0.00128737 13.4879 -0.00129587 13.4417C-0.00130175 13.3615 -0.00126654 13.2814 -0.00120377 13.2013C-0.00111308 13.0854 -0.00108381 12.9696 -0.00106975 12.8537C-0.00104525 12.6658 -0.000970774 12.4778 -0.000865121 12.2899C-0.000762569 12.1073 -0.000683396 11.9247 -0.000635841 11.742C-0.000632904 11.7308 -0.000629967 11.7195 -0.00062694 11.708C-0.00061235 11.6515 -0.000598222 11.5951 -0.000584323 11.5387C-0.000468337 11.0702 -0.000271347 10.6018 -2.16987e-05 10.1334Z" fill="#B7B7B7"/>
<path d="M-2.16987e-05 10.1334C0.0621165 10.1391 0.123614 10.1455 0.185084 10.1564C0.198595 10.1588 0.212107 10.1612 0.226028 10.1636C0.240701 10.1663 0.255375 10.1689 0.270048 10.1715C0.285904 10.1743 0.30176 10.1772 0.317618 10.18C0.351949 10.186 0.386276 10.1922 0.420599 10.1983C0.47647 10.2083 0.532352 10.2182 0.588234 10.2281C0.669655 10.2425 0.751071 10.257 0.832483 10.2715C0.963454 10.2948 1.09444 10.3181 1.22542 10.3413C1.23653 10.3433 1.24763 10.3453 1.25908 10.3473C1.3044 10.3554 1.34972 10.3634 1.39505 10.3714C1.46448 10.3838 1.53391 10.3961 1.60335 10.4084C1.92601 10.4657 2.24871 10.5228 2.57145 10.5797C2.58715 10.5825 2.58715 10.5825 2.60317 10.5853C2.73034 10.6077 2.85751 10.6301 2.98468 10.6525C3.16924 10.6851 3.35379 10.7176 3.53835 10.7501C3.58236 10.7579 3.62637 10.7656 3.67039 10.7734C4.17883 10.863 4.68724 10.9528 5.19566 11.0425C5.24172 11.0507 5.28778 11.0588 5.33384 11.0669C5.53023 11.1016 5.72661 11.1363 5.92299 11.171C6.2454 11.2279 6.5678 11.2849 6.89021 11.3418C6.90156 11.3438 6.91291 11.3458 6.9246 11.3479C7.02776 11.3661 7.13091 11.3843 7.23407 11.4025C7.39459 11.4308 7.55511 11.4592 7.71563 11.4875C7.72699 11.4895 7.73835 11.4915 7.75005 11.4936C7.80741 11.5037 7.86477 11.5139 7.92214 11.524C8.02538 11.5422 8.12863 11.5604 8.23187 11.5787C8.28923 11.5888 8.34658 11.5989 8.40394 11.6091C8.42688 11.6131 8.44982 11.6172 8.47277 11.6212C9.60842 11.8217 10.7441 12.0223 21.8597 13.9849C21.8827 13.989 21.9056 13.993 21.9286 13.9971C21.9859 14.0072 22.0433 14.0173 22.1006 14.0275C22.2039 14.0457 22.3073 14.0639 22.4106 14.0822C22.468 14.0923 22.5255 14.1025 22.5829 14.1126C22.5943 14.1146 22.6057 14.1166 22.6174 14.1187C22.7765 14.1468 22.9356 14.1749 23.0948 14.203C23.1967 14.221 23.2986 14.239 23.4005 14.257C23.4117 14.259 23.4229 14.2609 23.4345 14.263C23.7774 14.3235 24.1203 14.3841 24.4632 14.4446C24.5539 14.4606 24.6446 14.4766 24.7353 14.4926C24.7543 14.4959 24.7543 14.4959 24.7737 14.4994C24.837 14.5105 24.9003 14.5217 24.9636 14.5329C25.0986 14.5567 25.2337 14.5805 25.3687 14.6044C25.4603 14.6205 25.5519 14.6367 25.6434 14.6528C25.6962 14.6622 25.7489 14.6715 25.8017 14.6808C25.8502 14.6893 25.8986 14.6979 25.9471 14.7064C25.9645 14.7095 25.982 14.7126 25.9994 14.7156C26.0457 14.7238 26.0921 14.732 26.1384 14.7403C26.1545 14.7432 26.1706 14.7461 26.1867 14.749C26.2118 14.7534 26.2369 14.758 26.2619 14.7625C26.2696 14.7639 26.2774 14.7653 26.2853 14.7667C26.3391 14.7765 26.3391 14.7765 26.3515 14.7889C26.3521 14.8123 26.3517 14.8358 26.3511 14.8592C26.3509 14.8704 26.3509 14.8704 26.3506 14.8818C26.35 14.9071 26.3493 14.9324 26.3486 14.9577C26.3481 14.9759 26.3476 14.9941 26.3472 15.0123C26.3459 15.0624 26.3446 15.1125 26.3432 15.1626C26.3418 15.2163 26.3404 15.27 26.339 15.3237C26.3363 15.4285 26.3335 15.5334 26.3307 15.6383C26.3284 15.7234 26.3262 15.8086 26.3239 15.8938C26.3058 16.5845 26.2866 17.2751 26.2665 17.9657C26.2656 17.9957 26.2647 18.0257 26.2638 18.0557C26.2531 18.4258 26.2423 18.7958 26.2293 19.1658C26.2284 19.1916 26.2275 19.2174 26.2266 19.2432C26.2 20.0142 26.1301 20.8421 25.7813 21.5445C25.7764 21.5545 25.7715 21.5645 25.7664 21.5747C25.5913 21.9268 25.3466 22.2389 25.0284 22.475C25.0107 22.4883 24.9934 22.5022 24.9761 22.516C24.1868 23.145 23.0851 23.2654 17.2733 23.5889C17.257 23.5894 17.257 23.5894 17.2404 23.5899C16.9806 23.5976 16.7208 23.604 16.4609 23.6092C16.3967 23.6105 16.3324 23.6119 16.2682 23.6134C15.2619 23.6364 14.2554 23.6367 10.7175 23.612C10.6618 23.6108 10.6061 23.6096 10.5505 23.6084C9.20877 23.58 7.86749 23.5344 2.56704 23.2491C2.53477 23.247 2.5025 23.2448 2.47023 23.2427C0.854792 23.1361 0.854792 23.1361 0.501992 22.7404C0.175833 22.3172 0.251791 21.5065 0.219956 21.0001C0.219362 20.9906 0.218769 20.9812 0.218157 20.9715C0.189233 20.5122 0.164636 20.0527 0.140774 19.5932C0.136639 19.5135 0.132486 19.4339 0.128321 19.3543C0.112059 19.0433 0.0959351 18.7323 0.079911 18.4214C0.0782628 18.3894 0.0766136 18.3574 0.0749641 18.3254C0.0618378 18.0709 0.0488087 17.8164 0.035956 17.5619C0.0330008 17.5034 0.0300221 17.445 0.027034 17.3865C0.0230711 17.3089 0.0191679 17.2313 0.015306 17.1537C0.0139118 17.1258 0.0125005 17.098 0.0110696 17.0701C0.00321877 16.917 -0.00199523 16.7645 -2.16987e-05 16.6111C0.266519 16.6077 0.532464 16.6172 0.798798 16.6265C0.863663 16.6288 0.92853 16.631 0.993397 16.6332C1.10546 16.637 1.21753 16.6408 1.32959 16.6447C1.62405 16.6548 1.91852 16.6647 2.21298 16.6745C2.23646 16.6753 2.25993 16.6761 2.2834 16.6769C3.44561 16.7157 4.60796 16.7503 11.021 16.899C11.0775 16.8998 11.134 16.9007 11.1905 16.9015C12.1763 16.916 13.1624 16.9155 14.7249 16.9063C14.7378 16.9062 14.7506 16.9061 14.7639 16.9059C15.0446 16.9035 15.3253 16.9 15.6059 16.8954C15.6335 16.8949 15.6611 16.8945 15.6887 16.894C16.24 16.8908 16.24 16.8908 16.7702 16.7556C16.7202 16.7407 16.6713 16.7288 16.6198 16.7201C16.6057 16.7177 16.5917 16.7153 16.5771 16.7128C16.5616 16.7102 16.5461 16.7076 16.5307 16.705C16.5141 16.7022 16.4975 16.6994 16.4809 16.6966C16.4354 16.6889 16.3898 16.6812 16.3443 16.6736C16.2951 16.6653 16.246 16.657 16.1968 16.6487C16.1114 16.6343 16.026 16.6199 15.9406 16.6055C15.8151 16.5843 15.6896 16.5632 15.5641 16.542C15.3715 16.5094 15.1789 16.4769 14.9862 16.4444C14.6945 16.3952 14.4027 16.3459 14.1109 16.2966C14.0885 16.2928 14.066 16.289 14.0436 16.2852C13.954 16.2701 13.8643 16.2549 13.7747 16.2397C13.6162 16.2129 13.4577 16.1862 13.2993 16.1594C12.8587 16.0849 12.4182 16.0104 11.9776 15.9358C11.962 15.9332 11.962 15.9332 11.9461 15.9305C11.7786 15.9021 11.6111 15.8738 11.4436 15.8454C10.7409 15.7264 10.0382 15.6076 9.33538 15.4889C8.62216 15.3685 7.90896 15.2479 7.19579 15.1271C7.02823 15.0987 6.86067 15.0704 6.69312 15.042C6.67752 15.0394 6.67752 15.0394 6.66161 15.0367C6.17469 14.9542 5.68776 14.8719 5.20082 14.7896C4.63177 14.6934 4.06271 14.5972 3.49368 14.5009C3.48307 14.4991 3.47246 14.4973 3.46152 14.4955C3.22962 14.4563 2.99773 14.417 2.76583 14.3777C2.68301 14.3637 2.60018 14.3497 2.51736 14.3356C2.49666 14.3321 2.47597 14.3286 2.45528 14.3251C2.16762 14.2764 1.87994 14.2278 1.59225 14.1792C1.58049 14.1772 1.56873 14.1752 1.55662 14.1732C1.54485 14.1712 1.53309 14.1692 1.52097 14.1672C1.37042 14.1418 1.21988 14.1163 1.06933 14.0909C0.94752 14.0703 0.825702 14.0497 0.703879 14.0292C0.62164 14.0154 0.539407 14.0015 0.457179 13.9876C0.409736 13.9795 0.362292 13.9715 0.31484 13.9636C0.271431 13.9563 0.228028 13.9489 0.184631 13.9416C0.16887 13.9389 0.153107 13.9363 0.137341 13.9336C0.116057 13.9301 0.0947845 13.9264 0.0735121 13.9228C0.0616548 13.9208 0.0497974 13.9188 0.0375807 13.9168C0.0111584 13.9111 0.0111584 13.9111 -2.16987e-05 13.9C-0.00111158 13.88 -0.00140484 13.8599 -0.00139739 13.8398C-0.00141965 13.8267 -0.00144191 13.8135 -0.00146484 13.8C-0.00143228 13.7854 -0.00139971 13.7708 -0.00136616 13.7557C-0.00137103 13.7401 -0.00138081 13.7246 -0.00139511 13.7091C-0.00142023 13.6661 -0.00137521 13.6232 -0.00131933 13.5803C-0.00127125 13.5341 -0.00128737 13.4879 -0.00129587 13.4417C-0.00130175 13.3615 -0.00126654 13.2814 -0.00120377 13.2013C-0.00111308 13.0854 -0.00108381 12.9696 -0.00106975 12.8537C-0.00104525 12.6658 -0.000970774 12.4778 -0.000865121 12.2899C-0.000762569 12.1073 -0.000683396 11.9247 -0.000635841 11.742C-0.000632904 11.7308 -0.000629967 11.7195 -0.00062694 11.708C-0.00061235 11.6515 -0.000598222 11.5951 -0.000584323 11.5387C-0.000468337 11.0702 -0.000271347 10.6018 -2.16987e-05 10.1334ZM0.268301 10.4667C0.268301 11.5227 0.268301 12.5787 0.268301 13.6667C0.290438 13.6704 0.312575 13.674 0.335382 13.6778C0.328003 13.6705 0.320624 13.6631 0.313022 13.6556C0.37855 13.5952 0.444414 13.5366 0.514744 13.4817C0.568142 13.4395 0.620526 13.3961 0.673019 13.3528C0.680914 13.3463 0.68881 13.3398 0.696946 13.3331C0.707559 13.3243 0.707559 13.3243 0.718386 13.3154C0.735383 13.302 0.753339 13.2898 0.771407 13.2778C0.771407 13.2705 0.771407 13.2631 0.771407 13.2556C0.777388 13.2532 0.783369 13.2509 0.789531 13.2484C0.832367 13.2242 0.866877 13.1876 0.901179 13.1525C0.928705 13.1274 0.949058 13.1115 0.987381 13.1103C0.996993 13.1115 1.0066 13.1126 1.01651 13.1137C1.03288 13.1156 1.03288 13.1156 1.04958 13.1175C1.10986 13.1257 1.1699 13.135 1.22992 13.1449C1.24383 13.1472 1.25773 13.1494 1.27205 13.1518C1.30155 13.1566 1.33105 13.1614 1.36054 13.1663C1.40392 13.1734 1.44732 13.1805 1.49071 13.1876C1.65368 13.2142 1.81643 13.2419 1.97908 13.2704C2.14471 13.2994 2.31047 13.3275 2.47638 13.3549C2.48756 13.3567 2.49874 13.3586 2.51026 13.3605C2.59026 13.3737 2.67028 13.3869 2.75029 13.4C2.8416 13.4151 2.9329 13.4301 3.0242 13.4452C3.04099 13.4479 3.04099 13.4479 3.05812 13.4508C3.21887 13.4773 3.37944 13.5048 3.53991 13.5329C3.68721 13.5587 3.83465 13.5837 3.9822 13.608C3.99266 13.6097 4.00312 13.6115 4.0139 13.6132C4.08834 13.6255 4.16279 13.6378 4.23725 13.65C4.32227 13.664 4.40728 13.678 4.49229 13.692C4.50271 13.6938 4.51313 13.6955 4.52387 13.6973C4.68257 13.7235 4.84108 13.7507 4.99951 13.7784C5.17298 13.8088 5.34665 13.8378 5.52043 13.8663C5.60738 13.8806 5.69431 13.895 5.78124 13.9094C5.79456 13.9116 5.79456 13.9116 5.80816 13.9138C6.00239 13.946 6.19644 13.9791 6.39049 14.0124C6.60929 14.0499 6.82819 14.0867 7.04721 14.123C7.06488 14.1259 7.06488 14.1259 7.08291 14.1289C7.19999 14.1483 7.31708 14.1676 7.43418 14.1869C7.65784 14.2237 7.88139 14.261 8.10466 14.3001C8.24111 14.324 8.37766 14.3473 8.51434 14.3698C8.52333 14.3713 8.53231 14.3728 8.54157 14.3743C8.60493 14.3848 8.66829 14.3952 8.73166 14.4056C8.8041 14.4175 8.87654 14.4294 8.94897 14.4413C8.95797 14.4428 8.96697 14.4443 8.97624 14.4458C9.11332 14.4685 9.25024 14.492 9.38709 14.516C9.54558 14.5438 9.70419 14.5707 9.86294 14.5969C9.8734 14.5986 9.88385 14.6004 9.89461 14.6021C9.96907 14.6144 10.0435 14.6267 10.118 14.6389C10.203 14.6529 10.288 14.6669 10.373 14.6809C10.3835 14.6827 10.394 14.6844 10.4048 14.6862C10.5508 14.7103 10.6968 14.7352 10.8426 14.7608C11.0053 14.7893 11.1681 14.8169 11.331 14.8438C11.3422 14.8456 11.3534 14.8475 11.365 14.8494C11.4449 14.8626 11.5249 14.8758 11.6049 14.8889C11.6963 14.9039 11.7876 14.919 11.8789 14.9341C11.8956 14.9368 11.8956 14.9368 11.9128 14.9397C12.0735 14.9662 12.2341 14.9937 12.3946 15.0218C12.5419 15.0476 12.6893 15.0725 12.8369 15.0969C12.8473 15.0986 12.8578 15.1004 12.8686 15.1021C12.943 15.1144 13.0175 15.1267 13.0919 15.1389C13.1769 15.1529 13.2619 15.1669 13.3469 15.1809C13.3574 15.1827 13.3679 15.1844 13.3787 15.1862C13.5346 15.2119 13.6904 15.2387 13.8461 15.266C13.994 15.2919 14.1421 15.3169 14.2903 15.3413C14.3007 15.3431 14.3112 15.3448 14.322 15.3466C14.3964 15.3589 14.4709 15.3711 14.5453 15.3834C14.6303 15.3973 14.7154 15.4113 14.8004 15.4254C14.8107 15.4271 14.8211 15.4288 14.8318 15.4306C15.0027 15.4588 15.1734 15.4881 15.344 15.5181C15.4633 15.5391 15.5828 15.5588 15.7025 15.5778C15.8309 15.5982 15.9591 15.6196 16.0872 15.6421C16.2595 15.6724 16.432 15.7017 16.6046 15.7302C16.615 15.732 16.6254 15.7337 16.6362 15.7355C16.7106 15.7477 16.7851 15.76 16.8596 15.7723C17.1215 15.8153 17.3834 15.8588 17.6448 15.9046C17.8401 15.9388 18.0357 15.9716 18.2312 16.0044C18.2692 16.0107 18.3073 16.0171 18.3453 16.0235C18.3826 16.0298 18.42 16.036 18.4573 16.0423C18.4748 16.0452 18.4922 16.0482 18.5097 16.0511C18.6014 16.0665 18.6932 16.0814 18.7851 16.0953C18.8236 16.1012 18.8619 16.1077 18.9002 16.1145C18.916 16.1173 18.9319 16.1201 18.9477 16.1229C18.956 16.1243 18.9643 16.1258 18.9729 16.1273C19.2111 16.1694 19.4496 16.2093 19.6882 16.2493C19.6973 16.2509 19.7064 16.2524 19.7158 16.254C19.8296 16.273 19.9433 16.2921 20.0571 16.3111C20.0242 16.3275 19.9896 16.3273 19.9534 16.3302C19.9454 16.3309 19.9373 16.3316 19.929 16.3324C19.9033 16.3346 19.8775 16.3368 19.8517 16.3389C19.826 16.3411 19.8003 16.3433 19.7746 16.3455C19.7586 16.3469 19.7426 16.3482 19.7266 16.3495C19.6903 16.3527 19.6563 16.3576 19.6211 16.3667C19.595 16.3667 19.5689 16.3667 19.5428 16.3667C19.5361 16.3684 19.5294 16.3702 19.5225 16.372C19.4904 16.3797 19.4594 16.3807 19.4264 16.3823C19.281 16.3904 19.1359 16.4041 18.9908 16.4167C18.9746 16.4181 18.9583 16.4195 18.9421 16.4209C18.8215 16.4314 18.701 16.442 18.5804 16.4527C18.5463 16.4557 18.5123 16.4587 18.4782 16.4617C18.3412 16.4738 18.2043 16.486 18.0673 16.4983C18.0051 16.5039 17.9429 16.5095 17.8807 16.515C17.8216 16.5202 17.7625 16.5255 17.7034 16.5309C17.6814 16.5329 17.6595 16.5348 17.6375 16.5367C17.6073 16.5394 17.577 16.5422 17.5468 16.5449C17.538 16.5457 17.5292 16.5464 17.5201 16.5472C17.4548 16.5534 17.4054 16.5627 17.3609 16.6121C17.3515 16.6224 17.3515 16.6224 17.3419 16.6328C17.3354 16.6401 17.3289 16.6474 17.3222 16.6549C17.3083 16.6701 17.2943 16.6852 17.2803 16.7003C17.2735 16.7078 17.2666 16.7153 17.2595 16.723C16.9853 17.0201 16.6092 17.1349 16.2091 17.1528C16.194 17.1532 16.1789 17.1537 16.1639 17.154C16.1223 17.1548 16.1223 17.1548 16.0838 17.161C16.0165 17.1696 15.9489 17.1691 15.8811 17.1698C15.8652 17.17 15.8492 17.1702 15.8333 17.1704C15.7886 17.171 15.7439 17.1715 15.6991 17.1719C15.67 17.1723 15.6409 17.1726 15.6118 17.1729C14.9076 17.1808 14.2033 17.1846 13.499 17.1883C13.4909 17.1883 13.4828 17.1884 13.4745 17.1884C13.4626 17.1885 13.4626 17.1885 13.4504 17.1886C13.3906 17.1889 13.3309 17.1892 13.2711 17.1896C12.3513 17.1949 11.4315 17.1797 10.5118 17.167C10.4882 17.1667 10.4646 17.1664 10.4409 17.1661C9.26729 17.1499 8.09383 17.1182 6.92048 17.0889C6.90937 17.0886 6.89827 17.0884 6.88683 17.0881C5.90861 17.0637 4.93051 17.0355 3.26127 16.9835C3.23542 16.9827 3.20956 16.9819 3.18371 16.9811C2.93614 16.9733 2.68857 16.9655 2.441 16.9576C2.43308 16.9574 2.42515 16.9571 2.41698 16.9569C2.04589 16.9451 1.67481 16.933 1.30374 16.9204C1.29213 16.92 1.29213 16.92 1.28028 16.9196C1.1253 16.9143 0.970325 16.909 0.815348 16.9036C0.762706 16.9018 0.710064 16.9 0.657422 16.8982C0.621676 16.8969 0.58593 16.8957 0.550185 16.8944C0.528717 16.8937 0.50725 16.893 0.485783 16.8922C0.4763 16.8919 0.466816 16.8915 0.457046 16.8912C0.401546 16.8893 0.346194 16.8886 0.290662 16.8889C0.288493 17.037 0.295349 17.1842 0.302977 17.3321C0.3043 17.3583 0.305618 17.3846 0.306933 17.4109C0.310494 17.4818 0.314111 17.5527 0.317739 17.6236C0.321195 17.6912 0.324604 17.7588 0.32802 17.8264C0.334339 17.9515 0.340692 18.0765 0.34707 18.2015C0.354988 18.3568 0.362829 18.512 0.370624 18.6672C0.437722 20.0196 0.437722 20.0196 0.522649 21.3709C0.523219 21.379 0.523789 21.3872 0.524376 21.3956C0.53719 21.5788 0.55143 21.7618 0.570165 21.9445C0.577544 21.9408 0.584922 21.9371 0.592525 21.9334C0.597411 21.9444 0.597411 21.9444 0.602395 21.9557C0.631906 22.0189 0.655315 22.0629 0.715506 22.1C0.776485 22.1198 0.819543 22.1074 0.876264 22.0826C0.944579 22.0455 1.00236 21.9947 1.0551 21.9382C1.06479 21.9293 1.07447 21.9203 1.08445 21.9111C1.12514 21.9138 1.14646 21.9349 1.17529 21.9618C1.20357 21.9918 1.20357 21.9918 1.24097 22C1.24097 22.0074 1.24097 22.0147 1.24097 22.0222C1.35742 22.0843 1.47085 22.1329 1.59874 22.1667C1.60835 22.1693 1.61796 22.172 1.62786 22.1747C1.88536 22.2425 2.16002 22.2584 2.42462 22.2807C2.44489 22.2824 2.44489 22.2824 2.46557 22.2842C2.86866 22.3184 3.27219 22.3471 3.67566 22.3763C3.75071 22.3818 3.82575 22.3872 3.90079 22.3927C4.90646 22.4693 4.90646 22.4693 5.91339 22.5257C6.07069 22.5325 6.22783 22.5414 6.38501 22.5506C6.41208 22.5522 6.43915 22.5537 6.46622 22.5553C6.50794 22.5578 6.54965 22.5602 6.59136 22.5626C7.63856 22.6236 8.68631 22.6721 11.294 22.7292C11.3053 22.7293 11.3166 22.7294 11.3283 22.7295C11.9071 22.7355 12.4859 22.7341 13.0647 22.7292C13.0787 22.7291 13.0928 22.729 13.1073 22.7288C13.8029 22.723 14.4983 22.7132 15.1938 22.7C15.2078 22.6998 15.2218 22.6995 15.2363 22.6992C16.0713 22.6834 16.9061 22.6593 17.7408 22.6331C17.777 22.632 17.8133 22.6308 17.8495 22.6297C17.9878 22.6254 18.1261 22.621 18.2644 22.6166C18.3069 22.6152 18.3493 22.6139 18.3918 22.6125C18.4413 22.611 18.4908 22.6094 18.5403 22.6078C18.5582 22.6072 18.5761 22.6066 18.594 22.6061C18.6967 22.6028 18.7992 22.5981 18.9018 22.5913C18.9442 22.5886 18.9865 22.5869 19.0289 22.5858C19.0362 22.5856 19.0435 22.5854 19.051 22.5852C19.0811 22.5843 19.1111 22.5836 19.1412 22.5828C19.1636 22.5822 19.1861 22.5816 19.2085 22.5809C19.2215 22.5806 19.2345 22.5803 19.2478 22.5799C19.2909 22.5784 19.3338 22.5754 19.3767 22.5724C19.4567 22.567 19.5366 22.5635 19.6166 22.5607C19.6469 22.5595 19.6772 22.5584 19.7075 22.5573C19.7195 22.5568 19.7195 22.5568 19.7317 22.5564C21.2902 22.5062 21.2902 22.5062 22.841 22.3556C22.8502 22.3543 22.8595 22.3531 22.8691 22.3518C23.5785 22.2549 24.2494 22.0499 24.7751 21.5445C24.7835 21.5366 24.7835 21.5366 24.7921 21.5285C25.3233 21.0273 25.456 20.2542 25.5059 19.5585C25.5065 19.5502 25.5071 19.5418 25.5077 19.5333C25.5141 19.4432 25.5191 19.3531 25.5239 19.2629C25.5243 19.254 25.5248 19.245 25.5253 19.2358C25.5362 19.028 25.5444 18.8201 25.5523 18.6122C25.557 18.4902 25.5618 18.3682 25.5667 18.2462C25.5672 18.2331 25.5677 18.2199 25.5682 18.2064C25.5771 17.9809 25.5866 17.7554 25.5963 17.5299C25.5971 17.5134 25.5978 17.4969 25.5985 17.4804C25.6017 17.4053 25.605 17.3301 25.6082 17.2549C25.639 16.5404 25.667 15.8259 25.6919 15.1111C25.705 15.1081 25.718 15.105 25.7315 15.1019C25.7487 15.0979 25.766 15.0938 25.7833 15.0898C25.7919 15.0878 25.8005 15.0858 25.8093 15.0837C25.8674 15.0702 25.9254 15.0563 25.9833 15.0417C25.991 15.0398 25.9986 15.0379 26.0065 15.0359C26.0246 15.0313 26.0427 15.0268 26.0608 15.0223C26.0233 14.9974 25.9987 14.993 25.9545 14.9852C25.947 14.9839 25.9395 14.9825 25.9319 14.9812C25.9067 14.9767 25.8815 14.9723 25.8563 14.968C25.8381 14.9648 25.8199 14.9616 25.8017 14.9583C25.7517 14.9495 25.7016 14.9407 25.6515 14.932C25.5976 14.9226 25.5438 14.9131 25.4899 14.9036C25.3965 14.8872 25.303 14.8708 25.2096 14.8544C25.0727 14.8305 24.9359 14.8064 24.799 14.7823C24.7351 14.7711 24.6712 14.7599 24.6073 14.7486C24.5882 14.7452 24.5882 14.7452 24.5686 14.7418C24.4769 14.7257 24.3852 14.7096 24.2935 14.6935C23.9508 14.6333 23.6083 14.573 23.2657 14.5125C23.2545 14.5105 23.2433 14.5085 23.2317 14.5065C23.13 14.4885 23.0283 14.4705 22.9266 14.4526C22.7673 14.4244 22.6081 14.3963 22.4488 14.3682C22.4374 14.3662 22.4261 14.3642 22.4143 14.3621C22.3569 14.3519 22.2994 14.3418 22.2419 14.3316C22.1386 14.3134 22.0353 14.2952 21.9321 14.2769C21.8747 14.2668 21.8173 14.2567 21.76 14.2466C21.7371 14.2425 21.7141 14.2385 21.6912 14.2344C21.6798 14.2324 21.6685 14.2304 21.6568 14.2283C20.8882 14.0926 20.1196 13.9569 19.351 13.8212C19.3397 13.8192 19.3283 13.8172 19.3166 13.8151C19.2937 13.8111 19.2707 13.807 19.2478 13.803C19.1904 13.7929 19.1331 13.7827 19.0757 13.7726C18.9725 13.7544 18.8692 13.7361 18.766 13.7179C18.7086 13.7078 18.6513 13.6977 18.5939 13.6875C18.5825 13.6855 18.5712 13.6835 18.5595 13.6814C18.399 13.6531 18.2385 13.6248 18.0779 13.5964C17.9748 13.5782 17.8716 13.56 17.7685 13.5418C17.7571 13.5398 17.7458 13.5378 17.7341 13.5357C17.4116 13.4788 17.089 13.4218 16.7665 13.3649C16.5472 13.3261 16.3278 13.2874 16.1084 13.2486C16.097 13.2466 16.0856 13.2446 16.0739 13.2425C15.3743 13.119 14.6747 12.9956 13.9751 12.8723C13.264 12.7469 12.5529 12.6214 11.8418 12.4959C11.8304 12.4938 11.819 12.4918 11.8073 12.4898C11.5878 12.451 11.3684 12.4123 11.149 12.3735C10.8266 12.3166 10.5042 12.2596 10.1818 12.2027C10.1704 12.2007 10.1591 12.1987 10.1474 12.1966C10.0442 12.1784 9.9411 12.1602 9.83794 12.142C9.67742 12.1137 9.5169 12.0853 9.35637 12.057C9.34502 12.055 9.33366 12.053 9.32196 12.0509C9.2646 12.0408 9.20723 12.0306 9.14987 12.0205C9.04663 12.0023 8.94338 11.9841 8.84014 11.9658C8.78278 11.9557 8.72542 11.9456 8.66807 11.9354C8.64513 11.9314 8.62218 11.9273 8.59924 11.9233C7.42917 11.7167 7.42917 11.7167 6.2591 11.5101C6.24774 11.5081 6.23639 11.5061 6.22469 11.504C6.20174 11.5 6.1788 11.4959 6.15586 11.4919C6.09851 11.4817 6.04115 11.4716 5.9838 11.4615C5.88053 11.4433 5.77727 11.425 5.674 11.4068C5.61662 11.3967 5.55923 11.3865 5.50184 11.3764C5.49048 11.3744 5.47912 11.3724 5.46742 11.3703C5.30727 11.342 5.14713 11.3138 4.98698 11.2855C4.88416 11.2673 4.78134 11.2492 4.67851 11.231C4.66719 11.229 4.65588 11.227 4.64422 11.225C4.37616 11.1776 4.1081 11.1303 3.84005 11.083C3.8282 11.0809 3.81636 11.0788 3.80416 11.0766C3.6965 11.0576 3.58884 11.0386 3.48118 11.0196C3.23533 10.9762 2.98949 10.9327 2.74363 10.8894C2.65362 10.8735 2.56361 10.8576 2.47359 10.8417C2.45144 10.8378 2.42928 10.8339 2.40712 10.83C2.11299 10.7781 1.81889 10.7261 1.52481 10.6739C1.4029 10.6523 1.28097 10.6307 1.15905 10.6091C1.06436 10.5923 0.969684 10.5755 0.875014 10.5587C0.812225 10.5475 0.749427 10.5364 0.686622 10.5253C0.650999 10.519 0.615382 10.5127 0.579773 10.5063C0.541594 10.4995 0.503401 10.4927 0.465204 10.486C0.454199 10.484 0.443194 10.482 0.431856 10.48C0.421673 10.4782 0.41149 10.4765 0.400999 10.4746C0.392307 10.4731 0.383614 10.4715 0.374659 10.4699C0.339428 10.4659 0.303771 10.4667 0.268301 10.4667Z" fill="#222222"/>
<path d="M12.676 0.287465C12.7755 0.287506 12.8749 0.287491 12.9744 0.287445C13.662 0.28713 14.3495 0.28917 15.0371 0.299663C15.0717 0.300187 15.1063 0.300692 15.1409 0.301198C15.2894 0.303393 15.4379 0.306032 15.5865 0.309032C15.6029 0.30936 15.6029 0.30936 15.6197 0.309694C16.4962 0.327162 17.3726 0.352495 23.2799 0.640071C23.3046 0.64165 23.3293 0.643228 23.3541 0.644806C23.6784 0.665516 24.0026 0.686786 24.3267 0.709873C24.3529 0.711735 24.3791 0.713586 24.4052 0.715425C24.5968 0.728928 24.787 0.745371 24.9764 0.777782C24.9882 0.779798 25 0.781814 25.0121 0.783891C25.3185 0.838103 25.6681 0.9309 25.8629 1.19328C26.1249 1.5916 26.0898 2.19339 26.1208 2.65226C26.1214 2.66108 26.122 2.66991 26.1226 2.679C26.1494 3.07361 26.1721 3.4684 26.1933 3.86334C26.1969 3.93042 26.2005 3.99749 26.2041 4.06457C26.2386 4.70184 26.2715 5.33919 26.3035 5.97659C26.3057 6.02077 26.3079 6.06495 26.3101 6.10912C26.3165 6.23519 26.3228 6.36126 26.3291 6.48733C26.331 6.52544 26.3329 6.56355 26.3348 6.60166C26.3467 6.8381 26.3562 7.07447 26.3627 7.31112C26.3304 7.32719 26.3037 7.32241 26.2676 7.32113C26.26 7.32088 26.2524 7.32063 26.2446 7.32037C26.2188 7.31949 26.1931 7.31854 26.1673 7.31758C26.1488 7.31694 26.1302 7.3163 26.1117 7.31566C26.0711 7.31426 26.0306 7.31283 25.9901 7.31136C25.9241 7.30898 25.8581 7.30668 25.792 7.3044C25.6958 7.30105 25.5995 7.29767 25.5032 7.29428C25.2543 7.28549 25.0054 7.27698 24.7565 7.26847C24.7152 7.26705 24.6738 7.26564 24.6325 7.26422C24.0219 7.24332 23.4112 7.22372 22.8004 7.20487C22.7875 7.20447 22.7745 7.20407 22.7612 7.20365C21.4913 7.16446 20.2213 7.12877 15.2385 7.02223C15.2238 7.02201 15.209 7.02178 15.1939 7.02156C14.236 7.00724 13.2777 7.00688 11.7035 7.01598C11.69 7.01609 11.6765 7.0162 11.6625 7.01631C11.3555 7.01881 11.0484 7.02254 10.7413 7.02756C10.7209 7.02789 10.7209 7.02789 10.7001 7.02821C10.1356 7.02994 10.1356 7.02994 9.59252 7.16667C9.59252 7.17034 9.59252 7.174 9.59252 7.17778C9.60321 7.17958 9.6139 7.18138 9.6249 7.18324C10.7713 7.37649 11.9177 7.56976 13.064 7.76389C13.0741 7.76562 13.0843 7.76734 13.0948 7.76912C13.1568 7.77963 13.2189 7.79013 13.2809 7.80064C13.364 7.8147 13.447 7.82876 13.53 7.84282C13.5507 7.84633 13.5715 7.84985 13.5922 7.85336C13.9286 7.91034 14.2651 7.96726 14.6016 8.02414C14.6128 8.02604 14.6241 8.02794 14.6356 8.02989C14.7839 8.05496 14.9322 8.08002 15.0804 8.10508C15.2855 8.13974 15.4906 8.17441 15.6957 8.20908C15.707 8.21097 15.7182 8.21287 15.7298 8.21483C16.0679 8.27198 16.406 8.32918 16.744 8.38642C16.7596 8.38906 16.7596 8.38906 16.7756 8.39176C16.9431 8.42012 17.1106 8.44848 17.2781 8.47684C17.9808 8.59583 18.6835 8.71464 19.3863 8.83334C20.1516 8.9626 20.9169 9.09202 21.6822 9.22161C21.7971 9.24107 21.9121 9.26053 22.027 9.28C22.0426 9.28263 22.0426 9.28263 22.0584 9.28532C22.4026 9.3436 22.7468 9.40179 23.091 9.45994C23.1144 9.46388 23.1377 9.46782 23.161 9.47176C23.1725 9.47371 23.184 9.47566 23.1959 9.47767C23.7 9.56282 24.204 9.64803 24.7081 9.73334C24.7186 9.73512 24.7292 9.73691 24.74 9.73875C24.9916 9.78133 25.2432 9.82395 25.4948 9.86667C25.5132 9.8698 25.5316 9.87292 25.55 9.87605C25.559 9.87758 25.568 9.87911 25.5773 9.88069C25.6399 9.89133 25.7026 9.90195 25.7653 9.91256C25.8399 9.9252 25.9145 9.93786 25.9891 9.95055C26.0266 9.95694 26.0641 9.96331 26.1017 9.96965C26.1419 9.97646 26.1822 9.98331 26.2224 9.99017C26.2342 9.99216 26.246 9.99414 26.2581 9.99618C26.2687 9.998 26.2793 9.99982 26.2903 10.0017C26.2995 10.0033 26.3087 10.0048 26.3182 10.0064C26.3404 10.0111 26.3404 10.0111 26.3627 10.0222C26.3627 11.2652 26.3627 12.5082 26.3627 13.7889C26.2979 13.7825 26.2368 13.7764 26.1733 13.7651C26.1589 13.7626 26.1444 13.7601 26.1295 13.7575C26.1138 13.7546 26.098 13.7518 26.0823 13.749C26.0653 13.746 26.0483 13.743 26.0313 13.7401C25.9849 13.7319 25.9384 13.7236 25.892 13.7154C25.8418 13.7065 25.7916 13.6976 25.7414 13.6888C25.6542 13.6734 25.567 13.658 25.4799 13.6425C25.3518 13.6198 25.2237 13.5972 25.0955 13.5745C24.899 13.5398 24.7024 13.5051 24.5059 13.4703C24.2222 13.4201 23.9384 13.37 23.6546 13.3199C23.6207 13.3139 23.5869 13.3079 23.553 13.3019C23.4626 13.286 23.3722 13.27 23.2818 13.2541C23.0407 13.2115 22.7997 13.1689 22.5586 13.1264C22.4545 13.108 22.3503 13.0896 22.2462 13.0712C22.2348 13.0692 22.2233 13.0672 22.2115 13.0651C21.947 13.0183 21.6824 12.9716 21.4178 12.9249C21.4065 12.9229 21.3951 12.9209 21.3834 12.9188C21.2803 12.9006 21.1771 12.8824 21.074 12.8642C20.9134 12.8359 20.7529 12.8075 20.5924 12.7792C20.581 12.7772 20.5697 12.7752 20.558 12.7731C20.5006 12.763 20.4433 12.7528 20.3859 12.7427C20.2827 12.7245 20.1794 12.7063 20.0762 12.688C20.0188 12.6779 19.9614 12.6678 19.9041 12.6576C19.8812 12.6536 19.8582 12.6495 19.8353 12.6455C18.6996 12.445 17.564 12.2444 10.8877 11.0656C10.8763 11.0636 10.865 11.0616 10.8533 11.0596C10.8303 11.0555 10.8074 11.0515 10.7844 11.0474C10.7271 11.0373 10.6697 11.0271 10.6124 11.017C10.5091 10.9988 10.4059 10.9806 10.3026 10.9623C10.2453 10.9522 10.1879 10.9421 10.1305 10.9319C10.1192 10.9299 10.1078 10.9279 10.0961 10.9259C9.93561 10.8975 9.7751 10.8692 9.6146 10.8408C9.51144 10.8226 9.40828 10.8044 9.30512 10.7862C9.29377 10.7842 9.28242 10.7822 9.27073 10.7801C8.94821 10.7232 8.6257 10.6662 8.30318 10.6093C8.08382 10.5705 7.86445 10.5318 7.64509 10.4931C7.62799 10.49 7.62799 10.49 7.61055 10.487C7.08091 10.3934 6.55127 10.2999 6.02161 10.2066C6.00537 10.2037 6.00537 10.2037 5.98881 10.2008C5.81502 10.1701 5.64123 10.1395 5.46744 10.1089C4.73119 9.97908 3.99497 9.84911 3.25878 9.719C3.17622 9.70441 3.09365 9.68982 3.01109 9.67523C2.99028 9.67155 2.96948 9.66787 2.94867 9.66419C2.59612 9.60189 2.24356 9.53963 1.891 9.4774C1.83974 9.46835 1.78848 9.45931 1.73722 9.45026C1.67379 9.43906 1.61036 9.42786 1.54693 9.41667C1.53446 9.41446 1.52198 9.41226 1.50913 9.40999C1.36134 9.3839 1.21355 9.35782 1.06575 9.33174C0.97362 9.31548 0.881487 9.29922 0.789355 9.28296C0.736164 9.27357 0.682973 9.26418 0.629782 9.25479C0.423501 9.2184 0.21724 9.18194 0.0111585 9.14445C0.0102719 8.97306 0.0128655 8.80197 0.0176329 8.63065C0.0183342 8.60457 0.019032 8.57849 0.0197279 8.55241C0.0216172 8.48192 0.0235482 8.41144 0.0254885 8.34095C0.0267191 8.29612 0.0279389 8.25129 0.0291529 8.20647C0.0293572 8.19892 0.0295607 8.19138 0.0297711 8.18361C0.030187 8.16825 0.0306041 8.15289 0.0310199 8.13753C0.0349192 7.99357 0.0388577 7.8496 0.0428114 7.70564C0.0461065 7.58563 0.049371 7.46562 0.0526091 7.34561C0.0709187 6.6672 0.0898757 5.98881 0.110857 5.31048C0.112504 5.25718 0.114127 5.20389 0.115739 5.15059C0.140624 4.33 0.140625 4.33 0.176764 3.98681C0.177699 3.97773 0.178634 3.96865 0.179597 3.95929C0.248799 3.29169 0.388033 2.55495 0.793767 2C0.801276 1.98952 0.808784 1.97904 0.816521 1.96823C0.864396 1.90295 0.91537 1.841 0.968457 1.77987C0.974339 1.77309 0.980222 1.76631 0.986283 1.75932C1.0546 1.68165 1.12814 1.61096 1.20743 1.54445C1.21308 1.53961 1.21873 1.53478 1.22456 1.52979C1.41683 1.36586 1.6303 1.2256 1.85588 1.11112C1.86409 1.10693 1.8723 1.10274 1.88076 1.09843C2.83572 0.617239 4.00548 0.573668 9.96125 0.312063C10.0144 0.310946 10.0676 0.309779 10.1208 0.308607C10.2801 0.305207 10.4394 0.30253 10.5987 0.300004C10.613 0.299774 10.6273 0.299543 10.6421 0.299306C11.3201 0.288459 11.998 0.287146 12.676 0.287465ZM10.3751 0.577782C10.3464 0.578384 10.3176 0.578985 10.2888 0.579587C10.1041 0.583495 9.91936 0.587947 9.73466 0.592661C9.69048 0.593787 9.6463 0.5949 9.60211 0.596009C9.44208 0.60003 9.28205 0.604111 9.12202 0.608258C9.04731 0.610191 8.97261 0.612089 8.8979 0.613931C7.91005 0.638349 6.92239 0.682746 1.63228 1.56667C1.62073 1.57488 1.60919 1.58308 1.59729 1.59154C1.51244 1.65345 1.43201 1.72012 1.35277 1.78889C1.34394 1.7965 1.34394 1.7965 1.33493 1.80427C1.254 1.87439 1.18376 1.94873 1.11799 2.03334C1.10917 2.04402 1.10035 2.05471 1.09126 2.06572C1.00954 2.1666 0.944719 2.27487 0.883208 2.38889C0.878178 2.39813 0.873149 2.40737 0.867967 2.41689C0.612124 2.89455 0.512272 3.44974 0.455568 3.98264C0.454706 3.99069 0.453843 3.99873 0.452955 4.00702C0.42092 4.31089 0.408592 4.6153 0.399666 4.92052C0.398085 4.97415 0.396431 5.02778 0.394789 5.08141C0.391607 5.18572 0.388495 5.29002 0.385412 5.39433C0.382908 5.47899 0.380376 5.56364 0.377828 5.64829C0.355909 6.37666 0.335188 7.10505 0.315343 7.83347C0.314418 7.86742 0.313491 7.90137 0.312563 7.93532C0.30905 8.06396 0.305561 8.19261 0.302115 8.32126C0.301075 8.36007 0.300027 8.39888 0.298972 8.43769C0.297758 8.48239 0.296563 8.5271 0.295384 8.5718C0.294957 8.58788 0.294524 8.60395 0.294083 8.62003C0.291429 8.71708 0.29012 8.81402 0.290662 8.91112C0.528862 8.95554 0.76733 8.99811 1.00619 9.03889C1.1743 9.0676 1.3423 9.09672 1.50999 9.12778C1.69539 9.16211 1.88106 9.19482 2.0668 9.22726C2.19359 9.24941 2.32036 9.27167 2.44707 9.29423C2.45999 9.29653 2.47292 9.29883 2.48623 9.3012C2.51243 9.30587 2.53863 9.31054 2.56483 9.3152C2.78095 9.3537 2.99717 9.39153 3.21356 9.42848C3.41469 9.46282 3.61551 9.49861 3.81618 9.53552C3.96852 9.56354 4.12094 9.59099 4.27358 9.61737C4.28257 9.61892 4.29155 9.62047 4.30081 9.62207C4.31897 9.62521 4.33713 9.62834 4.35529 9.63148C4.36431 9.63304 4.37333 9.6346 4.38263 9.6362C4.39168 9.63776 4.40072 9.63933 4.41004 9.64094C4.52089 9.6601 4.63167 9.67971 4.74245 9.69931C4.75297 9.70117 4.76349 9.70303 4.77433 9.70495C4.81698 9.7125 4.85963 9.72005 4.90228 9.7276C4.97457 9.7404 5.04687 9.75317 5.11916 9.76593C5.33364 9.80379 5.5481 9.84175 5.76253 9.87984C6.00036 9.92208 6.23819 9.96425 6.47606 10.0063C6.49786 10.0101 6.49786 10.0101 6.5201 10.014C6.73176 10.0514 6.94354 10.088 7.15541 10.1242C7.34298 10.1562 7.53022 10.1899 7.71736 10.2244C7.88002 10.2544 8.04286 10.2829 8.206 10.3102C8.3765 10.3387 8.54651 10.3696 8.7165 10.4009C8.87229 10.4296 9.0282 10.4572 9.18445 10.4833C9.34849 10.5108 9.51213 10.54 9.67568 10.5701C9.88131 10.6081 10.0872 10.6441 10.2934 10.6792C10.4715 10.7095 10.6496 10.74 10.8272 10.7729C11.0112 10.807 11.1955 10.8395 11.3799 10.8717C11.5066 10.8939 11.6334 10.9161 11.7601 10.9387C11.773 10.941 11.786 10.9433 11.7993 10.9457C11.8255 10.9503 11.8517 10.955 11.8779 10.9597C12.0966 10.9986 12.3154 11.0369 12.5343 11.0743C12.7067 11.1038 12.8788 11.134 13.0508 11.1658C13.2278 11.1985 13.405 11.2296 13.5823 11.2606C13.7091 11.2827 13.8359 11.305 13.9626 11.3276C13.9755 11.3299 13.9885 11.3322 14.0018 11.3345C14.028 11.3392 14.0542 11.3439 14.0804 11.3485C14.3113 11.3897 14.5424 11.43 14.7736 11.4695C14.9334 11.4968 15.0929 11.525 15.2522 11.5546C15.4266 11.587 15.6013 11.6169 15.7762 11.6468C15.9298 11.673 16.0833 11.6994 16.2364 11.7288C16.2914 11.7393 16.3458 11.7473 16.4016 11.753C16.4306 11.7564 16.4582 11.7629 16.4865 11.7701C16.5573 11.787 16.6285 11.8001 16.7003 11.8125C16.7111 11.8144 16.722 11.8163 16.7332 11.8182C16.7902 11.828 16.847 11.8363 16.9047 11.8418C16.9362 11.8456 16.9666 11.8529 16.9974 11.86C17.1145 11.886 17.2328 11.9048 17.3515 11.9212C17.3943 11.9273 17.4361 11.9344 17.478 11.9451C17.5093 11.953 17.537 11.9586 17.5688 11.9611C17.6015 11.9642 17.6325 11.969 17.6643 11.9767C17.7433 11.9946 17.8235 12.0055 17.9036 12.0176C17.9157 12.0195 17.9277 12.0214 17.9402 12.0233C17.9511 12.025 17.9621 12.0266 17.9734 12.0283C18 12.0333 18 12.0333 18.0223 12.0444C18.0455 12.0475 18.0686 12.0494 18.0919 12.0513C18.1179 12.0549 18.1422 12.0597 18.1677 12.0656C18.2466 12.0835 18.3267 12.0944 18.4067 12.1065C18.4188 12.1084 18.4308 12.1103 18.4433 12.1122C18.4542 12.1139 18.4652 12.1155 18.4765 12.1172C18.5031 12.1222 18.5031 12.1222 18.5254 12.1333C18.5534 12.1374 18.5813 12.1411 18.6093 12.1444C18.6901 12.1541 18.6901 12.1541 18.7155 12.1667C18.7399 12.1703 18.7644 12.1735 18.7889 12.1764C18.9086 12.1915 19.0271 12.212 19.145 12.238C19.2303 12.2563 19.3161 12.27 19.4024 12.2834C19.5439 12.3053 19.6846 12.3293 19.8248 12.3583C19.9168 12.3771 20.0091 12.3919 20.1019 12.4062C20.1789 12.4181 20.255 12.4323 20.3312 12.4482C20.4153 12.4652 20.4998 12.4792 20.5844 12.493C20.7894 12.5264 20.994 12.5618 21.1985 12.5979C21.2444 12.606 21.2904 12.614 21.3363 12.6221C21.4246 12.6376 21.5129 12.6532 21.6012 12.6687C21.6725 12.6813 21.7438 12.6938 21.8151 12.7063C22.4397 12.8162 23.0643 12.9266 23.6887 13.0377C23.8756 13.071 24.0626 13.104 24.2496 13.137C24.3684 13.158 24.4873 13.1792 24.606 13.2007C24.6217 13.2035 24.6374 13.2064 24.653 13.2092C24.6669 13.2117 24.6807 13.2142 24.695 13.2168C24.9855 13.2694 25.2762 13.3207 25.5674 13.3694C25.888 13.4231 25.888 13.4231 26.0454 13.4606C26.0693 13.4671 26.0693 13.4671 26.0832 13.4667C26.0832 13.419 26.0832 13.3713 26.0832 13.3222C25.9054 13.208 25.9054 13.208 25.7143 13.1444C25.7121 12.8352 25.7108 12.5259 25.7105 12.2166C25.7104 12.073 25.71 11.9294 25.7089 11.7858C25.7079 11.6605 25.7075 11.5353 25.7077 11.41C25.7078 11.3437 25.7077 11.2775 25.7068 11.2112C25.7061 11.1487 25.706 11.0862 25.7066 11.0237C25.7066 11.0009 25.7064 10.9781 25.7059 10.9553C25.7024 10.7832 25.7485 10.6865 25.8617 10.557C25.8947 10.5184 25.9245 10.4776 25.9546 10.4368C25.965 10.4231 25.9753 10.4094 25.9857 10.3957C25.9906 10.3892 25.9955 10.3827 26.0005 10.3761C26.0119 10.3612 26.0233 10.3463 26.0349 10.3315C26.041 10.3236 26.0472 10.3156 26.0535 10.3074C26.0592 10.3002 26.0649 10.2929 26.0707 10.2854C26.0853 10.2673 26.0853 10.2673 26.0832 10.2444C26.0719 10.2426 26.0606 10.2407 26.0489 10.2388C25.3216 10.1178 24.5944 9.9954 23.8674 9.87223C23.8459 9.86858 23.8244 9.86494 23.8029 9.86129C23.7594 9.85392 23.7159 9.84654 23.6723 9.83917C23.5722 9.82221 23.4722 9.80525 23.3721 9.7883C23.3494 9.78446 23.3268 9.78063 23.3042 9.7768C22.7743 9.68703 22.2444 9.59753 21.7145 9.50808C21.5079 9.47321 21.3013 9.43834 21.0947 9.40346C21.0704 9.39936 21.0461 9.39526 21.0218 9.39116C20.6595 9.33 20.2973 9.2688 19.935 9.20756C19.9239 9.20567 19.9127 9.20379 19.9012 9.20184C19.7223 9.17159 19.5433 9.14133 19.3643 9.11106C19.1983 9.083 19.0324 9.05493 18.8664 9.02687C18.8554 9.02501 18.8443 9.02314 18.833 9.02122C18.4483 8.95619 18.0636 8.89121 17.6789 8.82626C17.6523 8.82176 17.6256 8.81726 17.5989 8.81275C17.3534 8.7713 17.1079 8.72986 16.8624 8.68842C16.7671 8.67233 16.6717 8.65624 16.5764 8.64014C16.5215 8.63088 16.4667 8.62162 16.4118 8.61236C16.1898 8.57489 15.9677 8.53734 15.7458 8.49946C15.6588 8.48462 15.5719 8.46987 15.485 8.45526C15.4742 8.45344 15.4634 8.45162 15.4522 8.44975C15.432 8.44635 15.4118 8.44295 15.3915 8.43956C15.1314 8.39582 14.8714 8.35132 14.6114 8.3067C14.2953 8.25243 13.9791 8.19829 13.6628 8.14514C13.6554 8.1439 13.648 8.14266 13.6404 8.14138C13.4295 8.10595 13.2186 8.07097 13.0077 8.0362C12.8544 8.01092 12.7014 7.98476 12.5484 7.95786C12.3669 7.92599 12.1851 7.89594 12.0032 7.86598C11.6494 7.80766 11.6494 7.80766 11.4855 7.77848C11.3113 7.74753 11.1369 7.71784 10.9625 7.68834C10.9294 7.68274 10.8963 7.67712 10.8633 7.67148C10.8239 7.66477 10.7845 7.6581 10.7451 7.65147C10.7235 7.64782 10.7019 7.64412 10.6802 7.64042C10.601 7.62714 10.5223 7.61687 10.4422 7.61112C10.4805 7.6365 10.5169 7.64474 10.561 7.65487C10.6179 7.66847 10.6739 7.68256 10.7292 7.70197C10.8291 7.73698 10.9294 7.76719 11.032 7.79375C11.1157 7.81575 11.199 7.83821 11.2814 7.86459C11.3322 7.88081 11.382 7.89483 11.4342 7.90526C11.4675 7.91294 11.4997 7.92315 11.5323 7.93334C11.5812 7.94861 11.6296 7.96188 11.6798 7.97231C11.7596 7.98923 11.8384 8.00912 11.9154 8.03616C11.9968 8.06323 12.0803 8.08118 12.164 8.1C12.2391 8.11691 12.3137 8.13395 12.3876 8.15556C12.4141 8.16214 12.4406 8.16861 12.4672 8.175C12.5241 8.18889 12.5806 8.20387 12.6368 8.22042C12.814 8.27237 12.9935 8.31571 13.1727 8.36007C13.2208 8.37196 13.2689 8.38393 13.3169 8.39592C13.3546 8.4053 13.3922 8.41465 13.4299 8.42398C13.4476 8.42837 13.4653 8.43278 13.483 8.4372C13.5821 8.46191 13.6811 8.48465 13.7815 8.50361C13.8431 8.51608 13.9034 8.53309 13.964 8.55C14.0556 8.57515 14.1464 8.59756 14.24 8.61467C14.2932 8.62552 14.3447 8.64119 14.3967 8.65656C14.4408 8.66868 14.4849 8.67669 14.53 8.68416C14.5657 8.69055 14.5999 8.70113 14.6348 8.71112C14.6746 8.71962 14.7144 8.72778 14.7543 8.73577C14.7913 8.74445 14.7913 8.74445 14.8177 8.7552C14.8481 8.76703 14.8773 8.77432 14.9092 8.78108C14.9274 8.78498 14.9274 8.78498 14.9458 8.78895C14.9651 8.79305 14.9651 8.79305 14.9848 8.79723C15.1006 8.82221 15.2157 8.84913 15.3304 8.8787C15.3855 8.89277 15.4392 8.90396 15.4956 8.91112C15.5218 8.91813 15.5479 8.92559 15.5739 8.93334C15.6573 8.95808 15.6573 8.95808 15.743 8.97223C15.7767 8.97655 15.7995 8.98153 15.8306 8.99271C15.8951 9.01464 15.9609 9.0295 16.0274 9.04445C16.0402 9.04736 16.0529 9.05027 16.0661 9.05327C16.1511 9.07243 16.2362 9.08959 16.3221 9.104C16.3565 9.11112 16.3565 9.11112 16.3793 9.12094C16.4279 9.13917 16.4779 9.14959 16.5285 9.16103C16.5403 9.16374 16.5521 9.16644 16.5643 9.16923C16.6038 9.17827 16.6433 9.18725 16.6828 9.19623C16.7109 9.20266 16.7391 9.2091 16.7673 9.21555C16.8356 9.23116 16.9039 9.24672 16.9722 9.26227C17.0275 9.27485 17.0827 9.28745 17.138 9.30007C17.7754 9.44556 18.4131 9.58974 19.0509 9.73334C18.9063 9.71695 18.7631 9.69416 18.6196 9.67036C18.5951 9.66634 18.5707 9.66232 18.5463 9.65831C18.4822 9.64776 18.4181 9.63716 18.354 9.62656C18.2528 9.60985 18.1517 9.5932 18.0505 9.57654C18.0255 9.57241 18.0005 9.56829 17.9754 9.56416C17.6416 9.50912 17.3075 9.45524 16.9733 9.40177C16.7191 9.36108 16.4649 9.32031 16.2111 9.27668C16.0362 9.24663 15.8609 9.21858 15.6856 9.19101C15.1821 9.11176 14.6793 9.0281 14.1764 8.94516C13.948 8.90748 13.7196 8.86983 13.4911 8.83221C13.4799 8.83037 13.4688 8.82853 13.4572 8.82663C13.1348 8.77352 12.8123 8.72055 12.4897 8.6678C12.4803 8.66626 12.4709 8.66472 12.4612 8.66313C12.347 8.64446 12.2328 8.62579 12.1186 8.60713C11.2684 8.46813 10.4182 8.32819 9.56814 8.18795C9.55584 8.18592 9.54353 8.18389 9.53086 8.1818C9.49371 8.17567 9.45656 8.16954 9.41941 8.16341C9.40109 8.16039 9.40109 8.16039 9.38241 8.15731C9.32109 8.14719 9.25977 8.13708 9.19845 8.12696C8.86599 8.07211 8.53352 8.01734 8.20104 7.96266C8.16967 7.9575 8.13831 7.95235 8.10694 7.94719C7.92306 7.91695 7.73919 7.88671 7.5553 7.8565C7.48611 7.84513 7.41691 7.83376 7.34772 7.82238C7.30862 7.81595 7.26951 7.80952 7.23041 7.8031C7.18805 7.79615 7.14569 7.78918 7.10334 7.78221C7.09009 7.78004 7.07684 7.77787 7.06319 7.77564C6.99311 7.7641 6.92313 7.75214 6.85323 7.73964C6.83836 7.737 6.8235 7.73437 6.80863 7.73174C6.78059 7.72675 6.75257 7.72169 6.72456 7.71653C6.63581 7.7008 6.56382 7.69642 6.47538 7.71705C6.43055 7.72654 6.38515 7.73284 6.33986 7.73981C6.3021 7.74562 6.26437 7.75163 6.22665 7.75773C6.21601 7.75945 6.20537 7.76117 6.1944 7.76294C6.18302 7.76479 6.18302 7.76479 6.17141 7.76667C6.18089 7.75657 6.19037 7.74648 6.20014 7.73607C6.2064 7.72941 6.21265 7.72275 6.21909 7.71589C6.23316 7.70091 6.24724 7.68593 6.26131 7.67094C6.30302 7.62653 6.34472 7.58212 6.38641 7.53769C6.39922 7.52404 6.41205 7.5104 6.42488 7.49676C6.459 7.4605 6.49301 7.42414 6.52686 7.38763C6.60439 7.30428 6.68312 7.22494 6.76845 7.1494C6.79573 7.12487 6.82237 7.09969 6.84911 7.07458C6.92263 7.00562 6.99753 6.93996 7.077 6.87778C7.0909 6.86657 7.10481 6.85536 7.1187 6.84414C7.88666 6.23081 8.83349 5.91206 9.83963 5.89586C9.857 5.89555 9.87437 5.89524 9.89174 5.89492C9.93864 5.89408 9.98553 5.89329 10.0324 5.89251C10.0826 5.89167 10.1327 5.89078 10.1829 5.8899C10.2678 5.88842 10.3527 5.88697 10.4376 5.88553C10.5228 5.8841 10.6081 5.88263 10.6933 5.88114C10.9231 5.87711 11.1528 5.8732 11.3826 5.86953C11.403 5.8692 11.4233 5.86888 11.4436 5.86855C11.4536 5.86839 11.4635 5.86824 11.4737 5.86807C11.5367 5.86706 11.5998 5.866 11.6629 5.86491C12.3783 5.85256 13.0938 5.85289 13.8094 5.85279C13.8701 5.85279 13.9309 5.85277 13.9916 5.85275C14.8567 5.85245 15.7216 5.85481 17.1439 5.87125C17.1663 5.87153 17.1887 5.87182 17.2112 5.8721C17.6083 5.87716 18.0054 5.8825 18.4025 5.88889C18.4153 5.8891 18.4282 5.8893 18.4414 5.88952C18.5232 5.89083 18.605 5.89219 18.6868 5.8936C18.7128 5.89404 18.7387 5.89447 18.7647 5.8949C18.9116 5.89731 19.0584 5.90117 19.2052 5.90708C19.3066 5.91115 19.408 5.91403 19.5095 5.91628C19.5276 5.9167 19.5458 5.91712 19.5639 5.91754C19.6122 5.91867 19.6605 5.91976 19.7088 5.92085C19.7602 5.92202 19.8117 5.92321 19.8631 5.92439C19.9604 5.92664 20.0578 5.92887 20.1552 5.93108C20.2967 5.9343 20.4382 5.93756 20.5797 5.94081C20.601 5.9413 20.6223 5.94179 20.6436 5.94228C20.6541 5.94252 20.6645 5.94276 20.6753 5.94301C20.7356 5.9444 20.796 5.94578 20.8564 5.94715C21.0492 5.95155 21.242 5.95601 21.4348 5.9607C21.4542 5.96117 21.4735 5.96164 21.4929 5.9621C21.5904 5.96443 21.6878 5.96692 21.7851 5.97223C21.857 5.97602 21.9288 5.97856 22.0007 5.98007C22.3676 5.9878 22.7342 6.00358 23.1009 6.01813C23.1677 6.02078 23.2346 6.0234 23.3014 6.02601C24.0421 6.05491 24.0421 6.05491 24.3723 6.07209C24.5197 6.07975 24.6671 6.08509 24.8145 6.09005C24.8716 6.092 24.9287 6.09425 24.9858 6.09718C25.0339 6.09957 25.0815 6.09979 25.1296 6.09901C25.3024 6.09926 25.3024 6.09926 25.3556 6.13774C25.3946 6.1802 25.418 6.23052 25.4424 6.28214C25.4694 6.33536 25.5041 6.38371 25.5377 6.43299C25.5518 6.45418 25.5659 6.47539 25.5799 6.49662C25.5869 6.50722 25.594 6.51782 25.6012 6.52875C25.6229 6.56138 25.6446 6.59401 25.6662 6.62665C25.6802 6.64775 25.6942 6.66884 25.7082 6.68993C25.7146 6.69952 25.7209 6.70911 25.7275 6.71898C25.7395 6.73713 25.7516 6.75527 25.7637 6.77338C25.7759 6.79186 25.788 6.81043 25.8 6.82908C25.8089 6.84284 25.8089 6.84284 25.8181 6.85688C25.8234 6.86517 25.8287 6.87346 25.8341 6.882C25.8389 6.88794 25.8436 6.89388 25.8484 6.9C25.8558 6.9 25.8632 6.9 25.8708 6.9C25.8708 6.911 25.8708 6.922 25.8708 6.93334C25.8782 6.93334 25.8855 6.93334 25.8931 6.93334C25.8943 6.94159 25.8955 6.94984 25.8966 6.95834C25.9052 6.99257 25.9128 7.00843 25.9379 7.03334C25.9711 7.03872 25.9711 7.03872 26.007 7.03612C26.0192 7.03571 26.0313 7.03531 26.0439 7.0349C26.0532 7.03438 26.0625 7.03387 26.072 7.03334C26.0891 6.86856 26.013 6.7589 25.9268 6.62418C25.8903 6.56677 25.8555 6.50833 25.8205 6.45C25.8066 6.42706 25.7927 6.40411 25.7788 6.38117C25.7281 6.29726 25.6786 6.21272 25.6292 6.12806C25.6231 6.11757 25.6169 6.10708 25.6106 6.09627C25.6053 6.08704 25.5999 6.07781 25.5943 6.0683C25.5827 6.04887 25.5704 6.02991 25.5577 6.01112C25.5545 5.97974 25.5545 5.97974 25.5539 5.94076C25.5537 5.93358 25.5536 5.9264 25.5534 5.919C25.5531 5.90323 25.5528 5.88746 25.5526 5.87168C25.5522 5.84595 25.5517 5.82022 25.5512 5.79449C25.5504 5.75692 25.5497 5.71935 25.5491 5.68178C25.5472 5.57944 25.5448 5.47712 25.5424 5.37479C25.5421 5.36409 25.5419 5.35339 25.5416 5.34237C25.5232 4.58303 25.4907 3.8203 25.4124 3.06459C25.4111 3.05147 25.4097 3.03835 25.4083 3.02484C25.3772 2.6545 25.3772 2.6545 25.2118 2.33021C25.1971 2.30651 25.1975 2.29394 25.2014 2.26667C25.2046 2.25567 25.2078 2.24467 25.2112 2.23334C25.2185 2.23334 25.2259 2.23334 25.2335 2.23334C25.2335 2.226 25.2335 2.21867 25.2335 2.21112C25.2425 2.20699 25.2425 2.20699 25.2517 2.20278C25.28 2.18882 25.28 2.18882 25.3097 2.16598C25.3629 2.1338 25.4087 2.1283 25.469 2.14098C25.6003 2.17971 25.673 2.29349 25.7356 2.40626C25.7625 2.45579 25.789 2.50553 25.8149 2.55556C25.8186 2.55556 25.8223 2.55556 25.8261 2.55556C25.8302 2.43058 25.8179 2.30697 25.8065 2.18264C25.8055 2.17157 25.8045 2.16049 25.8035 2.14908C25.7792 1.75719 25.7792 1.75719 25.6584 1.38889C25.651 1.38889 25.6436 1.38889 25.636 1.38889C25.6353 1.38248 25.6346 1.37606 25.6339 1.36945C25.6212 1.33458 25.5982 1.32204 25.5689 1.3C25.5615 1.289 25.5542 1.278 25.5466 1.26667C25.5355 1.26667 25.5244 1.26667 25.513 1.26667C25.513 1.25934 25.513 1.252 25.513 1.24445C25.502 1.24445 25.4909 1.24445 25.4795 1.24445C25.4795 1.23712 25.4795 1.22978 25.4795 1.22223C25.1566 1.0383 24.7474 1.01695 24.3845 0.991671C24.359 0.989853 24.3335 0.988033 24.308 0.986213C24.2319 0.980815 24.1557 0.975561 24.0795 0.970338C24.0326 0.967124 23.9857 0.963879 23.9389 0.960629C23.0702 0.900439 22.2011 0.849361 21.3317 0.801247C21.3097 0.800029 21.2877 0.798809 21.2657 0.79759C20.2822 0.743084 19.2981 0.698718 16.1368 0.596733C16.1222 0.596409 16.1077 0.596084 16.0927 0.595751C15.7682 0.588539 15.4436 0.582193 15.119 0.576957C15.1079 0.576778 15.1079 0.576778 15.0966 0.576595C14.3617 0.564719 13.6269 0.563586 12.8919 0.564413C12.7611 0.564559 12.6303 0.564618 12.4995 0.564612C11.4373 0.563587 11.4373 0.563587 10.3751 0.577782Z" fill="#131313"/>
<path d="M12.5259 0.56462C12.6566 0.564624 12.7872 0.564538 12.9178 0.564391C13.6516 0.563581 14.3853 0.565087 15.119 0.576964C15.1334 0.577197 15.1479 0.57743 15.1627 0.577669C15.4874 0.582948 15.8121 0.589501 16.1368 0.596739C16.1506 0.597047 16.1644 0.597355 16.1786 0.597673C17.2734 0.622222 18.3679 0.660414 23.9969 0.962849C24.0324 0.96524 24.0678 0.967613 24.1033 0.969982C25.2107 1.04414 25.2107 1.04414 25.4795 1.22223C25.4795 1.22957 25.4795 1.2369 25.4795 1.24446C25.4906 1.24446 25.5016 1.24446 25.513 1.24446C25.513 1.25179 25.513 1.25912 25.513 1.26668C25.5195 1.26737 25.526 1.26805 25.5326 1.26876C25.5677 1.28135 25.5803 1.3042 25.6025 1.33334C25.6136 1.34068 25.6246 1.34801 25.636 1.35557C25.636 1.36657 25.636 1.37757 25.636 1.3889C25.6434 1.3889 25.6508 1.3889 25.6584 1.3889C25.7935 1.65965 25.7929 2.00373 25.8177 2.30001C25.819 2.31588 25.819 2.31588 25.8204 2.33207C25.8262 2.40665 25.827 2.48079 25.8261 2.55557C25.7997 2.53164 25.7844 2.50949 25.7691 2.47749C25.6695 2.27495 25.6695 2.27495 25.4907 2.14446C25.4221 2.12661 25.3703 2.12999 25.3084 2.16442C25.2887 2.17749 25.2887 2.17749 25.2716 2.19602C25.2559 2.21112 25.2559 2.21112 25.2335 2.21112C25.2335 2.21846 25.2335 2.22579 25.2335 2.23334C25.2262 2.23334 25.2188 2.23334 25.2112 2.23334C25.2038 2.25534 25.1964 2.27734 25.1888 2.30001C25.1838 2.29571 25.1788 2.29142 25.1737 2.28699C25.1669 2.2812 25.1601 2.27542 25.1532 2.26946C25.1433 2.26095 25.1433 2.26095 25.1331 2.25227C24.8202 1.98995 24.3625 1.96206 23.9704 1.92909C23.9624 1.92841 23.9543 1.92772 23.946 1.92701C23.6871 1.90521 23.4277 1.88902 23.1685 1.87228C23.1315 1.8699 23.0946 1.86751 23.0577 1.86511C21.9035 1.79027 20.7488 1.72558 15.5851 1.54446C15.5754 1.54429 15.5658 1.54413 15.5558 1.54396C15.079 1.53597 14.6023 1.53244 14.1254 1.53248C14.1135 1.53248 14.1016 1.53247 14.0893 1.53247C13.3979 1.53245 12.7065 1.53745 12.0151 1.5425C11.9367 1.54307 11.8582 1.54364 11.7798 1.5442C10.408 1.55398 10.408 1.55398 7.70315 1.59838C7.65382 1.59982 7.60448 1.60123 7.55515 1.60262C6.92954 1.6203 6.30447 1.64438 5.6795 1.67779C5.66796 1.67841 5.65642 1.67902 5.64452 1.67966C5.4657 1.68922 5.28689 1.69902 5.10809 1.70901C5.07112 1.71107 5.03415 1.71311 4.99718 1.71515C4.73165 1.72983 4.46637 1.74652 4.20124 1.76711C4.18964 1.76801 4.17804 1.7689 4.16609 1.76982C3.32967 1.83474 2.41926 1.93023 1.73292 2.45557C1.72673 2.46029 1.72054 2.46502 1.71416 2.46989C1.53803 2.60653 1.37382 2.76893 1.25217 2.95557C1.24789 2.96202 1.24362 2.96848 1.23921 2.97513C0.85662 3.55848 0.797632 4.29448 0.767209 4.9722C0.766166 4.99533 0.765106 5.01846 0.764039 5.04159C0.749149 5.36459 0.736243 5.68766 0.724188 6.01078C0.722481 6.05651 0.720756 6.10224 0.719031 6.14796C0.688912 6.9467 0.663008 7.74557 0.637266 8.54446C0.593119 8.56508 0.548946 8.58565 0.504748 8.60617C0.48971 8.61316 0.47468 8.62017 0.459656 8.62719C0.438084 8.63727 0.416487 8.64729 0.394885 8.6573C0.381887 8.66335 0.368889 8.66941 0.355498 8.67564C0.324223 8.6889 0.324223 8.6889 0.301863 8.6889C0.300208 8.45436 0.304617 8.2203 0.311315 7.98587C0.312717 7.93646 0.314067 7.88705 0.315426 7.83764C0.318377 7.73064 0.321397 7.62364 0.324432 7.51664C0.326329 7.44971 0.328211 7.38279 0.33009 7.31587C0.33724 7.06141 0.344478 6.80696 0.351791 6.55251C0.355075 6.43822 0.358351 6.32394 0.361597 6.20966C0.368239 5.97579 0.374939 5.74192 0.381847 5.50806C0.38244 5.48797 0.383034 5.46789 0.383627 5.4478C0.383918 5.43794 0.38421 5.42808 0.38451 5.41792C0.386524 5.34955 0.388487 5.28119 0.390429 5.21282C0.443836 3.33622 0.443835 3.33622 1.01739 2.16668C1.02523 2.15569 1.03307 2.14471 1.04115 2.13339C1.58388 1.3927 2.49151 1.0887 3.36849 0.949664C4.00894 0.850279 4.6561 0.806254 5.30273 0.769658C5.34796 0.767097 5.39319 0.764504 5.43841 0.761903C6.56838 0.696968 7.69952 0.645855 9.78795 0.591464C9.85348 0.589898 9.919 0.588286 9.98452 0.5866C10.1033 0.583544 10.2221 0.580874 10.341 0.578483C10.3641 0.578013 10.3873 0.577533 10.4104 0.577043C11.1155 0.56217 11.8208 0.564586 12.5259 0.56462Z" fill="#D6D6D6"/>
<path d="M0.480774 16.9C0.672342 16.8977 0.863567 16.9043 1.05498 16.9109C1.10245 16.9125 1.14992 16.9141 1.19739 16.9157C1.2803 16.9184 1.3632 16.9212 1.44611 16.924C1.66396 16.9314 1.88181 16.9385 2.09967 16.9457C2.13638 16.9469 2.17309 16.9481 2.2098 16.9493C2.79664 16.9686 3.38349 16.9874 3.97037 17.0055C3.98996 17.0061 3.98996 17.0061 4.00995 17.0068C5.27816 17.046 6.54651 17.0796 7.81494 17.1111C7.83027 17.1115 7.83027 17.1115 7.84592 17.1119C8.30391 17.1232 8.76191 17.1341 9.21995 17.1436C9.25698 17.1444 9.29402 17.1452 9.33106 17.146C10.3895 17.1684 11.4483 17.1823 13.3059 17.1893C13.3621 17.189 13.4183 17.1887 13.4745 17.1884C13.4826 17.1883 13.4907 17.1883 13.4991 17.1883C13.5073 17.1882 13.5156 17.1882 13.5241 17.1881C14.0354 17.1855 14.5466 17.1821 15.0579 17.1781C15.1019 17.1778 15.1459 17.1774 15.1898 17.1771C15.3279 17.1761 15.4659 17.1749 15.6039 17.1735C15.6414 17.1731 15.679 17.1727 15.7165 17.1724C15.9551 17.1712 15.9551 17.1712 16.1927 17.151C16.29 17.1392 16.3807 17.1533 16.475 17.1774C16.4837 17.1796 16.4925 17.1818 16.5015 17.184C16.5296 17.1911 16.5577 17.1983 16.5857 17.2055C16.5954 17.208 16.605 17.2105 16.6149 17.213C17.2772 17.3835 17.2772 17.3835 17.3877 17.5674C17.4021 17.6034 17.4015 17.6282 17.3963 17.6667C17.3521 17.7671 17.2425 17.8163 17.1456 17.8553C16.3088 18.1706 15.1949 18.0368 14.3143 18.036C14.1853 18.0359 14.0564 18.0359 13.9275 18.0359C13.6962 18.0359 13.4649 18.0358 13.2335 18.0356C13.0124 18.0354 12.7913 18.0354 12.5702 18.0354C12.5499 18.0354 12.5499 18.0354 12.5291 18.0354C12.5156 18.0354 12.5021 18.0354 12.4881 18.0354C12.2322 18.0354 11.9763 18.0353 11.7203 18.0352C11.6442 18.0352 11.5681 18.0352 11.492 18.0352C10.4913 18.0351 9.49067 18.0272 8.49006 18.0128C8.46624 18.0125 8.44242 18.0121 8.4186 18.0118C7.61105 18.0003 6.80359 17.9846 1.80423 17.8035C1.74649 17.8006 1.68875 17.7978 1.63101 17.7951C1.58992 17.7931 1.54883 17.791 1.50774 17.789C1.4892 17.7881 1.47065 17.7872 1.4521 17.7863C1.42714 17.7851 1.40218 17.7839 1.37722 17.7826C1.36348 17.7819 1.34974 17.7813 1.33558 17.7806C1.22605 17.7726 1.22605 17.7726 1.19255 17.7456C1.18502 17.7365 1.1775 17.7274 1.16975 17.718C1.16123 17.708 1.15271 17.6979 1.14394 17.6875C1.13539 17.677 1.12685 17.6664 1.11804 17.6555C1.10984 17.6456 1.10164 17.6356 1.09319 17.6253C1.07652 17.605 1.0599 17.5846 1.04332 17.5643C1.00802 17.5221 0.970597 17.482 0.93322 17.4417C0.89747 17.4021 0.864097 17.3608 0.830502 17.3194C0.804246 17.288 0.776945 17.2578 0.749097 17.2278C0.703455 17.1785 0.660701 17.1276 0.618473 17.0754C0.581258 17.0309 0.541604 16.9889 0.501693 16.9468C0.480774 16.9222 0.480774 16.9222 0.480774 16.9Z" fill="#999999"/>
<path d="M10.4423 7.61108C10.5226 7.61738 10.6015 7.62689 10.6809 7.64038C10.6915 7.64216 10.7022 7.64393 10.7132 7.64576C10.7477 7.65152 10.7823 7.65734 10.8168 7.66317C10.8411 7.66723 10.8653 7.67129 10.8896 7.67534C10.9604 7.68719 11.0311 7.69912 11.1019 7.71108C11.1113 7.71268 11.1207 7.71427 11.1304 7.71591C11.2177 7.73067 11.3049 7.74555 11.3921 7.76048C11.5105 7.78075 11.629 7.80078 11.7475 7.82081C11.77 7.8246 11.7925 7.8284 11.8149 7.8322C11.849 7.83795 11.883 7.8437 11.917 7.84945C11.9941 7.86248 12.0711 7.87552 12.1482 7.88856C12.3761 7.92713 12.6041 7.96567 12.832 8.00414C12.8502 8.00722 12.8502 8.00722 12.8689 8.01036C13.0149 8.03501 13.161 8.05963 13.3071 8.08422C13.3286 8.08785 13.3286 8.08785 13.3506 8.09155C13.4196 8.10315 13.4885 8.11476 13.5575 8.12636C13.7163 8.15309 13.8752 8.18005 14.034 8.20713C14.1564 8.228 14.2788 8.2488 14.4012 8.26955C14.4195 8.27264 14.4377 8.27574 14.456 8.27884C14.4839 8.28356 14.5117 8.28829 14.5396 8.29301C14.8607 8.34745 15.1818 8.40204 15.5029 8.45694C15.7443 8.49823 15.9858 8.53933 16.2273 8.58031C16.2369 8.58194 16.2464 8.58356 16.2563 8.58524C16.7548 8.66983 17.2534 8.75384 17.752 8.83784C18.028 8.88434 18.304 8.93087 18.5801 8.9774C18.601 8.98094 18.601 8.98094 18.6224 8.98454C19.1971 9.08143 19.7718 9.17849 20.3464 9.27567C20.3687 9.27943 20.3909 9.28319 20.4131 9.28694C20.6128 9.32071 20.8125 9.35448 21.0122 9.38826C21.0286 9.39103 21.0286 9.39103 21.0453 9.39385C21.0562 9.3957 21.0671 9.39755 21.0784 9.39945C21.3684 9.44851 21.6585 9.49755 21.9485 9.54659C21.9597 9.54848 21.9709 9.55037 21.9824 9.55231C22.1405 9.57904 22.2985 9.60576 22.4566 9.63248C22.4901 9.63814 22.5236 9.6438 22.5571 9.64946C22.8855 9.70498 23.2139 9.7605 23.5423 9.81601C23.5796 9.82231 23.6169 9.82862 23.6542 9.83492C23.966 9.88763 24.2779 9.94034 24.5898 9.99304C24.6151 9.99732 24.6404 10.0016 24.6657 10.0059C24.6782 10.008 24.6906 10.0101 24.7034 10.0123C24.79 10.0269 24.8766 10.0415 24.9632 10.0562C25.0682 10.0739 25.1731 10.0916 25.2781 10.1094C25.3315 10.1184 25.385 10.1274 25.4384 10.1365C25.6533 10.1728 25.8682 10.209 26.0832 10.2444C26.0638 10.2843 26.0401 10.3196 26.0141 10.3555C26.0092 10.3622 26.0044 10.3689 25.9995 10.3758C25.9492 10.445 25.8974 10.5131 25.8456 10.5813C25.7925 10.6516 25.7405 10.7226 25.6889 10.794C25.6323 10.8722 25.5742 10.9493 25.5157 11.0262C25.4999 11.0471 25.4841 11.068 25.4683 11.0889C25.3559 11.0736 25.244 11.0557 25.1321 11.0365C25.1145 11.0334 25.0969 11.0304 25.0792 11.0274C25.0312 11.0192 24.9832 11.011 24.9352 11.0027C24.8833 10.9939 24.8314 10.985 24.7794 10.9761C24.6894 10.9607 24.5994 10.9453 24.5094 10.9299C24.3649 10.9052 24.2205 10.8804 24.076 10.8557C24.0263 10.8472 23.9766 10.8387 23.9269 10.8302C23.9145 10.8281 23.9021 10.826 23.8893 10.8238C23.8003 10.8086 23.7112 10.7934 23.6222 10.7781C23.1378 10.6953 22.6535 10.6126 22.1691 10.5299C22.089 10.5163 22.009 10.5026 21.9289 10.4889C20.986 10.328 20.0431 10.1673 19.1002 10.0065C18.7669 9.94969 18.4336 9.89287 18.1004 9.83604C18.0766 9.83199 18.0529 9.82794 18.0291 9.82389C17.851 9.79352 17.6729 9.76316 17.4948 9.73279C17.3286 9.70445 17.1624 9.6761 16.9962 9.64776C16.9724 9.64371 16.9487 9.63966 16.9249 9.63561C16.5916 9.57877 16.2583 9.52194 15.9249 9.46511C15.6985 9.4265 15.472 9.38789 15.2455 9.34928C15.2279 9.34627 15.2279 9.34627 15.2099 9.3432C14.6533 9.24832 14.0968 9.15341 13.5403 9.05844C13.5286 9.05644 13.517 9.05445 13.5049 9.0524C13.2598 9.01057 13.0147 8.96874 12.7697 8.9269C12.6554 8.90741 12.5412 8.88791 12.427 8.86842C12.4102 8.86555 12.4102 8.86555 12.3931 8.86263C12.0818 8.80949 11.7704 8.75639 11.459 8.70334C11.2799 8.67283 11.1007 8.64231 10.9216 8.61178C10.912 8.61014 10.9024 8.6085 10.8924 8.60681C10.1258 8.47616 9.35934 8.34447 8.59294 8.21248C8.336 8.16823 8.07905 8.12404 7.82208 8.08001C7.76587 8.07038 7.70966 8.06074 7.65345 8.05108C7.45725 8.0174 7.26101 7.98402 7.06469 7.951C6.9734 7.93564 6.88212 7.92021 6.79084 7.90478C6.71514 7.89198 6.63943 7.87928 6.5637 7.86664C6.51726 7.85886 6.47083 7.85101 6.42441 7.84313C6.40268 7.83947 6.38095 7.83583 6.35921 7.83223C6.32948 7.82731 6.29977 7.82227 6.27007 7.81719C6.25689 7.81505 6.25689 7.81505 6.24345 7.81287C6.22303 7.80932 6.20279 7.80475 6.18263 7.79997C6.17894 7.79264 6.17525 7.78531 6.17145 7.77775C6.25168 7.75685 6.33248 7.73987 6.41392 7.72428C6.43356 7.72004 6.43356 7.72004 6.45359 7.71571C6.53602 7.70032 6.60557 7.69977 6.68781 7.71276C6.6979 7.71427 6.70798 7.71579 6.71837 7.71735C6.85329 7.7379 6.98786 7.76068 7.12243 7.78335C7.16267 7.79012 7.20292 7.79685 7.24317 7.80359C7.31344 7.81535 7.3837 7.82713 7.45396 7.83892C7.64916 7.87166 7.84439 7.90425 8.03962 7.93682C8.05506 7.9394 8.05507 7.9394 8.07082 7.94203C8.57261 8.02574 9.07463 8.10808 9.57668 8.19023C9.63375 8.19957 9.69082 8.20891 9.74789 8.21825C9.75926 8.22011 9.77062 8.22197 9.78234 8.22389C9.89791 8.24281 10.0135 8.26172 10.1291 8.28064C10.1523 8.28444 10.1755 8.28825 10.1987 8.29205C10.5567 8.35065 10.9147 8.40945 11.2726 8.46846C11.2839 8.47033 11.2953 8.47219 11.3069 8.47411C11.4433 8.49659 11.5796 8.51908 11.716 8.54158C11.9278 8.57652 12.1397 8.61145 12.3515 8.64637C12.3624 8.64817 12.3733 8.64997 12.3846 8.65182C12.8883 8.73483 13.392 8.81741 13.8958 8.89985C13.9259 8.90478 13.9561 8.90971 13.9862 8.91464C14.3893 8.98062 14.7924 9.04656 15.1957 9.11195C15.3435 9.13593 15.4912 9.16029 15.6389 9.18489C15.8181 9.21474 15.9975 9.24397 16.177 9.2722C16.5519 9.33116 16.9264 9.39216 17.3006 9.45553C17.5223 9.49308 17.7442 9.52951 17.9663 9.56445C18.1126 9.58748 18.2587 9.61112 18.4048 9.63513C18.4236 9.63822 18.4424 9.6413 18.4612 9.64439C18.5453 9.6582 18.6294 9.67204 18.7135 9.68595C18.7484 9.69172 18.7833 9.69746 18.8182 9.70319C18.8346 9.70588 18.851 9.70859 18.8674 9.71132C18.8899 9.71507 18.9125 9.71878 18.9351 9.72248C18.9478 9.72458 18.9605 9.72668 18.9736 9.72884C19.0081 9.73432 19.0081 9.73432 19.0509 9.73331C19.0447 9.73188 19.0384 9.73046 19.0319 9.72899C18.8249 9.68206 18.6179 9.63512 18.4109 9.58817C18.4029 9.58636 18.3949 9.58455 18.3867 9.58269C17.9219 9.47724 17.4571 9.37154 16.9924 9.26525C16.9806 9.26254 16.9687 9.25983 16.9565 9.25703C16.8589 9.23471 16.7613 9.21238 16.6637 9.19004C16.6546 9.18796 16.6455 9.18588 16.6362 9.18373C16.6188 9.17976 16.6015 9.17579 16.5842 9.17181C16.5456 9.16294 16.507 9.15414 16.4683 9.14556C16.455 9.14259 16.4417 9.13963 16.428 9.13657C16.4108 9.13277 16.4108 9.13277 16.3933 9.12889C16.3677 9.1222 16.3677 9.1222 16.3565 9.11108C16.3307 9.10581 16.3049 9.10106 16.2789 9.09659C16.186 9.07992 16.0942 9.05955 16.0024 9.03787C15.9766 9.03179 15.9507 9.02579 15.9249 9.01981C15.9084 9.01595 15.892 9.01209 15.8755 9.00822C15.8678 9.00644 15.8601 9.00465 15.8522 9.00282C15.7988 8.99014 15.7988 8.99014 15.7864 8.97775C15.7584 8.97197 15.7306 8.9667 15.7025 8.96178C15.6862 8.95882 15.6699 8.95586 15.6535 8.95288C15.6417 8.95072 15.6417 8.95072 15.6296 8.94851C15.5113 8.92658 15.5113 8.92658 15.4957 8.91108C15.4657 8.90492 15.4357 8.89924 15.4055 8.89372C15.2825 8.87036 15.1614 8.83995 15.04 8.80906C14.9677 8.7907 14.8956 8.77303 14.822 8.75996C14.8025 8.75553 14.8025 8.75553 14.7913 8.74442C14.7754 8.74062 14.7594 8.73738 14.7433 8.73439C14.7335 8.73252 14.7237 8.73065 14.7136 8.72873C14.6929 8.72487 14.6722 8.72102 14.6516 8.71718C14.6023 8.70777 14.5582 8.69699 14.5118 8.67775C14.4861 8.6722 14.4602 8.66715 14.4343 8.66247C14.3771 8.65177 14.3217 8.63873 14.2659 8.6222C14.2148 8.60714 14.1645 8.59499 14.1121 8.58539C14.0196 8.56798 13.9294 8.54309 13.8388 8.51775C13.7774 8.50083 13.7164 8.48596 13.6538 8.47417C13.5526 8.45456 13.4529 8.42976 13.353 8.40483C13.3334 8.39998 13.3139 8.39512 13.2943 8.39027C13.2536 8.38017 13.2129 8.37005 13.1723 8.3599C13.1204 8.34696 13.0684 8.33409 13.0165 8.32124C12.9762 8.31126 12.936 8.30124 12.8957 8.29121C12.8765 8.28645 12.8574 8.2817 12.8383 8.27697C12.7465 8.25424 12.6559 8.23089 12.5665 8.19997C12.5465 8.19483 12.5265 8.19001 12.5064 8.18574C12.4961 8.18349 12.4857 8.18124 12.4751 8.17892C12.4647 8.1767 12.4542 8.17448 12.4435 8.1722C12.3756 8.15774 12.31 8.14165 12.2444 8.11897C12.2029 8.10561 12.1605 8.097 12.1179 8.08817C12.0332 8.07038 11.951 8.04792 11.8684 8.0222C11.8144 8.0056 11.7606 7.99096 11.7056 7.97775C11.6549 7.96428 11.6043 7.9504 11.5537 7.93643C11.4956 7.92046 11.4373 7.90569 11.3786 7.89164C11.2909 7.87041 11.2051 7.84406 11.1189 7.81749C11.0542 7.79767 10.9895 7.77953 10.9237 7.76386C10.8652 7.74986 10.811 7.73344 10.7553 7.71108C10.684 7.68471 10.6113 7.66637 10.5372 7.64937C10.5 7.64057 10.4745 7.63242 10.4423 7.61108Z" fill="#EBEBEB"/>
<path d="M9.10064 7.31111C9.11897 7.31495 9.13731 7.31873 9.15567 7.32242C9.17367 7.3264 9.19166 7.33041 9.20965 7.33446C9.21953 7.33665 9.22941 7.33885 9.23959 7.3411C9.27154 7.3482 9.30348 7.35535 9.33542 7.3625C9.3579 7.3675 9.38038 7.37249 9.40286 7.37748C9.45929 7.39002 9.5157 7.40259 9.57211 7.41517C9.65252 7.43309 9.73294 7.45095 9.81337 7.46875C9.82141 7.47053 9.82946 7.47231 9.83774 7.47414C9.96225 7.50167 10.0869 7.52851 10.2117 7.55486C10.2195 7.55652 10.2274 7.55819 10.2355 7.5599C10.2577 7.56459 10.2799 7.56925 10.3021 7.57391C10.3146 7.57655 10.3272 7.57918 10.3401 7.5819C10.374 7.58866 10.4081 7.59454 10.4423 7.6C10.4423 7.60733 10.4423 7.61466 10.4423 7.62222C10.4492 7.62357 10.4561 7.62491 10.4632 7.6263C10.4935 7.63226 10.5238 7.63833 10.5541 7.64444C10.5627 7.64617 10.5714 7.64791 10.5803 7.64969C10.6404 7.66224 10.6974 7.68002 10.7553 7.7C10.8467 7.73146 10.9385 7.7584 11.032 7.78264C11.1157 7.80463 11.199 7.82709 11.2815 7.85347C11.3322 7.86969 11.382 7.88372 11.4343 7.89414C11.4675 7.90182 11.4998 7.91203 11.5323 7.92222C11.5812 7.93749 11.6296 7.95077 11.6798 7.96119C11.7596 7.97811 11.8384 7.998 11.9155 8.02504C11.9969 8.05211 12.0803 8.07006 12.164 8.08889C12.2391 8.10579 12.3137 8.12283 12.3876 8.14444C12.4141 8.15102 12.4407 8.15749 12.4673 8.16389C12.5242 8.17777 12.5806 8.19275 12.6368 8.20931C12.814 8.26125 12.9936 8.30459 13.1728 8.34895C13.2209 8.36085 13.2689 8.37281 13.317 8.3848C13.3546 8.39418 13.3923 8.40353 13.4299 8.41286C13.4476 8.41725 13.4653 8.42166 13.483 8.42608C13.5821 8.45079 13.6812 8.47353 13.7816 8.4925C13.8432 8.50496 13.9035 8.52197 13.964 8.53889C14.0557 8.56403 14.1465 8.58644 14.24 8.60356C14.2932 8.6144 14.3447 8.63007 14.3967 8.64544C14.4409 8.65756 14.485 8.66557 14.5301 8.67304C14.5658 8.67943 14.5999 8.69002 14.6348 8.7C14.6746 8.7085 14.7145 8.71666 14.7544 8.72465C14.7913 8.73333 14.7913 8.73333 14.8177 8.74408C14.8482 8.75592 14.8773 8.7632 14.9093 8.76996C14.9214 8.77256 14.9334 8.77516 14.9459 8.77783C14.9587 8.78056 14.9716 8.78329 14.9849 8.78611C15.1007 8.81109 15.2157 8.83801 15.3304 8.86759C15.3855 8.88165 15.4392 8.89284 15.4957 8.9C15.5219 8.90701 15.5479 8.91447 15.5739 8.92222C15.6574 8.94696 15.6574 8.94696 15.743 8.96111C15.7767 8.96543 15.7996 8.97041 15.8306 8.98159C15.8951 9.00352 15.961 9.01838 16.0274 9.03333C16.0402 9.03624 16.053 9.03915 16.0661 9.04215C16.1512 9.06131 16.2362 9.07847 16.3222 9.09288C16.3565 9.1 16.3565 9.1 16.3794 9.10982C16.428 9.12805 16.478 9.13847 16.5286 9.14991C16.5404 9.15262 16.5522 9.15532 16.5643 9.15811C16.6038 9.16715 16.6433 9.17613 16.6828 9.18511C16.711 9.19155 16.7392 9.19798 16.7673 9.20443C16.8278 9.21824 16.8882 9.23202 16.9486 9.24578C17.0118 9.26015 17.0749 9.27455 17.1381 9.28897C17.1459 9.29077 17.1538 9.29256 17.1619 9.29441C17.1697 9.29621 17.1776 9.298 17.1857 9.29986C17.5049 9.37279 17.8242 9.4453 18.1437 9.51691C18.1873 9.52669 18.231 9.53649 18.2746 9.54629C18.3029 9.55263 18.3311 9.55897 18.3594 9.56532C18.3799 9.56993 18.3799 9.56993 18.4009 9.57464C18.4822 9.59288 18.5635 9.61102 18.6448 9.62909C18.695 9.64026 18.7451 9.6515 18.7952 9.66275C18.8185 9.66795 18.8417 9.67311 18.8649 9.67824C18.8963 9.68518 18.9277 9.69223 18.9591 9.69931C18.973 9.70233 18.973 9.70233 18.9872 9.70541C19.0086 9.7103 19.0298 9.71616 19.051 9.72222C19.0546 9.72955 19.0583 9.73689 19.0621 9.74444C18.981 9.73808 18.9012 9.72838 18.821 9.71494C18.8098 9.71312 18.7987 9.71129 18.7872 9.70941C18.7506 9.70339 18.714 9.69731 18.6775 9.69123C18.6515 9.68694 18.6255 9.68266 18.5995 9.67838C18.5309 9.66709 18.4624 9.65575 18.3938 9.64439C18.3259 9.63314 18.2579 9.62193 18.1899 9.61072C18.1767 9.60853 18.1634 9.60634 18.1497 9.60408C18.123 9.59968 18.0963 9.59528 18.0696 9.59087C18.0297 9.58428 17.9897 9.57768 17.9497 9.57108C17.6244 9.51739 17.2989 9.46497 16.9734 9.41287C16.7191 9.37218 16.4649 9.33141 16.2111 9.28778C16.0362 9.25773 15.861 9.22969 15.6857 9.20212C15.1822 9.12287 14.6794 9.0392 14.1765 8.95626C13.948 8.91858 13.7196 8.88094 13.4912 8.84331C13.48 8.84147 13.4688 8.83963 13.4573 8.83774C13.1348 8.78462 12.8123 8.73166 12.4897 8.6789C12.4756 8.67659 12.4756 8.67659 12.4612 8.67424C12.347 8.65556 12.2329 8.6369 12.1187 8.61823C11.2684 8.47923 10.4183 8.3393 9.56818 8.19905C9.55588 8.19702 9.54357 8.19499 9.5309 8.1929C9.49375 8.18677 9.4566 8.18064 9.41945 8.17452C9.40724 8.1725 9.39503 8.17049 9.38245 8.16841C9.32113 8.1583 9.25981 8.14818 9.19849 8.13806C8.86604 8.08321 8.53356 8.02844 8.20108 7.97377C8.16971 7.96861 8.13835 7.96345 8.10698 7.95829C7.9231 7.92805 7.73923 7.89781 7.55534 7.8676C7.48615 7.85624 7.41695 7.84486 7.34776 7.83348C7.30866 7.82705 7.26955 7.82062 7.23045 7.81421C7.02636 7.78071 6.82245 7.7463 6.61865 7.71111C6.65895 7.68441 6.69643 7.67887 6.74318 7.67088C6.75726 7.66838 6.75726 7.66838 6.77162 7.66582C6.80317 7.66024 6.83474 7.65476 6.86632 7.64929C6.8889 7.64532 6.91149 7.64134 6.93408 7.63735C6.99554 7.62653 7.05701 7.61581 7.1185 7.60513C7.15692 7.59845 7.19535 7.59175 7.23377 7.58504C7.36787 7.56163 7.50199 7.53832 7.63612 7.51509C7.76104 7.49345 7.88592 7.47158 8.01078 7.44961C8.11802 7.43075 8.2253 7.41206 8.3326 7.3935C8.39666 7.38242 8.46071 7.37127 8.52472 7.35994C8.58501 7.34927 8.64532 7.33882 8.70567 7.32853C8.72775 7.32472 8.74982 7.32085 8.77187 7.31689C8.88662 7.29633 8.98581 7.28038 9.10064 7.31111Z" fill="#494949"/>
<path d="M2.79503 1.08886C2.78887 1.09125 2.7827 1.09364 2.77636 1.0961C2.49583 1.20561 2.20542 1.32793 1.99006 1.54442C1.98264 1.55142 1.97522 1.55842 1.96757 1.56564C1.87555 1.65901 1.86049 1.77193 1.86177 1.89756C1.86634 2.02389 1.90525 2.13738 1.95705 2.25227C1.9677 2.27775 1.9677 2.27775 1.9677 2.29997C1.94494 2.31571 1.9222 2.33016 1.89852 2.34442C1.77409 2.42168 1.66037 2.51044 1.55404 2.61108C1.54736 2.61736 1.54068 2.62363 1.53381 2.63009C1.42736 2.73071 1.33292 2.83339 1.25217 2.95553C1.24785 2.96203 1.24352 2.96854 1.23906 2.97524C0.85663 3.5586 0.797631 4.29449 0.76721 4.97216C0.766167 4.99529 0.765106 5.01842 0.76404 5.04155C0.74915 5.36455 0.736244 5.68762 0.724189 6.01074C0.722482 6.05647 0.720757 6.1022 0.719031 6.14792C0.688912 6.94666 0.663008 7.74553 0.637266 8.54442C0.593119 8.56504 0.548946 8.58561 0.504748 8.60613C0.48971 8.61312 0.47468 8.62013 0.459656 8.62715C0.438084 8.63723 0.416487 8.64725 0.394885 8.65726C0.381887 8.66331 0.368889 8.66937 0.355498 8.6756C0.324223 8.68886 0.324223 8.68886 0.301863 8.68886C0.300208 8.45432 0.304618 8.22026 0.311315 7.98583C0.312717 7.93642 0.314067 7.88701 0.315425 7.8376C0.318377 7.7306 0.321397 7.6236 0.324432 7.5166C0.326329 7.44967 0.328211 7.38275 0.330091 7.31583C0.33724 7.06137 0.344478 6.80692 0.351791 6.55247C0.355076 6.43818 0.358352 6.3239 0.361598 6.20962C0.36824 5.97575 0.374939 5.74188 0.381848 5.50802C0.382441 5.48793 0.383034 5.46785 0.383627 5.44776C0.383918 5.4379 0.38421 5.42804 0.38451 5.41788C0.386524 5.34951 0.388487 5.28115 0.390428 5.21278C0.443835 3.33618 0.443835 3.33618 1.01739 2.16664C1.02523 2.15565 1.03307 2.14467 1.04115 2.13335C1.42833 1.60495 2.01112 1.29441 2.63082 1.10969C2.64217 1.10627 2.65351 1.10285 2.6652 1.09933C2.67572 1.0963 2.68623 1.09328 2.69707 1.09016C2.7063 1.08748 2.71553 1.0848 2.72504 1.08204C2.75225 1.07742 2.76908 1.08023 2.79503 1.08886Z" fill="#B2B2B2"/>
<path d="M0.290673 16.9111C0.317972 16.9446 0.342816 16.9769 0.363999 17.0146C0.369161 17.0237 0.374323 17.0327 0.379642 17.0421C0.385101 17.0518 0.390561 17.0615 0.396186 17.0715C0.438782 17.1465 0.481711 17.2212 0.525794 17.2953C0.53816 17.3161 0.550454 17.3369 0.562675 17.3578C0.588773 17.4021 0.614843 17.4455 0.645642 17.4867C0.703713 17.5662 0.722392 17.6314 0.727702 17.728C0.728513 17.7403 0.729324 17.7526 0.730159 17.7652C0.732998 17.8102 0.735469 17.8551 0.737878 17.9C0.738879 17.9183 0.739881 17.9365 0.740883 17.9548C0.748769 18.0996 0.755792 18.2446 0.762648 18.3895C0.764453 18.4276 0.76628 18.4656 0.76811 18.5037C0.785705 18.8703 0.800495 19.2369 0.813481 19.6036C0.826731 19.9774 0.841451 20.3509 0.864717 20.7242C0.866406 20.7514 0.868056 20.7786 0.869698 20.8059C0.880542 20.9843 0.894662 21.1618 0.916847 21.3393C0.918648 21.3537 0.920449 21.3681 0.922305 21.383C0.94336 21.5433 0.971817 21.6962 1.0621 21.8334C1.06913 21.8443 1.06913 21.8443 1.0763 21.8555C1.08617 21.8705 1.09643 21.8853 1.10682 21.9C1.07728 21.9263 1.04739 21.9521 1.01738 21.9778C1.0085 21.9855 0.999626 21.9932 0.990479 22.0012C0.918435 22.0616 0.848704 22.1102 0.751853 22.1118C0.69366 22.0929 0.662063 22.0678 0.631842 22.0161C0.617989 21.9888 0.604899 21.9614 0.592536 21.9334C0.585158 21.937 0.577779 21.9407 0.570176 21.9445C0.486198 21.0616 0.448742 20.1743 0.402474 19.2889C0.40203 19.2804 0.401586 19.2719 0.401128 19.2632C0.386656 18.9863 0.372263 18.7094 0.357935 18.4325C0.355964 18.3944 0.353992 18.3564 0.352018 18.3183C0.314061 17.5858 0.314061 17.5858 0.30068 17.3005C0.29974 17.2804 0.298788 17.2604 0.297824 17.2404C0.292563 17.1305 0.289442 17.0212 0.290673 16.9111Z" fill="#9A9A9A"/>
<path d="M0.27948 10.6222C0.428548 10.6963 0.577617 10.7703 0.726685 10.8444C0.728514 11.1196 0.729893 11.3947 0.73074 11.6699C0.731143 11.7977 0.731693 11.9255 0.732589 12.0532C0.733369 12.1646 0.733874 12.276 0.734048 12.3873C0.73415 12.4463 0.73439 12.5052 0.734959 12.5642C0.735492 12.6197 0.735654 12.6752 0.735537 12.7308C0.735558 12.7511 0.735714 12.7715 0.736014 12.7918C0.738442 12.9648 0.738442 12.9648 0.689139 13.0216C0.675872 13.0332 0.662311 13.0446 0.648424 13.0555C0.636818 13.0677 0.625372 13.0801 0.614185 13.0927C0.603247 13.1044 0.592299 13.1161 0.581343 13.1277C0.539063 13.173 0.497426 13.2187 0.456746 13.2654C0.428809 13.297 0.400291 13.328 0.371716 13.359C0.363792 13.3676 0.363792 13.3676 0.355707 13.3764C0.330791 13.4033 0.305534 13.4296 0.27948 13.4555C0.27948 12.5205 0.27948 11.5855 0.27948 10.6222Z" fill="#BDBDBD"/>
<path d="M26.0721 10.2667C26.0758 10.2667 26.0795 10.2667 26.0833 10.2667C26.0833 11.275 26.0833 12.2833 26.0833 13.3222C25.9596 13.264 25.8363 13.206 25.7143 13.1444C25.7106 12.8352 25.7079 12.5259 25.7062 12.2166C25.7054 12.073 25.7043 11.9294 25.7025 11.7858C25.7009 11.6605 25.6999 11.5353 25.6996 11.41C25.6994 11.3437 25.6989 11.2775 25.6978 11.2112C25.6967 11.1487 25.6964 11.0862 25.6966 11.0237C25.6966 11.0009 25.6963 10.9781 25.6957 10.9553C25.6913 10.783 25.7372 10.6865 25.8506 10.557C25.8836 10.5184 25.9134 10.4776 25.9435 10.4368C25.9588 10.4166 25.9741 10.3963 25.9894 10.3762C26.0008 10.3611 26.0121 10.3459 26.0233 10.3307C26.0294 10.3226 26.0354 10.3144 26.0417 10.306C26.05 10.2948 26.05 10.2948 26.0585 10.2833C26.0652 10.275 26.0652 10.275 26.0721 10.2667Z" fill="#1F1F1F"/>
<path d="M25.7031 10.7556C25.7068 10.7556 25.7105 10.7556 25.7143 10.7556C25.7143 11.5439 25.7143 12.3322 25.7143 13.1444C25.7364 13.1518 25.7586 13.1591 25.7814 13.1667C25.8048 13.1774 25.8281 13.1885 25.8511 13.2C25.8704 13.2096 25.8704 13.2096 25.8901 13.2194C25.8967 13.2227 25.9032 13.226 25.91 13.2294C25.9303 13.2396 25.9507 13.2498 25.971 13.2599C26.0705 13.3095 26.0705 13.3095 26.0832 13.3222C26.0841 13.3465 26.0842 13.3708 26.0839 13.3951C26.0838 13.4084 26.0837 13.4217 26.0836 13.4355C26.0835 13.4458 26.0834 13.4561 26.0832 13.4667C26.039 13.4593 25.9947 13.452 25.9491 13.4444C25.9528 13.4371 25.9565 13.4298 25.9603 13.4222C25.7942 13.3562 25.6282 13.2902 25.4572 13.2222C25.4539 12.9473 25.4512 12.6725 25.4496 12.3976C25.4489 12.2699 25.4479 12.1422 25.4462 12.0146C25.4447 11.9033 25.4438 11.7919 25.4435 11.6806C25.4433 11.6217 25.4429 11.5628 25.4418 11.5039C25.4408 11.4484 25.4405 11.3928 25.4407 11.3372C25.4407 11.317 25.4404 11.2967 25.4398 11.2765C25.4357 11.1202 25.4801 11.0366 25.5844 10.921C25.6129 10.8879 25.6371 10.8522 25.6612 10.816C25.6749 10.7957 25.6888 10.7754 25.7031 10.7556Z" fill="#9A9A9A"/>
<path d="M25.8336 13.1903C25.8405 13.1937 25.8473 13.1971 25.8543 13.2006C25.8686 13.2078 25.8829 13.215 25.8972 13.2222C25.9191 13.2334 25.9411 13.2444 25.9631 13.2554C26.07 13.3091 26.07 13.3091 26.0832 13.3222C26.084 13.3465 26.0842 13.3708 26.0839 13.3951C26.0838 13.4084 26.0837 13.4217 26.0836 13.4354C26.0835 13.4457 26.0834 13.456 26.0832 13.4667C26.0168 13.4557 26.0168 13.4557 25.9491 13.4444C25.9527 13.4371 25.9564 13.4298 25.9602 13.4222C25.9544 13.4199 25.9485 13.4176 25.9425 13.4152C25.8817 13.3911 25.821 13.367 25.7602 13.3427C25.7375 13.3337 25.7148 13.3247 25.6921 13.3157C25.6596 13.3028 25.627 13.2898 25.5945 13.2768C25.5843 13.2728 25.5741 13.2688 25.5635 13.2646C25.5541 13.2609 25.5447 13.2571 25.535 13.2532C25.5267 13.2499 25.5184 13.2466 25.5098 13.2432C25.4907 13.2333 25.4907 13.2333 25.4795 13.2111C25.5134 13.1995 25.5475 13.1883 25.5815 13.1771C25.5911 13.1738 25.6006 13.1705 25.6105 13.1671C25.6199 13.1641 25.6292 13.1611 25.6389 13.1579C25.6474 13.1551 25.656 13.1522 25.6648 13.1493C25.7283 13.1379 25.7779 13.1622 25.8336 13.1903Z" fill="#777777"/>
<path d="M19.0509 9.72223C19.1636 9.74115 19.2752 9.76182 19.3863 9.7889C19.3863 9.79256 19.3863 9.79623 19.3863 9.80001C19.273 9.7936 19.1625 9.77516 19.0509 9.75556C19.0509 9.74456 19.0509 9.73356 19.0509 9.72223Z" fill="#ABABAB"/>
<path d="M10.4423 7.61108C10.5711 7.62179 10.5711 7.62179 10.6323 7.63331C10.6213 7.63881 10.6213 7.63881 10.61 7.64442C10.61 7.65175 10.61 7.65908 10.61 7.66664C10.5883 7.66163 10.5666 7.65652 10.545 7.65136C10.5329 7.64853 10.5209 7.64569 10.5084 7.64277C10.4758 7.63331 10.4758 7.63331 10.4423 7.61108Z" fill="#ADADAD"/>
<path d="M19.0509 9.72223C19.1062 9.73323 19.1062 9.73323 19.1627 9.74445C19.1627 9.75178 19.1627 9.75912 19.1627 9.76667C19.1258 9.76301 19.0889 9.75934 19.0509 9.75556C19.0509 9.74456 19.0509 9.73356 19.0509 9.72223Z" fill="#9F9F9F"/>
<path d="M23.5454 22.8C23.5527 22.8037 23.5601 22.8073 23.5677 22.8111C23.5603 22.8184 23.553 22.8258 23.5454 22.8333C23.5527 22.8407 23.5601 22.848 23.5677 22.8555C23.5382 22.8592 23.5087 22.8629 23.4783 22.8667C23.5006 22.8444 23.523 22.8222 23.5454 22.8Z" fill="#4E4E4E"/>
</g>
<defs>
<clipPath id="clip0_1794_4341">
<rect width="27" height="24" fill="white"/>
</clipPath>
</defs>
</svg>
