<svg width="24" height="20" viewBox="0 0 24 24" fill="none" xmlns="http://www.w3.org/2000/svg">
<g clip-path="url(#clip0_1794_4308)">
<path d="M12 23.85L15.33 5.12251C18.5025 5.12251 19.5075 5.47501 19.65 6.89251C19.65 6.89251 21.78 6.09751 22.8525 4.48501C18.66 2.54251 14.4525 2.45251 14.4525 2.45251L11.9925 5.44501H12L9.53995 2.45251C9.53995 2.45251 5.33245 2.54251 1.13995 4.48501C2.21245 6.09751 4.34245 6.89251 4.34245 6.89251C4.49245 5.47501 5.48995 5.12251 8.63995 5.12251L12 23.85Z" fill="black"/>
<path d="M12 1.59002C15.39 1.56002 19.26 2.11502 23.235 3.84752C23.7675 2.89502 23.9025 2.46752 23.9025 2.46752C20.115 0.960025 16.08 0.172524 12 0.150024C7.91997 0.172524 3.88497 0.960025 0.0974731 2.46752C0.292473 2.94002 0.509973 3.39752 0.764973 3.84752C4.73247 2.11502 8.60997 1.56752 12 1.59002Z" fill="black"/>
</g>
<defs>
<clipPath id="clip0_1794_4308">
<rect width="24" height="24" fill="white"/>
</clipPath>
</defs>
</svg>
