<svg width="24" height="24" viewBox="0 0 24 24" fill="none" xmlns="http://www.w3.org/2000/svg">
<path d="M11.9693 4.36206C5.42627 4.36206 0.0875854 7.77812 0.0875854 11.9694C0.0875854 16.1606 5.42627 19.5767 11.9693 19.5767C18.5124 19.5767 23.8511 16.1606 23.8511 11.9694C23.8511 7.77812 18.5124 4.36206 11.9693 4.36206ZM15.2584 5.77228C16.3095 5.97374 17.2949 6.27155 18.1796 6.64819C18.9416 7.04235 19.3883 7.50659 19.3883 8.01024C19.3883 9.02629 17.5664 9.90659 14.965 10.292C14.7854 8.32994 14.3036 6.65257 13.6555 5.57958C14.2161 5.62337 14.7504 5.68907 15.2584 5.77228ZM11.9693 5.51389C12.9547 5.51389 13.7825 7.60294 14.0146 10.4102C13.362 10.4715 12.6788 10.5066 11.9693 10.5066C11.2598 10.5066 10.5723 10.4715 9.92408 10.4102C10.1562 7.59856 10.9883 5.51389 11.9693 5.51389ZM5.75912 6.64819C6.64379 6.27155 7.62919 5.97812 8.68029 5.77228C9.18394 5.68907 9.72262 5.62337 10.2832 5.57958C9.63503 6.65257 9.15328 8.33432 8.97372 10.292C6.37226 9.90221 4.55036 9.02629 4.55036 8.01024C4.55036 7.50659 4.99707 7.03797 5.75912 6.64819ZM1.14306 11.9694C1.14306 10.4409 2.02773 9.03505 3.50364 7.92264C3.49926 7.9752 3.49488 8.02775 3.49488 8.08031C3.49488 9.57374 5.74598 10.857 8.90802 11.3694C8.89926 11.584 8.89926 11.7986 8.89926 12.0175C8.89926 14.6628 9.43357 17.0015 10.2482 18.3898C5.0978 17.8949 1.14306 15.2015 1.14306 11.9694ZM12.2321 18.473C12.1445 18.473 12.0569 18.473 11.9693 18.473C11.8817 18.473 11.7942 18.473 11.7066 18.473C10.6642 18.0745 9.85401 15.3285 9.85401 12.0175C9.85401 11.8424 9.85839 11.6715 9.86277 11.5007C10.5372 11.5708 11.2423 11.6102 11.9693 11.6102C12.6963 11.6102 13.4015 11.5708 14.0759 11.5007C14.0803 11.6715 14.0847 11.8467 14.0847 12.0175C14.0803 15.3285 13.2701 18.0745 12.2321 18.473ZM13.6905 18.3942C14.5051 17.0059 15.0394 14.6672 15.0394 12.0219C15.0394 11.8029 15.035 11.5883 15.0307 11.3737C18.1927 10.8613 20.4438 9.57812 20.4438 8.08469C20.4438 8.03213 20.4394 7.97958 20.435 7.92702C21.9109 9.03943 22.7956 10.4453 22.7956 11.9737C22.7956 15.2015 18.8409 17.8949 13.6905 18.3942Z" fill="black"/>
</svg>
