<svg width="24" height="24" viewBox="0 0 24 24" fill="none" xmlns="http://www.w3.org/2000/svg">
<path fill-rule="evenodd" clip-rule="evenodd" d="M12.0046 22.4998C17.8025 22.4998 22.5 17.8024 22.5 12.0046C22.5 6.19746 17.8025 1.5 12.0046 1.5C6.20671 1.5 1.5 6.19746 1.5 12.0046C1.5 17.8024 6.20671 22.4998 12.0046 22.4998Z" fill="url(#paint0_linear_1794_4242)"/>
<path fill-rule="evenodd" clip-rule="evenodd" d="M6.39181 17.5434C7.05339 18.2048 7.82257 18.7488 8.66655 19.1522L6.39181 13.9371L4.49618 9.591C4.24651 10.3493 4.11706 11.163 4.11706 12.0044C4.11706 14.159 4.98627 16.1194 6.39181 17.5434ZM17.6175 19.5593C19.92 17.8485 21.418 15.1021 21.418 12.0044C21.418 8.9067 19.92 6.16037 17.6175 4.44043C16.0455 3.27531 14.1037 2.58179 12.0047 2.58179C9.90562 2.58179 7.9638 3.27531 6.39181 4.44043C4.08931 6.16037 2.59131 8.9067 2.59131 12.0044C2.59131 15.1021 4.08931 17.8485 6.39181 19.5593C7.9638 20.7242 9.90562 21.4179 12.0047 21.4179C14.1037 21.4179 16.0455 20.7244 17.6175 19.5593ZM17.6175 6.46552C17.8978 6.74605 18.1545 7.04913 18.3851 7.37172L17.6175 9.14715L14.7233 15.7957L13.2253 12.3836H10.7841L9.28612 15.7957L6.39181 9.14715L5.62432 7.37172C5.85485 7.04911 6.11155 6.74601 6.39181 6.46552C6.87202 5.97524 7.41636 5.5522 8.01 5.20793L10.7471 11.5791H13.2622L15.9993 5.20793C16.5929 5.5522 17.1373 5.97524 17.6175 6.46552ZM17.6175 13.9371L19.5131 9.591C19.7629 10.3493 19.8924 11.163 19.8924 12.0044C19.8924 14.1589 19.0231 16.1194 17.6175 17.5434C16.956 18.2048 16.1868 18.7488 15.3429 19.1522L17.6175 13.9371ZM12.0047 14.5474L14.2056 19.5685C13.4907 19.7777 12.7496 19.8835 12.0047 19.8829C11.2599 19.8835 10.5188 19.7777 9.80392 19.5685L12.0047 14.5474ZM12.0047 9.60945L14.2703 4.44968C13.5582 4.22775 12.7907 4.11679 12.0047 4.11679C11.2187 4.11679 10.4605 4.22775 9.7392 4.44968L12.0047 9.60945Z" fill="white"/>
<defs>
<linearGradient id="paint0_linear_1794_4242" x1="1.50323" y1="1.50322" x2="22.4966" y2="22.4966" gradientUnits="userSpaceOnUse">
<stop stop-color="#2088FA"/>
<stop offset="1" stop-color="#032B5C"/>
</linearGradient>
</defs>
</svg>
