<svg width="24" height="24" viewBox="0 0 24 24" fill="none" xmlns="http://www.w3.org/2000/svg">
<path d="M11.9999 1.5C14.3333 1.5 16.495 2.31128 18.2107 3.65294L19.343 2.48824L21.3332 4.5353L20.2009 5.73529C21.4705 7.5 22.1911 9.65295 22.1911 11.9824C22.1911 17.7706 17.6273 22.5 11.9999 22.5C6.37244 22.5 1.80872 17.7706 1.80872 11.9824C1.80872 6.19363 6.37244 1.5 11.9999 1.5ZM11.9999 3.97059C7.71068 3.97059 4.21068 7.57057 4.21068 11.9824C4.21068 16.4294 7.71068 19.9941 11.9999 19.9941C16.2891 19.9941 19.7891 16.4294 19.7891 11.9824C19.7891 7.57057 16.2891 3.97059 11.9999 3.97059Z" fill="url(#paint0_radial_1794_4298)"/>
<path d="M11.9999 4.00598C16.2891 4.00598 19.7891 7.57065 19.7891 12.0182C19.7891 16.43 16.2891 20.03 11.9999 20.03C7.71067 20.03 4.21069 16.4295 4.21069 12.0178C4.21069 7.57072 7.71067 4.00598 11.9999 4.00598ZM11.9999 5.13539C8.32837 5.13539 5.34304 8.20597 5.34304 12.0178C5.34304 15.7937 8.32837 18.8648 11.9999 18.8648C15.6715 18.8648 18.6568 15.7937 18.6568 12.0178C18.6568 8.20597 15.6715 5.13539 11.9999 5.13539Z" fill="url(#paint1_radial_1794_4298)"/>
<path d="M22.1569 9.33545C22.3972 10.1829 22.5001 11.0648 22.5001 11.9825C22.5001 12.9354 22.3628 13.8525 22.1569 14.7354H1.87756V14.7001H22.1227C22.3628 13.8177 22.4658 12.9001 22.4658 11.9472C22.4658 11.0295 22.3628 10.1472 22.1569 9.33545Z" fill="black"/>
<path d="M1.84314 9.29993H22.1569C22.3627 10.147 22.4652 11.0288 22.4652 11.9465C22.4652 12.8994 22.3623 13.8171 22.1221 14.6994H1.87745C1.62968 13.8041 1.50268 12.878 1.5 11.947C1.5 11.0294 1.63726 10.147 1.84314 9.29993Z" fill="url(#paint2_radial_1794_4298)"/>
<path d="M19.7548 1.78198L22.0195 4.11188L20.3381 5.84129L20.4411 5.98247L19.24 6.97021L18.8626 7.11188L21.3332 4.53541L19.343 2.48835L16.8724 5.02953L16.9753 4.67658L19.7548 1.78198Z" fill="url(#paint3_linear_1794_4298)"/>
<path d="M17.4023 1.67122C19.3925 2.76533 20.9844 4.39958 22.082 6.41134L22.1921 6.3434L22.181 1.57609L17.5034 1.54211L17.4023 1.67122Z" fill="#E9E9E3"/>
<path d="M17.5031 1.5423C19.4933 2.63643 21.0931 4.32376 22.1906 6.33552V1.53552L17.5031 1.5423Z" fill="url(#paint4_radial_1794_4298)"/>
<path d="M19.343 13.3032C18.4271 13.3032 17.6822 12.7262 17.6822 12.0179C17.6822 11.3091 18.4271 10.7326 19.343 10.7326C20.2781 10.7326 21.0387 11.3091 21.0387 12.0179C21.0387 12.7267 20.2781 13.3032 19.343 13.3032ZM19.343 11.115C19.0137 11.115 18.774 11.4948 18.774 12.0183C18.774 12.513 19.019 12.886 19.343 12.886C19.6509 12.886 19.9121 12.4884 19.9121 12.0183C19.9125 11.5198 19.6566 11.115 19.343 11.115ZM8.91165 13.3032C7.99515 13.3032 7.25029 12.7262 7.25029 12.0179C7.25029 11.34 8.0109 10.7674 8.91165 10.7674C9.84668 10.7674 10.6073 11.3286 10.6073 12.0179C10.6073 12.7267 9.84668 13.3032 8.91165 13.3032ZM8.91165 11.1502C8.5866 11.1502 8.34263 11.5233 8.34263 12.0183C8.34263 12.513 8.58758 12.886 8.91165 12.886C9.21953 12.886 9.48023 12.4884 9.48023 12.0183C9.48023 11.5482 9.2205 11.1502 8.91165 11.1502ZM15.0195 13.2326L13.9434 11.1782L13.4072 11.1865L13.3929 10.8541L15.7406 10.8394L15.7549 11.1718L15.1572 11.1865L15.9931 12.6115L16.6885 11.1649L16.2896 11.186L16.2753 10.8537L17.9024 10.839L17.9166 11.1713L17.3533 11.186L16.2982 13.233L15.0195 13.2326ZM10.7303 13.2326L10.716 12.8296L11.2798 12.8154L11.2655 11.1713L10.7308 11.186L10.7165 10.8537L12.8925 10.839L12.9068 11.1713L12.343 11.186L12.3573 12.8301L12.9263 12.8159C13.1113 12.8159 13.5983 12.6914 13.6322 12.1238L13.9896 12.1101L14.0039 13.2336H10.7303V13.2326ZM4.58812 13.2326L3.512 11.1782L2.97584 11.1865L2.96155 10.8541L5.30918 10.8394L5.32348 11.1718L4.72585 11.1865L5.56177 12.6115L6.29189 11.1649L5.8582 11.1865L5.8439 10.8541L7.47095 10.8394L7.48524 11.1718L6.92145 11.1865L5.8663 13.2336L4.58812 13.2326Z" fill="white"/>
<path d="M1.88049 9.34058C1.67461 10.1876 1.53735 11.0695 1.53735 11.9872C1.53735 12.0632 1.56261 12.5126 1.565 12.5886L1.62457 13.2705C1.62362 13.2156 1.59693 12.1043 1.59693 12.0489C1.59693 11.1313 1.74562 10.2808 1.9515 9.4332L9.13973 9.40283L12.2423 9.34155L1.88049 9.34058Z" fill="url(#paint5_linear_1794_4298)"/>
<defs>
<radialGradient id="paint0_radial_1794_4298" cx="0" cy="0" r="1" gradientUnits="userSpaceOnUse" gradientTransform="translate(4.71299 9.91568) scale(21.2864 21.8946)">
<stop stop-color="white"/>
<stop offset="0.041" stop-color="#FAFAF8"/>
<stop offset="0.225" stop-color="#F8F8F5"/>
<stop offset="0.287" stop-color="#DADAD7"/>
<stop offset="0.413" stop-color="#A3A4A1"/>
<stop offset="0.52" stop-color="#7E7F7D"/>
<stop offset="0.6" stop-color="#686866"/>
<stop offset="0.646" stop-color="#5F5F5D"/>
<stop offset="0.739" stop-color="#565754"/>
<stop offset="0.899" stop-color="#3B3A37"/>
<stop offset="1"/>
</radialGradient>
<radialGradient id="paint1_radial_1794_4298" cx="0" cy="0" r="1" gradientUnits="userSpaceOnUse" gradientTransform="translate(15.6748 15.7976) scale(16.4048 16.8735)">
<stop stop-color="white"/>
<stop offset="0.157" stop-color="#F1F1F2"/>
<stop offset="0.298" stop-color="#E4E4E5"/>
<stop offset="0.335" stop-color="#CECFCE"/>
<stop offset="0.4" stop-color="#AEAFAC"/>
<stop offset="0.464" stop-color="#969694"/>
<stop offset="0.526" stop-color="#858683"/>
<stop offset="0.586" stop-color="#7C7C79"/>
<stop offset="0.64" stop-color="#787976"/>
<stop offset="0.738" stop-color="#5E5E5B"/>
<stop offset="0.846" stop-color="#43423F"/>
<stop offset="0.937" stop-color="#1F1F1E"/>
<stop offset="1"/>
</radialGradient>
<radialGradient id="paint2_radial_1794_4298" cx="0" cy="0" r="1" gradientUnits="userSpaceOnUse" gradientTransform="translate(2.4503 9.91613) scale(13.2437 13.622)">
<stop stop-color="#1E71B8"/>
<stop offset="0.082" stop-color="#1C69AB"/>
<stop offset="0.166" stop-color="#1B64A4"/>
<stop offset="0.242" stop-color="#1A63A1"/>
<stop offset="0.392" stop-color="#185D98"/>
<stop offset="0.685" stop-color="#0F4D80"/>
<stop offset="0.837" stop-color="#004472"/>
<stop offset="0.933" stop-color="#014472"/>
<stop offset="0.968" stop-color="#064271"/>
<stop offset="0.993" stop-color="#0D3F6F"/>
<stop offset="1" stop-color="#0F3D6E"/>
</radialGradient>
<linearGradient id="paint3_linear_1794_4298" x1="21.8193" y1="7.02806" x2="16.5141" y2="1.86969" gradientUnits="userSpaceOnUse">
<stop offset="0.006" stop-color="#121209"/>
<stop offset="0.646" stop-color="#454441"/>
<stop offset="0.65" stop-color="#484845"/>
<stop offset="0.655" stop-color="#535350"/>
<stop offset="0.66" stop-color="#646561"/>
<stop offset="0.664" stop-color="#7B7B77"/>
<stop offset="0.669" stop-color="#969792"/>
<stop offset="0.674" stop-color="#BBBBB7"/>
<stop offset="0.678" stop-color="#E8E7E2"/>
<stop offset="0.68" stop-color="#FBFAF5"/>
<stop offset="0.682" stop-color="#F8F7F2"/>
<stop offset="0.684" stop-color="#F0F0EA"/>
<stop offset="0.685" stop-color="#E4E3DD"/>
<stop offset="0.686" stop-color="#D2D2CC"/>
<stop offset="0.687" stop-color="#BBBCB5"/>
<stop offset="0.689" stop-color="#83847D"/>
<stop offset="0.69" stop-color="#6D6D67"/>
<stop offset="0.706" stop-color="#5F5F5B"/>
<stop offset="0.732" stop-color="#4D4D4B"/>
<stop offset="0.762" stop-color="#3B3A3A"/>
<stop offset="0.8" stop-color="#242324"/>
<stop offset="0.853" stop-color="#101010"/>
<stop offset="1"/>
</linearGradient>
<radialGradient id="paint4_radial_1794_4298" cx="0" cy="0" r="1" gradientUnits="userSpaceOnUse" gradientTransform="translate(21.3943 2.07278) scale(5.53452 5.69265)">
<stop stop-color="#575652"/>
<stop offset="1" stop-color="#52524E"/>
</radialGradient>
<linearGradient id="paint5_linear_1794_4298" x1="4.30533" y1="7.64888" x2="7.51733" y2="11.8727" gradientUnits="userSpaceOnUse">
<stop stop-color="white"/>
<stop offset="0.109" stop-color="#D5DDF0"/>
<stop offset="0.338" stop-color="#94ADD9"/>
<stop offset="0.542" stop-color="#668FC9"/>
<stop offset="0.714" stop-color="#447DBF"/>
<stop offset="0.848" stop-color="#2A74BA"/>
<stop offset="0.927" stop-color="#1E71B8"/>
<stop offset="0.947" stop-color="#4079BC"/>
<stop offset="0.967" stop-color="#5580C0"/>
<stop offset="0.985" stop-color="#6085C2"/>
<stop offset="1" stop-color="#6486C3"/>
</linearGradient>
</defs>
</svg>
